<svg width="350" height="175" viewBox="0 0 350 175" fill="none" xmlns="http://www.w3.org/2000/svg">
<path d="M77.2214 0.0938244C78.6659 0.0959177 80.1104 0.0917624 81.5549 0.0884515C84.0801 0.0835135 86.6052 0.0825063 89.1304 0.0841564C92.8853 0.0866036 96.6402 0.0829219 100.395 0.0781072C107.491 0.0692422 114.586 0.0676082 121.682 0.0682853C127.158 0.0687756 132.635 0.0674107 138.111 0.0647448C138.899 0.0643701 139.686 0.0639964 140.474 0.0636236C140.865 0.0634384 141.256 0.0632531 141.659 0.0630622C142.246 0.0627839 142.246 0.0627839 142.845 0.0625C143.434 0.0622196 143.434 0.0622196 144.034 0.0619336C155.06 0.0567354 166.085 0.0537752 177.111 0.0554234C177.734 0.0555154 177.734 0.0555154 178.369 0.0556093C180.474 0.0559263 182.578 0.0562634 184.683 0.0566074C185.31 0.0567096 185.31 0.0567096 185.949 0.0568139C186.794 0.056952 187.639 0.0570912 188.485 0.0572316C201.652 0.0593639 214.82 0.0538406 227.987 0.0423898C242.786 0.0295318 257.584 0.0226221 272.382 0.0243891C273.958 0.0245568 275.535 0.0247031 277.111 0.0248356C277.693 0.0248904 277.693 0.0248904 278.287 0.0249463C284.153 0.025373 290.019 0.0210975 295.885 0.0144393C302.55 0.0068784 309.214 0.00547533 315.879 0.0124058C319.611 0.0160998 323.342 0.014825 327.074 0.00650887C329.564 0.00145119 332.053 0.00282285 334.543 0.00952167C335.963 0.01316 337.383 0.0139277 338.804 0.00691021C340.095 0.000589663 341.385 0.00240435 342.676 0.0108443C343.362 0.0131927 344.047 0.0067492 344.733 0C347.658 0.0308865 347.658 0.0308865 349.145 0.977552C349.924 2.28897 349.987 3.11746 349.987 4.64152C349.989 4.90333 349.992 5.16515 349.994 5.4349C350.001 6.31499 349.994 7.19452 349.988 8.0746C349.989 8.71077 349.992 9.34694 349.995 9.98311C350.002 11.7334 349.998 13.4835 349.991 15.2338C349.987 17.1206 349.992 19.0073 349.996 20.894C350.003 24.5909 350 28.2876 349.993 31.9845C349.988 34.9881 349.987 37.9916 349.988 40.9952C349.989 41.6358 349.989 41.6358 349.989 42.2893C349.989 43.1567 349.99 44.0242 349.99 44.8916C349.993 52.5663 349.987 60.241 349.976 67.9158C349.966 75.3683 349.964 82.8207 349.969 90.2732C349.975 98.383 349.977 106.493 349.97 114.602C349.97 115.467 349.969 116.331 349.968 117.195C349.968 117.62 349.968 118.045 349.967 118.484C349.965 121.485 349.967 124.486 349.969 127.487C349.972 131.143 349.969 134.799 349.96 138.454C349.956 140.321 349.954 142.187 349.958 144.053C349.961 145.76 349.958 147.467 349.95 149.174C349.948 149.793 349.949 150.412 349.952 151.031C349.956 151.869 349.951 152.707 349.944 153.546C349.944 154.012 349.943 154.479 349.943 154.96C349.733 156.322 349.425 156.733 348.337 157.55C347.281 157.936 347.281 157.936 345.984 158.236C345.739 158.293 345.494 158.35 345.242 158.409C341.241 159.321 337.205 160.079 333.176 160.85C332.73 160.935 332.283 161.021 331.823 161.109C300.002 167.205 267.85 171.182 235.523 173.313C234.896 173.355 234.896 173.355 234.256 173.398C231.023 173.613 227.79 173.795 224.554 173.959C224.253 173.975 223.953 173.99 223.643 174.006C210.651 174.669 197.676 174.786 184.671 174.764C182.85 174.762 181.028 174.763 179.206 174.766C165.888 174.787 152.603 174.606 139.298 173.959C139.007 173.945 138.716 173.931 138.417 173.917C134.911 173.75 131.408 173.554 127.905 173.335C127.421 173.305 126.938 173.275 126.455 173.246C97.9172 171.478 69.4763 168.442 11.4789 159.564C10.6698 159.426 9.86043 159.29 9.05092 159.155C7.94431 158.97 6.83868 158.78 5.73321 158.588C5.24892 158.508 5.24892 158.508 4.75485 158.426C3.14783 158.141 1.85935 157.854 0.532871 156.837C0.124982 156.021 0.130439 155.569 0.128271 154.662C0.126681 154.354 0.125092 154.046 0.123454 153.729C0.123553 153.219 0.123549 153.219 0.12365 152.698C0.122338 152.338 0.121028 151.978 0.119677 151.607C0.115727 150.393 0.114365 149.179 0.113009 147.964C0.110775 147.097 0.108404 146.229 0.105905 145.361C0.0990324 142.748 0.0952605 140.136 0.0920907 137.523C0.0905261 136.289 0.0886134 135.056 0.0867455 133.823C0.0806712 129.717 0.0755011 125.61 0.0729199 121.504C0.0722387 120.438 0.0715547 119.371 0.070857 118.305C0.0706844 118.04 0.0705122 117.775 0.0703344 117.502C0.0673863 113.228 0.0583719 108.953 0.0467493 104.679C0.0348879 100.281 0.0285219 95.8828 0.0273881 91.4845C0.0266209 89.0193 0.0235814 86.5542 0.0143844 84.089C0.00572345 81.7621 0.00460142 79.4354 0.00823364 77.1085C0.00840845 76.2615 0.00620877 75.4144 0.00125553 74.5674C-0.0685218 61.9104 2.76927 49.9236 8.73747 38.7617C8.85243 38.5456 8.96739 38.3294 9.08583 38.1068C14.119 28.736 21.5204 20.3656 30.1408 14.1479C30.3364 14.0039 30.5321 13.86 30.7337 13.7117C38.2473 8.23284 46.8941 4.41278 55.8693 2.08622C56.2448 1.98828 56.2448 1.98828 56.6278 1.88836C57.5452 1.66786 58.4658 1.4865 59.392 1.3059C59.8371 1.21757 60.2822 1.12924 60.7407 1.03823C66.2103 0.0451519 71.6836 0.0812109 77.2214 0.0938244Z" fill="#00AAEA"/>
<path d="M59.6694 11.8277C60.0926 11.824 60.5158 11.8203 60.9518 11.8165C61.6499 11.8212 61.6499 11.8212 62.3621 11.8261C62.8612 11.8245 63.3602 11.8222 63.8592 11.8194C65.232 11.8134 66.6047 11.8164 67.9776 11.8208C69.4575 11.824 70.9374 11.819 72.4173 11.8151C75.3171 11.8087 78.2168 11.8101 81.1166 11.8143C83.4728 11.8175 85.8289 11.8179 88.1851 11.8164C88.5201 11.8161 88.8551 11.8159 89.2003 11.8157C89.8808 11.8152 90.5613 11.8148 91.2418 11.8143C97.627 11.8102 104.012 11.8149 110.397 11.8226C115.879 11.829 121.361 11.8279 126.842 11.8213C133.204 11.8137 139.566 11.8106 145.928 11.815C146.606 11.8155 147.284 11.8159 147.962 11.8164C148.296 11.8166 148.629 11.8168 148.973 11.817C151.327 11.8183 153.681 11.8162 156.035 11.8128C158.903 11.8088 161.771 11.8099 164.638 11.8175C166.102 11.8213 167.566 11.8227 169.03 11.818C170.369 11.8138 171.708 11.8161 173.047 11.8237C173.763 11.826 174.479 11.8214 175.195 11.8165C175.83 11.8221 175.83 11.8221 176.478 11.8277C176.844 11.828 177.21 11.8282 177.587 11.8284C178.8 12.0566 179.224 12.4624 179.965 13.4342C180.09 14.3908 180.132 15.1962 180.104 16.1486C180.102 16.4079 180.1 16.6672 180.098 16.9343C180.09 17.7595 180.072 18.5842 180.054 19.4093C180.047 19.9699 180.04 20.5305 180.034 21.0912C180.019 22.463 179.994 23.8344 179.965 25.206C179.766 25.2061 179.568 25.2062 179.363 25.2062C167.597 25.2111 155.83 25.2251 144.064 25.2513C142.652 25.2544 141.239 25.2574 139.827 25.2604C139.405 25.2613 139.405 25.2613 138.975 25.2623C134.42 25.2718 129.866 25.275 125.311 25.2759C120.639 25.277 115.966 25.2849 111.294 25.2989C108.41 25.3074 105.527 25.3106 102.643 25.3071C100.432 25.305 98.2224 25.3123 96.0123 25.323C95.1047 25.326 94.1972 25.3259 93.2897 25.3225C92.0529 25.3184 90.8167 25.3252 89.58 25.3347C89.2187 25.3309 88.8575 25.3271 88.4853 25.3232C86.8682 25.3465 86.0348 25.3948 84.6756 26.3283C83.8873 27.5279 83.7833 28.1665 83.7825 29.5938C83.7758 30.2734 83.7758 30.2734 83.7689 30.9668C83.7729 31.4662 83.7771 31.9657 83.7815 32.4652C83.7797 32.9932 83.7771 33.5213 83.7738 34.0493C83.7672 35.4814 83.7718 36.9133 83.7788 38.3454C83.7846 39.8447 83.7815 41.344 83.7797 42.8433C83.7781 45.3611 83.7837 47.8788 83.7937 50.3965C83.8051 53.3066 83.8051 56.2164 83.799 59.1265C83.7933 61.9269 83.7957 64.7273 83.8018 67.5278C83.8043 68.7191 83.8039 69.9104 83.8013 71.1017C83.7985 72.5048 83.8028 73.9078 83.8126 75.3109C83.8151 75.8256 83.8151 76.3402 83.8125 76.8549C83.8094 77.5579 83.816 78.2609 83.823 78.9639C83.824 79.3572 83.825 79.7504 83.8261 80.1556C84.0656 81.5562 84.3244 82.0887 85.4335 82.9949C86.6853 83.2613 87.9182 83.2363 89.1939 83.223C89.5811 83.2259 89.9684 83.2289 90.3673 83.232C91.6694 83.2399 92.9711 83.235 94.2732 83.2302C95.2047 83.2332 96.1363 83.237 97.0678 83.2415C99.0756 83.25 101.083 83.252 103.091 83.2496C105.994 83.2461 108.897 83.2524 111.8 83.2611C116.51 83.275 121.219 83.2809 125.929 83.2819C130.505 83.2828 135.08 83.2875 139.655 83.2972C139.937 83.2978 140.219 83.2984 140.51 83.299C141.924 83.3021 143.339 83.3051 144.754 83.3083C156.491 83.3341 168.228 83.3471 179.965 83.3517C179.99 87.6525 180.009 91.9533 180.02 96.2542C180.026 98.2512 180.033 100.248 180.046 102.245C180.057 104.172 180.064 106.099 180.066 108.025C180.068 108.761 180.072 109.496 180.078 110.232C180.086 111.261 180.087 112.29 180.086 113.319C180.09 113.625 180.094 113.93 180.098 114.244C180.096 114.525 180.095 114.806 180.093 115.096C180.094 115.339 180.095 115.582 180.096 115.833C179.912 116.803 179.602 117.266 178.895 117.954C177.983 118.133 177.983 118.133 176.866 118.133C176.441 118.137 176.016 118.141 175.578 118.145C175.108 118.141 174.639 118.138 174.155 118.135C173.653 118.137 173.151 118.139 172.649 118.142C171.267 118.148 169.885 118.145 168.502 118.14C167.012 118.137 165.523 118.142 164.033 118.146C161.114 118.152 158.194 118.151 155.275 118.147C152.903 118.143 150.531 118.143 148.159 118.145C147.822 118.145 147.485 118.145 147.137 118.145C146.452 118.146 145.767 118.146 145.083 118.147C138.656 118.151 132.229 118.146 125.802 118.138C120.283 118.132 114.764 118.133 109.246 118.14C102.842 118.147 96.4388 118.15 90.0354 118.146C89.353 118.145 88.6707 118.145 87.9883 118.145C87.4847 118.144 87.4847 118.144 86.9708 118.144C84.6007 118.143 82.2307 118.145 79.8606 118.148C76.9736 118.152 74.0866 118.151 71.1996 118.143C69.7257 118.14 68.2518 118.138 66.7778 118.143C65.4298 118.147 64.082 118.145 62.7341 118.137C62.0125 118.135 61.2909 118.14 60.5694 118.145C60.1442 118.141 59.719 118.137 59.2809 118.133C58.9124 118.133 58.5439 118.133 58.1642 118.133C57.2525 117.954 57.2525 117.954 56.5991 117.34C56.1159 116.397 56.0479 115.802 56.0467 114.745C56.0437 114.384 56.0406 114.023 56.0375 113.651C56.0397 113.255 56.0418 112.859 56.044 112.451C56.0421 112.03 56.0402 111.609 56.0382 111.175C56.034 110.005 56.0346 108.836 56.0372 107.666C56.0389 106.405 56.0344 105.144 56.0308 103.883C56.0246 101.413 56.0244 98.942 56.0262 96.4715C56.0277 94.4639 56.0272 92.4564 56.0252 90.4489C56.025 90.1634 56.0247 89.8778 56.0244 89.5837C56.0239 89.0037 56.0233 88.4237 56.0228 87.8437C56.0179 82.4028 56.0198 76.9619 56.0239 71.5209C56.0275 66.5405 56.0228 61.5602 56.0143 56.5798C56.0056 51.4684 56.0022 46.3571 56.0046 41.2457C56.0058 38.3751 56.005 35.5044 55.9988 32.6338C55.9935 30.1903 55.9933 27.7468 55.9995 25.3034C56.0025 24.0562 56.0033 22.8091 55.9978 21.5619C55.9932 20.2112 55.9972 18.8607 56.0035 17.51C56.0001 17.114 55.9967 16.718 55.9932 16.31C55.9967 15.9489 56.0002 15.5878 56.0038 15.2158C56.0038 14.904 56.0038 14.5921 56.0039 14.2708C56.4369 12.2408 57.7714 11.8289 59.6694 11.8277Z" fill="#01AAEA"/>
<path d="M87.7606 25.1588C88.1822 25.1575 88.6038 25.1561 89.0381 25.1547C89.5053 25.155 89.9726 25.1553 90.4539 25.1556C90.9521 25.1547 91.4502 25.1536 91.9484 25.1524C93.3221 25.1495 94.6958 25.1489 96.0696 25.1486C97.5493 25.148 99.0289 25.1453 100.509 25.1429C103.746 25.138 106.984 25.1359 110.222 25.1343C112.242 25.1333 114.263 25.1318 116.284 25.1302C121.875 25.1259 127.466 25.1222 133.057 25.121C133.594 25.1209 133.594 25.1209 134.142 25.1207C134.501 25.1207 134.86 25.1206 135.229 25.1205C135.957 25.1203 136.684 25.1202 137.411 25.12C137.772 25.1199 138.133 25.1199 138.505 25.1198C144.352 25.1184 150.2 25.1121 156.047 25.1038C162.047 25.0954 168.046 25.0909 174.045 25.0905C177.415 25.0902 180.786 25.0881 184.156 25.0817C187.025 25.0762 189.895 25.0743 192.764 25.0773C194.229 25.0787 195.693 25.0783 197.158 25.0733C198.498 25.0688 199.838 25.0692 201.179 25.0736C201.894 25.0746 202.61 25.0703 203.326 25.0659C203.962 25.0694 203.962 25.0694 204.612 25.073C205.161 25.0727 205.161 25.0727 205.722 25.0724C206.885 25.2281 207.559 25.5874 208.502 26.2759C208.991 27.2547 208.908 28.0391 208.913 29.1351C208.916 29.5928 208.919 30.0504 208.922 30.5219C208.924 31.032 208.926 31.5421 208.927 32.0521C208.93 32.5871 208.933 33.122 208.936 33.6569C208.945 35.4164 208.951 37.1758 208.956 38.9353C208.958 39.5406 208.96 40.146 208.962 40.7513C208.969 43.2688 208.976 45.7864 208.98 48.3039C208.986 51.914 208.998 55.5239 209.018 59.1339C209.032 61.6711 209.039 64.2083 209.041 66.7456C209.042 68.2615 209.046 69.7774 209.058 71.2933C209.068 72.7195 209.071 74.1456 209.067 75.5718C209.066 76.0951 209.069 76.6185 209.076 77.1417C209.084 77.8565 209.08 78.5713 209.075 79.2861C209.077 79.8859 209.077 79.8859 209.079 80.4979C208.858 81.5678 208.858 81.5678 208.254 82.5879C206.361 83.8131 204.462 83.5979 202.254 83.5803C201.752 83.5826 201.25 83.5857 200.748 83.5894C199.369 83.5976 197.989 83.5946 196.61 83.5898C195.122 83.5865 193.634 83.5934 192.147 83.599C189.232 83.6083 186.318 83.6079 183.404 83.604C181.035 83.601 178.667 83.6012 176.299 83.6039C175.962 83.6043 175.625 83.6047 175.278 83.6051C174.594 83.6058 173.91 83.6066 173.225 83.6074C166.807 83.6143 160.388 83.6101 153.969 83.6021C148.459 83.5956 142.95 83.5995 137.44 83.6108C131.045 83.6239 124.649 83.63 118.254 83.6253C117.572 83.6248 116.89 83.6243 116.208 83.6239C115.873 83.6237 115.537 83.6234 115.192 83.6232C112.826 83.6221 110.46 83.6261 108.094 83.6322C105.212 83.6394 102.329 83.6391 99.4467 83.6291C97.9755 83.6242 96.5045 83.6227 95.0332 83.6305C93.6869 83.6376 92.341 83.6347 90.9948 83.624C90.2759 83.6209 89.557 83.6282 88.8382 83.636C85.8404 83.5982 85.8404 83.5982 84.7486 82.9374C83.6227 81.7325 83.4257 80.5131 83.4248 78.9207C83.4203 78.4671 83.4158 78.0135 83.4111 77.5462C83.4152 77.048 83.4194 76.5499 83.4238 76.0517C83.4219 75.5236 83.4193 74.9955 83.416 74.4674C83.4094 73.0368 83.414 71.6064 83.4211 70.1758C83.4269 68.6775 83.4238 67.1791 83.4219 65.6808C83.4203 63.1651 83.426 60.6496 83.436 58.1339C83.4474 55.2265 83.4474 52.3193 83.4412 49.4119C83.4356 46.6131 83.438 43.8144 83.4441 41.0157C83.4465 39.8254 83.4462 38.6351 83.4435 37.4448C83.4408 36.0431 83.4451 34.6416 83.4549 33.2399C83.4573 32.7259 83.4574 32.2118 83.4548 31.6977C83.4517 30.9955 83.4583 30.2932 83.4653 29.5911C83.4663 29.1983 83.4673 28.8055 83.4683 28.4008C83.6911 27.0997 84.1682 26.5031 85.0758 25.5624C86.0142 25.0932 86.7091 25.1601 87.7606 25.1588Z" fill="#00ABEB"/>
<path d="M76.1711 130.349C76.474 130.347 76.7769 130.346 77.0891 130.344C77.5911 130.346 77.5911 130.346 78.1033 130.348C78.6345 130.347 78.6345 130.347 79.1763 130.345C80.3704 130.342 81.5644 130.345 82.7585 130.347C83.6114 130.346 84.4644 130.345 85.3173 130.343C87.3981 130.34 89.4789 130.34 91.5597 130.343C93.2503 130.344 94.9409 130.344 96.6314 130.344C96.8717 130.343 97.112 130.343 97.3595 130.343C97.8476 130.343 98.3356 130.343 98.8237 130.343C103.404 130.341 107.985 130.343 112.565 130.347C116.498 130.35 120.432 130.349 124.365 130.346C128.929 130.342 133.492 130.341 138.056 130.343C138.542 130.343 139.029 130.343 139.515 130.344C139.874 130.344 139.874 130.344 140.24 130.344C141.929 130.345 143.619 130.343 145.308 130.342C147.58 130.34 149.852 130.341 152.124 130.345C152.96 130.346 153.796 130.346 154.632 130.344C155.769 130.342 156.906 130.345 158.043 130.348C158.378 130.347 158.713 130.345 159.057 130.344C159.512 130.346 159.512 130.346 159.975 130.349C160.238 130.349 160.501 130.35 160.771 130.35C161.415 130.439 161.415 130.439 162.128 131.153C162.219 132.1 162.219 132.1 162.221 133.318C162.223 133.773 162.225 134.227 162.227 134.696C162.226 135.194 162.225 135.693 162.223 136.191C162.224 136.7 162.224 137.209 162.225 137.719C162.226 138.786 162.225 139.854 162.221 140.921C162.217 142.291 162.22 143.661 162.224 145.031C162.226 146.082 162.226 147.134 162.224 148.185C162.223 148.691 162.224 149.196 162.226 149.701C162.227 150.406 162.224 151.112 162.221 151.817C162.22 152.219 162.22 152.621 162.219 153.035C162.128 153.983 162.128 153.983 161.415 154.696C160.771 154.786 160.771 154.786 159.975 154.786C159.521 154.789 159.521 154.789 159.057 154.792C158.723 154.79 158.388 154.788 158.043 154.787C157.689 154.788 157.335 154.789 156.97 154.79C155.776 154.793 154.582 154.791 153.388 154.788C152.535 154.789 151.682 154.791 150.829 154.792C148.748 154.795 146.667 154.795 144.587 154.793C142.896 154.791 141.206 154.791 139.515 154.792C139.275 154.792 139.034 154.792 138.787 154.792C138.299 154.792 137.811 154.792 137.323 154.793C132.742 154.795 128.162 154.792 123.581 154.788C119.648 154.785 115.715 154.786 111.781 154.789C107.218 154.793 102.654 154.794 98.0903 154.792C97.604 154.792 97.1177 154.792 96.6314 154.792C96.3921 154.791 96.1528 154.791 95.9063 154.791C94.217 154.791 92.5278 154.792 90.8386 154.793C88.5665 154.796 86.2945 154.794 84.0224 154.79C83.1863 154.789 82.3502 154.789 81.5141 154.791C80.3772 154.793 79.2403 154.79 78.1033 154.787C77.6013 154.789 77.6013 154.789 77.0891 154.792C76.7861 154.79 76.4832 154.788 76.1711 154.786C75.9084 154.786 75.6457 154.786 75.3751 154.786C74.7315 154.696 74.7315 154.696 74.0181 153.983C73.9275 153.035 73.9275 153.035 73.9258 151.817C73.9235 151.363 73.9213 150.908 73.9189 150.439C73.9202 149.941 73.9217 149.442 73.9233 148.944C73.9228 148.435 73.9221 147.926 73.9213 147.417C73.9202 146.349 73.9217 145.282 73.9251 144.214C73.9291 142.844 73.9268 141.474 73.9225 140.104C73.9199 139.053 73.9208 138.001 73.9226 136.95C73.9231 136.445 73.9225 135.939 73.9208 135.434C73.919 134.729 73.9223 134.023 73.9258 133.318C73.9263 132.916 73.9269 132.514 73.9275 132.1C74.0777 130.528 74.7453 130.35 76.1711 130.349Z" fill="#01ABEB"/>
<path d="M273.199 79.7392C273.535 79.7382 273.871 79.7372 274.217 79.7362C274.775 79.7373 274.775 79.7373 275.344 79.7384C275.733 79.7377 276.122 79.7371 276.523 79.7365C277.816 79.7349 279.11 79.7359 280.403 79.7371C281.298 79.7369 282.192 79.7366 283.086 79.7361C284.964 79.7356 286.841 79.7363 288.718 79.738C290.892 79.74 293.065 79.7393 295.238 79.7374C297.325 79.7355 299.412 79.7357 301.499 79.7368C302.389 79.737 303.278 79.7367 304.168 79.7359C305.409 79.735 306.651 79.7364 307.892 79.7384C308.263 79.7376 308.635 79.7369 309.018 79.7362C309.522 79.7377 309.522 79.7377 310.037 79.7392C310.331 79.7394 310.625 79.7395 310.927 79.7396C311.594 79.7845 311.594 79.7845 311.951 80.1412C311.987 80.6766 311.999 81.2137 312.001 81.7503C312.003 82.0979 312.005 82.4455 312.007 82.8037C312.008 83.3805 312.008 83.3805 312.008 83.9689C312.011 84.5727 312.011 84.5727 312.014 85.1887C312.019 86.5267 312.021 87.8647 312.023 89.2028C312.025 90.1283 312.027 91.0539 312.029 91.9794C312.033 93.6737 312.035 95.3679 312.036 97.0622C312.038 99.5591 312.044 102.056 312.054 104.553C312.063 106.713 312.066 108.872 312.066 111.032C312.067 111.952 312.07 112.873 312.075 113.793C312.081 115.078 312.08 116.362 312.078 117.647C312.081 118.031 312.085 118.415 312.088 118.81C312.086 119.159 312.084 119.507 312.082 119.867C312.083 120.323 312.083 120.323 312.084 120.788C312.04 121.03 311.996 121.272 311.951 121.521C310.829 122.269 310.574 122.324 309.297 122.325C308.973 122.327 308.648 122.329 308.315 122.331C307.782 122.329 307.782 122.329 307.24 122.327C306.678 122.329 306.678 122.329 306.106 122.331C304.866 122.334 303.626 122.332 302.386 122.329C301.527 122.33 300.667 122.33 299.807 122.331C298.004 122.332 296.202 122.331 294.399 122.327C292.085 122.323 289.771 122.326 287.457 122.33C285.681 122.333 283.906 122.332 282.13 122.33C281.277 122.329 280.423 122.33 279.57 122.332C278.379 122.333 277.187 122.331 275.996 122.327C275.464 122.329 275.464 122.329 274.921 122.331C274.597 122.329 274.273 122.327 273.939 122.325C273.516 122.325 273.516 122.325 273.085 122.324C272.355 122.234 272.355 122.234 271.285 121.521C271.152 120.788 271.152 120.788 271.153 119.867C271.151 119.518 271.15 119.169 271.147 118.81C271.151 118.426 271.154 118.043 271.157 117.647C271.157 117.244 271.156 116.841 271.155 116.425C271.154 115.088 271.161 113.75 271.168 112.412C271.169 111.486 271.169 110.56 271.17 109.634C271.171 107.692 271.176 105.75 271.184 103.807C271.195 101.311 271.198 98.8154 271.2 96.3193C271.201 94.407 271.205 92.4948 271.209 90.5825C271.211 89.6618 271.213 88.7412 271.214 87.8205C271.217 86.5366 271.221 85.2528 271.227 83.9689C271.227 83.5844 271.228 83.1999 271.228 82.8037C271.23 82.4561 271.232 82.1084 271.234 81.7503C271.236 81.4464 271.237 81.1425 271.238 80.8294C271.328 79.5095 272.052 79.7397 273.199 79.7392Z" fill="#01A9E8"/>
<path d="M179.965 26.2762C186.599 26.2333 186.599 26.2333 189.423 26.224C191.351 26.2176 193.279 26.21 195.208 26.1955C196.762 26.1839 198.316 26.1775 199.87 26.1747C200.464 26.1727 201.057 26.1688 201.651 26.1631C202.481 26.1553 203.311 26.1542 204.141 26.1547C204.388 26.1509 204.634 26.147 204.888 26.1431C206.539 26.1538 206.539 26.1538 207.317 26.6829C207.998 27.6402 207.923 28.3603 207.923 29.5287C207.925 29.9854 207.928 30.4421 207.93 30.9126C207.927 31.4197 207.925 31.9268 207.922 32.4339C207.923 32.9671 207.924 33.5003 207.926 34.0335C207.929 35.4825 207.926 36.9314 207.921 38.3803C207.917 39.8949 207.918 41.4095 207.919 42.9241C207.92 45.4674 207.916 48.0106 207.909 50.5539C207.901 53.4972 207.9 56.4404 207.902 59.3836C207.904 62.2119 207.902 65.0401 207.898 67.8683C207.897 69.0735 207.896 70.2786 207.897 71.4837C207.898 72.9017 207.895 74.3197 207.889 75.7377C207.888 76.2591 207.888 76.7806 207.889 77.302C207.89 78.0117 207.886 78.7214 207.882 79.431C207.881 79.8288 207.881 80.2266 207.88 80.6365C207.789 81.5681 207.789 81.5681 207.076 82.2815C206.205 82.3485 205.376 82.3714 204.506 82.3625C204.241 82.3626 203.977 82.3627 203.704 82.3628C202.828 82.3623 201.952 82.3568 201.075 82.3512C200.469 82.3499 199.862 82.3489 199.255 82.3481C197.656 82.3454 196.058 82.3384 194.459 82.3305C192.542 82.3219 190.624 82.3187 188.707 82.3145C185.793 82.3076 182.879 82.2939 179.965 82.2815C179.965 73.5704 179.965 64.8592 179.965 55.8841C181.201 55.7075 181.201 55.7075 182.462 55.5274C182.598 54.9366 182.716 54.3415 182.819 53.7438C182.106 53.0316 180.672 53.3319 179.697 53.3306C179.404 53.3289 179.111 53.3271 178.809 53.3253C177.819 53.3198 176.829 53.3168 175.839 53.3138C175.133 53.3104 174.426 53.3068 173.72 53.3031C171.796 53.2935 169.871 53.286 167.947 53.2789C165.938 53.2711 163.93 53.2613 161.921 53.2517C158.115 53.2339 154.308 53.2179 150.502 53.2025C146.169 53.1849 141.837 53.1653 137.505 53.1455C128.59 53.1049 119.675 53.0668 110.761 53.0303C110.761 52.9126 110.761 52.7949 110.761 52.6736C133.598 52.6736 156.435 52.6736 179.965 52.6736C179.965 50.9079 179.965 49.1421 179.965 47.3228C180.907 47.2051 181.848 47.0874 182.819 46.9661C182.819 46.2598 182.819 45.5535 182.819 44.8257C181.877 44.5903 180.935 44.3549 179.965 44.1123C179.965 38.2264 179.965 32.3405 179.965 26.2762Z" fill="#01ABEB"/>
<path d="M243.104 111.176C243.323 111.312 243.542 111.449 243.767 111.59C245.848 113.086 247.338 115.901 248.098 118.31C248.438 122.214 248.385 125.669 245.949 128.899C243.463 131.823 240.599 133.725 236.709 134.109C232.631 134.223 229.429 132.999 226.424 130.214C223.69 127.253 222.984 123.871 223.033 119.952C223.297 116.362 225.144 113.904 227.765 111.533C232.51 108.061 238.207 107.965 243.104 111.176Z" fill="#01AAEA"/>
<path d="M87.7606 25.1588C88.1822 25.1575 88.6038 25.1561 89.0381 25.1547C89.5053 25.155 89.9726 25.1553 90.4539 25.1556C90.9521 25.1547 91.4502 25.1536 91.9484 25.1524C93.3221 25.1495 94.6958 25.1489 96.0696 25.1486C97.5493 25.148 99.0289 25.1453 100.509 25.1429C103.746 25.138 106.984 25.1359 110.222 25.1343C112.242 25.1333 114.263 25.1318 116.284 25.1302C121.875 25.1259 127.466 25.1222 133.057 25.121C133.594 25.1209 133.594 25.1209 134.142 25.1207C134.501 25.1207 134.86 25.1206 135.229 25.1205C135.957 25.1203 136.684 25.1202 137.411 25.12C137.772 25.1199 138.133 25.1199 138.505 25.1198C144.352 25.1184 150.2 25.1121 156.047 25.1038C162.047 25.0954 168.046 25.0909 174.045 25.0905C177.415 25.0902 180.786 25.0881 184.156 25.0817C187.025 25.0762 189.895 25.0743 192.764 25.0773C194.229 25.0787 195.693 25.0783 197.158 25.0733C198.498 25.0688 199.838 25.0692 201.179 25.0736C201.894 25.0746 202.61 25.0703 203.326 25.0659C203.962 25.0694 203.962 25.0694 204.612 25.073C205.161 25.0727 205.161 25.0727 205.722 25.0724C206.885 25.2281 207.559 25.5874 208.502 26.2759C208.991 27.2547 208.908 28.0391 208.913 29.1351C208.916 29.5928 208.919 30.0504 208.922 30.5219C208.924 31.032 208.926 31.5421 208.927 32.0521C208.93 32.5871 208.933 33.122 208.936 33.6569C208.945 35.4164 208.951 37.1758 208.956 38.9353C208.958 39.5406 208.96 40.146 208.962 40.7513C208.969 43.2688 208.976 45.7864 208.98 48.3039C208.986 51.914 208.998 55.5239 209.018 59.1339C209.032 61.6711 209.039 64.2083 209.041 66.7456C209.042 68.2615 209.046 69.7774 209.058 71.2933C209.068 72.7195 209.071 74.1456 209.067 75.5718C209.066 76.0951 209.069 76.6185 209.076 77.1417C209.084 77.8565 209.08 78.5713 209.075 79.2861C209.077 79.8859 209.077 79.8859 209.079 80.4979C208.858 81.5678 208.858 81.5678 208.254 82.5879C206.361 83.8131 204.462 83.5979 202.254 83.5803C201.752 83.5826 201.25 83.5857 200.748 83.5894C199.369 83.5976 197.989 83.5946 196.61 83.5898C195.122 83.5865 193.634 83.5934 192.147 83.599C189.232 83.6083 186.318 83.6079 183.404 83.604C181.035 83.601 178.667 83.6012 176.299 83.6039C175.962 83.6043 175.625 83.6047 175.278 83.6051C174.594 83.6058 173.91 83.6066 173.225 83.6074C166.807 83.6143 160.388 83.6101 153.969 83.6021C148.459 83.5956 142.95 83.5995 137.44 83.6108C131.045 83.6239 124.649 83.63 118.254 83.6253C117.572 83.6248 116.89 83.6243 116.208 83.6239C115.873 83.6237 115.537 83.6234 115.192 83.6232C112.826 83.6221 110.46 83.6261 108.094 83.6322C105.212 83.6394 102.329 83.6391 99.4467 83.6291C97.9755 83.6242 96.5045 83.6227 95.0332 83.6305C93.6869 83.6376 92.341 83.6347 90.9948 83.624C90.2759 83.6209 89.557 83.6282 88.8382 83.636C85.8404 83.5982 85.8404 83.5982 84.7486 82.9374C83.6227 81.7325 83.4257 80.5131 83.4248 78.9207C83.4203 78.4671 83.4158 78.0135 83.4111 77.5462C83.4152 77.048 83.4194 76.5499 83.4238 76.0517C83.4219 75.5236 83.4193 74.9955 83.416 74.4674C83.4094 73.0368 83.414 71.6064 83.4211 70.1758C83.4269 68.6775 83.4238 67.1791 83.4219 65.6808C83.4203 63.1651 83.426 60.6496 83.436 58.1339C83.4474 55.2265 83.4474 52.3193 83.4412 49.4119C83.4356 46.6131 83.438 43.8144 83.4441 41.0157C83.4465 39.8254 83.4462 38.6351 83.4435 37.4448C83.4408 36.0431 83.4451 34.6416 83.4549 33.2399C83.4573 32.7259 83.4574 32.2118 83.4548 31.6977C83.4517 30.9955 83.4583 30.2932 83.4653 29.5911C83.4663 29.1983 83.4673 28.8055 83.4683 28.4008C83.6911 27.0997 84.1682 26.5031 85.0758 25.5624C86.0142 25.0932 86.7091 25.1601 87.7606 25.1588ZM85.1365 26.9379C84.5778 27.9616 84.5844 28.7181 84.5832 29.8826C84.5802 30.3297 84.5771 30.7768 84.574 31.2375C84.5761 31.7321 84.5783 32.2267 84.5806 32.7213C84.5791 33.2428 84.5772 33.7644 84.5749 34.2859C84.57 35.7017 84.5719 37.1175 84.5753 38.5333C84.578 40.0147 84.5755 41.4961 84.5738 42.9775C84.5719 45.4653 84.5745 47.953 84.5795 50.4408C84.5854 53.3174 84.5835 56.1939 84.5776 59.0705C84.5727 61.5399 84.5721 64.0092 84.5749 66.4786C84.5765 67.9536 84.5767 69.4286 84.5732 70.9036C84.5701 72.2903 84.5723 73.6769 84.5784 75.0636C84.5799 75.5727 84.5795 76.0818 84.5771 76.5908C84.5742 77.2854 84.5785 77.9799 84.5832 78.6745C84.5836 79.0633 84.584 79.4521 84.5844 79.8526C84.7416 81.0223 84.965 81.4459 85.7892 82.2812C86.7267 82.495 86.7267 82.495 87.8131 82.4588C88.4493 82.4637 88.4493 82.4637 89.0985 82.4687C89.5668 82.465 90.0351 82.4614 90.5176 82.4576C91.0183 82.4587 91.519 82.4605 92.0197 82.4628C93.3988 82.4674 94.7777 82.4631 96.1568 82.4573C97.6428 82.4526 99.1288 82.4561 100.615 82.4586C103.527 82.4622 106.439 82.4582 109.351 82.4516C112.74 82.4442 116.128 82.4442 119.517 82.4446C125.561 82.4449 131.605 82.4384 137.649 82.428C143.52 82.418 149.39 82.4129 155.261 82.4134C155.622 82.4134 155.984 82.4135 156.357 82.4135C156.718 82.4135 157.079 82.4135 157.45 82.4136C164.126 82.4141 170.802 82.4099 177.477 82.4035C179.842 82.4013 182.206 82.4006 184.57 82.4002C187.45 82.3998 190.329 82.3966 193.209 82.39C194.679 82.3867 196.149 82.3846 197.619 82.3855C198.964 82.3862 200.308 82.3837 201.652 82.3786C202.372 82.3766 203.093 82.3782 203.813 82.3799C204.236 82.3776 204.66 82.3753 205.096 82.373C205.463 82.3725 205.831 82.372 206.21 82.3715C207.139 82.3663 207.139 82.3663 207.788 81.5678C207.898 80.5922 207.898 80.5922 207.881 79.4307C207.884 78.975 207.886 78.5194 207.889 78.0499C207.888 77.5421 207.887 77.0342 207.886 76.5264C207.888 75.9938 207.889 75.4612 207.892 74.9287C207.896 73.4797 207.897 72.0307 207.896 70.5817C207.895 69.3734 207.897 68.1651 207.899 66.9567C207.903 64.1067 207.903 61.2567 207.901 58.4067C207.899 55.4637 207.903 52.5207 207.911 49.5777C207.917 47.0535 207.919 44.5293 207.918 42.0052C207.917 40.4964 207.918 38.9877 207.923 37.479C207.928 36.0604 207.927 34.6419 207.922 33.2233C207.921 32.702 207.922 32.1807 207.925 31.6594C207.929 30.9491 207.925 30.2387 207.922 29.5284C207.922 29.1305 207.922 28.7325 207.922 28.3225C207.867 27.361 207.867 27.361 207.371 26.7584C206.459 26.0849 205.828 26.1413 204.701 26.1402C204.067 26.1357 204.067 26.1357 203.42 26.1311C202.72 26.1343 202.72 26.1343 202.005 26.1376C201.507 26.1361 201.008 26.1341 200.509 26.1318C199.134 26.1266 197.76 26.1281 196.386 26.1308C194.905 26.1324 193.424 26.128 191.943 26.1243C189.041 26.1182 186.138 26.1179 183.236 26.1198C180.878 26.1212 178.52 26.1207 176.162 26.1188C175.659 26.1184 175.659 26.1184 175.146 26.118C174.466 26.1174 173.785 26.1169 173.104 26.1163C166.715 26.1114 160.326 26.1134 153.936 26.1175C148.086 26.121 142.236 26.1164 136.386 26.1079C130.384 26.0992 124.382 26.0957 118.38 26.0981C115.009 26.0994 111.637 26.0985 108.265 26.0923C105.395 26.0871 102.525 26.0868 99.6551 26.093C98.1898 26.0961 96.7246 26.0968 95.2593 26.0914C93.9193 26.0865 92.5794 26.0881 91.2393 26.095C90.522 26.097 89.8047 26.092 89.0875 26.0867C88.6647 26.0902 88.242 26.0937 87.8065 26.0973C87.257 26.0974 87.257 26.0974 86.6963 26.0974C85.7454 26.1961 85.7454 26.1961 85.1365 26.9379Z" fill="#EAF8FD"/>
<path d="M59.6694 11.8277C60.0926 11.824 60.5158 11.8203 60.9518 11.8165C61.6499 11.8212 61.6499 11.8212 62.3621 11.8261C62.8612 11.8245 63.3602 11.8222 63.8592 11.8194C65.232 11.8134 66.6047 11.8164 67.9776 11.8208C69.4575 11.824 70.9374 11.819 72.4173 11.8151C75.3171 11.8087 78.2168 11.8101 81.1166 11.8143C83.4728 11.8175 85.8289 11.8179 88.1851 11.8164C88.5201 11.8161 88.8551 11.8159 89.2003 11.8157C89.8808 11.8152 90.5613 11.8148 91.2418 11.8143C97.627 11.8102 104.012 11.8149 110.397 11.8226C115.879 11.829 121.361 11.8279 126.842 11.8213C133.204 11.8137 139.566 11.8106 145.928 11.815C146.606 11.8155 147.284 11.8159 147.962 11.8164C148.296 11.8166 148.629 11.8168 148.973 11.817C151.327 11.8183 153.681 11.8162 156.035 11.8128C158.903 11.8088 161.771 11.8099 164.638 11.8175C166.102 11.8213 167.566 11.8227 169.03 11.818C170.369 11.8138 171.708 11.8161 173.047 11.8237C173.763 11.826 174.479 11.8214 175.195 11.8165C175.83 11.8221 175.83 11.8221 176.478 11.8277C176.844 11.828 177.21 11.8282 177.587 11.8284C178.8 12.0566 179.224 12.4624 179.965 13.4342C180.09 14.3908 180.132 15.1962 180.104 16.1486C180.102 16.4079 180.1 16.6672 180.098 16.9343C180.09 17.7595 180.072 18.5842 180.054 19.4093C180.047 19.9699 180.04 20.5305 180.034 21.0912C180.019 22.463 179.994 23.8344 179.965 25.206C179.612 25.206 179.258 25.206 178.895 25.206C178.886 24.8513 178.877 24.4965 178.868 24.1311C178.834 22.8194 178.798 21.5078 178.762 20.1961C178.746 19.6276 178.731 19.0591 178.717 18.4906C178.697 17.675 178.674 16.8596 178.651 16.0441C178.642 15.6606 178.642 15.6606 178.633 15.2694C178.698 14.0708 178.698 14.0708 178.181 13.0775C177.542 13.0424 176.901 13.0327 176.261 13.0326C175.632 13.0312 175.632 13.0312 174.99 13.0298C174.291 13.031 174.291 13.031 173.577 13.0322C173.081 13.0318 172.585 13.0312 172.089 13.0305C170.72 13.029 169.351 13.0297 167.982 13.0308C166.508 13.0316 165.034 13.0304 163.559 13.0294C160.669 13.0278 157.779 13.0282 154.889 13.0292C152.541 13.03 150.193 13.0301 147.845 13.0297C147.345 13.0297 147.345 13.0297 146.835 13.0296C146.157 13.0295 145.48 13.0293 144.802 13.0292C138.443 13.0282 132.083 13.0294 125.724 13.0313C120.261 13.0329 114.798 13.0326 109.335 13.031C102.999 13.0291 96.6628 13.0283 90.3269 13.0294C89.6519 13.0295 88.977 13.0296 88.302 13.0297C87.8038 13.0298 87.8038 13.0298 87.2956 13.0299C84.9491 13.0302 82.6026 13.0297 80.2561 13.0289C77.3986 13.0279 74.5411 13.0281 71.6836 13.03C70.2242 13.031 68.7648 13.0313 67.3054 13.0301C65.9715 13.0291 64.6377 13.0297 63.3039 13.0316C62.5882 13.0322 61.8725 13.031 61.1567 13.0298C60.7375 13.0307 60.3182 13.0316 59.8863 13.0326C59.5214 13.0326 59.1566 13.0327 58.7807 13.0328C57.9782 12.9859 57.9782 12.9859 57.6092 13.4342C57.5743 13.9843 57.5644 14.5359 57.5643 15.0871C57.5634 15.4467 57.5625 15.8063 57.5615 16.1768C57.5623 16.5767 57.5631 16.9765 57.5639 17.3885C57.5634 17.8095 57.5628 18.2306 57.5622 18.6644C57.5611 19.8383 57.5615 21.0122 57.5626 22.1861C57.5634 23.4501 57.5622 24.7141 57.5612 25.9781C57.5596 28.4563 57.5599 30.9345 57.561 33.4127C57.5618 35.4259 57.5619 37.4391 57.5615 39.4522C57.5614 39.7382 57.5614 40.0242 57.5613 40.3188C57.5612 40.8997 57.5611 41.4805 57.561 42.0614C57.56 47.5145 57.5611 52.9676 57.563 58.4208C57.5646 63.105 57.5644 67.7893 57.5627 72.4736C57.5608 77.9065 57.5601 83.3395 57.5612 88.7724C57.5613 89.3512 57.5614 89.93 57.5615 90.5087C57.5615 90.7935 57.5616 91.0783 57.5617 91.3718C57.562 93.3837 57.5614 95.3957 57.5606 97.4076C57.5596 99.8578 57.5599 102.308 57.5618 104.758C57.5627 106.01 57.5631 107.261 57.5619 108.512C57.5607 109.866 57.5621 111.219 57.5639 112.572C57.5631 112.972 57.5623 113.372 57.5615 113.784C57.5624 114.144 57.5634 114.503 57.5643 114.874C57.5644 115.187 57.5645 115.5 57.5645 115.822C57.5313 116.527 57.5313 116.527 57.9659 116.884C58.6053 116.919 59.246 116.928 59.8863 116.928C60.5152 116.93 60.5152 116.93 61.1567 116.931C61.6232 116.93 62.0897 116.93 62.5703 116.929C63.0662 116.929 63.5621 116.93 64.058 116.93C65.4272 116.932 66.7963 116.931 68.1655 116.93C69.6396 116.929 71.1136 116.931 72.5877 116.932C75.4779 116.933 78.3682 116.933 81.2584 116.932C83.6063 116.931 85.9542 116.931 88.302 116.931C88.8023 116.931 88.8023 116.931 89.3126 116.931C89.99 116.932 90.6673 116.932 91.3447 116.932C97.7042 116.933 104.064 116.932 110.423 116.93C115.886 116.928 121.349 116.928 126.812 116.93C133.148 116.932 139.484 116.933 145.82 116.932C146.495 116.931 147.17 116.931 147.845 116.931C148.343 116.931 148.343 116.931 148.852 116.931C151.198 116.931 153.545 116.931 155.891 116.932C158.749 116.933 161.606 116.933 164.464 116.931C165.923 116.93 167.382 116.93 168.842 116.931C170.176 116.932 171.509 116.931 172.843 116.929C173.559 116.929 174.275 116.93 174.99 116.931C175.41 116.93 175.829 116.929 176.261 116.928C176.626 116.928 176.991 116.928 177.366 116.928C178.169 116.975 178.169 116.975 178.538 116.527C178.583 115.496 178.604 114.473 178.611 113.441C178.615 113.117 178.618 112.794 178.622 112.46C178.633 111.385 178.642 110.31 178.651 109.235C178.658 108.492 178.666 107.748 178.673 107.005C178.693 105.045 178.711 103.084 178.728 101.124C178.746 99.1247 178.766 97.1258 178.785 95.127C178.824 91.2019 178.86 87.2768 178.895 83.3517C179.248 83.3517 179.601 83.3517 179.965 83.3517C179.99 87.6525 180.009 91.9533 180.02 96.2542C180.026 98.2512 180.033 100.248 180.046 102.245C180.057 104.172 180.064 106.099 180.066 108.025C180.068 108.761 180.072 109.496 180.078 110.232C180.086 111.261 180.087 112.29 180.086 113.319C180.09 113.625 180.094 113.93 180.098 114.244C180.096 114.525 180.095 114.806 180.093 115.096C180.094 115.339 180.095 115.582 180.096 115.833C179.914 116.796 179.573 117.246 178.895 117.954C177.983 118.133 177.983 118.133 176.866 118.133C176.441 118.137 176.016 118.141 175.578 118.145C175.108 118.141 174.639 118.138 174.155 118.135C173.653 118.137 173.151 118.139 172.649 118.142C171.267 118.148 169.885 118.145 168.502 118.14C167.012 118.137 165.523 118.142 164.033 118.146C161.114 118.152 158.194 118.151 155.275 118.147C152.903 118.143 150.531 118.143 148.159 118.145C147.822 118.145 147.485 118.145 147.137 118.145C146.452 118.146 145.767 118.146 145.083 118.147C138.656 118.151 132.229 118.146 125.802 118.138C120.283 118.132 114.764 118.133 109.246 118.14C102.842 118.147 96.4388 118.15 90.0354 118.146C89.353 118.145 88.6707 118.145 87.9883 118.145C87.4847 118.144 87.4847 118.144 86.9708 118.144C84.6007 118.143 82.2307 118.145 79.8606 118.148C76.9736 118.152 74.0866 118.151 71.1996 118.143C69.7257 118.14 68.2518 118.138 66.7778 118.143C65.4298 118.147 64.082 118.145 62.7341 118.137C62.0125 118.135 61.2909 118.14 60.5694 118.145C60.1442 118.141 59.719 118.137 59.2809 118.133C58.9124 118.133 58.5439 118.133 58.1642 118.133C57.2525 117.954 57.2525 117.954 56.5991 117.34C56.1159 116.397 56.0479 115.802 56.0467 114.745C56.0437 114.384 56.0406 114.023 56.0375 113.651C56.0397 113.255 56.0418 112.859 56.044 112.451C56.0421 112.03 56.0402 111.609 56.0382 111.175C56.034 110.005 56.0346 108.836 56.0372 107.666C56.0389 106.405 56.0344 105.144 56.0308 103.883C56.0246 101.413 56.0244 98.942 56.0262 96.4715C56.0277 94.4639 56.0272 92.4564 56.0252 90.4489C56.025 90.1634 56.0247 89.8778 56.0244 89.5837C56.0239 89.0037 56.0233 88.4237 56.0228 87.8437C56.0179 82.4028 56.0198 76.9619 56.0239 71.5209C56.0275 66.5405 56.0228 61.5602 56.0143 56.5798C56.0056 51.4684 56.0022 46.3571 56.0046 41.2457C56.0058 38.3751 56.005 35.5044 55.9988 32.6338C55.9935 30.1903 55.9933 27.7468 55.9995 25.3034C56.0025 24.0562 56.0033 22.8091 55.9978 21.5619C55.9932 20.2112 55.9972 18.8607 56.0035 17.51C56.0001 17.114 55.9967 16.718 55.9932 16.31C55.9967 15.9489 56.0002 15.5878 56.0038 15.2158C56.0038 14.904 56.0038 14.5921 56.0039 14.2708C56.4369 12.2408 57.7714 11.8289 59.6694 11.8277Z" fill="#3E3D56"/>
<path d="M80.7146 91.5116C83.2453 92.8245 85.1022 94.8609 85.9777 97.587C86.5953 100.323 86.0824 102.676 84.7194 105.112C83.0455 107.384 80.8506 108.75 78.0601 109.183C75.5333 109.319 73.584 108.712 71.5207 107.252C69.6633 105.546 68.4526 103.939 68.1778 101.383C68.1288 98.5813 68.166 96.263 70.0938 94.0532C70.9888 93.2345 71.9108 92.5415 72.9476 91.9129C73.1591 91.7796 73.3706 91.6462 73.5885 91.5088C75.6643 90.6918 78.6047 90.8459 80.7146 91.5116Z" fill="#FBFDFE"/>
<path d="M267.425 64.3097C268.118 64.3052 268.118 64.3052 268.824 64.3006C269.337 64.3026 269.849 64.3048 270.362 64.3071C270.901 64.3057 271.44 64.3038 271.979 64.3014C273.445 64.2966 274.91 64.2985 276.375 64.3018C277.907 64.3046 279.44 64.302 280.972 64.3004C283.546 64.2984 286.12 64.301 288.694 64.3061C291.67 64.3119 294.646 64.31 297.623 64.3041C300.177 64.2993 302.731 64.2986 305.285 64.3014C306.812 64.3031 308.338 64.3033 309.864 64.2997C311.299 64.2967 312.734 64.2988 314.169 64.305C314.695 64.3064 315.222 64.306 315.749 64.3036C316.468 64.3007 317.187 64.305 317.906 64.3097C318.308 64.3101 318.71 64.3105 319.125 64.3109C320.26 64.4593 320.75 64.7503 321.582 65.5158C321.471 66.7197 321.471 66.7197 321.226 68.0128C319.965 68.8532 319.442 68.8172 317.949 68.8217C317.486 68.8247 317.024 68.8277 316.548 68.8309C316.035 68.8306 315.522 68.8303 315.008 68.8299C314.469 68.832 313.929 68.8345 313.389 68.8372C311.923 68.8435 310.456 68.8451 308.989 68.8456C307.766 68.8463 306.542 68.8489 305.319 68.8514C302.434 68.8572 299.548 68.859 296.663 68.8585C293.683 68.858 290.704 68.8656 287.725 68.8768C285.169 68.8861 282.613 68.89 280.057 68.8895C278.529 68.8893 277.002 68.8914 275.475 68.8989C274.039 68.9058 272.603 68.9059 271.167 68.9007C270.639 68.9 270.112 68.9017 269.584 68.906C268.865 68.9114 268.146 68.9073 267.427 68.9027C266.823 68.9032 266.823 68.9032 266.207 68.9038C265.22 68.7263 265.22 68.7263 264.556 68.0589C264.053 67.1173 263.988 66.5688 264.15 65.5158C265.043 64.2379 265.937 64.3112 267.425 64.3097Z" fill="#3E3E58"/>
<path d="M112.367 44.0169C112.781 44.0193 112.781 44.0193 113.204 44.0217C113.643 44.0201 113.643 44.0201 114.091 44.0184C115.077 44.0155 116.063 44.0178 117.049 44.02C117.754 44.0191 118.459 44.0178 119.164 44.0162C121.082 44.013 123.001 44.0142 124.919 44.0165C126.923 44.0183 128.928 44.0166 130.932 44.0155C134.299 44.0142 137.666 44.0159 141.032 44.0193C144.929 44.0232 148.825 44.0219 152.721 44.018C156.062 44.0148 159.402 44.0143 162.743 44.0162C164.74 44.0173 166.737 44.0174 168.734 44.0151C170.612 44.013 172.49 44.0145 174.367 44.0186C175.058 44.0195 175.748 44.0193 176.439 44.0177C177.379 44.0157 178.318 44.0182 179.259 44.0217C179.534 44.0201 179.809 44.0186 180.093 44.0169C181.434 44.0268 182.03 44.0624 183.175 44.8258C183.041 45.8736 183.041 45.8736 182.818 46.9661C181.705 47.5225 180.523 47.373 179.301 47.3705C179.009 47.3713 178.716 47.3721 178.414 47.373C177.427 47.3752 176.44 47.3749 175.453 47.3746C174.747 47.3757 174.042 47.3769 173.337 47.3783C171.417 47.3814 169.497 47.3823 167.577 47.3825C165.977 47.3828 164.377 47.3841 162.776 47.3854C159.003 47.3883 155.229 47.3892 151.456 47.3889C147.557 47.3887 143.658 47.3925 139.759 47.3981C136.416 47.4028 133.074 47.4047 129.731 47.4045C127.733 47.4044 125.734 47.4054 123.736 47.4092C121.857 47.4126 119.979 47.4127 118.1 47.4101C117.409 47.4097 116.718 47.4105 116.027 47.4127C115.087 47.4154 114.147 47.4138 113.206 47.411C112.93 47.4129 112.654 47.4147 112.369 47.4166C110.485 47.4043 110.485 47.4043 109.69 46.6094C109.601 45.7176 109.601 45.7176 109.69 44.8258C110.589 43.9271 111.141 44.026 112.367 44.0169Z" fill="#EDF9FD"/>
<path d="M111.985 52.9809C112.265 52.9815 112.545 52.982 112.834 52.9826C113.129 52.9818 113.425 52.981 113.729 52.9801C114.727 52.9779 115.725 52.9782 116.723 52.9785C117.435 52.9774 118.148 52.9762 118.86 52.9748C120.801 52.9717 122.741 52.9708 124.682 52.9706C126.299 52.9703 127.916 52.969 129.533 52.9677C133.346 52.9648 137.16 52.9639 140.973 52.9642C144.914 52.9644 148.854 52.9606 152.795 52.955C156.172 52.9503 159.549 52.9484 162.927 52.9486C164.946 52.9487 166.966 52.9477 168.986 52.9439C170.884 52.9405 172.783 52.9405 174.682 52.9431C175.38 52.9434 176.079 52.9426 176.778 52.9404C177.728 52.9377 178.678 52.9393 179.629 52.9421C179.908 52.9402 180.187 52.9384 180.475 52.9365C182.38 52.9488 182.38 52.9488 183.174 53.7437C182.976 55.3688 182.976 55.3688 182.461 55.8841C181.533 55.9205 180.615 55.9336 179.687 55.9318C179.393 55.9326 179.099 55.9334 178.796 55.9342C177.803 55.9365 176.81 55.9362 175.817 55.9359C175.108 55.9369 174.4 55.9382 173.691 55.9395C171.76 55.9427 169.829 55.9435 167.898 55.9437C166.289 55.9441 164.68 55.9454 163.071 55.9466C159.276 55.9495 155.481 55.9504 151.687 55.9502C147.766 55.9499 143.845 55.9537 139.924 55.9593C136.563 55.964 133.202 55.9659 129.842 55.9657C127.832 55.9656 125.822 55.9666 123.813 55.9704C121.923 55.9738 120.034 55.9739 118.144 55.9713C117.449 55.9709 116.754 55.9718 116.059 55.9739C115.113 55.9766 114.168 55.975 113.222 55.9722C112.805 55.975 112.805 55.975 112.38 55.9778C110.485 55.9655 110.485 55.9655 109.69 55.1706C109.623 54.2565 109.623 54.2565 109.69 53.387C110.318 52.7589 111.148 52.9847 111.985 52.9809Z" fill="#FEFEFE"/>
<path d="M98.7879 94.0058C99.2086 94.0069 99.2086 94.0069 99.6378 94.0082C99.9336 94.0076 100.229 94.0071 100.534 94.0065C101.533 94.005 102.532 94.0062 103.53 94.0073C104.243 94.0068 104.956 94.0062 105.669 94.0054C107.611 94.0038 109.553 94.0044 111.495 94.0055C113.523 94.0064 115.55 94.0056 117.578 94.0051C120.983 94.0044 124.389 94.0053 127.794 94.007C131.738 94.0089 135.681 94.0083 139.625 94.0063C143.004 94.0047 146.383 94.0045 149.762 94.0054C151.783 94.0059 153.804 94.006 155.825 94.0048C157.725 94.0038 159.624 94.0045 161.524 94.0066C162.223 94.0071 162.923 94.0069 163.622 94.0061C164.572 94.0052 165.523 94.0064 166.473 94.0082C166.754 94.0074 167.034 94.0066 167.323 94.0058C169.222 94.0127 169.222 94.0127 169.619 94.4102C169.664 95.4804 169.664 95.4804 169.619 96.5505C168.991 97.179 168.16 96.9519 167.323 96.9549C166.902 96.9538 166.902 96.9538 166.473 96.9525C166.177 96.9531 165.882 96.9536 165.577 96.9542C164.578 96.9557 163.579 96.9545 162.58 96.9534C161.868 96.9539 161.155 96.9545 160.442 96.9553C158.5 96.9569 156.558 96.9563 154.616 96.9552C152.588 96.9543 150.561 96.9551 148.533 96.9556C145.128 96.9563 141.722 96.9554 138.317 96.9537C134.373 96.9518 130.43 96.9524 126.486 96.9544C123.107 96.956 119.728 96.9562 116.349 96.9553C114.328 96.9548 112.307 96.9547 110.286 96.9559C108.386 96.9569 106.487 96.9562 104.587 96.9541C103.888 96.9536 103.188 96.9538 102.489 96.9546C101.539 96.9555 100.588 96.9543 99.6378 96.9525C99.3573 96.9533 99.0768 96.9541 98.7879 96.9549C96.8889 96.948 96.8889 96.948 96.4915 96.5505C96.4469 95.4804 96.4469 95.4804 96.4915 94.4102C97.1199 93.7817 97.9506 94.0088 98.7879 94.0058Z" fill="#3E3D56"/>
<path d="M76.1711 130.349C76.474 130.347 76.7769 130.346 77.0891 130.344C77.5911 130.346 77.5911 130.346 78.1033 130.348C78.6345 130.347 78.6345 130.347 79.1763 130.345C80.3704 130.342 81.5644 130.345 82.7585 130.347C83.6114 130.346 84.4644 130.345 85.3173 130.343C87.3981 130.34 89.4789 130.34 91.5597 130.343C93.2503 130.344 94.9409 130.344 96.6314 130.344C96.8717 130.343 97.112 130.343 97.3595 130.343C97.8476 130.343 98.3356 130.343 98.8237 130.343C103.404 130.341 107.985 130.343 112.565 130.347C116.498 130.35 120.432 130.349 124.365 130.346C128.929 130.342 133.492 130.341 138.056 130.343C138.542 130.343 139.029 130.343 139.515 130.344C139.874 130.344 139.874 130.344 140.24 130.344C141.929 130.345 143.619 130.343 145.308 130.342C147.58 130.34 149.852 130.341 152.124 130.345C152.96 130.346 153.796 130.346 154.632 130.344C155.769 130.342 156.906 130.345 158.043 130.348C158.378 130.347 158.713 130.345 159.057 130.344C159.512 130.346 159.512 130.346 159.975 130.349C160.238 130.349 160.501 130.35 160.771 130.35C161.415 130.439 161.415 130.439 162.128 131.153C162.219 132.1 162.219 132.1 162.221 133.318C162.223 133.773 162.225 134.227 162.227 134.696C162.226 135.194 162.225 135.693 162.223 136.191C162.224 136.7 162.224 137.209 162.225 137.719C162.226 138.786 162.225 139.854 162.221 140.921C162.217 142.291 162.22 143.661 162.224 145.031C162.226 146.082 162.226 147.134 162.224 148.185C162.223 148.691 162.224 149.196 162.226 149.701C162.227 150.406 162.224 151.112 162.221 151.817C162.22 152.219 162.22 152.621 162.219 153.035C162.128 153.983 162.128 153.983 161.415 154.696C160.771 154.786 160.771 154.786 159.975 154.786C159.521 154.789 159.521 154.789 159.057 154.792C158.723 154.79 158.388 154.788 158.043 154.787C157.689 154.788 157.335 154.789 156.97 154.79C155.776 154.793 154.582 154.791 153.388 154.788C152.535 154.789 151.682 154.791 150.829 154.792C148.748 154.795 146.667 154.795 144.587 154.793C142.896 154.791 141.206 154.791 139.515 154.792C139.275 154.792 139.034 154.792 138.787 154.792C138.299 154.792 137.811 154.792 137.323 154.793C132.742 154.795 128.162 154.792 123.581 154.788C119.648 154.785 115.715 154.786 111.781 154.789C107.218 154.793 102.654 154.794 98.0903 154.792C97.604 154.792 97.1177 154.792 96.6314 154.792C96.3921 154.791 96.1528 154.791 95.9063 154.791C94.217 154.791 92.5278 154.792 90.8386 154.793C88.5665 154.796 86.2945 154.794 84.0224 154.79C83.1863 154.789 82.3502 154.789 81.5141 154.791C80.3772 154.793 79.2403 154.79 78.1033 154.787C77.6013 154.789 77.6013 154.789 77.0891 154.792C76.7861 154.79 76.4832 154.788 76.1711 154.786C75.9084 154.786 75.6457 154.786 75.3751 154.786C74.7315 154.696 74.7315 154.696 74.0181 153.983C73.9275 153.035 73.9275 153.035 73.9258 151.817C73.9235 151.363 73.9213 150.908 73.9189 150.439C73.9202 149.941 73.9217 149.442 73.9233 148.944C73.9228 148.435 73.9221 147.926 73.9213 147.417C73.9202 146.349 73.9217 145.282 73.9251 144.214C73.9291 142.844 73.9268 141.474 73.9225 140.104C73.9199 139.053 73.9208 138.001 73.9226 136.95C73.9231 136.445 73.9225 135.939 73.9208 135.434C73.919 134.729 73.9223 134.023 73.9258 133.318C73.9263 132.916 73.9269 132.514 73.9275 132.1C74.0777 130.528 74.7453 130.35 76.1711 130.349ZM74.7315 131.509C74.6961 132.197 74.6859 132.886 74.6854 133.574C74.6842 134.016 74.6831 134.458 74.682 134.913C74.6826 135.398 74.6833 135.884 74.6841 136.37C74.6839 136.864 74.6836 137.359 74.6831 137.853C74.6826 138.891 74.6833 139.928 74.685 140.966C74.687 142.299 74.6859 143.631 74.6837 144.964C74.6825 145.986 74.6829 147.007 74.6838 148.029C74.684 148.52 74.6837 149.012 74.6829 149.503C74.682 150.189 74.6836 150.875 74.6854 151.561C74.6856 151.952 74.6859 152.343 74.6862 152.746C74.632 153.606 74.632 153.606 75.0882 153.983C76.1922 154.018 77.2883 154.031 78.3925 154.028C78.7436 154.029 79.0947 154.029 79.4565 154.03C80.6426 154.031 81.8287 154.03 83.0148 154.029C83.8613 154.029 84.7078 154.03 85.5542 154.031C87.6204 154.032 89.6866 154.032 91.7528 154.031C93.4313 154.03 95.1098 154.03 96.7883 154.03C97.0267 154.03 97.2652 154.031 97.5108 154.031C97.9952 154.031 98.4795 154.031 98.9638 154.031C103.511 154.032 108.057 154.031 112.604 154.029C116.51 154.027 120.415 154.028 124.321 154.029C128.85 154.031 133.38 154.032 137.91 154.031C138.393 154.031 138.876 154.031 139.358 154.03C139.596 154.03 139.833 154.03 140.078 154.03C141.755 154.03 143.433 154.03 145.11 154.031C147.366 154.032 149.621 154.032 151.877 154.03C152.708 154.029 153.538 154.029 154.368 154.03C155.497 154.031 156.625 154.03 157.754 154.028C158.087 154.029 158.42 154.03 158.764 154.03C160.204 154.172 160.204 154.172 161.415 153.626C161.45 152.938 161.461 152.249 161.461 151.561C161.463 150.898 161.463 150.898 161.464 150.223C161.464 149.737 161.463 149.251 161.462 148.766C161.463 148.271 161.463 147.777 161.463 147.282C161.464 146.245 161.463 145.207 161.461 144.169C161.459 142.837 161.461 141.504 161.463 140.171C161.464 139.15 161.464 138.128 161.463 137.107C161.462 136.615 161.463 136.124 161.464 135.632C161.464 134.946 161.463 134.26 161.461 133.574C161.461 133.183 161.46 132.792 161.46 132.389C161.514 131.529 161.514 131.529 161.058 131.153C159.954 131.117 158.858 131.105 157.754 131.107C157.403 131.107 157.052 131.106 156.69 131.106C155.504 131.104 154.318 131.105 153.132 131.106C152.285 131.106 151.439 131.105 150.592 131.104C148.526 131.103 146.46 131.103 144.394 131.104C142.715 131.105 141.037 131.105 139.358 131.105C139.12 131.105 138.881 131.105 138.636 131.105C138.151 131.104 137.667 131.104 137.183 131.104C132.636 131.103 128.089 131.104 123.542 131.106C119.637 131.108 115.731 131.108 111.826 131.106C107.296 131.104 102.766 131.103 98.236 131.104C97.7535 131.105 97.2709 131.105 96.7883 131.105C96.5508 131.105 96.3133 131.105 96.0686 131.105C94.3912 131.105 92.7138 131.105 91.0363 131.104C88.7807 131.103 86.525 131.104 84.2694 131.106C83.4389 131.106 82.6084 131.106 81.7779 131.105C80.6494 131.104 79.521 131.105 78.3925 131.107C78.0593 131.106 77.726 131.106 77.3827 131.105C75.9428 130.963 75.9428 130.963 74.7315 131.509Z" fill="#374A67"/>
<path d="M295.156 88.6076C296.65 89.5159 297.435 90.6458 298.15 92.2472C298.648 94.4647 298.505 96.051 297.422 98.0273C296.358 99.585 294.883 100.717 293.045 101.188C290.863 101.498 289.401 101.185 287.595 99.914C286.155 98.719 285.01 97.247 284.708 95.3741C284.644 93.0346 285.108 91.5666 286.624 89.7725C289.24 87.287 291.955 87.059 295.156 88.6076Z" fill="#FAFDFE"/>
<path d="M59.625 11.8719C60.0475 11.8689 60.47 11.8658 60.9053 11.8627C61.3717 11.8649 61.8381 11.867 62.3187 11.8692C62.8174 11.8678 63.3161 11.8658 63.8148 11.8634C65.1885 11.8582 66.562 11.8598 67.9357 11.8624C69.4158 11.8641 70.896 11.8596 72.3761 11.856C75.2771 11.8498 78.1781 11.8496 81.0791 11.8514C83.4363 11.8529 85.7935 11.8523 88.1507 11.8504C88.6533 11.85 88.6533 11.85 89.166 11.8496C89.8467 11.8491 90.5273 11.8485 91.2079 11.848C97.5954 11.8431 103.983 11.845 110.37 11.8491C116.218 11.8527 122.066 11.848 127.913 11.8395C133.913 11.8308 139.913 11.8274 145.913 11.8298C149.283 11.831 152.653 11.8302 156.024 11.824C158.893 11.8187 161.762 11.8185 164.631 11.8247C166.096 11.8277 167.56 11.8285 169.025 11.823C170.365 11.8181 171.704 11.8198 173.044 11.8267C173.76 11.8287 174.477 11.8236 175.193 11.8184C175.828 11.8236 175.828 11.8236 176.476 11.829C176.842 11.829 177.209 11.829 177.586 11.8291C178.8 12.0567 179.223 12.4623 179.964 13.4344C180.089 14.391 180.132 15.1964 180.104 16.1488C180.102 16.4081 180.1 16.6674 180.097 16.9345C180.09 17.7598 180.072 18.5844 180.053 19.4095C180.046 19.9701 180.04 20.5308 180.034 21.0914C180.018 22.4632 179.994 23.8346 179.964 25.2062C179.611 25.2062 179.258 25.2062 178.894 25.2062C178.885 24.8515 178.876 24.4968 178.867 24.1313C178.834 22.8196 178.798 21.508 178.761 20.1964C178.746 19.6279 178.731 19.0593 178.717 18.4908C178.696 17.6753 178.673 16.8598 178.65 16.0443C178.641 15.6609 178.641 15.6609 178.632 15.2696C178.698 14.0711 178.698 14.0711 178.181 13.0777C177.542 13.042 176.901 13.0316 176.261 13.0308C175.842 13.0294 175.423 13.0281 174.992 13.0267C174.292 13.0271 174.292 13.0271 173.579 13.0276C173.083 13.0267 172.587 13.0256 172.092 13.0244C170.723 13.0215 169.355 13.0209 167.986 13.0206C166.513 13.0199 165.04 13.0173 163.566 13.0149C160.342 13.01 157.117 13.0079 153.893 13.0063C151.882 13.0053 149.87 13.0038 147.858 13.0022C142.294 12.9978 136.73 12.9942 131.166 12.993C130.81 12.9929 130.453 12.9928 130.086 12.9927C129.729 12.9926 129.371 12.9926 129.003 12.9925C128.279 12.9923 127.555 12.9922 126.831 12.992C126.472 12.9919 126.113 12.9918 125.743 12.9918C119.92 12.9904 114.097 12.9841 108.275 12.9758C102.303 12.9674 96.3314 12.9629 90.3599 12.9625C87.0044 12.9622 83.6488 12.9601 80.2933 12.9536C77.4367 12.9482 74.5802 12.9463 71.7236 12.9493C70.2648 12.9507 68.8061 12.9503 67.3474 12.9453C66.0137 12.9408 64.6802 12.9412 63.3465 12.9455C62.6318 12.9466 61.917 12.9423 61.2023 12.9379C60.7823 12.9402 60.3623 12.9426 59.9297 12.945C59.3826 12.9447 59.3826 12.9447 58.8244 12.9444C58.541 12.9884 58.2575 13.0324 57.9654 13.0777C57.1958 14.2321 57.1621 14.5417 57.1586 15.8729C57.156 16.2304 57.1533 16.5879 57.1505 16.9562C57.1512 17.3501 57.1519 17.7439 57.1526 18.1497C57.1506 18.5672 57.1485 18.9848 57.1464 19.415C57.1413 20.5758 57.1395 21.7365 57.139 22.8974C57.1377 24.1484 57.1323 25.3995 57.1274 26.6506C57.1194 28.8188 57.1141 30.9869 57.1105 33.1551C57.1053 36.29 57.0962 39.4249 57.0861 42.5597C57.0699 47.6456 57.0568 52.7314 57.0457 57.8173C57.035 62.7583 57.0227 67.6994 57.0085 72.6404C57.0076 72.9448 57.0067 73.2493 57.0058 73.563C57.0014 75.0903 56.9969 76.6177 56.9925 78.145C56.9555 90.8201 56.9237 103.495 56.8953 116.17C56.7775 116.17 56.6598 116.17 56.5385 116.17C56.5141 103.055 56.4952 89.94 56.4839 76.8248C56.4825 75.2776 56.4812 73.7304 56.4797 72.1832C56.4795 71.8751 56.4792 71.5671 56.4789 71.2497C56.4742 66.2575 56.4658 61.2653 56.456 56.273C56.446 51.1532 56.44 46.0335 56.4378 40.9137C56.4364 37.7527 56.4317 34.5917 56.423 31.4307C56.4174 29.2652 56.4157 27.0997 56.4171 24.9342C56.4178 23.6835 56.4167 22.4328 56.411 21.1821C56.4048 19.8281 56.4069 18.4742 56.4098 17.1202C56.4067 16.7222 56.4036 16.3242 56.4004 15.9141C56.4025 15.5528 56.4047 15.1916 56.4068 14.8194C56.4064 14.5067 56.406 14.1939 56.4056 13.8716C56.5385 13.0777 56.5385 13.0777 56.9558 12.4422C57.8707 11.8331 58.5292 11.873 59.625 11.8719Z" fill="#3E3D56"/>
<path d="M91.9657 135.968C93.5221 136.874 94.4526 138.021 95.0647 139.714C95.3691 141.588 95.3569 143.334 94.4628 145.042C93.1246 146.814 91.8855 147.754 89.7139 148.275C87.7247 148.533 86.6083 148.1 85.0041 147.003C83.4995 145.802 82.6941 144.617 82.4694 142.697C82.37 140.345 82.5161 138.848 84.1151 137.059C86.3254 135.027 89.2384 134.808 91.9657 135.968Z" fill="#FBFDFE"/>
<path d="M102.912 137.573C119.982 137.573 137.051 137.573 154.637 137.573C154.755 138.162 154.872 138.75 154.994 139.357C154.369 139.981 153.497 139.76 152.649 139.761C152.217 139.763 151.785 139.764 151.341 139.766C150.858 139.766 150.375 139.766 149.892 139.765C149.387 139.766 148.882 139.768 148.378 139.769C147.002 139.772 145.627 139.773 144.252 139.773C143.105 139.774 141.959 139.775 140.813 139.776C138.109 139.779 135.406 139.78 132.703 139.78C129.91 139.779 127.117 139.783 124.324 139.789C121.93 139.794 119.536 139.795 117.141 139.795C115.71 139.795 114.278 139.796 112.847 139.8C111.501 139.803 110.155 139.803 108.809 139.801C108.314 139.8 107.819 139.801 107.324 139.803C106.65 139.806 105.976 139.804 105.303 139.802C104.736 139.802 104.736 139.802 104.158 139.802C103.269 139.714 103.269 139.714 102.556 139C102.673 138.529 102.791 138.058 102.912 137.573Z" fill="#F3FBFE"/>
<path d="M112.147 61.5433C112.449 61.544 112.75 61.5447 113.061 61.5454C113.535 61.5445 113.535 61.5445 114.019 61.5435C115.069 61.542 116.12 61.543 117.17 61.5442C117.896 61.544 118.623 61.5436 119.349 61.5432C120.874 61.5427 122.398 61.5434 123.923 61.5451C125.882 61.5471 127.841 61.546 129.8 61.5438C131.301 61.5425 132.801 61.5429 134.302 61.5439C135.025 61.5441 135.747 61.5438 136.47 61.543C137.478 61.5421 138.486 61.5435 139.493 61.5454C139.795 61.5447 140.097 61.544 140.408 61.5433C142.467 61.5508 142.467 61.5508 142.865 61.9483C142.932 62.8178 142.932 62.8178 142.865 63.7319C141.942 64.655 141.314 64.5326 140.056 64.5421C139.763 64.5406 139.469 64.5392 139.167 64.5377C138.859 64.5389 138.55 64.5402 138.232 64.5415C137.209 64.5446 136.185 64.5425 135.162 64.5401C134.453 64.5406 133.744 64.5413 133.035 64.5422C131.547 64.5433 130.06 64.5417 128.573 64.5384C126.663 64.5343 124.753 64.5367 122.843 64.5409C121.379 64.5435 119.914 64.5427 118.449 64.5408C117.745 64.5404 117.041 64.541 116.337 64.5426C115.353 64.5444 114.37 64.5417 113.387 64.5377C113.094 64.5391 112.801 64.5406 112.499 64.5421C110.485 64.5269 110.485 64.5269 109.69 63.7319C109.623 62.8178 109.623 62.8178 109.69 61.9483C110.347 61.2911 111.272 61.5465 112.147 61.5433Z" fill="#FEFEFE"/>
<path d="M100.189 102.92C100.498 102.919 100.806 102.917 101.124 102.916C102.148 102.913 103.171 102.912 104.195 102.912C104.904 102.911 105.613 102.909 106.322 102.908C107.809 102.906 109.297 102.905 110.784 102.906C112.694 102.906 114.604 102.901 116.513 102.895C117.978 102.891 119.442 102.89 120.907 102.89C121.611 102.89 122.316 102.888 123.02 102.885C124.003 102.882 124.986 102.883 125.969 102.885C126.262 102.883 126.556 102.881 126.858 102.879C128.872 102.89 128.872 102.89 129.667 103.685C129.469 105.31 129.469 105.31 128.953 105.825C127.956 105.861 126.968 105.874 125.971 105.872C125.659 105.872 125.346 105.873 125.024 105.873C123.985 105.875 122.947 105.874 121.908 105.873C121.19 105.873 120.471 105.873 119.753 105.874C118.245 105.874 116.737 105.874 115.229 105.872C113.292 105.87 111.354 105.871 109.417 105.873C107.933 105.874 106.449 105.874 104.965 105.873C104.25 105.873 103.535 105.873 102.821 105.874C101.824 105.875 100.827 105.874 99.8303 105.872C99.532 105.872 99.2336 105.873 98.9262 105.874C96.8891 105.866 96.8891 105.866 96.4916 105.469C96.4771 104.755 96.4764 104.042 96.4916 103.328C97.6484 102.75 98.9181 102.919 100.189 102.92Z" fill="#FAFDFE"/>
<path d="M56.1822 13.4341C56.712 13.7872 56.712 13.7872 57.2524 14.1475C57.3876 14.891 57.3876 14.891 57.3896 15.8302C57.393 16.1874 57.3964 16.5446 57.3999 16.9125C57.3981 17.3078 57.3964 17.7031 57.3946 18.1104C57.397 18.5281 57.3994 18.9458 57.4018 19.3761C57.4073 20.5391 57.408 21.7019 57.4068 22.8649C57.4065 24.1177 57.4125 25.3705 57.4177 26.6233C57.4258 28.7954 57.43 30.9674 57.4316 33.1395C57.4339 36.2816 57.4421 39.4237 57.4517 42.5657C57.4672 47.6652 57.4778 52.7646 57.4855 57.8641C57.493 62.8151 57.5027 67.7661 57.5155 72.7171C57.5163 73.0219 57.5171 73.3268 57.5179 73.6408C57.5218 75.1701 57.5258 76.6994 57.5298 78.2287C57.5549 87.8118 57.5766 97.3948 57.5934 106.978C57.5938 107.222 57.5942 107.465 57.5946 107.716C57.5987 110.062 57.6027 112.408 57.6065 114.754C57.607 115.064 57.6075 115.374 57.6081 115.694C57.609 116.447 57.6091 117.2 57.6091 117.954C56.235 116.776 56.235 116.776 56.005 115.688C56.0056 115.376 56.0061 115.063 56.0067 114.741C56.0038 114.379 56.001 114.017 55.998 113.644C56.0043 113.049 56.0043 113.049 56.0106 112.441C56.0094 112.019 56.0082 111.597 56.0069 111.162C56.005 109.99 56.0095 108.818 56.0166 107.645C56.0228 106.381 56.0207 105.117 56.0196 103.853C56.0189 101.663 56.0233 99.4735 56.0314 97.2835C56.043 94.1171 56.0467 90.9508 56.0485 87.7844C56.0516 82.6473 56.0611 77.5102 56.0746 72.3731C56.0877 67.3826 56.0978 62.3921 56.1039 57.4016C56.1042 57.094 56.1046 56.7865 56.105 56.4696C56.1068 54.9267 56.1087 53.3837 56.1104 51.8408C56.1252 39.0385 56.1504 26.2363 56.1822 13.4341Z" fill="#2E597C"/>
<path d="M273.199 79.7392C273.535 79.7382 273.871 79.7372 274.217 79.7362C274.775 79.7373 274.775 79.7373 275.344 79.7384C275.733 79.7377 276.122 79.7371 276.523 79.7365C277.816 79.7349 279.11 79.7359 280.403 79.7371C281.298 79.7369 282.192 79.7366 283.086 79.7361C284.964 79.7356 286.841 79.7363 288.718 79.738C290.892 79.74 293.065 79.7393 295.238 79.7374C297.325 79.7355 299.412 79.7357 301.499 79.7368C302.389 79.737 303.278 79.7367 304.168 79.7359C305.409 79.735 306.651 79.7364 307.892 79.7384C308.263 79.7376 308.635 79.7369 309.018 79.7362C309.522 79.7377 309.522 79.7377 310.037 79.7392C310.331 79.7394 310.625 79.7395 310.927 79.7396C311.594 79.7845 311.594 79.7845 311.951 80.1412C311.987 80.6766 311.999 81.2137 312.001 81.7503C312.003 82.0979 312.005 82.4455 312.007 82.8037C312.008 83.3805 312.008 83.3805 312.008 83.9689C312.011 84.5727 312.011 84.5727 312.014 85.1887C312.019 86.5267 312.021 87.8647 312.023 89.2028C312.025 90.1283 312.027 91.0539 312.029 91.9794C312.033 93.6737 312.035 95.3679 312.036 97.0622C312.038 99.5591 312.044 102.056 312.054 104.553C312.063 106.713 312.066 108.872 312.066 111.032C312.067 111.952 312.07 112.873 312.075 113.793C312.081 115.078 312.08 116.362 312.078 117.647C312.081 118.031 312.085 118.415 312.088 118.81C312.086 119.159 312.084 119.507 312.082 119.867C312.083 120.323 312.083 120.323 312.084 120.788C312.04 121.03 311.996 121.272 311.951 121.521C310.829 122.269 310.574 122.324 309.297 122.325C308.973 122.327 308.648 122.329 308.315 122.331C307.782 122.329 307.782 122.329 307.24 122.327C306.678 122.329 306.678 122.329 306.106 122.331C304.866 122.334 303.626 122.332 302.386 122.329C301.527 122.33 300.667 122.33 299.807 122.331C298.004 122.332 296.202 122.331 294.399 122.327C292.085 122.323 289.771 122.326 287.457 122.33C285.681 122.333 283.906 122.332 282.13 122.33C281.277 122.329 280.423 122.33 279.57 122.332C278.379 122.333 277.187 122.331 275.996 122.327C275.464 122.329 275.464 122.329 274.921 122.331C274.597 122.329 274.273 122.327 273.939 122.325C273.516 122.325 273.516 122.325 273.085 122.324C272.355 122.234 272.355 122.234 271.285 121.521C271.152 120.788 271.152 120.788 271.153 119.867C271.151 119.518 271.15 119.169 271.147 118.81C271.151 118.426 271.154 118.043 271.157 117.647C271.157 117.244 271.156 116.841 271.155 116.425C271.154 115.088 271.161 113.75 271.168 112.412C271.169 111.486 271.169 110.56 271.17 109.634C271.171 107.692 271.176 105.75 271.184 103.807C271.195 101.311 271.198 98.8154 271.2 96.3193C271.201 94.407 271.205 92.4948 271.209 90.5825C271.211 89.6618 271.213 88.7412 271.214 87.8205C271.217 86.5366 271.221 85.2528 271.227 83.9689C271.227 83.5844 271.228 83.1999 271.228 82.8037C271.23 82.4561 271.232 82.1084 271.234 81.7503C271.236 81.4464 271.237 81.1425 271.238 80.8294C271.328 79.5095 272.052 79.7397 273.199 79.7392ZM271.641 80.8547C271.533 81.592 271.533 81.592 271.551 82.4524C271.549 82.7886 271.547 83.1247 271.545 83.471C271.546 83.8409 271.547 84.2108 271.549 84.5919C271.548 84.9805 271.546 85.3692 271.545 85.7696C271.542 87.0594 271.544 88.3491 271.547 89.639C271.546 90.532 271.545 91.425 271.544 92.318C271.543 94.1917 271.545 96.0653 271.548 97.939C271.552 100.107 271.551 102.274 271.547 104.442C271.543 106.526 271.544 108.609 271.546 110.692C271.546 111.58 271.546 112.467 271.544 113.355C271.542 114.593 271.545 115.832 271.549 117.07C271.548 117.44 271.546 117.81 271.545 118.191C271.547 118.527 271.549 118.863 271.551 119.21C271.551 119.503 271.551 119.796 271.552 120.098C271.578 120.89 271.578 120.89 272.355 121.521C273.068 121.629 273.068 121.629 273.898 121.612C274.384 121.615 274.384 121.615 274.88 121.618C275.237 121.616 275.594 121.615 275.961 121.613C276.336 121.615 276.71 121.616 277.096 121.617C278.34 121.62 279.583 121.618 280.827 121.616C281.688 121.616 282.549 121.617 283.41 121.618C285.216 121.619 287.023 121.617 288.829 121.614C291.15 121.61 293.47 121.612 295.79 121.617C297.568 121.619 299.347 121.618 301.125 121.616C301.981 121.616 302.837 121.617 303.692 121.618C304.886 121.62 306.08 121.617 307.274 121.613C307.809 121.615 307.809 121.615 308.355 121.618C308.679 121.616 309.003 121.614 309.337 121.612C309.62 121.611 309.902 121.611 310.193 121.611C310.966 121.581 310.966 121.581 311.594 120.808C311.702 120.07 311.702 120.07 311.685 119.21C311.687 118.874 311.689 118.538 311.691 118.191C311.689 117.821 311.688 117.451 311.686 117.07C311.688 116.682 311.689 116.293 311.69 115.893C311.693 114.603 311.691 113.313 311.689 112.023C311.689 111.13 311.69 110.237 311.691 109.344C311.692 107.471 311.691 105.597 311.687 103.723C311.683 101.555 311.685 99.3877 311.688 97.2199C311.692 95.1366 311.692 93.0533 311.69 90.97C311.689 90.0825 311.69 89.1949 311.691 88.3074C311.693 87.0689 311.69 85.8304 311.686 84.5919C311.688 84.222 311.689 83.8521 311.691 83.471C311.689 83.1349 311.687 82.7987 311.685 82.4524C311.684 82.1594 311.684 81.8664 311.684 81.5644C311.657 80.7722 311.657 80.7722 310.881 80.1412C310.167 80.0331 310.167 80.0331 309.337 80.0506C309.013 80.0486 308.689 80.0466 308.355 80.0445C307.82 80.0467 307.82 80.0467 307.274 80.0489C306.9 80.0477 306.525 80.0464 306.139 80.0451C304.895 80.042 303.652 80.0441 302.409 80.0465C301.548 80.046 300.686 80.0453 299.825 80.0444C298.019 80.0434 296.212 80.0449 294.406 80.0482C292.086 80.0523 289.766 80.0499 287.446 80.0457C285.667 80.0431 283.889 80.0439 282.11 80.0458C281.255 80.0462 280.399 80.0457 279.543 80.044C278.349 80.0422 277.155 80.0449 275.961 80.0489C275.604 80.0475 275.248 80.046 274.88 80.0445C274.556 80.0466 274.232 80.0486 273.898 80.0506C273.616 80.0509 273.333 80.0512 273.042 80.0515C272.27 80.0813 272.27 80.0813 271.641 80.8547Z" fill="#394764"/>
<path d="M243.104 111.176C243.323 111.312 243.542 111.449 243.767 111.59C245.848 113.086 247.338 115.901 248.098 118.31C248.438 122.214 248.385 125.669 245.949 128.899C243.463 131.823 240.599 133.725 236.709 134.109C232.631 134.223 229.429 132.999 226.424 130.214C223.69 127.253 222.984 123.871 223.033 119.952C223.297 116.362 225.144 113.904 227.765 111.533C232.51 108.061 238.207 107.965 243.104 111.176ZM226.695 113.673C226.444 113.96 226.194 114.247 225.937 114.542C223.858 117.382 223.554 120.225 223.841 123.661C224.469 126.787 226.079 129.085 228.478 131.152C231.754 133.212 235.001 133.883 238.83 133.061C242.374 131.901 245.002 129.475 246.76 126.203C247.987 123.303 247.886 119.46 246.706 116.545C245.082 113.51 242.809 111.35 239.608 110.06C234.877 108.772 229.895 109.773 226.695 113.673Z" fill="#374A68"/>
<path d="M234.9 115.457C236.578 115.708 236.578 115.708 237.04 116.17C237.066 116.831 237.07 117.493 237.062 118.154C237.059 118.515 237.056 118.876 237.053 119.248C237.048 119.527 237.044 119.806 237.04 120.094C237.452 120.082 237.452 120.082 237.873 120.069C238.231 120.062 238.589 120.056 238.957 120.049C239.313 120.041 239.669 120.033 240.036 120.024C240.964 120.094 240.964 120.094 241.677 120.807C241.501 121.69 241.501 121.69 241.321 122.591C239.908 122.591 238.495 122.591 237.04 122.591C237.055 123.283 237.069 123.974 237.085 124.687C237.11 125.866 237.11 125.866 237.04 126.872C236.805 127.107 236.569 127.343 236.327 127.585C235.065 127.394 235.065 127.394 234.543 126.872C234.517 126.151 234.513 125.43 234.521 124.709C234.524 124.315 234.527 123.921 234.53 123.515C234.535 123.21 234.539 122.905 234.543 122.591C234.242 122.595 233.941 122.599 233.632 122.604C233.241 122.607 232.85 122.61 232.447 122.613C232.058 122.617 231.669 122.622 231.268 122.626C230.262 122.591 230.262 122.591 229.549 122.234C229.861 120.495 229.861 120.495 230.262 120.094C230.983 120.068 231.704 120.064 232.425 120.072C233.016 120.076 233.016 120.076 233.619 120.081C233.924 120.086 234.229 120.09 234.543 120.094C234.539 119.789 234.535 119.484 234.53 119.17C234.527 118.776 234.524 118.382 234.521 117.976C234.516 117.583 234.512 117.19 234.508 116.784C234.543 115.813 234.543 115.813 234.9 115.457Z" fill="#EDF9FD"/>
<path d="M102.912 143.994C110.564 143.994 118.216 143.994 126.099 143.994C126.276 144.7 126.276 144.7 126.456 145.421C125.486 146.391 124.967 146.225 123.61 146.227C123.162 146.229 122.715 146.231 122.254 146.234C121.763 146.232 121.272 146.231 120.782 146.229C120.281 146.23 119.78 146.23 119.279 146.231C118.228 146.232 117.177 146.231 116.126 146.227C114.778 146.223 113.43 146.226 112.081 146.23C111.046 146.233 110.011 146.232 108.976 146.23C108.479 146.229 107.982 146.23 107.485 146.232C106.79 146.234 106.096 146.23 105.402 146.227C105.006 146.226 104.611 146.226 104.203 146.225C103.269 146.134 103.269 146.134 102.556 145.421C102.673 144.95 102.791 144.479 102.912 143.994Z" fill="#EFF9FD"/>
<path d="M281.113 111.847C281.72 111.848 281.72 111.848 282.34 111.849C282.797 111.849 283.254 111.849 283.725 111.849C284.227 111.851 284.73 111.853 285.232 111.855C285.744 111.855 286.255 111.856 286.766 111.856C288.115 111.858 289.463 111.861 290.811 111.865C292.186 111.869 293.561 111.87 294.936 111.872C297.635 111.876 300.334 111.882 303.034 111.89C303.17 112.48 303.288 113.076 303.39 113.673C303.034 114.03 303.034 114.03 302.124 114.073C301.517 114.072 301.517 114.072 300.897 114.07C300.44 114.07 299.983 114.07 299.512 114.07C299.01 114.069 298.507 114.067 298.005 114.065C297.493 114.064 296.982 114.064 296.471 114.063C295.122 114.062 293.774 114.058 292.426 114.054C291.051 114.051 289.676 114.049 288.301 114.047C285.602 114.043 282.903 114.037 280.203 114.03C280.067 113.439 279.949 112.844 279.847 112.246C280.203 111.89 280.203 111.89 281.113 111.847Z" fill="#F5FBFE"/>
<path d="M281.113 105.426C281.72 105.427 281.72 105.427 282.34 105.428C282.797 105.428 283.254 105.428 283.725 105.428C284.227 105.43 284.73 105.432 285.232 105.434C285.744 105.435 286.255 105.435 286.766 105.435C288.115 105.437 289.463 105.44 290.811 105.444C292.186 105.448 293.561 105.449 294.936 105.451C297.635 105.455 300.334 105.461 303.034 105.469C303.17 106.059 303.288 106.655 303.39 107.252C303.034 107.609 303.034 107.609 302.124 107.652C301.517 107.651 301.517 107.651 300.897 107.65C300.44 107.649 299.983 107.649 299.512 107.649C299.01 107.648 298.507 107.646 298.005 107.644C297.493 107.643 296.982 107.643 296.471 107.642C295.122 107.641 293.774 107.637 292.426 107.634C291.051 107.63 289.676 107.628 288.301 107.626C285.602 107.623 282.903 107.617 280.203 107.609C280.067 107.018 279.949 106.423 279.847 105.825C280.203 105.469 280.203 105.469 281.113 105.426Z" fill="#F5FBFE"/>
<path d="M75.3717 130.353C75.6326 130.354 75.8935 130.355 76.1623 130.357C76.4632 130.356 76.764 130.356 77.074 130.356C77.4065 130.36 77.7389 130.363 78.0814 130.367C78.4331 130.367 78.7847 130.368 79.1471 130.369C80.333 130.373 81.5188 130.382 82.7046 130.391C83.5517 130.394 84.3988 130.398 85.2459 130.401C87.3122 130.409 89.3784 130.421 91.4446 130.434C93.8483 130.449 96.252 130.46 98.6557 130.471C102.942 130.49 107.229 130.513 111.516 130.537C115.681 130.561 119.846 130.584 124.011 130.604C124.267 130.605 124.524 130.606 124.788 130.608C126.076 130.614 127.363 130.62 128.65 130.627C139.334 130.678 150.018 130.735 160.702 130.796C160.702 130.913 160.702 131.031 160.702 131.152C132.449 131.27 104.197 131.388 75.0886 131.509C75.0886 138.925 75.0886 146.342 75.0886 153.982C74.7354 153.982 74.3823 153.982 74.0184 153.982C74.0019 151.018 73.9892 148.054 73.9814 145.089C73.9777 143.713 73.9727 142.337 73.9646 140.96C73.9569 139.633 73.9526 138.305 73.9507 136.977C73.9494 136.47 73.9468 135.963 73.943 135.456C73.9378 134.747 73.9375 134.038 73.9374 133.329C73.9358 132.925 73.9342 132.521 73.9326 132.105C74.0309 131.014 74.2212 130.508 75.3717 130.353Z" fill="#344E6E"/>
<path d="M211.712 87.2754C212.441 87.3784 213.169 87.4814 213.92 87.5875C214.329 87.6455 214.739 87.7034 215.161 87.7631C216.238 87.9676 217.137 88.2555 218.133 88.7023C218.133 88.9377 218.133 89.1732 218.133 89.4157C216.839 89.4157 215.544 89.4157 214.21 89.4157C214.486 89.7965 214.763 90.1772 215.048 90.5695C217.841 94.4185 220.593 98.2936 223.299 102.204C223.655 102.708 224.02 103.205 224.394 103.695C224.83 104.268 225.231 104.866 225.625 105.468C225.507 105.821 225.389 106.175 225.268 106.538C223.731 105.101 222.536 103.526 221.322 101.812C221.122 101.532 220.922 101.253 220.716 100.965C220.091 100.089 219.469 99.2117 218.847 98.3338C218.646 98.051 218.445 97.7682 218.238 97.4768C214.808 92.6488 214.808 92.6488 213.776 91.0488C213.23 90.1032 213.23 90.1032 212.426 89.7724C212.433 90.2212 212.441 90.67 212.448 91.1324C212.465 92.1413 212.396 92.7151 212.069 93.6964C211.716 93.6964 211.363 93.6964 210.999 93.6964C211.234 91.5775 211.47 89.4585 211.712 87.2754Z" fill="#E7F7FD"/>
<path d="M178.895 83.3516C179.248 83.3516 179.601 83.3516 179.965 83.3516C179.965 94.2994 179.965 105.247 179.965 116.527C179.612 116.527 179.258 116.527 178.895 116.527C178.895 105.579 178.895 94.6311 178.895 83.3516Z" fill="#345070"/>
<path d="M178.895 55.8843C179.248 55.8843 179.601 55.8843 179.965 55.8843C179.965 64.5954 179.965 73.3066 179.965 82.2817C179.612 82.2817 179.258 82.2817 178.895 82.2817C178.895 73.5705 178.895 64.8594 178.895 55.8843Z" fill="#345070"/>
<path d="M178.895 26.2764C179.248 26.2764 179.601 26.2764 179.965 26.2764C179.965 32.1623 179.965 38.0482 179.965 44.1125C179.612 44.1125 179.258 44.1125 178.895 44.1125C178.895 38.2265 178.895 32.3406 178.895 26.2764Z" fill="#345070"/>
<path d="M297.192 23.0881C298.396 23.4225 298.396 23.4225 299.11 24.4927C299.043 25.7635 299.043 25.7635 298.753 26.9898C297.594 27.7623 297.244 27.9 295.899 27.7032C294.924 26.9919 294.532 26.5751 294.294 25.3845C294.649 23.6098 295.406 23.0573 297.192 23.0881Z" fill="#5FCAF2"/>
<path d="M307.314 23.0657C308.286 23.7753 308.676 24.2046 308.942 25.3844C308.741 26.2762 308.741 26.2762 307.983 27.1234C306.957 27.7031 306.957 27.7031 305.82 27.6808C304.817 27.3464 304.817 27.3464 304.104 26.2762C304.17 25.0054 304.17 25.0054 304.46 23.7792C305.619 23.0067 305.97 22.869 307.314 23.0657Z" fill="#60CAF2"/>
<path d="M325.707 15.9979C326.934 16.2877 326.934 16.2877 327.647 17.3579C327.578 18.4675 327.465 19.2358 326.845 20.1671C325.964 20.7332 325.465 20.7439 324.437 20.5684C323.589 20.011 323.589 20.011 323.01 19.1415C323.032 17.8484 323.032 17.8484 323.366 16.6445C324.437 15.931 324.437 15.931 325.707 15.9979Z" fill="#60CAF2"/>
<path d="M278.263 15.9983C279.489 16.2882 279.489 16.2882 280.203 17.3583C280.386 18.5483 280.318 18.9844 279.601 19.9669C278.776 20.5688 278.776 20.5688 277.884 20.7695C276.992 20.5688 276.992 20.5688 276.145 19.8108C275.565 18.7852 275.565 18.7852 275.588 17.6482C276.102 16.1047 276.676 15.9148 278.263 15.9983Z" fill="#60CAF2"/>
<path d="M325.328 22.8872C326.22 23.0656 326.22 23.0656 327.067 23.6229C327.647 24.4925 327.647 24.4925 327.625 25.7856C327.29 26.9895 327.29 26.9895 326.22 27.703C325.03 27.886 324.594 27.8179 323.611 27.101C323.009 26.2761 323.009 26.2761 322.831 25.3843C323.127 23.906 323.85 23.1829 325.328 22.8872Z" fill="#60CBF2"/>
<path d="M277.884 22.8872C279.075 23.1253 279.492 23.5177 280.203 24.4925C280.44 25.6781 280.311 26.112 279.646 27.1233C278.776 27.703 278.776 27.703 277.483 27.6807C276.279 27.3462 276.279 27.3462 275.566 26.2761C275.383 25.0861 275.451 24.65 276.168 23.6675C276.993 23.0656 276.993 23.0656 277.884 22.8872Z" fill="#60CBF2"/>
<path d="M268.632 23.1103C269.859 23.4225 269.859 23.4225 270.572 24.4926C270.505 25.7634 270.505 25.7634 270.215 26.9897C269.059 27.7606 268.704 27.9323 267.361 27.7031C266.514 26.9228 266.514 26.9228 265.935 25.9195C265.959 24.893 266.169 24.3402 266.693 23.4671C267.361 23.0657 267.361 23.0657 268.632 23.1103Z" fill="#60CBF2"/>
<path d="M297.169 15.9761C298.396 16.2882 298.396 16.2882 299.109 17.3583C299.042 18.6292 299.042 18.6292 298.752 19.8554C297.596 20.6263 297.241 20.798 295.899 20.5688C295.051 19.7885 295.051 19.7885 294.472 18.7852C294.496 17.7587 294.706 17.2059 295.23 16.3328C295.899 15.9315 295.899 15.9315 297.169 15.9761Z" fill="#60CBF2"/>
<path d="M306.199 15.7974C307.314 15.9311 307.314 15.9311 308.184 16.5108C308.741 17.358 308.741 17.358 308.741 18.4505C308.384 19.4984 308.384 19.4984 307.76 20.1895C306.957 20.5685 306.957 20.5685 306.043 20.5239C304.628 20.0159 304.628 20.0159 304.104 19.1416C304.266 16.0495 304.266 16.0495 306.199 15.7974Z" fill="#60CBF2"/>
<path d="M317.303 23.4223C318.016 24.1358 318.016 24.1358 318.15 25.362C318.016 26.6328 318.016 26.6328 317.414 27.324C316.44 27.7715 315.865 27.866 314.805 27.703C314.159 27.324 314.159 27.324 313.735 26.6328C313.604 25.4062 313.527 24.5277 314.114 23.4223C315.232 22.8457 316.115 23.1417 317.303 23.4223Z" fill="#61CBF2"/>
<path d="M288.764 23.4225C289.478 24.136 289.478 24.136 289.589 25.3622C289.478 26.633 289.478 26.633 289.076 27.3242C288.09 27.883 287.38 27.8422 286.267 27.7032C285.598 27.3242 285.598 27.3242 285.197 26.633C285.041 25.3845 285.041 25.3845 285.197 24.136C286.266 22.8202 287.216 22.9849 288.764 23.4225Z" fill="#61CBF2"/>
<path d="M325.307 37.5796C326.577 37.6911 326.577 37.6911 327.291 38.0701C327.867 39.1873 327.571 40.0711 327.291 41.2583C326.577 41.9717 326.577 41.9717 325.351 42.1055C324.08 41.9717 324.08 41.9717 323.367 41.3921C322.888 40.2553 323.035 39.5777 323.367 38.4045C324.08 37.6911 324.08 37.6911 325.307 37.5796Z" fill="#61CBF2"/>
<path d="M307.67 37.6914C308.384 38.271 308.384 38.271 308.741 39.1183C308.696 40.233 308.696 40.233 308.384 41.2586C307.146 42.0836 306.628 42.1236 305.173 41.972C304.505 41.5707 304.505 41.5707 304.103 40.9019C303.964 39.7896 303.923 39.079 304.482 38.0927C305.58 37.4551 306.432 37.5366 307.67 37.6914Z" fill="#61CBF2"/>
<path d="M296.768 37.5796C298.039 37.6911 298.039 37.6911 298.753 38.0701C299.329 39.1873 299.033 40.0711 298.753 41.2583C298.039 41.9717 298.039 41.9717 296.813 42.1055C295.542 41.9717 295.542 41.9717 294.829 41.3921C294.35 40.2553 294.497 39.5777 294.829 38.4045C295.542 37.6911 295.542 37.6911 296.768 37.5796Z" fill="#61CBF2"/>
<path d="M279.133 37.6914C279.846 38.2711 279.846 38.2711 280.203 39.1183C280.124 40.4285 280.071 41.0338 279.133 41.9721C277.906 42.1058 277.906 42.1058 276.636 41.9721C275.772 41.22 275.597 40.758 275.432 39.6311C275.565 38.7616 275.565 38.7616 275.944 38.115C277.037 37.4452 277.885 37.5354 279.133 37.6914Z" fill="#61CBF2"/>
<path d="M288.408 15.9311C289.077 16.3101 289.077 16.3101 289.478 17.0012C289.634 18.2498 289.634 18.2498 289.478 19.4983C288.898 20.2117 288.898 20.2117 288.051 20.5685C286.936 20.5239 286.936 20.5239 285.911 20.2117C285.086 18.9742 285.046 18.4559 285.197 17.0012C285.985 15.6878 286.974 15.7519 288.408 15.9311Z" fill="#61CBF2"/>
<path d="M277.661 44.6919C278.776 44.8257 278.776 44.8257 279.623 45.4276C280.203 46.2526 280.203 46.2526 280.359 47.1667C280.203 48.0362 280.203 48.0362 279.824 48.6827C278.731 49.3525 277.884 49.2623 276.636 49.1063C275.922 48.5267 275.922 48.5267 275.565 47.6794C275.668 45.9758 275.808 44.9336 277.661 44.6919Z" fill="#61CBF2"/>
<path d="M326.577 30.5566C327.29 30.9356 327.29 30.9356 327.647 31.6268C327.602 32.8976 327.602 32.8976 327.29 34.1238C326.22 34.8373 326.22 34.8373 324.949 34.7704C323.723 34.4806 323.723 34.4806 323.009 33.4104C322.885 32.4133 322.877 31.8534 323.388 30.9802C324.47 30.3175 325.34 30.4242 326.577 30.5566Z" fill="#61CBF2"/>
<path d="M279.133 30.5566C279.847 30.9356 279.847 30.9356 280.203 31.6268C280.159 32.8976 280.159 32.8976 279.847 34.1238C278.777 34.8373 278.777 34.8373 277.506 34.7704C276.279 34.4806 276.279 34.4806 275.566 33.4104C275.441 32.4133 275.433 31.8534 275.945 30.9802C277.026 30.3175 277.897 30.4242 279.133 30.5566Z" fill="#61CBF2"/>
<path d="M269.858 16.2881C270.572 17.0015 270.572 17.0015 270.706 18.0271C270.572 19.1418 270.572 19.1418 269.992 20.0113C269.145 20.5687 269.145 20.5687 268.03 20.5241C267.005 20.212 267.005 20.212 266.291 19.4986C266.097 17.3664 266.097 17.3664 266.67 16.2881C267.787 15.7114 268.671 16.0074 269.858 16.2881Z" fill="#61CBF2"/>
<path d="M317.303 16.2881C318.016 17.0015 318.016 17.0015 318.15 18.0271C318.016 19.1418 318.016 19.1418 317.436 20.0113C316.589 20.5687 316.589 20.5687 315.475 20.5241C314.449 20.212 314.449 20.212 313.735 19.4986C313.542 17.3664 313.542 17.3664 314.115 16.2881C315.232 15.7114 316.115 16.0074 317.303 16.2881Z" fill="#61CBF2"/>
<path d="M307.671 30.5566C308.384 31.1586 308.384 31.1586 308.741 31.9835C308.692 32.9891 308.511 33.5737 307.961 34.4137C306.987 35.0518 306.309 35.0029 305.174 34.8373C304.335 34.0821 304.133 33.61 303.97 32.4963C304.103 31.6268 304.103 31.6268 304.483 30.9802C305.575 30.3104 306.423 30.4006 307.671 30.5566Z" fill="#62CBF2"/>
<path d="M296.768 30.4453C298.039 30.5568 298.039 30.5568 298.752 30.9358C299.335 32.065 299.057 32.9291 298.752 34.124C297.682 34.8374 297.682 34.8374 296.411 34.7706C295.185 34.4807 295.185 34.4807 294.472 33.4106C294.624 31.5472 294.749 30.6289 296.768 30.4453Z" fill="#62CBF2"/>
<path d="M315.875 30.4454C316.126 30.4394 316.376 30.4334 316.633 30.4272C316.854 30.47 317.075 30.5128 317.302 30.5568C318.127 31.7944 318.167 32.3126 318.016 33.7673C317.614 34.4362 317.614 34.4362 316.946 34.8375C315.833 34.9765 315.123 35.0174 314.136 34.4585C313.514 33.3866 313.625 32.4802 313.735 31.2703C314.565 30.4408 314.75 30.4516 315.875 30.4454Z" fill="#62CBF2"/>
<path d="M285.911 30.557C286.579 30.4274 286.579 30.4274 287.337 30.4455C287.588 30.4469 287.838 30.4483 288.096 30.4497C288.764 30.557 288.764 30.557 289.478 31.2704C289.674 33.4295 289.674 33.4295 289.077 34.4586C288.09 35.0175 287.38 34.9767 286.267 34.8377C285.598 34.4364 285.598 34.4364 285.197 33.7675C285.046 32.3128 285.086 31.7946 285.911 30.557Z" fill="#62CBF2"/>
<path d="M288.408 44.8256C289.076 45.2046 289.076 45.2046 289.478 45.8958C289.589 47.1666 289.589 47.1666 289.478 48.3928C288.764 49.1063 288.764 49.1063 287.538 49.2177C286.267 49.1063 286.267 49.1063 285.576 48.705C285.017 47.7187 285.058 47.0081 285.197 45.8958C285.985 44.5824 286.974 44.6464 288.408 44.8256Z" fill="#63CCF2"/>
<path d="M268.23 30.4453C269.501 30.5568 269.501 30.5568 270.192 30.9581C270.751 31.9444 270.71 32.655 270.571 33.7673C270.17 34.4361 270.17 34.4361 269.501 34.8374C268.389 34.9765 267.678 35.0173 266.692 34.4584C266.07 33.3865 266.181 32.4802 266.291 31.2702C267.004 30.5568 267.004 30.5568 268.23 30.4453Z" fill="#63CCF2"/>
<path d="M269.502 44.8259C270.171 45.2272 270.171 45.2272 270.572 45.8961C270.711 47.0084 270.752 47.719 270.193 48.7053C269.121 49.3276 268.215 49.2166 267.005 49.1066C266.291 48.3931 266.291 48.3931 266.18 47.1669C266.291 45.8961 266.291 45.8961 266.692 45.2049C267.679 44.646 268.389 44.6869 269.502 44.8259Z" fill="#63CCF2"/>
<path d="M269.501 37.6913C270.17 38.0926 270.17 38.0926 270.571 38.7615C270.712 39.8849 270.76 40.5876 270.17 41.5707C269.187 42.1605 268.484 42.1124 267.361 41.972C266.692 41.5929 266.692 41.5929 266.291 40.9018C266.157 39.631 266.157 39.631 266.291 38.4047C267.528 37.5797 268.047 37.5398 269.501 37.6913Z" fill="#63CCF2"/>
<path d="M316.945 37.6914C317.614 38.0927 317.614 38.0927 318.016 38.7616C318.156 39.885 318.204 40.5877 317.614 41.5708C316.631 42.1606 315.928 42.1125 314.805 41.9721C314.136 41.5708 314.136 41.5708 313.735 40.9019C313.594 39.7785 313.546 39.0758 314.136 38.0927C315.119 37.5029 315.822 37.551 316.945 37.6914Z" fill="#64CCF2"/>
<path d="M288.408 37.6914C289.077 38.0927 289.077 38.0927 289.478 38.7616C289.619 39.885 289.667 40.5877 289.077 41.5708C288.094 42.1606 287.391 42.1125 286.268 41.9721C285.599 41.5708 285.599 41.5708 285.198 40.9019C285.057 39.7785 285.009 39.0758 285.599 38.0927C286.582 37.5029 287.285 37.551 288.408 37.6914Z" fill="#64CCF2"/>
<path d="M178.895 13.4341C179.248 13.4341 179.601 13.4341 179.965 13.4341C179.965 17.3188 179.965 21.2035 179.965 25.2059C179.612 25.2059 179.258 25.2059 178.895 25.2059C178.895 21.3212 178.895 17.4365 178.895 13.4341Z" fill="#345070"/>
<path d="M19.6397 131.933C20.5092 132.222 20.5092 132.222 21.2226 132.936C21.3118 133.828 21.3118 133.828 21.2226 134.719C20.5092 135.433 20.5092 135.433 19.439 135.522C18.3689 135.433 18.3689 135.433 17.6554 134.719C17.5241 133.696 17.5216 133.147 18.079 132.267C18.7256 131.866 18.7256 131.866 19.6397 131.933Z" fill="#5FCAF2"/>
<path d="M25.1474 109.66C26.2175 109.749 26.2175 109.749 26.931 110.462C27.0622 111.486 27.0648 112.035 26.5074 112.915C25.8608 113.316 25.8608 113.316 24.9467 113.249C24.0772 112.959 24.0772 112.959 23.3638 112.246C23.2746 111.354 23.2746 111.354 23.3638 110.462C24.0772 109.749 24.0772 109.749 25.1474 109.66Z" fill="#5FCAF2"/>
<path d="M19.4394 109.66C20.5095 109.749 20.5095 109.749 21.223 110.462C21.3542 111.486 21.3568 112.035 20.7994 112.915C20.1528 113.316 20.1528 113.316 19.2387 113.249C18.3692 112.959 18.3692 112.959 17.6558 112.246C17.5666 111.354 17.5666 111.354 17.6558 110.462C18.3692 109.749 18.3692 109.749 19.4394 109.66Z" fill="#5FCAF2"/>
<path d="M25.1474 102.169C26.2175 102.258 26.2175 102.258 26.931 102.972C27.0622 103.995 27.0648 104.544 26.5074 105.424C25.8608 105.825 25.8608 105.825 24.9467 105.758C24.0772 105.469 24.0772 105.469 23.3638 104.755C23.2746 103.863 23.2746 103.863 23.3638 102.972C24.0772 102.258 24.0772 102.258 25.1474 102.169Z" fill="#5FCAF2"/>
<path d="M19.4394 102.169C20.5095 102.258 20.5095 102.258 21.223 102.972C21.3542 103.995 21.3568 104.544 20.7994 105.424C20.1528 105.825 20.1528 105.825 19.2387 105.758C18.3692 105.469 18.3692 105.469 17.6558 104.755C17.5666 103.863 17.5666 103.863 17.6558 102.972C18.3692 102.258 18.3692 102.258 19.4394 102.169Z" fill="#5FCAF2"/>
<path d="M19.4394 94.6777C20.5095 94.7669 20.5095 94.7669 21.223 95.4804C21.3542 96.5042 21.3568 97.0527 20.7994 97.9328C20.1528 98.3341 20.1528 98.3341 19.2387 98.2672C18.3692 97.9774 18.3692 97.9774 17.6558 97.264C17.5666 96.3722 17.5666 96.3722 17.6558 95.4804C18.3692 94.7669 18.3692 94.7669 19.4394 94.6777Z" fill="#5FCAF2"/>
<path d="M36.5624 109.638C36.9156 109.674 37.2687 109.711 37.6326 109.749C38.346 110.819 38.346 110.819 38.2568 111.733C37.9893 112.603 37.9893 112.603 37.2759 113.316C36.0997 113.199 35.6268 113.094 34.7788 112.246C34.6896 111.354 34.6896 111.354 34.7788 110.463C35.4922 109.749 35.4922 109.749 36.5624 109.638Z" fill="#5FCAF2"/>
<path d="M30.8544 109.638C31.2076 109.674 31.5607 109.711 31.9246 109.749C32.638 110.819 32.638 110.819 32.5488 111.733C32.2813 112.603 32.2813 112.603 31.5678 113.316C30.3917 113.199 29.9188 113.094 29.0708 112.246C28.9816 111.354 28.9816 111.354 29.0708 110.463C29.7842 109.749 29.7842 109.749 30.8544 109.638Z" fill="#5FCAF2"/>
<path d="M35.4918 102.258C36.7849 102.392 36.7849 102.392 37.9888 102.615C38.4607 104.545 38.4607 104.545 37.9665 105.446C36.9504 106.003 36.2284 105.736 35.135 105.468C34.9121 104.264 34.9121 104.264 34.7783 102.971C35.0138 102.736 35.2492 102.5 35.4918 102.258Z" fill="#5FCAF2"/>
<path d="M29.7847 94.7666C31.0778 94.9004 31.0778 94.9004 32.2818 95.1233C32.7537 97.0537 32.7537 97.0537 32.2595 97.9548C31.2434 98.512 30.5213 98.2444 29.428 97.9771C29.2051 96.7732 29.2051 96.7732 29.0713 95.48C29.3067 95.2446 29.5422 95.0092 29.7847 94.7666Z" fill="#60CAF2"/>
<path d="M36.3616 87.1641C37.2757 87.2755 37.2757 87.2755 37.9446 87.6991C38.3459 88.3457 38.3459 88.3457 38.279 89.2598C37.9892 90.1293 37.9892 90.1293 37.2757 90.8428C35.2894 90.6401 35.2894 90.6401 34.7787 90.1293C34.7118 89.0814 34.7118 89.0814 34.7787 87.989C35.4921 87.2755 35.4921 87.2755 36.3616 87.1641Z" fill="#60CAF2"/>
<path d="M24.0767 87.2754C25.3698 87.4092 25.3698 87.4092 26.5738 87.6321C27.0456 89.5625 27.0456 89.5625 26.5515 90.4636C25.5354 91.0208 24.8133 90.7531 23.72 90.4859C23.4971 89.282 23.4971 89.282 23.3633 87.9888C23.5987 87.7534 23.8342 87.518 24.0767 87.2754Z" fill="#60CAF2"/>
<path d="M331.571 63.7319C332.05 64.0531 332.525 64.3815 332.998 64.7129C333.395 64.9861 333.395 64.9861 333.8 65.2647C334.109 65.5655 334.109 65.5655 334.425 65.8723C334.425 67.2992 334.425 67.2992 333.994 67.9067C333.805 68.0888 333.616 68.2709 333.421 68.4585C333.235 68.6443 333.049 68.83 332.857 69.0214C332.284 69.4395 332.284 69.4395 331.214 69.4395C331.214 68.726 331.214 68.726 332.106 67.7896C332.4 67.5101 332.695 67.2305 332.998 66.9424C331.467 66.9424 329.937 66.9424 328.36 66.9424C328.36 66.707 328.36 66.4716 328.36 66.229C330.479 66.0524 330.479 66.0524 332.641 65.8723C332.288 65.5191 331.935 65.166 331.571 64.8021C331.571 64.4489 331.571 64.0958 331.571 63.7319Z" fill="#E6F7FD"/>
<path d="M29.7842 102.258C31.0774 102.392 31.0774 102.392 32.2813 102.615C32.7552 104.553 32.7552 104.553 32.2367 105.446C31.5678 105.825 31.5678 105.825 30.6537 105.758C29.7842 105.468 29.7842 105.468 29.0708 104.755C28.9816 103.863 28.9816 103.863 29.0708 102.971C29.3062 102.736 29.5417 102.5 29.7842 102.258Z" fill="#60CBF2"/>
<path d="M36.3613 94.6553C37.2754 94.7667 37.2754 94.7667 37.9442 95.1904C38.3455 95.8369 38.3455 95.8369 38.2787 96.751C37.9888 97.6205 37.9888 97.6205 37.2754 98.334C36.1606 98.2002 36.1606 98.2002 35.135 97.9772C34.9121 96.7733 34.9121 96.7733 34.7783 95.4802C35.4918 94.7667 35.4918 94.7667 36.3613 94.6553Z" fill="#60CBF2"/>
<path d="M24.0772 94.7666C25.3703 94.9004 25.3703 94.9004 26.5743 95.1233C27.0481 97.0619 27.0481 97.0619 26.5297 97.9548C25.8608 98.3338 25.8608 98.3338 24.9467 98.2669C24.0772 97.9771 24.0772 97.9771 23.3638 97.2637C23.2746 96.3718 23.2746 96.3718 23.3638 95.48C23.5992 95.2446 23.8346 95.0092 24.0772 94.7666Z" fill="#60CBF2"/>
<path d="M30.6542 87.1641C31.5683 87.2755 31.5683 87.2755 32.2372 87.6991C32.6385 88.3457 32.6385 88.3457 32.5716 89.2598C32.2818 90.1293 32.2818 90.1293 31.5683 90.8428C30.4536 90.709 30.4536 90.709 29.428 90.486C29.2051 89.2821 29.2051 89.2821 29.0713 87.989C29.7847 87.2755 29.7847 87.2755 30.6542 87.1641Z" fill="#60CBF2"/>
<path d="M42.4707 131.911C43.3402 132.223 43.3402 132.223 44.0537 133.293C43.8609 134.913 43.8609 134.913 43.3402 135.433C42.2924 135.5 42.2924 135.5 41.1999 135.433C40.4865 134.72 40.4865 134.72 40.375 133.85C40.4865 132.936 40.4865 132.936 40.9101 132.267C41.5566 131.866 41.5566 131.866 42.4707 131.911Z" fill="#60CAF2"/>
<path d="M42.2694 117.129C42.6226 117.166 42.9757 117.202 43.3396 117.24C44.053 118.311 44.053 118.311 43.9862 119.225C43.6963 120.094 43.6963 120.094 42.6262 120.808C41.57 120.68 41.254 120.506 40.4858 119.737C40.3967 118.846 40.3967 118.846 40.4858 117.954C41.1993 117.24 41.1993 117.24 42.2694 117.129Z" fill="#60CAF2"/>
<path d="M20.8667 87.6323C21.3406 89.5709 21.3406 89.5709 20.8222 90.4638C20.1533 90.8428 20.1533 90.8428 19.2392 90.7759C18.3697 90.4861 18.3697 90.4861 17.6562 89.7727C17.7454 88.6802 17.7454 88.6802 18.013 87.6323C19.0338 87.1219 19.773 87.4183 20.8667 87.6323Z" fill="#61CBF2"/>
<path d="M30.8544 124.642C31.9246 124.731 31.9246 124.731 32.638 125.445C32.7272 126.337 32.7272 126.337 32.638 127.228C31.9246 127.942 31.9246 127.942 30.8544 128.031C29.7842 127.942 29.7842 127.942 29.0708 127.228C28.9816 126.337 28.9816 126.337 29.0708 125.445C29.7842 124.731 29.7842 124.731 30.8544 124.642Z" fill="#61CBF2"/>
<path d="M25.1474 124.642C26.2175 124.731 26.2175 124.731 26.931 125.445C27.0202 126.337 27.0202 126.337 26.931 127.228C26.2175 127.942 26.2175 127.942 25.1474 128.031C24.0772 127.942 24.0772 127.942 23.3638 127.228C23.2746 126.337 23.2746 126.337 23.3638 125.445C24.0772 124.731 24.0772 124.731 25.1474 124.642Z" fill="#61CBF2"/>
<path d="M19.4394 124.642C20.5095 124.731 20.5095 124.731 21.223 125.445C21.3122 126.337 21.3122 126.337 21.223 127.228C20.5095 127.942 20.5095 127.942 19.4394 128.031C18.3692 127.942 18.3692 127.942 17.6558 127.228C17.5666 126.337 17.5666 126.337 17.6558 125.445C18.3692 124.731 18.3692 124.731 19.4394 124.642Z" fill="#61CBF2"/>
<path d="M30.8544 117.151C31.9246 117.24 31.9246 117.24 32.638 117.954C32.7272 118.845 32.7272 118.845 32.638 119.737C31.9246 120.451 31.9246 120.451 30.8544 120.54C29.7842 120.451 29.7842 120.451 29.0708 119.737C28.9816 118.845 28.9816 118.845 29.0708 117.954C29.7842 117.24 29.7842 117.24 30.8544 117.151Z" fill="#61CBF2"/>
<path d="M25.1474 117.151C26.2175 117.24 26.2175 117.24 26.931 117.954C27.0202 118.845 27.0202 118.845 26.931 119.737C26.2175 120.451 26.2175 120.451 25.1474 120.54C24.0772 120.451 24.0772 120.451 23.3638 119.737C23.2746 118.845 23.2746 118.845 23.3638 117.954C24.0772 117.24 24.0772 117.24 25.1474 117.151Z" fill="#61CBF2"/>
<path d="M19.4394 117.151C20.5095 117.24 20.5095 117.24 21.223 117.954C21.3122 118.845 21.3122 118.845 21.223 119.737C20.5095 120.451 20.5095 120.451 19.4394 120.54C18.3692 120.451 18.3692 120.451 17.6558 119.737C17.5666 118.845 17.5666 118.845 17.6558 117.954C18.3692 117.24 18.3692 117.24 19.4394 117.151Z" fill="#61CBF2"/>
<path d="M36.5622 132.133C37.6324 132.222 37.6324 132.222 38.3459 132.936C38.1432 134.922 38.1432 134.922 37.6324 135.433C36.5845 135.5 36.5845 135.5 35.4921 135.433C34.7786 134.72 34.7786 134.72 34.6895 133.828C34.8263 132.459 35.2185 132.245 36.5622 132.133Z" fill="#61CBF2"/>
<path d="M30.8542 132.133C31.9244 132.222 31.9244 132.222 32.6378 132.936C32.4352 134.922 32.4352 134.922 31.9244 135.433C30.8765 135.5 30.8765 135.5 29.7841 135.433C29.0706 134.72 29.0706 134.72 28.9814 133.828C29.1183 132.459 29.5105 132.245 30.8542 132.133Z" fill="#61CBF2"/>
<path d="M25.1472 132.133C26.2174 132.222 26.2174 132.222 26.9308 132.936C26.7281 134.922 26.7281 134.922 26.2174 135.433C25.1695 135.5 25.1695 135.5 24.077 135.433C23.3636 134.72 23.3636 134.72 23.2744 133.828C23.4113 132.459 23.8035 132.245 25.1472 132.133Z" fill="#62CBF2"/>
<path d="M36.5622 124.642C37.6324 124.731 37.6324 124.731 38.3459 125.445C38.1432 127.431 38.1432 127.431 37.6324 127.942C36.5845 128.009 36.5845 128.009 35.4921 127.942C34.7786 127.228 34.7786 127.228 34.6895 126.337C34.8263 124.968 35.2185 124.754 36.5622 124.642Z" fill="#61CBF2"/>
<path d="M36.5622 117.129C36.9154 117.166 37.2686 117.202 37.6324 117.24C38.3459 118.311 38.3459 118.311 38.2344 119.247C37.9891 120.094 37.9891 120.094 37.6324 120.451C36.5845 120.518 36.5845 120.518 35.4921 120.451C34.7786 119.737 34.7786 119.737 34.6895 118.846C34.8262 117.479 35.2242 117.268 36.5622 117.129Z" fill="#61CBF2"/>
<path d="M254.163 63.7319C253.494 65.471 253.494 65.471 253.092 65.8723C254.387 65.99 255.682 66.1077 257.016 66.229C257.016 66.4644 257.016 66.6999 257.016 66.9424C254.897 67.119 254.897 67.119 252.736 67.2992C253.207 67.77 253.678 68.2409 254.163 68.726C254.163 68.9615 254.163 69.1969 254.163 69.4395C252.801 68.8848 251.954 67.9998 250.952 66.9424C251.503 65.5911 252.576 63.7319 254.163 63.7319Z" fill="#FBFDFE"/>
<path d="M42.2693 124.62C42.6224 124.657 42.9756 124.694 43.3394 124.732C44.0529 125.802 44.0529 125.802 43.9414 126.738C43.6962 127.585 43.6962 127.585 43.3394 127.942C42.2916 128.009 42.2916 128.009 41.1991 127.942C40.4857 127.229 40.4857 127.229 40.3965 126.337C40.5332 124.97 40.9313 124.759 42.2693 124.62Z" fill="#61CBF2"/>
<path d="M74.3743 131.866C74.492 131.866 74.6097 131.866 74.731 131.866C74.8487 139.164 74.9665 146.463 75.0877 153.982C74.7346 153.982 74.3814 153.982 74.0176 153.982C74.1353 146.684 74.253 139.385 74.3743 131.866Z" fill="#305678"/>
<path d="M178.895 47.3228C179.248 47.3228 179.601 47.3228 179.965 47.3228C179.965 49.0885 179.965 50.8543 179.965 52.6736C179.612 52.6736 179.258 52.6736 178.895 52.6736C178.895 50.9078 178.895 49.142 178.895 47.3228Z" fill="#345070"/>
<path d="M254.163 63.7319C253.811 64.9157 253.561 65.4319 252.557 66.1844C252.263 66.3168 251.969 66.4493 251.666 66.5857C251.43 66.468 251.195 66.3503 250.952 66.229C251.351 65.8107 251.753 65.395 252.156 64.9805C252.491 64.6328 252.491 64.6328 252.833 64.2782C253.449 63.7319 253.449 63.7319 254.163 63.7319Z" fill="#DAF2FC"/>
<path d="M232.18 109.504C232.371 109.585 232.563 109.666 232.76 109.749C231.809 110.383 230.966 110.775 229.906 111.176C229.67 110.94 229.435 110.705 229.192 110.462C231.124 109.365 231.124 109.365 232.18 109.504Z" fill="#345070"/>
</svg>
