<svg width="501" height="432" viewBox="0 0 501 432" fill="none" xmlns="http://www.w3.org/2000/svg">
<path d="M159.771 1.81502C162.985 3.29841 165.849 3.08646 169.331 2.89727C170.045 4.32584 170.045 4.32584 170.774 5.78327C171.965 5.54518 173.155 5.30708 174.382 5.06177C177.728 8.88652 180.764 13.5531 180.875 18.7703C179.829 21.9087 179.325 23.4114 176.546 25.2638C176.698 26.0185 176.698 26.0185 176.853 26.7885C176.99 27.4758 177.127 28.1632 177.268 28.8713C177.484 29.9357 177.484 29.9357 177.705 31.0217C178.975 38.0233 178.948 43.7935 174.838 49.823C172.586 52.5277 169.997 54.9191 167.167 57.0098C166.69 57.0098 166.214 57.0098 165.724 57.0098C166.333 60.0664 166.631 61.5574 168.934 63.7203C178.665 69.766 189.231 74.311 200.099 77.909C202.875 79.1271 204.697 81.059 206.128 83.7054C207.192 87.0921 207.889 90.3896 208.374 93.9035C208.443 94.3963 208.512 94.8891 208.583 95.3968C208.812 97.034 209.035 98.6718 209.258 100.31C209.421 101.489 209.585 102.669 209.749 103.849C210.192 107.043 210.63 110.237 211.068 113.432C211.527 116.78 211.99 120.128 212.452 123.475C213.227 129.096 213.999 134.717 214.77 140.339C215.66 146.832 216.555 153.325 217.452 159.818C218.317 166.071 219.178 172.325 220.037 178.578C220.402 181.237 220.768 183.895 221.136 186.553C221.569 189.684 221.999 192.815 222.426 195.947C222.583 197.095 222.741 198.242 222.901 199.389C223.119 200.959 223.332 202.529 223.545 204.099C223.665 204.976 223.786 205.853 223.91 206.757C224.17 209.289 224.21 211.754 224.165 214.297C223.213 214.297 222.26 214.297 221.279 214.297C222.018 222.119 222.018 222.119 223.895 229.719C226.033 236.287 225.029 242.061 222.001 248.208C220.058 250.833 219.039 251.627 215.913 252.537C212.858 252.537 211.519 252.115 209.014 250.372C204.97 245.938 203.762 241.468 203.828 235.491C203.833 234.559 203.837 233.627 203.842 232.667C203.963 230.17 203.963 230.17 204.327 228.746C204.923 226.311 204.758 223.824 204.73 221.332C204.727 220.794 204.723 220.256 204.72 219.703C204.711 218.382 204.699 217.061 204.685 215.74C202.542 215.74 200.399 215.74 198.191 215.74C198.627 223.271 199.063 230.801 199.499 238.332C199.531 238.892 199.564 239.452 199.597 240.028C200.8 260.793 202.015 281.557 203.242 302.32C200.385 302.32 197.527 302.32 194.584 302.32C194.372 303.403 194.16 304.486 193.942 305.602C191.889 316.024 189.675 326.401 187.344 336.764C186.366 341.12 185.401 345.479 184.433 349.838C183.213 355.332 181.99 360.825 180.751 366.315C179.739 370.806 178.74 375.299 177.75 379.795C177.373 381.494 176.991 383.192 176.604 384.889C176.066 387.252 175.546 389.619 175.029 391.986C174.867 392.677 174.706 393.367 174.539 394.079C173.705 397.998 173.615 400.96 174.714 404.833C175.103 406.216 175.103 406.216 175.368 408.617C175.828 411.266 176.307 412.747 177.989 414.874C181.954 416.752 186.438 417.302 190.717 418.109C193.95 418.817 196.968 420.126 199.634 422.089C199.936 422.577 200.237 423.065 200.548 423.568C201.694 425.141 201.694 425.141 203.597 425.34C204.679 425.343 204.679 425.343 205.782 425.347C206.611 425.356 207.439 425.365 208.293 425.374C209.202 425.37 210.112 425.365 211.049 425.36C212.017 425.365 212.984 425.372 213.951 425.379C216.579 425.395 219.207 425.393 221.835 425.387C224.03 425.383 226.224 425.388 228.419 425.393C233.598 425.406 238.777 425.403 243.956 425.391C249.295 425.379 254.635 425.39 259.975 425.414C264.561 425.433 269.146 425.438 273.732 425.432C276.471 425.428 279.209 425.43 281.947 425.445C284.524 425.458 287.1 425.454 289.677 425.436C291.07 425.431 292.464 425.443 293.857 425.456C298.958 425.506 298.958 425.506 303.314 423.189C303.862 422.588 304.409 421.987 304.973 421.368C306.421 420.638 306.421 420.638 307.693 420.252C308.167 420.104 308.642 419.956 309.13 419.804C309.863 419.596 309.863 419.596 310.61 419.384C311.116 419.232 311.622 419.081 312.143 418.925C315.761 417.88 319.241 417.241 323.011 417.039C323.142 416.549 323.273 416.06 323.408 415.556C323.59 414.885 323.771 414.213 323.958 413.521C324.149 412.789 324.341 412.057 324.538 411.303C325.175 409.102 325.175 409.102 325.902 407.375C327.45 403.558 327.316 401.037 326.209 397.08C324.818 391.888 323.61 386.67 322.47 381.416C322.293 380.599 322.115 379.782 321.932 378.94C321.362 376.315 320.794 373.69 320.226 371.066C319.826 369.222 319.426 367.378 319.025 365.534C318.086 361.209 317.149 356.883 316.212 352.557C315.144 347.624 314.074 342.691 313.003 337.759C310.805 327.63 308.61 317.5 306.416 307.371C298.083 307.133 289.75 306.894 281.164 306.649C282.752 299.202 284.491 291.817 286.386 284.442C286.752 283.019 287.116 281.595 287.48 280.17C289.507 272.243 289.507 272.243 290.516 268.372C291.15 265.936 291.775 263.497 292.392 261.057C292.741 259.692 293.1 258.329 293.46 256.966C293.771 255.729 293.771 255.729 294.088 254.467C294.275 253.744 294.462 253.021 294.654 252.275C294.904 250.098 294.627 249.287 293.429 247.486C292.953 246.921 292.477 246.355 291.986 245.772C288.457 241.14 288.572 235.75 289.1 230.17C289.871 226.967 290.853 223.883 291.986 220.791C290.796 220.552 289.605 220.314 288.379 220.069C288.828 213.065 289.636 206.136 290.582 199.185C290.733 198.063 290.883 196.941 291.034 195.819C291.524 192.173 292.02 188.527 292.516 184.882C292.688 183.619 292.859 182.357 293.031 181.094C293.745 175.845 294.461 170.595 295.181 165.346C296.209 157.853 297.227 150.359 298.233 142.864C298.943 137.573 299.664 132.284 300.393 126.996C300.827 123.845 301.256 120.693 301.674 117.54C302.067 114.578 302.473 111.617 302.89 108.658C303.039 107.576 303.185 106.493 303.325 105.409C304.739 94.5104 304.739 94.5104 308.581 90.1989C310.354 88.846 310.354 88.846 312.053 88.0344C312.623 87.7516 313.193 87.4689 313.781 87.1776C314.421 86.8874 314.421 86.8874 315.074 86.5914C315.238 84.8938 315.238 84.8938 313.316 83.2544C311.007 80.5576 310.745 78.5871 310.745 75.0473C311.675 72.5508 312.634 71.0025 314.488 69.095C316.83 65.5422 316.027 61.4819 315.435 57.4157C315.126 55.2112 314.93 53.0988 314.849 50.8771C314.822 50.2446 314.795 49.6122 314.767 48.9606C315.582 43.5171 319.296 40.3731 323.236 36.9431C326.443 34.0771 329.241 31.4253 331.534 27.744C333.961 23.9847 336.779 22.215 341.048 20.9348C346.567 19.9049 350.865 21.5132 355.478 24.5423C356.708 25.7165 357.916 26.9152 359.086 28.1498C359.785 28.4772 360.485 28.8046 361.205 29.1419C368.047 32.7719 369.761 40.0223 372.073 46.9088C372.431 47.93 372.789 48.9512 373.147 49.9724C375.165 55.8848 376.42 61.111 375.404 67.3701C374.929 70.3814 374.682 72.1376 376.357 74.7768C378.057 77.5594 378.222 79.0593 377.845 82.2623C377.369 82.7385 376.892 83.2147 376.402 83.7054C376.795 83.8281 377.189 83.9509 377.594 84.0774C392.222 88.7784 392.222 88.7784 396.136 95.4748C397.817 99.1507 398.875 102.388 398.689 106.446C398.641 112.148 399.605 117.703 400.46 123.324C400.878 126.092 401.276 128.862 401.675 131.633C402.415 136.768 403.162 141.902 403.945 147.031C408.579 177.504 408.579 177.504 405.024 190.757C404.152 194.175 403.604 197.656 402.996 201.13C402.744 202.488 402.491 203.845 402.235 205.202C402.11 205.866 401.985 206.53 401.857 207.213C401.73 207.884 401.604 208.555 401.474 209.246C401.209 210.662 400.944 212.078 400.679 213.494C400.044 216.888 399.407 220.283 398.768 223.677C397.34 223.677 395.911 223.677 394.439 223.677C394.312 226.221 394.472 228.116 395.206 230.576C396.384 234.903 396.393 240.77 394.315 244.794C392.57 250.549 396.303 258.47 397.852 264.185C398.309 265.871 398.763 267.557 399.216 269.243C400.177 272.814 401.141 276.384 402.105 279.954C403.228 284.112 404.35 288.272 405.469 292.432C405.916 294.094 406.366 295.756 406.816 297.417C407.089 298.43 407.361 299.442 407.634 300.454C407.873 301.339 408.112 302.224 408.359 303.136C408.869 305.206 408.869 305.206 408.869 306.649C402.441 306.649 396.012 306.649 389.389 306.649C389.627 307.125 389.865 307.601 390.11 308.092C390.245 309.22 390.34 310.353 390.416 311.486C390.491 312.56 390.491 312.56 390.566 313.656C390.643 314.839 390.644 314.839 390.722 316.046C390.779 316.874 390.835 317.703 390.893 318.556C391.08 321.308 391.262 324.06 391.443 326.812C391.572 328.721 391.7 330.63 391.829 332.539C392.098 336.548 392.365 340.557 392.631 344.567C392.937 349.192 393.247 353.818 393.559 358.443C393.86 362.897 394.158 367.352 394.455 371.807C394.581 373.699 394.708 375.592 394.835 377.484C395.014 380.135 395.189 382.786 395.364 385.437C395.417 386.217 395.47 386.996 395.524 387.8C395.784 391.785 395.937 395.729 395.882 399.723C396.359 399.723 396.835 399.723 397.325 399.723C397.534 400.556 397.742 401.389 397.957 402.248C398.093 402.782 398.23 403.316 398.371 403.866C398.714 405.27 398.995 406.69 399.264 408.11C400.199 412.003 402.304 415.45 404.208 418.938C405.262 421.368 405.262 421.368 405.262 425.697C436.69 425.697 468.119 425.697 500.5 425.697C500.5 426.649 500.5 427.601 500.5 428.583C499.999 428.586 499.499 428.589 498.983 428.592C486.814 428.666 474.645 428.745 462.476 428.828C456.591 428.867 450.706 428.906 444.821 428.942C439.693 428.972 434.565 429.006 429.438 429.042C426.721 429.061 424.005 429.079 421.289 429.094C418.26 429.111 415.231 429.133 412.202 429.156C411.297 429.16 410.391 429.164 409.458 429.169C408.637 429.176 407.815 429.183 406.969 429.19C406.252 429.195 405.535 429.199 404.796 429.204C403.083 429.193 403.083 429.193 401.654 430.026C399.876 430.139 398.114 430.212 396.333 430.254C395.793 430.269 395.253 430.284 394.696 430.299C392.927 430.347 391.158 430.39 389.389 430.432C388.176 430.463 386.963 430.494 385.751 430.526C377.735 430.725 369.726 430.812 361.707 430.721C361.004 430.715 360.301 430.708 359.576 430.702C358.669 430.69 358.669 430.69 357.744 430.677C356.064 430.683 356.064 430.683 354.035 431.469C352.502 431.544 350.967 431.576 349.432 431.585C348.005 431.595 348.005 431.595 346.549 431.606C345.509 431.609 344.468 431.613 343.427 431.615C342.358 431.619 341.29 431.624 340.221 431.628C337.98 431.635 335.738 431.64 333.496 431.642C330.633 431.646 327.769 431.663 324.906 431.684C322.697 431.697 320.489 431.701 318.28 431.702C317.225 431.704 316.17 431.71 315.115 431.72C313.634 431.732 312.153 431.731 310.671 431.726C309.83 431.729 308.989 431.731 308.123 431.734C305.695 431.469 305.695 431.469 303.468 430.387C299.521 428.555 295.15 429.01 290.89 429.036C289.904 429.034 288.917 429.031 287.93 429.028C285.262 429.021 282.594 429.028 279.925 429.037C277.126 429.045 274.327 429.042 271.527 429.041C266.826 429.04 262.125 429.048 257.424 429.062C251.999 429.077 246.574 429.079 241.149 429.075C235.919 429.071 230.688 429.075 225.458 429.083C223.238 429.086 221.017 429.087 218.797 429.085C216.179 429.084 213.56 429.09 210.942 429.101C209.53 429.106 208.118 429.103 206.706 429.101C202.128 429.128 198.26 429.519 193.862 430.747C191.407 430.926 191.407 430.926 188.948 430.922C188.018 430.925 187.089 430.927 186.132 430.929C185.135 430.924 184.138 430.919 183.141 430.914C182.105 430.913 181.069 430.912 180.032 430.912C177.871 430.911 175.71 430.905 173.548 430.896C170.781 430.883 168.014 430.881 165.247 430.881C163.111 430.881 160.976 430.877 158.84 430.872C157.82 430.87 156.799 430.868 155.779 430.868C154.354 430.866 152.93 430.859 151.506 430.852C150.696 430.849 149.887 430.847 149.053 430.844C146.965 430.747 146.965 430.747 145.63 430.389C143.805 429.962 142.134 429.912 140.26 429.884C139.097 429.864 139.097 429.864 137.91 429.844C136.638 429.828 136.638 429.828 135.34 429.812C134.444 429.798 133.547 429.784 132.623 429.77C130.153 429.732 127.682 429.698 125.212 429.666C123.646 429.645 122.081 429.623 120.516 429.601C97.2592 429.267 74.0015 429.086 50.7432 428.931C45.2373 428.894 39.7313 428.855 34.2254 428.816C22.9836 428.736 11.7418 428.658 0.5 428.583C0.5 427.63 0.5 426.678 0.5 425.697C30.9762 425.697 61.4524 425.697 92.8521 425.697C92.8521 423.554 92.8521 421.411 92.8521 419.203C93.5651 417.143 93.5651 417.143 94.5206 415.46C94.8498 414.853 95.179 414.246 95.5183 413.62C96.2326 412.382 96.9534 411.147 97.6771 409.914C98.9164 406.963 99.3093 404.042 99.7571 400.884C100.067 399.001 100.067 399.001 100.789 397.558C101.265 397.558 101.741 397.558 102.232 397.558C102.28 396.641 102.28 396.641 102.329 395.706C103.272 377.923 104.391 360.155 105.593 342.388C105.84 338.738 106.083 335.088 106.326 331.438C106.515 328.59 106.707 325.743 106.9 322.895C106.99 321.547 107.08 320.199 107.17 318.85C107.293 316.987 107.42 315.125 107.547 313.263C107.601 312.443 107.601 312.443 107.655 311.606C107.841 308.939 108.122 306.369 108.725 303.763C107.773 303.763 106.82 303.763 105.839 303.763C105.729 297.073 106.055 290.498 106.628 283.834C106.71 282.855 106.79 281.876 106.871 280.897C107.081 278.35 107.296 275.802 107.511 273.255C107.858 269.163 108.198 265.07 108.537 260.977C108.655 259.558 108.776 258.139 108.897 256.721C109.005 255.423 109.005 255.423 109.115 254.099C109.18 253.343 109.244 252.586 109.31 251.806C109.447 249.638 109.47 247.493 109.447 245.322C108.732 245.798 108.018 246.274 107.282 246.765C104.386 247.092 102.636 246.951 99.9769 245.727C95.7921 241.997 93.799 237.389 93.4524 231.836C93.4166 226.571 93.9917 221.622 95.0166 216.462C93.588 216.7 92.1594 216.938 90.6876 217.183C89.5816 211.419 88.4776 205.654 87.3758 199.889C86.8639 197.211 86.3515 194.534 85.8375 191.856C85.3402 189.265 84.8445 186.673 84.3499 184.081C84.1624 183.1 83.9743 182.119 83.7856 181.138C82.7148 175.57 81.7316 170.009 80.9452 164.393C80.4213 161.407 79.4801 158.693 78.4221 155.855C80.0887 155.855 81.7554 155.855 83.4726 155.855C83.5049 155.337 83.5372 154.818 83.5705 154.284C84.067 147.09 84.9608 139.968 85.8992 132.821C85.9825 132.184 86.0658 131.547 86.1516 130.891C86.5916 127.53 87.0349 124.169 87.4808 120.808C87.9384 117.354 88.3838 113.899 88.8266 110.443C89.1719 107.766 89.5264 105.09 89.8834 102.415C90.0517 101.142 90.2165 99.8676 90.3777 98.5932C90.6039 96.8108 90.8433 95.0305 91.0859 93.2503C91.1486 92.7325 91.2113 92.2148 91.2759 91.6814C92.0375 86.3031 94.1984 81.4868 98.4944 78.0574C101.003 76.7087 103.565 76.4668 106.375 76.2141C108.464 75.8184 109.854 75.3065 111.749 74.4132C116.071 72.3956 120.62 71.4276 125.259 70.3956C130.249 69.156 133.301 67.1887 136.864 63.5033C137.34 63.0271 137.816 62.5509 138.307 62.0603C138.64 60.3053 138.64 60.3053 138.758 58.3626C138.812 57.706 138.865 57.0494 138.921 56.3729C138.974 55.6167 138.974 55.6167 139.028 54.8453C138.598 54.7105 138.167 54.5756 137.723 54.4367C135.436 52.9404 134.839 50.8665 133.933 48.3969C133.747 47.9119 133.562 47.4269 133.371 46.9271C129.381 36.2744 126.571 24.6471 131.092 13.7198C133.944 8.23364 139.329 3.46156 145.096 1.18089C149.712 0.07379 155.413 -0.343543 159.771 1.81502ZM111.611 149.362C111.391 153.172 111.382 154.107 113.776 157.298C113.299 154.679 112.823 152.06 112.333 149.362C112.095 149.362 111.856 149.362 111.611 149.362ZM376.402 171.007C374.16 175.997 374.163 179.487 375.68 184.715C375.918 184.715 376.157 184.715 376.402 184.715C376.939 180.117 377.198 175.637 377.123 171.007C376.885 171.007 376.647 171.007 376.402 171.007ZM144.8 303.042C142.337 312.644 140.171 322.297 138.053 331.981C137.689 333.642 137.324 335.303 136.96 336.964C136.2 340.425 135.443 343.887 134.686 347.348C133.72 351.765 132.75 356.181 131.78 360.598C131.028 364.02 130.278 367.443 129.529 370.867C129.172 372.495 128.815 374.123 128.457 375.751C123.608 394.4 123.608 394.4 127.84 412.665C130.094 415.749 133.231 416.277 136.832 416.847C139.402 417.114 141.62 417.093 144.079 416.317C148.797 412.029 148.649 404.902 149.129 399.001C150.082 399.001 151.034 399.001 152.015 399.001C153.067 387.457 153.941 375.908 154.704 364.341C154.815 362.675 154.926 361.009 155.037 359.343C155.268 355.89 155.497 352.438 155.725 348.986C156.017 344.563 156.312 340.141 156.608 335.718C156.837 332.296 157.064 328.873 157.291 325.45C157.4 323.818 157.508 322.185 157.617 320.553C157.769 318.285 157.919 316.018 158.068 313.75C158.113 313.08 158.158 312.411 158.204 311.721C158.245 311.103 158.285 310.484 158.327 309.847C158.38 309.047 158.38 309.047 158.434 308.23C158.516 306.502 158.509 304.771 158.509 303.042C153.985 303.042 149.461 303.042 144.8 303.042ZM341.77 306.649C341.716 312.252 341.91 317.78 342.3 323.368C342.356 324.207 342.412 325.045 342.47 325.909C342.655 328.654 342.844 331.398 343.032 334.142C343.162 336.056 343.292 337.969 343.421 339.883C343.725 344.388 344.032 348.893 344.341 353.397C344.692 358.53 345.04 363.664 345.387 368.798C346.102 379.347 346.821 389.896 347.542 400.444C348.494 400.444 349.447 400.444 350.428 400.444C350.482 401.142 350.536 401.839 350.591 402.558C351.227 408.85 352.316 413.292 356.2 418.482C357.403 418.274 358.605 418.063 359.807 417.85C360.812 417.675 360.812 417.675 361.837 417.495C362.975 417.269 362.975 417.269 364.136 417.039C364.617 416.996 365.097 416.954 365.592 416.91C367.252 416.681 368.436 416.405 369.908 415.596C371.389 413.439 372.09 411.141 372.839 408.651C373.06 408.018 373.281 407.385 373.509 406.732C375.747 399.871 373.965 393.787 372.445 386.903C372.263 386.069 372.081 385.235 371.894 384.376C371.398 382.106 370.899 379.836 370.4 377.566C369.877 375.185 369.356 372.803 368.835 370.42C367.961 366.425 367.085 362.429 366.208 358.434C364.971 352.802 363.738 347.169 362.505 341.537C361.546 337.156 360.587 332.776 359.627 328.396C359.524 327.927 359.422 327.458 359.316 326.975C358.635 323.867 357.953 320.76 357.271 317.653C357.099 316.869 356.927 316.086 356.751 315.279C356.593 314.561 356.435 313.843 356.272 313.103C356.136 312.48 355.999 311.857 355.858 311.215C355.513 309.688 355.137 308.168 354.757 306.649C350.471 306.649 346.185 306.649 341.77 306.649Z" fill="#E7E8E9"/>
<path d="M352.097 22.5133C354.889 24.051 356.89 25.832 359.086 28.15C360.135 28.6411 360.135 28.6411 361.206 29.1421C368.047 32.7722 369.761 40.0225 372.073 46.9091C372.431 47.9303 372.789 48.9515 373.147 49.9726C375.166 55.8851 376.42 61.1112 375.404 67.3704C374.93 70.3816 374.682 72.1378 376.357 74.777C378.058 77.5597 378.222 79.0595 377.845 82.2626C377.369 82.7388 376.893 83.215 376.402 83.7056C376.796 83.8284 377.189 83.9511 377.594 84.0776C392.223 88.7787 392.223 88.7787 396.136 95.4751C397.817 99.151 398.875 102.388 398.689 106.446C398.642 112.148 399.605 117.703 400.46 123.325C400.878 126.092 401.276 128.863 401.675 131.633C402.415 136.768 403.162 141.902 403.945 147.031C408.579 177.504 408.579 177.504 405.024 190.757C404.152 194.176 403.605 197.656 402.996 201.13C402.745 202.488 402.491 203.845 402.235 205.202C402.11 205.866 401.986 206.53 401.857 207.214C401.731 207.885 401.604 208.555 401.474 209.247C401.209 210.662 400.944 212.078 400.68 213.494C400.044 216.889 399.407 220.283 398.769 223.677C397.34 223.677 395.912 223.677 394.44 223.677C394.312 226.221 394.473 228.116 395.206 230.576C396.384 234.903 396.394 240.771 394.316 244.795C392.57 250.549 396.303 258.47 397.852 264.185C398.309 265.871 398.763 267.557 399.217 269.244C400.177 272.814 401.141 276.384 402.106 279.954C403.229 284.113 404.35 288.272 405.469 292.432C405.917 294.094 406.367 295.756 406.817 297.418C407.089 298.43 407.362 299.442 407.634 300.455C407.873 301.34 408.113 302.225 408.359 303.137C408.87 305.206 408.87 305.206 408.87 306.649C366.727 306.649 324.584 306.649 281.164 306.649C282.925 298.727 284.711 290.871 286.75 283.026C287.117 281.597 287.482 280.167 287.847 278.738C288.73 275.281 289.617 271.825 290.516 268.372C291.15 265.936 291.775 263.498 292.393 261.057C292.741 259.692 293.101 258.329 293.46 256.966C293.667 256.142 293.875 255.317 294.089 254.468C294.275 253.744 294.462 253.021 294.655 252.275C294.904 250.098 294.627 249.287 293.43 247.486C292.953 246.921 292.477 246.355 291.987 245.773C288.457 241.14 288.572 235.75 289.101 230.17C289.871 226.967 290.853 223.883 291.987 220.791C290.796 220.553 289.606 220.315 288.379 220.069C288.829 213.066 289.636 206.136 290.582 199.186C290.733 198.063 290.884 196.941 291.034 195.819C291.524 192.173 292.02 188.527 292.516 184.882C292.688 183.62 292.86 182.357 293.031 181.095C293.746 175.845 294.462 170.595 295.182 165.346C296.209 157.853 297.228 150.36 298.233 142.864C298.943 137.573 299.664 132.284 300.393 126.996C300.827 123.845 301.257 120.693 301.675 117.54C302.068 114.578 302.474 111.618 302.89 108.659C303.04 107.576 303.185 106.493 303.325 105.409C304.739 94.5106 304.739 94.5106 308.581 90.1991C310.354 88.8463 310.354 88.8463 312.053 88.0346C312.623 87.7519 313.194 87.4691 313.781 87.1778C314.421 86.8876 314.421 86.8876 315.075 86.5916C315.238 84.8941 315.238 84.8941 313.316 83.2547C311.007 80.5579 310.746 78.5873 310.746 75.0476C311.676 72.551 312.634 71.0028 314.488 69.0952C316.83 65.5425 316.027 61.4821 315.435 57.4159C315.126 55.2114 314.931 53.099 314.849 50.8773C314.809 49.9287 314.809 49.9287 314.767 48.9608C315.582 43.5173 319.296 40.3733 323.237 36.9433C326.444 34.0773 329.241 31.4256 331.534 27.7442C336.214 20.4966 344.542 18.988 352.097 22.5133ZM376.402 171.007C374.16 175.998 374.163 179.487 375.681 184.716C375.919 184.716 376.157 184.716 376.402 184.716C376.94 180.118 377.198 175.637 377.124 171.007C376.886 171.007 376.647 171.007 376.402 171.007Z" fill="#E7E8E9"/>
<path d="M158.509 302.32C170.413 302.32 182.318 302.32 194.584 302.32C192.318 313.839 189.921 325.312 187.344 336.765C186.366 341.121 185.401 345.479 184.433 349.838C183.213 355.332 181.99 360.825 180.751 366.315C179.739 370.806 178.74 375.299 177.75 379.795C177.373 381.494 176.991 383.192 176.604 384.89C176.066 387.253 175.546 389.619 175.029 391.987C174.867 392.677 174.706 393.367 174.539 394.079C173.705 397.998 173.615 400.96 174.714 404.833C175.103 406.216 175.103 406.216 175.368 408.618C175.828 411.267 176.307 412.747 177.989 414.874C181.954 416.752 186.438 417.303 190.717 418.109C193.95 418.817 196.968 420.127 199.634 422.089C199.936 422.577 200.237 423.065 200.548 423.568C201.694 425.141 201.694 425.141 203.597 425.341C204.679 425.344 204.679 425.344 205.782 425.347C207.025 425.361 207.025 425.361 208.293 425.375C209.202 425.37 210.112 425.365 211.049 425.36C212.017 425.365 212.984 425.372 213.951 425.379C216.579 425.395 219.207 425.393 221.835 425.387C224.03 425.383 226.224 425.388 228.419 425.394C233.598 425.406 238.777 425.403 243.956 425.391C249.295 425.379 254.635 425.391 259.975 425.414C264.561 425.433 269.146 425.438 273.732 425.432C276.471 425.429 279.209 425.43 281.947 425.445C284.524 425.458 287.1 425.454 289.677 425.436C291.07 425.431 292.464 425.443 293.857 425.456C298.958 425.506 298.958 425.506 303.314 423.189C303.862 422.588 304.409 421.987 304.973 421.368C306.421 420.639 306.421 420.639 307.693 420.252C308.167 420.104 308.642 419.956 309.13 419.804C309.619 419.666 310.107 419.527 310.61 419.384C311.116 419.232 311.622 419.081 312.143 418.925C315.761 417.88 319.241 417.241 323.011 417.039C323.142 416.55 323.273 416.061 323.408 415.556C323.59 414.885 323.771 414.213 323.958 413.522C324.149 412.79 324.341 412.058 324.538 411.304C325.175 409.102 325.175 409.102 325.902 407.375C327.45 403.558 327.316 401.037 326.209 397.079C324.82 391.89 323.611 386.677 322.47 381.428C322.293 380.612 322.115 379.796 321.932 378.955C321.362 376.334 320.794 373.713 320.226 371.091C319.826 369.249 319.426 367.407 319.025 365.565C318.192 361.731 317.36 357.897 316.53 354.062C315.569 349.628 314.606 345.194 313.643 340.761C312.712 336.479 311.782 332.196 310.853 327.914C310.458 326.096 310.063 324.278 309.669 322.46C309.12 319.936 308.573 317.411 308.026 314.886C307.862 314.131 307.698 313.376 307.529 312.598C307.308 311.574 307.308 311.574 307.082 310.53C306.952 309.934 306.823 309.337 306.69 308.723C306.416 307.371 306.416 307.371 306.416 306.649C318.083 306.649 329.75 306.649 341.77 306.649C343.277 327.981 343.277 327.981 343.935 337.346C343.976 337.929 344.017 338.512 344.059 339.113C344.224 341.467 344.389 343.82 344.554 346.173C345.01 352.672 345.469 359.171 345.935 365.669C346.141 368.555 346.345 371.442 346.547 374.328C346.638 375.606 346.729 376.883 346.823 378.16C347.365 385.606 347.66 392.976 347.542 400.444C348.494 400.444 349.447 400.444 350.428 400.444C350.599 401.503 350.599 401.503 350.774 402.584C351.756 408.229 352.9 412.947 356.2 417.76C356.706 417.665 357.212 417.569 357.733 417.47C361.785 416.716 365.813 416.06 369.908 415.596C370.039 415.098 370.171 414.601 370.306 414.088C371.33 410.259 372.409 406.543 373.91 402.871C374.884 397.792 372.813 391.856 371.712 386.903C371.529 386.069 371.346 385.236 371.157 384.377C370.658 382.106 370.157 379.836 369.655 377.566C369.129 375.185 368.606 372.803 368.083 370.421C366.53 363.346 364.97 356.272 363.411 349.198C362.196 343.689 360.983 338.181 359.774 332.671C359.254 330.302 358.733 327.933 358.209 325.565C357.626 322.928 357.046 320.291 356.467 317.653C356.293 316.87 356.119 316.086 355.939 315.279C355.782 314.561 355.626 313.843 355.464 313.103C355.327 312.48 355.189 311.857 355.048 311.215C354.757 309.535 354.757 309.535 354.757 306.649C366.185 306.649 377.614 306.649 389.389 306.649C390.243 308.357 390.288 309.58 390.416 311.487C390.466 312.203 390.515 312.919 390.566 313.656C390.643 314.839 390.644 314.839 390.722 316.046C390.779 316.874 390.835 317.703 390.893 318.556C391.08 321.308 391.262 324.06 391.443 326.812C391.572 328.721 391.7 330.63 391.829 332.539C392.098 336.548 392.365 340.557 392.631 344.567C392.937 349.192 393.247 353.818 393.559 358.443C393.86 362.898 394.158 367.353 394.455 371.807C394.581 373.7 394.708 375.592 394.835 377.484C395.014 380.135 395.189 382.786 395.364 385.437C395.417 386.217 395.47 386.997 395.524 387.8C395.784 391.785 395.937 395.729 395.882 399.723C396.359 399.723 396.835 399.723 397.325 399.723C397.534 400.556 397.742 401.39 397.957 402.248C398.093 402.782 398.23 403.316 398.371 403.866C398.714 405.271 398.995 406.69 399.264 408.11C400.199 412.003 402.304 415.45 404.208 418.938C405.262 421.368 405.262 421.368 405.262 425.697C436.69 425.697 468.119 425.697 500.5 425.697C500.5 426.649 500.5 427.602 500.5 428.583C499.749 428.588 499.749 428.588 498.983 428.592C486.814 428.667 474.645 428.745 462.476 428.828C456.591 428.868 450.706 428.906 444.821 428.942C439.693 428.973 434.565 429.006 429.438 429.042C426.721 429.062 424.005 429.08 421.289 429.095C418.26 429.111 415.231 429.134 412.202 429.156C411.297 429.16 410.391 429.165 409.458 429.169C408.226 429.179 408.226 429.179 406.969 429.19C406.252 429.195 405.535 429.2 404.796 429.204C403.083 429.193 403.083 429.193 401.654 430.026C399.876 430.14 398.114 430.213 396.333 430.254C395.793 430.269 395.253 430.284 394.696 430.3C392.927 430.347 391.158 430.39 389.389 430.432C388.176 430.463 386.963 430.495 385.751 430.526C377.735 430.726 369.726 430.812 361.707 430.721C360.652 430.712 360.652 430.712 359.576 430.702C358.669 430.69 358.669 430.69 357.744 430.677C356.064 430.683 356.064 430.683 354.035 431.469C352.502 431.544 350.967 431.576 349.432 431.585C348.005 431.596 348.005 431.596 346.549 431.606C345.509 431.61 344.468 431.613 343.427 431.615C342.358 431.62 341.29 431.624 340.221 431.628C337.98 431.636 335.738 431.64 333.496 431.642C330.633 431.646 327.769 431.664 324.906 431.684C322.697 431.698 320.489 431.701 318.28 431.702C317.225 431.705 316.17 431.71 315.115 431.72C313.634 431.732 312.153 431.731 310.671 431.726C309.83 431.729 308.989 431.731 308.123 431.734C305.695 431.469 305.695 431.469 303.468 430.387C299.521 428.555 295.15 429.01 290.89 429.036C289.904 429.034 288.917 429.031 287.93 429.028C285.262 429.021 282.594 429.028 279.925 429.037C277.126 429.046 274.327 429.043 271.527 429.041C266.826 429.041 262.125 429.049 257.424 429.062C251.999 429.077 246.574 429.08 241.149 429.075C235.919 429.071 230.688 429.075 225.458 429.083C223.238 429.087 221.017 429.087 218.797 429.086C216.179 429.084 213.56 429.09 210.942 429.102C209.53 429.106 208.118 429.104 206.706 429.101C202.128 429.128 198.26 429.519 193.862 430.747C191.407 430.926 191.407 430.926 188.948 430.923C188.018 430.925 187.089 430.927 186.132 430.929C185.135 430.924 184.138 430.919 183.141 430.914C182.105 430.913 181.069 430.913 180.032 430.913C177.871 430.912 175.71 430.906 173.548 430.896C170.781 430.884 168.014 430.881 165.247 430.881C163.111 430.881 160.976 430.877 158.84 430.872C157.82 430.87 156.799 430.868 155.779 430.868C154.354 430.866 152.93 430.859 151.506 430.852C150.696 430.849 149.887 430.847 149.053 430.844C146.965 430.747 146.965 430.747 145.63 430.39C143.805 429.962 142.134 429.912 140.26 429.884C139.484 429.871 138.709 429.858 137.91 429.845C137.062 429.834 136.214 429.823 135.34 429.812C134.444 429.798 133.547 429.784 132.623 429.77C130.153 429.733 127.682 429.698 125.212 429.666C123.646 429.645 122.081 429.623 120.516 429.601C97.2592 429.267 74.0015 429.086 50.7432 428.931C45.2373 428.894 39.7313 428.855 34.2254 428.816C22.9836 428.736 11.7418 428.658 0.5 428.583C0.5 427.631 0.5 426.678 0.5 425.697C30.9762 425.697 61.4524 425.697 92.8521 425.697C92.8521 423.554 92.8521 421.411 92.8521 419.203C93.5651 417.143 93.5651 417.143 94.5206 415.461C94.8498 414.853 95.179 414.246 95.5183 413.62C96.2326 412.382 96.9534 411.147 97.6771 409.914C98.9164 406.964 99.3093 404.042 99.7571 400.884C100.067 399.001 100.067 399.001 100.789 397.558C101.265 397.558 101.741 397.558 102.232 397.558C102.264 396.947 102.296 396.335 102.329 395.705C103.271 377.936 104.391 360.181 105.593 342.428C105.84 338.785 106.083 335.141 106.326 331.498C106.516 328.653 106.707 325.808 106.9 322.964C106.99 321.618 107.08 320.272 107.17 318.927C107.293 317.066 107.42 315.205 107.547 313.345C107.601 312.529 107.601 312.529 107.655 311.696C107.86 308.75 108.237 305.969 108.725 303.042C120.63 303.042 132.535 303.042 144.8 303.042C142.578 314.338 140.235 325.589 137.694 336.818C136.757 340.969 135.833 345.123 134.906 349.277C133.739 354.51 132.567 359.742 131.381 364.971C130.411 369.251 129.454 373.533 128.506 377.818C128.145 379.437 127.779 381.055 127.409 382.672C126.893 384.922 126.395 387.176 125.9 389.432C125.746 390.088 125.591 390.745 125.432 391.422C124.133 397.506 125.529 402.158 127.574 407.93C128.927 411.751 128.927 411.751 128.927 414.153C136.137 415.271 136.137 415.271 143.357 416.317C147.455 411.001 148.162 405.477 149.129 399.001C150.082 399.001 151.034 399.001 152.015 399.001C152.031 398.593 152.047 398.185 152.063 397.764C152.503 386.619 153.139 375.495 153.887 364.367C153.997 362.702 154.108 361.038 154.218 359.373C154.447 355.924 154.678 352.475 154.909 349.026C155.206 344.61 155.498 340.194 155.79 335.778C156.016 332.358 156.244 328.938 156.473 325.519C156.582 323.889 156.69 322.259 156.798 320.63C156.947 318.364 157.1 316.098 157.253 313.832C157.297 313.165 157.34 312.498 157.385 311.811C157.427 311.192 157.47 310.572 157.514 309.934C157.549 309.401 157.585 308.868 157.622 308.319C157.821 306.307 158.176 304.314 158.509 302.32Z" fill="#2E2E41"/>
<path d="M352.096 22.5133C354.888 24.051 356.89 25.832 359.086 28.15C360.135 28.6411 360.135 28.6411 361.205 29.1421C368.046 32.7722 369.761 40.0225 372.073 46.9091C372.431 47.9303 372.788 48.9515 373.146 49.9726C375.165 55.8851 376.42 61.1112 375.404 67.3704C374.929 70.3816 374.681 72.1378 376.357 74.777C378.104 77.6359 378.443 78.9743 377.845 82.2626C376.794 83.4232 375.653 84.4052 374.471 85.4304C373.248 86.9168 373.287 87.7168 373.38 89.6129C373.516 92.3636 373.516 92.3636 372.569 93.8066C371.351 94.5281 371.351 94.5281 369.187 94.5281C369.089 96.4083 369.018 98.2834 368.961 100.165C368.931 100.697 368.901 101.23 368.87 101.778C368.791 103.538 368.791 103.538 369.187 106.072C370.883 107.487 370.883 107.487 372.794 108.237C373.823 110.295 373.74 111.725 373.516 114.009C372.019 116.703 371.094 117.464 368.15 118.428C365.579 118.338 365.579 118.338 363.46 116.94C361.41 113.896 361.397 112.576 361.972 108.958C363.685 107.154 363.685 107.154 365.579 106.072C366.055 106.072 366.532 106.072 367.022 106.072C367.26 102.263 367.498 98.4531 367.744 94.5281C366.717 94.5579 365.69 94.5876 364.632 94.6183C360.525 94.7373 356.603 93.8725 352.592 93.0851C352.381 93.5622 352.17 94.0392 351.953 94.5307C350.998 96.6815 350.037 98.829 349.075 100.977C348.577 102.103 348.577 102.103 348.069 103.252C347.748 103.966 347.427 104.68 347.096 105.415C346.654 106.407 346.654 106.407 346.203 107.419C345.377 108.958 345.377 108.958 343.934 109.68C341.845 103.965 340.239 98.1567 338.703 92.2734C338.508 91.5288 338.313 90.7843 338.112 90.0171C336.719 84.6163 336.719 84.6163 336.719 82.9841C342.195 82.746 347.672 82.5079 353.314 82.2626C354.028 80.1197 354.742 77.9769 355.478 75.7691C355.93 74.576 356.393 73.3872 356.876 72.2067C357.117 71.5947 357.358 70.9827 357.606 70.3522C358.364 68.5541 358.364 68.5541 359.19 67.0265C362.556 60.3414 362.715 50.5097 360.512 43.3833C359.672 41.315 358.803 39.4343 357.643 37.5296C357.37 36.9938 357.098 36.4581 356.817 35.9062C354.692 33.9018 352.216 34.0681 349.436 33.9671C348.891 33.9276 348.346 33.8881 347.784 33.8474C344.443 33.6809 342.245 33.8118 339.605 36.0865C338.099 38.1721 338.099 38.1721 336.809 40.641C336.568 41.0828 336.327 41.5246 336.078 41.9797C335.575 42.9078 335.077 43.8385 334.584 44.7717C333.842 46.1716 333.079 47.559 332.314 48.9467C331.842 49.83 331.371 50.714 330.902 51.5988C330.477 52.3949 330.052 53.1911 329.614 54.0113C328.658 56.6302 328.745 57.9618 329.504 60.6176C330.798 62.8492 331.929 64.5753 333.943 66.1979C335.276 67.8326 335.276 67.8326 335.4 70.2282C335.3 71.1341 335.199 72.0399 335.096 72.9733C334.771 76.1715 334.521 79.2709 334.69 82.4881C334.749 88.4146 332.043 93.2112 328.061 97.4141C328.493 97.5778 328.924 97.7415 329.369 97.9101C331.484 99.1795 332.06 100.22 333.112 102.465C333.437 104.601 333.449 106.713 333.45 108.871C333.458 109.79 333.458 109.79 333.466 110.727C333.474 112.018 333.476 113.309 333.473 114.6C333.472 116.575 333.502 118.548 333.534 120.523C333.538 121.78 333.54 123.036 333.54 124.293C333.558 125.177 333.558 125.177 333.576 126.079C333.526 130.174 333.526 130.174 331.394 132.384C328.255 134.22 325.961 135.142 322.289 134.932C322.289 134.456 322.289 133.98 322.289 133.489C321.798 133.549 321.307 133.608 320.801 133.67C317.981 133.429 315.825 132.393 313.631 130.603C311.847 127.964 311.991 125.265 312.022 122.196C312.022 121.398 312.022 121.398 312.023 120.584C312.025 119.462 312.031 118.339 312.04 117.217C312.053 115.505 312.054 113.794 312.054 112.082C312.058 110.989 312.062 109.896 312.067 108.803C312.068 108.294 312.069 107.785 312.069 107.261C312.095 104.603 312.375 102.176 312.91 99.5786C312.672 99.3405 312.433 99.1024 312.188 98.8571C311.918 97.2337 311.918 97.2337 312.188 95.2496C313.902 93.2204 313.902 93.2204 315.796 91.6421C316.272 91.6421 316.748 91.6421 317.239 91.6421C317.664 89.6926 317.664 89.6926 317.239 87.3131C316.058 85.9004 314.761 84.7029 313.411 83.4519C311.832 81.916 311.169 80.8258 310.745 78.6551C310.745 74.8253 311.191 72.9952 313.676 70.0873C316.011 67.2443 316.221 65.2169 315.996 61.604C315.832 60.2051 315.638 58.8097 315.435 57.4159C315.125 55.2114 314.93 53.099 314.849 50.8773C314.808 49.9287 314.808 49.9287 314.767 48.9608C315.582 43.5173 319.296 40.3733 323.236 36.9433C326.443 34.0773 329.241 31.4256 331.533 27.7442C336.214 20.4966 344.542 18.988 352.096 22.5133Z" fill="#2F2F42"/>
<path d="M78.4219 155.855C89.8504 155.855 101.279 155.855 113.054 155.855C114.497 158.876 115.941 161.897 117.428 165.01C122.056 174.631 126.895 184.13 131.837 193.595C134.91 199.482 137.94 205.39 140.976 211.296C143.668 216.532 146.368 221.763 149.104 226.977C149.543 227.816 149.983 228.656 150.436 229.521C151.259 231.089 152.084 232.656 152.912 234.221C153.271 234.907 153.631 235.593 154.002 236.3C154.474 237.195 154.474 237.195 154.956 238.108C155.622 239.55 155.622 239.55 155.622 240.993C147.904 240.578 140.352 239.612 132.715 238.467C130.524 238.142 128.334 237.819 126.142 237.498C125.368 237.384 125.368 237.384 124.578 237.268C120.743 236.713 116.914 236.28 113.054 235.942C108.4 225.651 103.779 215.35 99.3454 204.963C98.8201 203.732 98.8201 203.732 98.2841 202.476C97.5661 200.793 96.8483 199.11 96.1307 197.427C94.16 192.81 92.1806 188.197 90.1914 183.588C89.9949 183.132 89.7983 182.677 89.5959 182.207C86.8815 175.922 84.0765 169.689 81.0382 163.552C79.7408 160.901 79.0101 158.797 78.4219 155.855Z" fill="#3753DB"/>
<path d="M159.771 1.81502C162.985 3.29841 165.848 3.08646 169.331 2.89727C169.807 3.84965 170.283 4.80203 170.774 5.78327C171.964 5.54518 173.155 5.30708 174.382 5.06177C177.728 8.88652 180.764 13.5531 180.875 18.7703C179.98 22.0144 179.304 23.4313 176.467 25.292C173.655 26.8066 170.762 27.785 167.708 28.6909C167.198 28.85 166.688 29.009 166.163 29.1729C164.02 29.8263 162.204 30.3143 159.951 30.3143C160.19 30.7905 160.428 31.2667 160.673 31.7573C161.261 36.6787 161.261 36.6787 159.849 38.7208C158.691 39.8335 157.493 40.8039 156.209 41.7681C155.792 42.1085 155.374 42.4489 154.945 42.7996C152.641 44.632 150.514 45.982 147.686 46.9088C147.433 46.3433 147.18 45.7779 146.919 45.1952C145.379 42.7047 145.379 42.7047 140.471 41.8583C140.947 46.144 141.423 50.4297 141.914 54.8453C136.863 54.1238 136.863 54.1238 135.525 52.3567C135.208 51.5857 134.89 50.8147 134.564 50.0203C134.216 49.1749 133.868 48.3294 133.51 47.4584C129.595 36.5622 126.477 24.8753 131.091 13.7198C133.944 8.23364 139.328 3.46156 145.096 1.18089C149.712 0.07379 155.413 -0.343543 159.771 1.81502Z" fill="#2E2E41"/>
<path d="M175.824 25.9854C178.991 32.3175 179.482 38.6995 177.267 45.4659C175.136 50.3174 171.387 53.8918 167.166 57.0099C166.69 57.0099 166.214 57.0099 165.723 57.0099C165.902 57.6498 166.081 58.2896 166.265 58.9489C166.721 62.3685 165.632 65.0912 164.551 68.3115C162.926 73.2565 161.709 78.3309 160.412 83.3695C159.138 88.2134 157.613 92.816 155.622 97.4139C153.41 94.7988 152.178 91.9018 150.823 88.7926C150.576 88.2355 150.33 87.6785 150.076 87.1046C149.291 85.3267 148.511 83.5466 147.731 81.7664C147.21 80.583 146.688 79.3997 146.165 78.2167C144.974 75.5164 143.784 72.8156 142.604 70.1103C142.118 69.0134 141.618 67.9222 141.11 66.8353C140.847 66.2689 140.585 65.7024 140.314 65.1188C140.074 64.6094 139.833 64.0999 139.585 63.575C138.659 61.0564 138.795 58.9475 139.028 56.2884C139.266 55.8122 139.504 55.336 139.749 54.8454C140.464 54.8454 141.178 54.8454 141.914 54.8454C141.81 54.452 141.706 54.0586 141.598 53.6532C140.604 49.6148 140.339 46.0146 140.471 41.8584C145.153 42.2118 145.153 42.2118 146.919 43.9778C147.686 45.4659 147.686 45.4659 147.686 46.9089C149.045 45.8981 150.398 44.8821 151.742 43.851C153.458 42.5799 153.458 42.5799 155.287 41.4215C158.76 39.2104 158.76 39.2104 160.36 35.6044C160.358 33.7951 160.242 32.0986 159.951 30.3144C160.82 30.0623 161.689 29.8103 162.584 29.5506C163.721 29.219 164.857 28.8874 165.994 28.5557C166.567 28.3897 167.14 28.2237 167.73 28.0526C168.279 27.8922 168.828 27.7317 169.393 27.5665C169.899 27.4191 170.406 27.2717 170.927 27.1199C174.47 25.9854 174.47 25.9854 175.824 25.9854Z" fill="#FBB2B3"/>
<path d="M355.479 33.9222C357.846 35.737 358.783 37.6561 359.808 40.4157C360.085 41.0346 360.085 41.0346 360.368 41.666C362.066 45.6495 362.362 49.2803 362.333 53.583C362.331 54.2505 362.329 54.918 362.327 55.6057C362.198 61.0505 360.937 65.1913 358.365 69.9972C357.954 70.9966 357.561 72.0033 357.192 73.0185C357.028 73.4612 356.865 73.9039 356.696 74.36C355.925 76.5516 355.21 78.7613 354.503 80.9747C354.036 82.2627 354.036 82.2627 353.314 82.9842C352.082 83.0471 350.847 83.0614 349.614 83.0547C348.494 83.0512 348.494 83.0512 347.352 83.0476C346.566 83.0416 345.781 83.0355 344.972 83.0293C343.789 83.0244 343.789 83.0244 342.583 83.0194C340.629 83.0109 338.674 82.999 336.72 82.9842C336.005 81.5556 335.291 80.1271 334.555 78.6552C334.317 78.6552 334.079 78.6552 333.834 78.6552C333.944 77.9409 334.055 77.2266 334.169 76.4907C334.984 71.0623 334.984 71.0623 333.529 65.9303C332.207 64.4455 332.207 64.4455 330.776 63.2247C329.334 61.9042 328.669 61.036 328.062 59.1747C328.193 54.9542 330.289 51.4073 332.165 47.7209C332.47 47.1005 332.774 46.4802 333.088 45.841C338.225 35.6285 343.537 30.6008 355.479 33.9222Z" fill="#FBB2B3"/>
<path d="M82.0298 165.235C84.211 167.81 85.4459 170.725 86.759 173.798C87.0028 174.359 87.2465 174.921 87.4976 175.5C88.2941 177.338 89.0851 179.178 89.8762 181.018C90.4293 182.297 90.9827 183.576 91.5365 184.854C92.924 188.06 94.3074 191.267 95.6897 194.474C97.0162 197.55 98.3471 200.624 99.6801 203.697C100.639 205.907 101.594 208.119 102.543 210.334C104.376 214.6 106.26 218.828 108.258 223.02C108.831 224.247 108.831 224.247 109.416 225.499C110.134 227.028 110.868 228.55 111.622 230.062C113.237 233.535 114.177 235.81 112.99 239.558C111.744 242.51 110.232 245.29 107.282 246.765C104.41 247.041 102.615 246.941 99.9772 245.728C95.7923 241.998 93.7993 237.39 93.4527 231.836C93.4168 226.572 93.992 221.623 95.0168 216.462C92.874 216.819 92.874 216.819 90.6878 217.183C89.5518 211.37 88.4224 205.556 87.3013 199.74C86.7803 197.039 86.2572 194.339 85.7289 191.639C85.2184 189.03 84.7138 186.419 84.2132 183.808C84.022 182.816 83.8288 181.824 83.6333 180.833C82.5941 175.558 81.7834 170.618 82.0298 165.235Z" fill="#FBB3B4"/>
<path d="M131.813 69.2754C132.715 71.0797 132.444 71.6715 131.999 73.61C131.87 74.1981 131.741 74.7861 131.608 75.3919C131.467 76.0223 131.327 76.6526 131.182 77.3021C129.796 83.7935 129.112 90.0589 128.927 96.6924C129.719 96.7864 130.512 96.8803 131.328 96.9771C134.349 97.4753 135.468 98.1247 137.585 100.3C139.786 103.869 140.087 106.698 140.088 110.765C140.096 111.631 140.096 111.631 140.104 112.516C140.112 113.731 140.114 114.947 140.111 116.163C140.11 118.019 140.14 119.873 140.172 121.729C140.176 122.914 140.178 124.1 140.178 125.285C140.196 126.112 140.196 126.112 140.214 126.957C140.176 129.861 139.882 131.161 138.032 133.447C135.053 135.788 132.705 136.678 128.927 136.375C126.731 135.504 126.731 135.504 124.463 134.346C123.708 133.969 122.954 133.592 122.177 133.204C120.269 132.046 120.269 132.046 118.826 129.881C118.667 128.003 118.589 126.203 118.584 124.324C118.579 123.778 118.574 123.233 118.569 122.671C118.562 121.516 118.558 120.361 118.559 119.207C118.555 117.452 118.529 115.698 118.502 113.944C118.498 112.819 118.495 111.695 118.493 110.57C118.478 109.791 118.478 109.791 118.462 108.996C118.498 104.993 119.447 102.768 121.712 99.5784C123.081 98.6901 123.081 98.6901 124.387 98.2397C126.828 97.0115 126.828 97.0115 127.189 95.2956C127.321 93.5066 127.313 91.7664 127.258 89.9734C127.311 82.8912 127.768 75.3431 131.813 69.2754Z" fill="#E4E5E6"/>
<path d="M215.823 214.252C216.614 214.257 216.614 214.257 217.422 214.262C218.708 214.27 219.993 214.283 221.279 214.297C221.358 215.047 221.437 215.796 221.519 216.569C222.231 223.238 222.231 223.238 223.894 229.719C226.033 236.287 225.029 242.061 222.001 248.208C220.058 250.833 219.039 251.627 215.913 252.537C212.858 252.537 211.519 252.115 209.014 250.372C204.97 245.938 203.762 241.468 203.828 235.491C203.832 234.559 203.837 233.627 203.842 232.667C203.963 230.17 203.963 230.17 204.327 228.756C204.7 227.218 204.767 225.899 204.755 224.319C204.753 223.775 204.75 223.231 204.748 222.671C204.742 222.11 204.736 221.549 204.73 220.971C204.725 220.113 204.725 220.113 204.72 219.238C204.711 217.831 204.698 216.425 204.685 215.019C208.438 214.392 212.022 214.207 215.823 214.252Z" fill="#FDB4B4"/>
<path d="M328.783 98.8572C330.924 100.899 331.848 102.447 332.031 105.357C332.045 106.484 332.042 107.611 332.027 108.738C332.028 109.337 332.029 109.935 332.03 110.551C332.029 111.812 332.02 113.072 332.005 114.332C331.984 116.262 331.99 118.191 332 120.122C331.995 121.348 331.989 122.574 331.981 123.8C331.984 124.377 331.986 124.954 331.988 125.549C331.92 129.509 331.92 129.509 330.674 131.355C329.504 132.046 329.504 132.046 327.791 131.866C327.166 131.687 326.541 131.509 325.897 131.325C324.892 131.124 324.892 131.124 323.867 130.919C323.347 130.815 322.826 130.711 322.289 130.603C322.289 130.127 322.289 129.651 322.289 129.16C321.381 129.428 320.474 129.696 319.538 129.972C317.991 130.428 317.991 130.428 316.517 130.603C315.803 130.127 315.089 129.651 314.353 129.16C314.151 127.13 314.084 125.26 314.116 123.23C314.117 122.643 314.119 122.056 314.12 121.451C314.125 120.209 314.135 118.967 314.15 117.725C314.172 115.82 314.179 113.916 314.184 112.01C314.19 110.805 314.198 109.6 314.206 108.395C314.209 107.823 314.212 107.251 314.215 106.661C314.268 102.634 314.268 102.634 315.074 101.022C317.227 100.224 317.227 100.224 319.944 99.4434C320.833 99.1802 321.723 98.917 322.639 98.6458C325.139 98.143 326.434 97.9107 328.783 98.8572Z" fill="#E6E7E8"/>
<path d="M378.567 222.234C383.805 222.472 389.043 222.71 394.44 222.955C394.44 224.622 394.44 226.289 394.44 228.006C394.693 228.869 394.946 229.732 395.206 230.621C396.54 235.498 395.938 240.909 394.304 245.638C389.933 251.818 389.933 251.818 385.827 252.717C383.428 252.832 382.068 252.292 380.145 250.868C376.285 247.044 375.59 242.135 375.41 236.889C375.501 233.49 376.39 231.092 377.845 228.006C378.083 226.101 378.321 224.196 378.567 222.234Z" fill="#FCB5B5"/>
<path d="M294.181 220.054C294.812 220.088 295.443 220.122 296.093 220.157C297.115 220.209 297.115 220.209 298.157 220.262C298.874 220.303 299.59 220.343 300.329 220.385C301.048 220.423 301.768 220.46 302.509 220.499C304.292 220.593 306.076 220.69 307.859 220.791C309.059 229.457 310.123 238.379 305.018 245.953C302.621 248.423 301.291 248.836 297.849 249.335C295.957 249.289 295.105 249.106 293.587 247.951C289.478 243.39 288.785 238.722 288.861 232.727C290.044 220.098 290.044 220.098 294.181 220.054Z" fill="#FCB4B4"/>
<path d="M82.0298 165.235C84.2572 167.858 85.4681 170.769 86.8098 173.899C87.0578 174.469 87.3059 175.04 87.5614 175.628C88.3669 177.483 89.1668 179.341 89.9663 181.199C90.5175 182.472 91.0689 183.746 91.6205 185.019C93.2403 188.763 94.8519 192.511 96.4599 196.26C96.6893 196.795 96.9187 197.33 97.1551 197.881C98.5073 201.036 99.8535 204.193 101.195 207.353C101.691 208.521 101.691 208.521 102.197 209.712C102.492 210.412 102.787 211.113 103.091 211.834C103.346 212.437 103.6 213.04 103.862 213.662C104.396 215.019 104.396 215.019 104.396 215.74C103.769 215.784 103.143 215.828 102.497 215.873C101.665 215.933 100.834 215.994 99.9772 216.056C99.1569 216.115 98.3365 216.173 97.4914 216.234C95.1934 216.446 92.9607 216.792 90.6878 217.183C89.5518 211.37 88.4224 205.556 87.3013 199.74C86.7803 197.039 86.2572 194.339 85.7289 191.639C85.2184 189.03 84.7138 186.419 84.2132 183.808C84.022 182.816 83.8288 181.824 83.6333 180.833C82.5941 175.558 81.7834 170.618 82.0298 165.235Z" fill="#E5E6E9"/>
<path d="M142.636 69.9971C149.541 69.9971 156.445 69.9971 163.559 69.9971C162.174 76.4635 160.758 82.691 158.824 88.9816C158.605 89.7214 158.386 90.4613 158.161 91.2236C157.947 91.9244 157.734 92.6252 157.514 93.3472C157.324 93.9744 157.133 94.6015 156.937 95.2477C156.344 96.6926 156.344 96.6926 154.901 97.4141C153.153 93.6263 151.406 89.8376 149.661 86.0482C149.066 84.7581 148.472 83.4682 147.876 82.1786C147.022 80.3292 146.17 78.479 145.319 76.6287C145.051 76.0485 144.782 75.4683 144.506 74.8705C142.636 70.8007 142.636 70.8007 142.636 69.9971Z" fill="#3955DB"/>
<path d="M201.077 425.697C233.934 425.697 266.791 425.697 300.644 425.697C300.644 426.649 300.644 427.602 300.644 428.583C267.549 428.583 234.454 428.583 200.355 428.583C200.594 427.63 200.832 426.678 201.077 425.697Z" fill="#3F3B56"/>
<path d="M404.541 425.697C436.207 425.697 467.874 425.697 500.5 425.697C500.5 426.649 500.5 427.602 500.5 428.583C468.357 428.583 436.215 428.583 403.098 428.583C403.574 427.63 404.05 426.678 404.541 425.697Z" fill="#3F3B56"/>
<path d="M0.5 425.697C12.5854 425.63 24.6708 425.579 36.7563 425.547C42.3678 425.533 47.9792 425.512 53.5905 425.479C58.4811 425.45 63.3716 425.432 68.2622 425.425C70.8521 425.422 73.4418 425.413 76.0316 425.392C78.9219 425.369 81.8117 425.368 84.7021 425.369C85.992 425.354 85.992 425.354 87.3079 425.338C88.095 425.342 88.8821 425.346 89.6931 425.35C90.3768 425.347 91.0605 425.345 91.7649 425.342C93.5736 425.697 93.5736 425.697 96.4596 428.583C64.7929 428.583 33.1263 428.583 0.5 428.583C0.5 427.631 0.5 426.678 0.5 425.697Z" fill="#3F3B56"/>
<path d="M336.72 82.9839C342.196 82.9839 347.672 82.9839 353.314 82.9839C352.362 84.1744 351.409 85.3648 350.428 86.5914C350.413 88.9103 350.413 88.9103 351.15 90.9204C351.626 91.1585 352.102 91.3966 352.593 91.6419C350.762 98.0506 347.703 103.782 344.656 109.679C343.158 107.432 342.618 105.733 341.906 103.141C341.536 101.806 341.536 101.806 341.159 100.444C341.026 99.9604 340.894 99.4771 340.758 98.9791C340.292 97.2874 339.816 95.599 339.338 93.9107C339.006 92.7336 338.675 91.5564 338.343 90.3793C338.182 89.8119 338.022 89.2445 337.856 88.6599C336.72 84.5915 336.72 84.5915 336.72 82.9839Z" fill="#3B56D9"/>
<path d="M131.813 69.2754C132.715 71.0797 132.444 71.6715 131.999 73.61C131.87 74.1981 131.741 74.7861 131.608 75.3919C131.467 76.0223 131.327 76.6526 131.182 77.3021C129.796 83.7935 129.112 90.0589 128.927 96.6924C129.719 96.7864 130.512 96.8803 131.328 96.9771C134.349 97.4753 135.468 98.1247 137.585 100.3C139.786 103.869 140.087 106.698 140.088 110.765C140.096 111.631 140.096 111.631 140.104 112.516C140.112 113.731 140.114 114.947 140.111 116.163C140.11 118.019 140.14 119.873 140.172 121.729C140.176 122.914 140.178 124.1 140.178 125.285C140.196 126.112 140.196 126.112 140.214 126.957C140.176 129.861 139.882 131.161 138.032 133.447C135.053 135.788 132.705 136.678 128.927 136.375C126.731 135.504 126.731 135.504 124.463 134.346C123.708 133.969 122.954 133.592 122.177 133.204C120.269 132.046 120.269 132.046 118.826 129.881C118.667 128.003 118.589 126.203 118.584 124.324C118.579 123.778 118.574 123.233 118.569 122.671C118.562 121.516 118.558 120.361 118.559 119.207C118.555 117.452 118.529 115.698 118.502 113.944C118.498 112.819 118.495 111.695 118.493 110.57C118.478 109.791 118.478 109.791 118.462 108.996C118.498 104.993 119.447 102.768 121.712 99.5784C123.081 98.6901 123.081 98.6901 124.387 98.2397C126.828 97.0115 126.828 97.0115 127.189 95.2956C127.321 93.5066 127.313 91.7664 127.258 89.9734C127.311 82.8912 127.768 75.3431 131.813 69.2754ZM122.433 101.021C120.15 104.006 119.96 106.634 120.007 110.271C120.006 110.806 120.006 111.34 120.006 111.89C120.007 113.015 120.014 114.139 120.026 115.263C120.043 116.984 120.041 118.705 120.036 120.426C120.04 121.52 120.046 122.615 120.052 123.709C120.051 124.223 120.051 124.737 120.05 125.267C120.088 127.921 120.2 129.056 121.712 131.324C122.164 131.256 122.616 131.187 123.082 131.116C123.671 131.036 124.261 130.956 124.868 130.874C125.454 130.79 126.04 130.706 126.644 130.62C127.159 130.614 127.675 130.609 128.205 130.603C128.682 131.079 129.158 131.555 129.648 132.046C130.989 132.487 130.989 132.487 132.534 132.767C133.145 132.946 133.755 133.125 134.383 133.309C136.116 133.664 136.116 133.664 137.315 132.787C138.863 130.503 138.629 128.093 138.619 125.426C138.625 124.557 138.625 124.557 138.631 123.67C138.635 122.445 138.634 121.219 138.628 119.993C138.622 118.126 138.643 116.26 138.666 114.393C138.667 113.201 138.667 112.008 138.664 110.815C138.672 110.26 138.681 109.706 138.689 109.134C138.641 105.389 137.865 103.286 135.42 100.3C133.309 98.5878 132.042 98.1645 129.333 97.8198C126.247 98.1987 124.802 99.03 122.433 101.021Z" fill="#4F4D65"/>
<path d="M325.896 97.4142C327.52 97.1887 327.52 97.1887 329.504 97.4142C334.23 102.403 333.321 107.968 333.364 114.437C333.376 115.772 333.396 117.108 333.423 118.443C333.463 120.368 333.478 122.292 333.489 124.217C333.505 124.813 333.522 125.409 333.539 126.023C333.523 130.174 333.523 130.174 331.397 132.389C328.254 134.216 325.96 135.142 322.289 134.932C322.289 134.456 322.289 133.98 322.289 133.489C321.798 133.549 321.307 133.608 320.801 133.67C317.98 133.43 315.824 132.393 313.631 130.603C311.851 127.967 311.979 125.263 311.996 122.196C311.995 121.664 311.993 121.132 311.992 120.584C311.991 119.462 311.994 118.339 312 117.217C312.007 115.505 312 113.794 311.991 112.082C311.991 110.989 311.993 109.896 311.996 108.803C311.993 108.294 311.99 107.785 311.987 107.261C312.014 104.384 312.365 102.171 313.631 99.5787C315.297 99.8168 316.964 100.055 318.681 100.3C318.681 100.538 318.681 100.776 318.681 101.022C317.491 101.022 316.3 101.022 315.074 101.022C315.074 110.307 315.074 119.593 315.074 129.16C316.026 129.398 316.979 129.636 317.96 129.882C318.317 129.525 318.317 129.525 318.681 129.16C319.883 129.131 321.087 129.129 322.289 129.16C322.289 129.636 322.289 130.113 322.289 130.603C322.81 130.588 323.33 130.573 323.867 130.558C325.896 130.603 325.896 130.603 327.835 131.054C328.386 131.143 328.937 131.233 329.504 131.325C331.662 129.167 331.181 126.765 331.189 123.87C331.194 123.272 331.199 122.674 331.204 122.058C331.211 120.791 331.214 119.524 331.214 118.257C331.217 116.323 331.244 114.391 331.271 112.457C331.275 111.226 331.278 109.995 331.279 108.764C331.29 108.187 331.3 107.611 331.311 107.017C331.288 104.2 331.156 102.796 329.618 100.357C328.048 98.7564 328.048 98.7564 325.896 97.4142Z" fill="#46435D"/>
<path d="M172.217 67.1108C175.586 69.3566 175.797 72.8041 176.667 76.5834C177.548 81.0733 177.61 85.6275 177.562 90.1927C177.579 91.9447 177.617 93.5365 177.989 95.2494C179.705 96.9756 179.705 96.9756 181.596 98.1354C182.171 101.754 182.158 103.073 180.108 106.117C177.989 107.515 177.989 107.515 175.419 107.605C172.474 106.641 171.549 105.88 170.052 103.186C169.647 101.021 169.647 101.021 170.052 98.8569C171.721 96.7826 171.721 96.7826 173.66 95.2494C174.374 95.2494 175.089 95.2494 175.824 95.2494C175.62 85.5538 174.509 76.5354 172.217 67.1108Z" fill="#44415B"/>
<path d="M366.301 86.5913C367.744 87.3128 367.744 87.3128 368.2 88.5557C369.168 93.1551 369.274 97.4703 368.943 102.142C368.839 103.766 368.839 103.766 369.187 106.072C370.886 107.456 370.886 107.456 372.794 108.236C373.824 110.295 373.74 111.724 373.516 114.008C372.019 116.702 371.094 117.464 368.15 118.428C365.579 118.337 365.579 118.337 363.46 116.939C361.41 113.896 361.397 112.576 361.972 108.958C363.685 107.154 363.685 107.154 365.579 106.072C366.055 106.072 366.532 106.072 367.022 106.072C367.096 99.5326 367.073 93.098 366.301 86.5913Z" fill="#45425C"/>
<path d="M131.814 69.2754C132.716 71.0797 132.444 71.6715 132 73.61C131.871 74.1981 131.741 74.7861 131.609 75.3919C131.468 76.0223 131.327 76.6526 131.182 77.3021C129.796 83.7935 129.113 90.0589 128.928 96.6924C129.719 96.7854 130.511 96.8784 131.326 96.9743C134.323 97.4711 135.487 98.1414 137.586 100.3C138.533 102.284 138.533 102.284 139.029 103.907C138.314 104.265 138.314 104.265 137.586 104.629C137.169 103.944 136.752 103.26 136.323 102.555C134.528 99.9844 134.528 99.9844 131.814 98.8569C128.738 98.5152 127.163 98.6417 124.418 100.12C122.687 101.536 121.471 102.76 120.27 104.629C120.27 101.743 120.27 101.743 121.893 99.849C123.551 98.4174 124.819 97.598 126.763 96.6924C126.782 95.7763 126.8 94.8602 126.819 93.9163C127.35 75.9714 127.35 75.9714 131.814 69.2754Z" fill="#48465F"/>
<path d="M313.631 99.5786C315.298 99.8167 316.965 100.055 318.682 100.3C318.682 100.538 318.682 100.776 318.682 101.022C317.492 101.022 316.301 101.022 315.074 101.022C314.836 110.545 314.598 120.069 314.353 129.882C312.012 127.541 311.936 126.967 311.906 123.824C311.913 123.31 311.92 122.796 311.926 122.266C311.926 121.734 311.926 121.201 311.925 120.652C311.927 119.525 311.934 118.398 311.946 117.271C311.963 115.553 311.961 113.836 311.956 112.118C311.96 111.021 311.965 109.925 311.971 108.828C311.971 108.317 311.97 107.806 311.969 107.279C312.01 104.401 312.366 102.173 313.631 99.5786Z" fill="#747385"/>
<path d="M328.061 95.9714C328.061 96.4476 328.061 96.9238 328.061 97.4144C323.28 99.6501 319.638 100.641 314.353 100.3C318.081 95.2401 321.865 93.9888 328.061 95.9714Z" fill="#3C3A53"/>
<path d="M172.217 67.1108C175.576 69.3504 175.798 72.7529 176.653 76.5242C177.89 82.9087 177.885 89.4866 177.989 95.9709C177.513 95.9709 177.036 95.9709 176.546 95.9709C175.833 93.7055 175.728 91.5274 175.651 89.1643C175.395 81.5982 173.952 74.4625 172.217 67.1108Z" fill="#59576E"/>
<path d="M131.813 69.2754C132.724 71.0965 132.434 71.7474 131.999 73.7115C131.87 74.3144 131.741 74.9173 131.608 75.5385C131.467 76.18 131.327 76.8215 131.182 77.4825C130.03 82.9398 129.154 88.2234 128.927 93.8064C128.689 93.8064 128.451 93.8064 128.205 93.8064C127.185 85.369 126.881 76.6733 131.813 69.2754Z" fill="#646277"/>
<path d="M325.896 97.4142C327.52 97.1887 327.52 97.1887 329.504 97.4142C332.125 99.89 332.704 101.847 333.111 105.351C333.122 107.175 333.09 109.001 333.024 110.824C333.007 111.33 332.99 111.837 332.972 112.358C332.918 113.961 332.857 115.563 332.796 117.165C332.757 118.258 332.719 119.35 332.682 120.443C332.589 123.108 332.491 125.774 332.39 128.439C332.152 128.439 331.914 128.439 331.668 128.439C331.662 127.671 331.655 126.903 331.648 126.112C331.619 123.254 331.572 120.397 331.519 117.54C331.498 116.305 331.483 115.069 331.473 113.834C331.457 112.055 331.424 110.277 331.387 108.499C331.386 107.949 331.385 107.4 331.384 106.834C331.286 103.244 330.631 101.371 328.061 98.8572C327.347 98.381 326.632 97.9048 325.896 97.4142Z" fill="#504D66"/>
<path d="M325.176 96.6925C325.176 97.4068 325.176 98.1211 325.176 98.857C322.162 100.005 319.742 100.454 316.518 100.3C319.538 97.179 320.809 96.5976 325.176 96.6925Z" fill="#333346"/>
<path d="M154.901 207.082C156.11 207.288 157.314 207.528 158.509 207.804C158.271 208.756 158.033 209.708 157.787 210.69C156.835 210.928 155.882 211.166 154.901 211.411C154.625 210.216 154.386 209.012 154.18 207.804C154.418 207.565 154.656 207.327 154.901 207.082Z" fill="#D7D8D9"/>
<path d="M154.901 189.766C156.389 190.082 156.389 190.082 157.787 190.488C158.025 191.44 158.263 192.392 158.509 193.374C157.318 193.612 156.128 193.85 154.901 194.095C154.625 192.9 154.386 191.696 154.18 190.488C154.418 190.25 154.656 190.011 154.901 189.766Z" fill="#D7D8D9"/>
<path d="M154.901 173.171C156.11 173.378 157.314 173.617 158.509 173.893C158.271 174.845 158.033 175.798 157.787 176.779C156.835 177.017 155.882 177.255 154.901 177.5C154.625 176.305 154.386 175.102 154.18 173.893C154.418 173.655 154.656 173.417 154.901 173.171Z" fill="#D7D8D9"/>
<path d="M154.901 155.855C156.389 156.171 156.389 156.171 157.787 156.577C158.025 157.529 158.263 158.482 158.509 159.463C157.318 159.701 156.128 159.939 154.901 160.184C154.625 158.99 154.386 157.786 154.18 156.577C154.418 156.339 154.656 156.101 154.901 155.855Z" fill="#D7D8D9"/>
<path d="M154.901 139.261C156.11 139.468 157.314 139.707 158.509 139.983C158.271 140.935 158.033 141.887 157.787 142.869C156.835 143.107 155.882 143.345 154.901 143.59C154.625 142.395 154.386 141.192 154.18 139.983C154.418 139.745 154.656 139.507 154.901 139.261Z" fill="#D7D8D9"/>
<path d="M154.901 121.945C156.389 122.261 156.389 122.261 157.787 122.667C158.025 123.619 158.263 124.572 158.509 125.553C157.318 125.791 156.128 126.029 154.901 126.274C154.625 125.079 154.386 123.876 154.18 122.667C154.418 122.429 154.656 122.191 154.901 121.945Z" fill="#D7D8D9"/>
<path d="M343.213 231.613C344.746 232.29 344.746 232.29 346.099 233.056C345.86 234.009 345.622 234.961 345.377 235.942C344.187 235.704 342.996 235.466 341.77 235.221C341.77 234.268 341.77 233.316 341.77 232.335C342.246 232.097 342.722 231.859 343.213 231.613Z" fill="#D7D8D9"/>
<path d="M154.901 223.677C156.299 223.902 156.299 223.902 157.787 224.398C158.025 225.113 158.263 225.827 158.509 226.563C158.271 227.039 158.033 227.515 157.787 228.006C156.597 227.768 155.406 227.53 154.18 227.284C154.418 226.094 154.656 224.903 154.901 223.677Z" fill="#D7D8D9"/>
<path d="M342.491 199.146C343.443 199.146 344.396 199.146 345.377 199.146C345.828 200.498 345.828 200.498 346.099 202.032C345.622 202.508 345.146 202.984 344.656 203.475C343.122 203.204 343.122 203.204 341.77 202.753C342.008 201.563 342.246 200.372 342.491 199.146Z" fill="#D7D8D9"/>
<path d="M154.901 105.351C156.092 105.589 157.282 105.827 158.509 106.072C158.283 107.47 158.283 107.47 157.787 108.958C157.073 109.196 156.359 109.434 155.623 109.68C155.146 109.441 154.67 109.203 154.18 108.958C154.418 107.768 154.656 106.577 154.901 105.351Z" fill="#D7D8D9"/>
<path d="M364.137 77.2119C365.991 79.3869 366.678 81.079 367.158 83.8858C367.272 84.5294 367.387 85.173 367.504 85.8361C367.623 86.5671 367.623 86.5671 367.744 87.3129C367.03 87.0748 366.315 86.8367 365.58 86.5914C364.869 84.6524 364.869 84.6524 364.317 82.2624C364.127 81.4737 363.937 80.685 363.742 79.8724C363.634 79.2326 363.526 78.5927 363.415 77.9334C363.653 77.6953 363.891 77.4572 364.137 77.2119Z" fill="#3C3953"/>
<path d="M343.213 182.551C344.746 183.228 344.746 183.228 346.099 183.994C345.86 184.947 345.622 185.899 345.377 186.88C344.187 186.642 342.996 186.404 341.77 186.159C341.77 185.206 341.77 184.254 341.77 183.273C342.246 183.035 342.722 182.797 343.213 182.551Z" fill="#D7D8D9"/>
<path d="M342.491 150.083C343.443 150.083 344.396 150.083 345.377 150.083C345.828 151.436 345.828 151.436 346.099 152.969C345.622 153.446 345.146 153.922 344.656 154.413C343.941 154.413 343.227 154.413 342.491 154.413C342.215 153.218 341.976 152.014 341.77 150.805C342.008 150.567 342.246 150.329 342.491 150.083Z" fill="#D7D8D9"/>
<path d="M343.213 133.489C344.746 134.166 344.746 134.166 346.099 134.932C345.86 135.885 345.622 136.837 345.377 137.818C344.187 137.58 342.996 137.342 341.77 137.097C341.77 136.144 341.77 135.192 341.77 134.211C342.246 133.973 342.722 133.735 343.213 133.489Z" fill="#D7D8D9"/>
<path d="M120.269 129.16C120.746 129.636 121.222 130.113 121.712 130.603C123.315 130.62 123.315 130.62 125.049 130.333C125.639 130.253 126.229 130.173 126.836 130.09C127.288 130.021 127.74 129.953 128.206 129.882C126.628 131.731 126.628 131.731 124.598 133.489C122.659 133.534 122.659 133.534 120.991 132.768C120.044 131.28 120.044 131.28 119.548 129.882C119.786 129.644 120.024 129.405 120.269 129.16Z" fill="#68667A"/>
<path d="M342.491 215.74C343.682 215.978 344.872 216.216 346.099 216.462C345.86 217.414 345.622 218.366 345.377 219.348C344.187 219.11 342.996 218.872 341.77 218.626C342.008 217.674 342.246 216.721 342.491 215.74Z" fill="#D6D7D8"/>
<path d="M342.491 166.678C343.682 166.916 344.872 167.154 346.099 167.4C345.86 168.352 345.622 169.304 345.377 170.286C344.187 170.048 342.996 169.81 341.77 169.564C342.008 168.612 342.246 167.659 342.491 166.678Z" fill="#D6D7D8"/>
<path d="M342.491 117.616C343.682 117.854 344.872 118.092 346.099 118.338C345.86 119.29 345.622 120.242 345.377 121.224C344.187 120.986 342.996 120.748 341.77 120.502C342.008 119.55 342.246 118.597 342.491 117.616Z" fill="#D7D8D9"/>
<path d="M132.535 97.4141C135.697 98.3802 137.254 99.6668 139.028 102.465C138.79 103.179 138.552 103.893 138.307 104.629C137.905 104.093 137.503 103.558 137.089 103.006C135.471 101.081 133.819 99.6395 131.813 98.1356C132.052 97.8975 132.29 97.6594 132.535 97.4141Z" fill="#545269"/>
<path d="M124.599 97.4141C125.313 97.6522 126.027 97.8903 126.763 98.1356C126.227 98.5373 125.692 98.9391 125.14 99.3531C123.215 100.971 121.773 102.624 120.27 104.629C120.27 101.743 120.27 101.743 122.028 99.804C122.638 99.2534 123.248 98.7028 123.877 98.1356C124.115 97.8975 124.353 97.6594 124.599 97.4141Z" fill="#545269"/>
<path d="M325.896 97.4142C327.52 97.1887 327.52 97.1887 329.504 97.4142C331.172 99.218 331.172 99.218 332.39 101.022C331.676 101.26 330.961 101.498 330.225 101.743C329.913 101.297 329.6 100.85 329.279 100.39C328.063 98.6987 328.063 98.6987 325.896 97.4142Z" fill="#59576E"/>
</svg>
