<svg width="500" height="521" viewBox="0 0 500 521" fill="none" xmlns="http://www.w3.org/2000/svg">
<g clip-path="url(#clip0_589_55)">
<path d="M337.748 0.000189966C341.904 -0.402011 345.096 -0.323703 349.144 0.560689C353.954 1.44555 358.834 1.35986 363.717 1.46611C369.309 2.54803 372.429 5.21143 375.584 9.76312C376.94 12.0156 378.191 14.2989 379.415 16.6255C380.053 17.7961 380.053 17.7961 380.704 18.9903C381.856 21.1136 382.992 23.2429 384.106 25.3865C384.507 26.1489 384.908 26.9112 385.321 27.6967C387.618 32.5687 387.114 38.5653 385.361 43.5467C384.562 45.3472 383.754 47.1436 382.938 48.9361C381.371 53.368 381.36 57.7281 381.312 62.3967C381.141 63.2959 380.971 64.1951 380.795 65.1216C378.553 66.6048 378.553 66.6048 376.38 67.3291C376.38 69.1503 376.38 70.9715 376.38 72.8479C377.353 73.1479 378.327 73.4479 379.33 73.7571C382.75 74.9662 385.633 76.3743 388.775 78.1683C389.845 78.7588 390.914 79.3492 392.015 79.9576C394.226 81.1893 396.428 82.4367 398.621 83.7C405.465 87.4364 410.108 88.6741 417.868 88.2751C422.188 88.3162 424.103 89.7426 427.152 92.7154C429.448 95.9593 431.235 99.3771 433.016 102.925C433.569 104.005 434.121 105.086 434.691 106.199C446.651 130.166 456.425 155.3 466.363 180.155C472.506 195.312 479.318 210.19 486.049 225.093C486.524 226.15 486.999 227.206 487.488 228.295C488.386 230.294 489.289 232.29 490.197 234.285C490.6 235.184 491.003 236.083 491.418 237.009C491.772 237.789 492.125 238.569 492.488 239.373C493.471 241.97 494.005 244.509 494.481 247.241C492.842 248.334 492.842 248.334 491.17 249.448C492.971 252.509 494.829 255.478 496.827 258.416C500.1 263.435 500.485 267.859 500 273.731C498.887 276.833 498.528 277.778 495.585 279.25C491.484 279.716 489.262 279.393 485.513 277.594C478.596 271.579 477.084 263.742 475.717 254.967C474.625 255.331 473.532 255.696 472.406 256.071C471.907 255.155 471.407 254.238 470.893 253.294C465.026 242.652 458.778 232.258 452.442 221.891C445.163 209.976 438.065 197.964 431.052 185.891C430.675 185.244 430.298 184.596 429.91 183.929C428.895 182.186 427.883 180.441 426.871 178.697C424.854 175.345 422.723 172.112 420.53 168.874C420.943 197.345 424.651 224.031 431.213 251.738C432.003 255.098 432.671 258.125 432.671 261.59C433.042 262.598 433.412 263.607 433.794 264.646C435.012 268.649 434.942 271.445 434.575 275.6C434.516 276.313 434.457 277.026 434.397 277.76C434.268 279.299 434.133 280.838 433.993 282.376C433.774 284.775 433.574 287.175 433.378 289.575C433.017 293.966 432.64 298.354 432.258 302.743C431.997 305.74 431.739 308.738 431.481 311.735C431.107 316.078 430.733 320.42 430.358 324.762C426.928 364.537 423.638 404.321 420.53 444.123C420.445 445.21 420.36 446.297 420.273 447.417C419.249 460.529 418.23 473.642 417.219 486.755C416.49 486.755 415.762 486.755 415.011 486.755C415.137 489.055 415.278 491.355 415.425 493.654C415.502 494.934 415.579 496.215 415.658 497.534C415.951 501.383 415.951 501.383 418.322 505.519C418.322 509.526 418.322 513.532 418.322 517.66C437.627 517.66 456.932 517.66 476.821 517.66C476.821 518.753 476.821 519.846 476.821 520.971C319.47 520.971 162.119 520.971 0 520.971C0 520.243 0 519.515 0 518.764C22.5828 518.764 45.1656 518.764 68.4327 518.764C68.4327 518.036 68.4327 517.307 68.4327 516.556C67.6814 516.515 66.9302 516.474 66.1562 516.431C59.2432 515.963 52.4793 515.104 45.6678 513.866C44.8966 513.731 44.1254 513.596 43.3309 513.457C37.7953 512.409 37.7953 512.409 35.3201 509.934C34.2647 503.332 35.1436 497.965 38.5537 492.257C41.3521 487.068 42.358 481.64 43.1843 475.856C43.3693 474.584 43.5543 473.312 43.7448 472.001C43.9454 470.563 43.9454 470.563 44.1501 469.095C42.3289 468.731 40.5077 468.367 38.6313 467.991C39.9858 458.817 41.5241 449.705 43.3185 440.607C43.5557 439.392 43.7929 438.176 44.0372 436.924C44.5468 434.313 45.0576 431.702 45.5693 429.091C46.8015 422.794 48.0207 416.495 49.2417 410.197C51.1083 400.569 52.9796 390.943 54.868 381.32C56.2864 374.092 57.6893 366.861 59.0837 359.628C59.6146 356.889 60.1505 354.151 60.6918 351.413C64.983 329.698 67.5605 310.884 60.0166 289.528C56.4259 279.283 56.3529 272.619 60.7064 262.693C61.0706 261.965 61.4349 261.236 61.8102 260.486C61.0817 260.122 60.3532 259.757 59.6026 259.382C61.5703 254.68 63.5534 249.985 65.5512 245.295C66.2289 243.699 66.9022 242.1 67.5712 240.5C68.5327 238.202 69.5094 235.911 70.4893 233.621C70.786 232.902 71.0828 232.183 71.3886 231.443C72.1533 229.677 73.0436 227.966 73.9514 226.269C75.0441 225.905 76.1369 225.541 77.2627 225.166C76.4722 224.228 76.4722 224.228 75.6658 223.271C73.822 220.56 73.4332 218.951 73.0115 215.741C71.8009 208.929 68.9386 203.281 65.8113 197.158C54.4452 174.73 54.4452 174.73 54.8427 162.873C54.8833 160.997 54.8833 160.997 54.9246 159.083C55.1595 155.999 55.5993 153.121 56.2914 150.111C55.3481 149.725 54.4047 149.339 53.4328 148.942C52.2135 148.44 50.9942 147.938 49.7379 147.42C47.9131 146.671 47.9131 146.671 46.0515 145.907C43.0464 144.592 43.0464 144.592 41.9426 143.488C41.4551 136.715 42.4767 132.236 45.3918 126.173C45.7385 125.415 46.0851 124.656 46.4422 123.875C48.1253 120.209 49.8716 116.573 51.6177 112.937C52.2039 111.704 52.7901 110.472 53.394 109.203C53.9262 108.12 54.4583 107.037 55.0066 105.922C56.4458 102.256 56.9089 98.8175 57.3951 94.9229C57.7594 94.5587 58.1236 94.1944 58.4989 93.8192C57.5015 93.5389 56.5041 93.2586 55.4765 92.9698C53.5237 92.4 53.5237 92.4 51.5315 91.8186C50.2381 91.4473 48.9448 91.0759 47.6123 90.6933C42.4736 88.7799 42.4736 88.7799 40.8389 86.0929C41.0664 79.1762 46.4872 74.5051 50.7726 69.5366C51.3062 68.8835 51.8397 68.2305 52.3895 67.5576C53.739 66.0184 53.739 66.0184 56.2914 64.0178C59.1887 63.9489 59.1887 63.9489 61.8102 65.1216C62.9573 66.5597 64.0675 68.0288 65.1214 69.5366C65.6692 69.0173 66.217 68.498 66.7814 67.9629C74.9601 60.467 81.4646 57.767 92.6678 58.0378C97.7237 58.7322 99.4768 60.0526 102.649 64.0178C103.615 67.1222 103.615 67.1222 103.753 69.5366C104.709 69.7415 105.665 69.9464 106.65 70.1575C112.462 72.6329 115.594 76.906 118.584 82.3677C119.313 85.4425 118.963 87.493 118.102 90.5079C116.462 91.0543 116.462 91.0543 114.79 91.6117C115.041 92.6816 115.291 93.7516 115.549 94.8539C116.479 101.4 114.07 107.133 110.375 112.445C108.168 114.79 108.168 114.79 106.495 116.187C104.254 118.806 103.74 121.253 102.925 124.586C102.635 125.722 102.344 126.857 102.045 128.027C101.394 132.352 101.391 135.02 103.913 138.719C105.623 140.911 107.397 143.03 109.203 145.144C110.515 146.718 111.825 148.293 113.135 149.869C113.788 150.652 114.441 151.434 115.114 152.24C118.751 156.652 122.208 161.196 125.638 165.77C127.916 168.82 127.916 168.82 130.226 171.22C133.002 174.277 134.537 176.401 134.925 180.576C134.743 183.64 134.401 186.63 133.926 189.661C133.316 193.585 132.807 197.523 132.278 201.458C131.983 203.621 131.679 205.783 131.366 207.944C131.222 208.949 131.077 209.954 130.928 210.989C130.797 211.886 130.665 212.784 130.529 213.708C129.803 219.592 129.803 219.592 132.269 224.786C133.194 225.822 134.119 226.858 135.072 227.925C136.096 229.099 137.118 230.274 138.137 231.452C138.662 232.054 139.187 232.656 139.728 233.277C142.172 236.146 144.452 239.133 146.73 242.136C147.645 243.336 148.561 244.536 149.477 245.736C149.938 246.341 150.4 246.947 150.876 247.57C154.883 252.79 158.968 257.949 163.047 263.112C164.378 264.797 165.705 266.485 167.033 268.173C167.8 269.142 168.567 270.111 169.357 271.109C170.016 271.943 170.675 272.777 171.353 273.636C174.453 277.323 177.735 280.419 181.567 283.32C185.986 287.09 188.39 291.291 189.845 296.91C189.647 301.012 188.929 304.075 187.638 307.947C189.345 310.706 191.074 313.231 193.019 315.811C193.802 316.881 193.802 316.881 194.601 317.972C197.029 321.372 197.029 321.372 199.779 324.504C199.728 323.159 199.677 321.814 199.624 320.429C199.583 318.637 199.542 316.845 199.503 315.053C199.466 314.17 199.429 313.287 199.391 312.377C199.285 305.875 200.201 302.121 204.194 296.91C210.112 292.444 215.185 291.706 222.475 291.46C223.385 291.399 224.295 291.339 225.232 291.277C231.891 290.973 236.46 291.943 241.571 296.56C242.099 297.199 242.627 297.838 243.171 298.496C243.713 299.132 244.255 299.768 244.813 300.424C246.277 302.641 246.891 304.213 247.241 306.843C246.906 308.323 246.537 309.795 246.137 311.258C246.169 312.823 246.24 314.388 246.344 315.949C246.415 320.778 245.201 323.809 242.851 327.966C241.33 330.736 240.42 333.626 239.514 336.645C242.064 336.281 244.614 335.916 247.241 335.541C247.605 336.634 247.969 337.726 248.344 338.852C250.382 338.391 252.416 337.908 254.428 337.343C257.174 336.645 257.174 336.645 260.231 336.291C264.175 335.525 266.203 334.834 269.316 332.23C272.386 326.011 273.834 319.111 275.272 312.362C275.938 310.155 275.938 310.155 278.146 307.947C277.781 307.219 277.417 306.49 277.042 305.74C276.022 297.476 277.447 291.466 281.246 284.117C282.426 281.729 283.14 279.641 283.664 277.042C282.936 277.042 282.207 277.042 281.457 277.042C282.083 268.559 283.251 260.299 284.811 251.94C285.271 249.419 285.731 246.898 286.19 244.376C286.431 243.066 286.672 241.755 286.92 240.405C290.84 219.041 294.554 197.663 297.806 176.187C306.809 116.987 306.809 116.987 313.673 106.788C317.916 104.148 321.784 103.871 326.711 103.753C326.828 103.106 326.946 102.459 327.067 101.792C327.918 98.9986 329.025 97.5774 330.945 95.3929C331.888 94.2863 331.888 94.2863 332.85 93.1574C334.17 91.6376 335.495 90.1226 336.826 88.613C341.321 83.3126 343.772 78.4869 345.475 71.7441C344.04 71.6986 342.606 71.6531 341.129 71.6061C333.813 70.7665 328.549 67.1796 323.589 61.8491C317.333 53.9379 316.456 46.9611 316.639 37.1139C316.649 36.0909 316.659 35.0679 316.669 34.0139C316.695 31.5057 316.731 28.9981 316.777 26.4903C311.127 27.1166 308.291 27.4759 304.636 32.009C303.543 31.6448 302.45 31.2805 301.324 30.9053C302.167 30.063 303.009 29.2207 303.877 28.3528C307.305 24.305 308.26 19.9841 309.409 14.8879C310.328 11.5009 311.405 9.39534 314.479 7.57987C326.947 2.12892 326.947 2.12892 332.712 4.34622C333.282 4.73322 333.851 5.12022 334.437 5.51895C334.801 4.60836 335.166 3.69776 335.541 2.75957C336.269 1.84898 336.998 0.93838 337.748 0.000189966ZM331.126 192.053C328.323 201.016 325.521 209.978 322.72 218.941C321.419 223.104 320.117 227.267 318.815 231.43C317.555 235.459 316.296 239.488 315.037 243.518C314.56 245.043 314.083 246.569 313.606 248.094C312.502 251.622 311.401 255.151 310.302 258.682C309.456 261.395 308.602 264.106 307.742 266.815C307.337 268.102 306.932 269.389 306.515 270.714C306.152 271.855 305.79 272.997 305.417 274.172C304.491 277.079 304.491 277.079 304.636 280.353C303.179 280.353 301.722 280.353 300.221 280.353C297.661 286.962 297.661 286.962 297.047 293.943C296.832 300.298 293.951 305.517 291.391 311.258C290.844 312.898 290.844 312.898 290.287 314.57C291.015 314.57 291.744 314.57 292.494 314.57C292.16 315.528 291.826 316.486 291.481 317.473C290.244 321.022 289.011 324.573 287.779 328.124C287.245 329.662 286.709 331.199 286.173 332.736C285.402 334.944 284.636 337.152 283.871 339.361C283.409 340.69 282.947 342.02 282.47 343.39C281.346 346.372 281.346 346.372 281.457 348.786C280.852 348.948 280.248 349.11 279.625 349.278C273.497 351.011 267.624 353.144 261.732 355.538C260.592 355.998 260.592 355.998 259.428 356.467C257.572 357.216 255.718 357.967 253.863 358.72C253.891 359.391 253.918 360.062 253.947 360.753C254.237 367.809 254.523 374.865 254.806 381.921C254.912 384.546 255.019 387.171 255.127 389.795C255.284 393.593 255.436 397.391 255.588 401.188C255.66 402.916 255.66 402.916 255.734 404.678C256.276 418.485 256.101 432.191 255.346 445.985C255.273 447.393 255.199 448.801 255.124 450.252C254.93 453.943 254.734 457.635 254.536 461.327C254.256 466.549 253.98 471.773 253.706 476.996C253.561 479.765 253.414 482.534 253.264 485.302C253.198 486.556 253.132 487.809 253.063 489.101C253.005 490.196 252.946 491.292 252.885 492.421C252.755 495.686 252.738 498.94 252.759 502.208C251.667 502.208 250.574 502.208 249.448 502.208C249.534 505.224 249.943 507.12 252.113 509.283C256.249 512.408 259.623 513.963 264.901 514.349C265.447 515.988 265.447 515.988 266.004 517.66C286.038 517.66 306.071 517.66 326.711 517.66C327.075 515.111 327.439 512.561 327.815 509.934C328.645 509.928 329.476 509.923 330.332 509.917C342.932 508.999 350.428 502.369 359.823 494.481C359.459 491.568 359.095 488.654 358.72 485.651C357.991 485.651 357.263 485.651 356.512 485.651C356.438 485 356.364 484.348 356.288 483.676C350.862 435.817 345.33 387.969 339.773 340.124C339.109 334.404 338.446 328.683 337.783 322.962C336.963 315.889 336.142 308.816 335.319 301.744C334.892 298.069 334.465 294.395 334.04 290.72C333.572 286.68 333.101 282.64 332.631 278.601C332.494 277.414 332.357 276.228 332.216 275.006C331.604 269.77 330.925 264.577 330.022 259.382C329.221 246.353 330.926 233.133 332.002 220.156C332.248 217.164 332.483 214.172 332.717 211.179C332.795 210.276 332.873 209.374 332.954 208.444C333.389 202.784 333.108 197.665 332.23 192.053C331.865 192.053 331.501 192.053 331.126 192.053ZM124.724 261.59C122.403 263.91 122.631 268.34 122.517 271.523C122.69 272.615 122.864 273.706 123.043 274.83C126.693 298.529 121.104 324.353 117.386 347.695C117.209 348.821 117.032 349.947 116.85 351.106C116.514 353.234 116.17 355.361 115.815 357.485C114.747 364.199 114.747 364.199 115.894 370.861C116.987 371.225 118.079 371.59 119.205 371.965C120.447 374.655 120.447 374.655 121.413 377.484C121.777 378.212 122.141 378.941 122.517 379.691C122.564 382.266 122.561 384.842 122.517 387.417C122.517 392.584 123.616 393.622 126.932 397.351C127.58 396.088 127.58 396.088 128.242 394.799C130.925 390.821 133.748 389.12 138.314 387.762C138.929 387.649 139.543 387.535 140.177 387.417C140.905 388.51 141.634 389.603 142.384 390.729C144.82 391.13 144.82 391.13 147.489 390.936C148.842 390.891 148.842 390.891 150.222 390.845C151.26 390.787 151.26 390.787 152.318 390.729C150.409 400.253 150.409 400.253 147.416 403.482C142.875 406.369 138.741 406.539 133.464 406.121C131.076 405.946 131.076 405.946 129.139 408.389C128.727 411.927 128.727 411.927 128.682 416.089C128.661 416.845 128.639 417.602 128.617 418.381C128.551 420.799 128.5 423.217 128.449 425.635C128.407 427.273 128.364 428.912 128.32 430.55C128.214 434.568 128.121 438.586 128.035 442.605C132.808 440.368 132.808 440.368 136.865 437.086C137.958 437.086 139.051 437.086 140.177 437.086C140.905 438.179 141.634 439.272 142.384 440.398C144.82 440.799 144.82 440.799 147.489 440.604C148.842 440.56 148.842 440.56 150.222 440.514C150.914 440.476 151.605 440.437 152.318 440.398C150.409 449.922 150.409 449.922 147.416 453.151C142.892 456.027 138.923 456.17 133.679 455.574C130.213 455.984 129.104 457.611 126.932 460.265C126.293 463.076 126.293 463.076 126.423 466.15C126.426 467.298 126.428 468.445 126.431 469.627C126.46 470.84 126.488 472.053 126.518 473.303C126.533 474.538 126.548 475.773 126.563 477.046C126.406 492.216 126.406 492.216 130.243 506.623C131.7 506.623 133.157 506.623 134.658 506.623C136.936 500.106 139.213 493.59 141.489 487.073C142.261 484.861 143.034 482.65 143.807 480.438C145.978 474.23 148.143 468.02 150.296 461.807C150.866 460.165 151.437 458.524 152.011 456.884C152.657 455.037 153.294 453.187 153.93 451.336C154.422 449.917 154.422 449.917 154.924 448.469C156.922 441.237 155.511 435.308 153.422 428.256C153.101 423.528 153.037 420.166 155.629 416.115C157.45 416.479 159.272 416.843 161.148 417.219C162.049 415.105 162.944 412.989 163.838 410.872C164.338 409.694 164.837 408.516 165.352 407.302C166.379 404.701 167.195 402.285 167.77 399.559C172.82 401.79 176.179 404.327 179.912 408.389C182.601 407.661 185.26 406.887 187.914 406.039C190.949 405.077 190.949 405.077 193.571 404.495C196.435 403.605 197.802 402.949 199.779 400.662C200.865 396.323 201.26 392.184 201.534 387.732C201.835 383.278 203.128 379.562 204.608 375.345C205.732 370.351 205.603 367.484 203.026 363.152C200.219 359.033 197.102 355.167 193.98 351.285C190.806 347.169 188.092 342.786 185.361 338.369C184.822 337.505 184.282 336.641 183.726 335.751C182.079 333.11 180.442 330.463 178.808 327.815C178.239 326.894 177.669 325.974 177.083 325.025C175.4 322.301 173.722 319.575 172.047 316.846C171.538 316.017 171.029 315.187 170.504 314.333C170.031 313.559 169.559 312.785 169.072 311.987C168.66 311.311 168.247 310.636 167.822 309.939C166.667 307.947 166.667 307.947 165.52 305.583C164.277 303.179 162.968 302.164 160.803 300.566C157.783 298.105 156.145 296.071 154.53 292.546C150.899 285.756 145.474 280.691 140.012 275.38C138.223 273.641 136.45 271.886 134.679 270.129C130.158 264.644 130.158 264.644 124.724 261.59ZM380.795 315.673C380.361 337.694 379.929 359.714 379.499 381.735C379.3 391.96 379.1 402.186 378.898 412.412C378.722 421.332 378.548 430.251 378.374 439.171C378.283 443.888 378.19 448.604 378.097 453.321C378.008 457.774 377.921 462.226 377.836 466.679C377.804 468.301 377.772 469.922 377.74 471.544C377.666 475.2 377.601 478.856 377.549 482.512C377.503 485.467 377.436 488.417 377.348 491.37C377.318 492.866 377.287 494.361 377.257 495.856C377.222 497.183 377.186 498.51 377.149 499.877C377.227 503.767 377.227 503.767 380.795 507.726C386.623 503.356 392.45 498.985 398.455 494.481C398.09 491.568 397.726 488.654 397.351 485.651C396.258 485.651 395.166 485.651 394.04 485.651C390.033 429.559 386.026 373.466 381.898 315.673C381.534 315.673 381.17 315.673 380.795 315.673ZM205.298 332.23C206.171 334.437 206.171 334.437 207.506 336.645C211.137 337.855 212.708 337.527 216.336 336.645C216.336 335.916 216.336 335.188 216.336 334.437C212.464 332.667 209.555 331.987 205.298 332.23ZM113.618 392.66C110.131 394.785 110.131 394.785 109.698 398.071C109.433 401.153 109.282 404.192 109.272 407.285C110.296 407.558 111.32 407.831 112.376 408.113C116.139 409.588 117.035 410.653 119.205 413.907C119.934 413.907 120.662 413.907 121.413 413.907C121.467 414.612 121.521 415.316 121.577 416.042C121.659 416.954 121.742 417.866 121.827 418.805C121.904 419.715 121.98 420.624 122.06 421.56C122.21 422.313 122.361 423.066 122.517 423.841C123.245 424.205 123.974 424.57 124.724 424.945C125.966 407.999 125.966 407.999 119.205 392.936C116.879 391.475 116.879 391.475 113.618 392.66ZM200.883 411.7C198.267 414.63 198.267 414.63 197.572 418.322C199.029 418.687 200.486 419.051 201.987 419.426C200.579 425.478 198.234 428.052 193.157 431.568C189.432 433.016 189.432 433.016 186.534 433.775C185.988 436.507 185.988 436.507 185.43 439.294C184.312 439.415 183.194 439.536 182.042 439.66C180.55 439.836 179.058 440.013 177.566 440.191C176.832 440.268 176.098 440.346 175.341 440.426C170.301 441.043 166.546 442.107 162.252 444.813C160.54 447.415 159.273 449.681 158.009 452.483C157.642 453.256 157.276 454.03 156.898 454.827C155.71 457.363 154.561 459.914 153.422 462.473C153.033 463.339 152.645 464.206 152.245 465.099C149.823 470.545 147.49 476.023 145.21 481.529C144.029 484.366 142.819 487.189 141.608 490.013C140.842 491.853 140.077 493.695 139.314 495.538C138.776 496.773 138.776 496.773 138.228 498.033C135.285 505.311 135.762 508.971 135.762 517.66C162.351 517.66 188.94 517.66 216.336 517.66C217.064 513.29 217.573 509.937 217.508 505.657C217.498 504.795 217.488 503.932 217.478 503.044C217.465 502.404 217.452 501.764 217.439 501.104C215.254 500.558 215.254 500.558 213.024 500C213.009 499.072 212.993 498.144 212.978 497.188C212.828 488.434 212.652 479.681 212.447 470.928C212.342 466.428 212.248 461.929 212.176 457.428C212.107 453.084 212.011 448.74 211.897 444.396C211.858 442.74 211.829 441.084 211.809 439.428C211.78 437.105 211.717 434.784 211.646 432.461C211.619 431.14 211.592 429.819 211.564 428.458C210.614 423.99 208.687 422.38 205.298 419.426C203.862 416.892 203.01 414.446 201.987 411.7C201.623 411.7 201.258 411.7 200.883 411.7ZM105.96 426.049C105.158 430.967 104.384 435.888 103.615 440.811C103.386 442.214 103.157 443.617 102.921 445.063C102.611 447.069 102.611 447.069 102.295 449.115C102.099 450.352 101.902 451.589 101.7 452.864C101.649 453.849 101.598 454.835 101.545 455.85C102.274 456.579 103.002 457.307 103.753 458.058C103.753 457.329 103.753 456.601 103.753 455.85C104.845 455.85 105.938 455.85 107.064 455.85C107.428 459.857 107.792 463.863 108.168 467.991C108.896 467.991 109.625 467.991 110.375 467.991C109.763 469.334 109.763 469.334 109.138 470.703C106.152 478.025 106.152 478.025 107.077 485.608C109.093 488.771 111.282 491.603 113.687 494.481C114.472 495.54 115.257 496.599 116.066 497.689C119.111 501.76 119.111 501.76 122.517 505.519C123.609 505.519 124.702 505.519 125.828 505.519C125.589 503.37 125.589 503.37 125.345 501.177C122.871 477.558 123.33 454.141 124.724 430.464C119.084 429.596 113.853 429.26 108.168 429.36C108.168 428.267 108.168 427.175 108.168 426.049C107.439 426.049 106.711 426.049 105.96 426.049ZM66.2252 476.821C65.0902 479.848 65.0902 479.848 65.1214 483.444C67.1004 485.8 69.1814 487.185 71.7439 488.963C71.7439 484.956 71.7439 480.949 71.7439 476.821C69.9227 476.821 68.1015 476.821 66.2252 476.821ZM94.9227 483.444C94.5585 484.901 94.1943 486.358 93.819 487.859C104.958 498.56 104.958 498.56 118.102 504.415C116.275 500.205 113.547 496.821 110.651 493.309C110.19 492.725 109.729 492.141 109.254 491.539C106.005 487.591 102.984 485.319 98.234 483.444C97.1413 483.444 96.0486 483.444 94.9227 483.444ZM231.788 486.755C231.788 492.583 231.788 498.411 231.788 504.415C230.331 504.051 228.874 503.687 227.373 503.311C227.801 506.056 228.156 507.421 230.197 509.365C230.881 509.826 231.566 510.287 232.271 510.762C232.952 511.234 233.634 511.707 234.336 512.193C236.166 513.426 236.166 513.426 238.411 513.245C239.673 510.721 239.628 509.28 239.583 506.485C239.561 505.073 239.538 503.662 239.514 502.208C237.693 502.572 235.872 502.936 233.996 503.311C234.021 502.394 234.047 501.476 234.073 500.531C234.093 499.331 234.113 498.132 234.134 496.896C234.159 495.705 234.185 494.514 234.211 493.287C234.25 489.852 234.25 489.852 231.788 486.755Z" fill="#E5E5E5"/>
<path d="M330.022 258.278C363.168 258.278 396.313 258.278 430.464 258.278C435.424 269.44 435.424 269.44 434.713 275.807C434.501 277.956 434.501 277.956 434.284 280.147C434.2 280.9 434.115 281.654 434.028 282.429C433.681 285.633 433.427 288.842 433.169 292.054C432.88 295.618 432.568 299.18 432.258 302.743C431.997 305.74 431.739 308.738 431.481 311.735C431.107 316.078 430.733 320.42 430.358 324.762C426.928 364.537 423.638 404.321 420.53 444.123C420.445 445.21 420.36 446.297 420.273 447.416C419.249 460.529 418.23 473.642 417.219 486.755C416.49 486.755 415.762 486.755 415.011 486.755C415.137 489.055 415.278 491.355 415.425 493.654C415.502 494.934 415.579 496.215 415.658 497.534C415.951 501.383 415.951 501.383 418.322 505.519C418.322 509.526 418.322 513.532 418.322 517.66C437.627 517.66 456.932 517.66 476.821 517.66C476.821 518.753 476.821 519.846 476.821 520.971C319.47 520.971 162.119 520.971 0 520.971C0 520.243 0 519.515 0 518.764C22.5828 518.764 45.1656 518.764 68.4327 518.764C68.4327 518.035 68.4327 517.307 68.4327 516.556C67.6814 516.515 66.9302 516.474 66.1562 516.431C59.2432 515.963 52.4793 515.104 45.6678 513.866C44.8966 513.731 44.1254 513.596 43.3309 513.457C37.7953 512.409 37.7953 512.409 35.3201 509.934C34.2647 503.332 35.1436 497.965 38.5537 492.257C41.3521 487.068 42.358 481.64 43.1843 475.856C43.3693 474.584 43.5543 473.312 43.7448 472.001C43.9454 470.563 43.9454 470.563 44.1501 469.095C42.3289 468.731 40.5077 468.367 38.6313 467.991C39.9858 458.817 41.5241 449.705 43.3185 440.607C43.5557 439.392 43.7929 438.176 44.0372 436.924C44.5468 434.313 45.0576 431.702 45.5693 429.091C46.8015 422.794 48.0207 416.495 49.2417 410.197C51.1083 400.569 52.9796 390.943 54.868 381.32C56.2864 374.092 57.6893 366.861 59.0837 359.628C59.6146 356.889 60.1505 354.151 60.6918 351.413C64.983 329.698 67.5605 310.884 60.0166 289.528C56.4418 279.329 56.2961 272.572 60.7064 262.693C62.581 260.819 64.904 261.383 67.4712 261.357C75.6589 261.427 83.502 262.76 91.5425 264.211C94.3578 264.703 97.1732 265.195 99.9888 265.686C101.346 265.931 102.703 266.177 104.101 266.43C106.832 266.886 109.575 267.271 112.325 267.588C114.264 267.816 114.264 267.816 116.243 268.048C117.399 268.163 118.556 268.278 119.747 268.396C122.517 269.316 122.517 269.316 123.997 271.724C125.452 277.949 124.972 284.281 124.793 290.632C124.765 291.819 124.765 291.819 124.736 293.03C124.23 311.52 121.419 329.68 118.49 347.919C118.313 349.034 118.136 350.149 117.954 351.298C117.619 353.4 117.274 355.5 116.919 357.598C115.785 364.274 115.785 364.274 116.998 370.861C118.423 372.378 119.896 373.851 121.413 375.276C124.121 379.203 123.787 382.75 123.62 387.417C123.141 391.698 123.141 391.698 125.276 393.764C125.822 394.219 126.369 394.675 126.932 395.144C127.364 394.483 127.797 393.823 128.242 393.143C131.475 389.241 135.215 387.232 140.177 386.314C141.269 387.953 141.269 387.953 142.384 389.625C144.806 390.265 144.806 390.265 147.489 390.384C148.391 390.456 149.293 390.529 150.222 390.604C151.26 390.666 151.26 390.666 152.318 390.729C152.754 395.675 151.738 398.729 149.007 402.87C143.656 406.936 140.014 407.75 133.356 407.332C132.693 407.317 132.03 407.301 131.347 407.285C129.265 409.367 129.975 412.96 129.894 415.74C129.859 416.84 129.859 416.84 129.824 417.962C129.752 420.313 129.687 422.663 129.622 425.014C129.574 426.604 129.526 428.194 129.478 429.785C129.359 433.69 129.247 437.596 129.139 441.501C130.178 440.79 131.216 440.078 132.286 439.346C135.159 437.478 136.878 436.49 140.177 435.983C140.905 437.075 141.634 438.168 142.384 439.294C144.806 439.934 144.806 439.934 147.489 440.053C148.842 440.161 148.842 440.161 150.222 440.272C151.26 440.334 151.26 440.334 152.318 440.398C152.754 445.344 151.738 448.398 149.007 452.539C143.68 456.587 140.19 457.422 133.571 456.786C131.28 456.76 131.28 456.76 129.577 458.264C127.514 460.942 127.623 462.605 127.634 465.965C127.633 467.675 127.633 467.675 127.632 469.419C127.651 470.632 127.671 471.846 127.69 473.096C127.7 474.329 127.709 475.562 127.718 476.832C127.863 486.874 128.715 496.703 130.243 506.623C131.131 506.759 132.018 506.896 132.933 507.037C133.867 507.264 134.8 507.492 135.762 507.726C136.865 509.934 136.865 509.934 136.865 516.556C163.091 516.921 189.316 517.285 216.336 517.66C216.7 512.197 217.064 506.733 217.439 501.104C215.618 500.74 213.797 500.375 211.921 500C210.586 474.985 210.701 449.987 210.817 424.945C211.909 425.309 213.002 425.673 214.128 426.049C217.339 426.214 220.505 426.304 223.717 426.325C224.576 426.347 225.434 426.37 226.319 426.394C233.399 426.441 238.675 424.813 245.033 421.634C246.893 421.528 248.758 421.49 250.621 421.496C251.613 421.493 252.604 421.49 253.626 421.487C256.071 421.634 256.071 421.634 257.174 422.737C257.221 424.441 257.185 426.148 257.118 427.851C257.055 429.532 257.055 429.532 256.991 431.248C256.938 432.491 256.884 433.735 256.829 435.017C256.778 436.305 256.726 437.594 256.672 438.922C256.204 450.156 255.668 461.387 255.11 472.617C255.015 474.539 254.921 476.462 254.827 478.385C254.694 481.114 254.555 483.842 254.415 486.57C254.376 487.383 254.337 488.196 254.297 489.033C254.06 493.495 253.586 497.816 252.759 502.208C251.667 502.208 250.574 502.208 249.448 502.208C250.51 506.029 251.503 507.602 254.622 510.141C258.485 512.255 261.747 513.327 266.004 514.349C266.004 515.442 266.004 516.534 266.004 517.66C286.038 517.66 306.071 517.66 326.711 517.66C326.711 515.111 326.711 512.561 326.711 509.934C330.409 508.547 333.475 507.717 337.438 507.45C342.946 506.796 346.61 504.281 350.993 501.035C351.743 500.535 352.493 500.035 353.266 499.519C357.362 496.599 357.362 496.599 359.198 492.102C359.252 489.389 359.252 489.389 358.72 485.651C357.991 485.651 357.263 485.651 356.512 485.651C354.202 475.302 353.038 464.854 351.825 454.334C351.586 452.289 351.346 450.245 351.106 448.201C350.459 442.676 349.818 437.151 349.177 431.625C348.506 425.832 347.829 420.039 347.153 414.246C346.02 404.524 344.891 394.801 343.763 385.078C342.461 373.845 341.152 362.612 339.84 351.379C338.712 341.722 337.587 332.064 336.465 322.405C335.796 316.643 335.125 310.88 334.452 305.118C333.819 299.703 333.19 294.288 332.565 288.873C332.336 286.888 332.104 284.903 331.871 282.918C331.553 280.206 331.24 277.492 330.929 274.779C330.836 273.997 330.743 273.216 330.647 272.41C330.104 267.613 330.022 263.158 330.022 258.278ZM380.795 315.673C380.361 337.694 379.929 359.714 379.499 381.734C379.3 391.96 379.1 402.186 378.898 412.412C378.722 421.332 378.548 430.251 378.374 439.171C378.283 443.888 378.19 448.604 378.097 453.321C378.008 457.774 377.921 462.226 377.836 466.679C377.804 468.301 377.772 469.922 377.74 471.544C377.666 475.2 377.601 478.856 377.549 482.512C377.503 485.467 377.436 488.417 377.348 491.37C377.318 492.866 377.287 494.361 377.257 495.856C377.222 497.183 377.186 498.51 377.149 499.877C377.227 503.767 377.227 503.767 380.795 507.726C386.623 503.356 392.45 498.985 398.455 494.481C398.09 491.567 397.726 488.654 397.351 485.651C396.258 485.651 395.166 485.651 394.04 485.651C390.033 429.559 386.026 373.466 381.898 315.673C381.534 315.673 381.17 315.673 380.795 315.673ZM113.618 392.66C110.131 394.785 110.131 394.785 109.698 398.071C109.433 401.153 109.282 404.192 109.272 407.285C110.296 407.558 111.32 407.831 112.376 408.113C116.139 409.588 117.035 410.653 119.205 413.907C119.934 413.907 120.662 413.907 121.413 413.907C121.467 414.612 121.521 415.316 121.577 416.042C121.659 416.954 121.742 417.866 121.827 418.805C121.904 419.715 121.98 420.624 122.06 421.56C122.21 422.313 122.361 423.066 122.517 423.841C123.245 424.205 123.974 424.57 124.724 424.945C125.966 407.999 125.966 407.999 119.205 392.936C116.879 391.475 116.879 391.475 113.618 392.66ZM105.96 426.049C105.158 430.967 104.384 435.888 103.615 440.811C103.386 442.214 103.157 443.617 102.921 445.063C102.611 447.069 102.611 447.069 102.295 449.115C102.099 450.352 101.902 451.589 101.7 452.864C101.649 453.849 101.598 454.835 101.545 455.85C102.274 456.579 103.002 457.307 103.753 458.058C103.753 457.329 103.753 456.601 103.753 455.85C104.845 455.85 105.938 455.85 107.064 455.85C107.428 459.857 107.792 463.863 108.168 467.991C108.896 467.991 109.625 467.991 110.375 467.991C109.763 469.334 109.763 469.334 109.138 470.703C106.152 478.025 106.152 478.025 107.077 485.608C109.093 488.771 111.282 491.603 113.687 494.481C114.472 495.54 115.257 496.599 116.066 497.689C119.111 501.76 119.111 501.76 122.517 505.519C123.609 505.519 124.702 505.519 125.828 505.519C125.589 503.37 125.589 503.37 125.345 501.177C122.871 477.558 123.33 454.141 124.724 430.464C119.084 429.596 113.853 429.26 108.168 429.36C108.168 428.267 108.168 427.175 108.168 426.049C107.439 426.049 106.711 426.049 105.96 426.049ZM66.2252 476.821C65.0902 479.848 65.0902 479.848 65.1214 483.444C67.1004 485.8 69.1814 487.185 71.7439 488.963C71.7439 484.956 71.7439 480.949 71.7439 476.821C69.9227 476.821 68.1015 476.821 66.2252 476.821ZM94.9227 483.444C94.5585 484.901 94.1943 486.358 93.819 487.859C104.958 498.56 104.958 498.56 118.102 504.415C116.275 500.205 113.547 496.821 110.651 493.309C110.19 492.725 109.729 492.141 109.254 491.539C106.005 487.591 102.984 485.319 98.234 483.444C97.1413 483.444 96.0486 483.444 94.9227 483.444ZM231.788 486.755C231.788 492.583 231.788 498.411 231.788 504.415C230.331 504.051 228.874 503.687 227.373 503.311C227.801 506.056 228.156 507.421 230.197 509.365C230.881 509.826 231.566 510.287 232.271 510.762C232.952 511.234 233.634 511.707 234.336 512.193C236.166 513.426 236.166 513.426 238.411 513.245C239.673 510.721 239.628 509.28 239.583 506.485C239.561 505.073 239.538 503.662 239.514 502.208C237.693 502.572 235.872 502.936 233.996 503.311C234.021 502.394 234.047 501.476 234.073 500.53C234.093 499.331 234.113 498.132 234.134 496.896C234.159 495.705 234.185 494.514 234.211 493.287C234.25 489.852 234.25 489.852 231.788 486.755Z" fill="#2F2E41"/>
<path d="M98.3849 59.5468C101.231 61.7315 102.555 63.715 103.615 67.1222C103.66 67.919 103.706 68.7157 103.753 69.5367C104.709 69.7415 105.665 69.9464 106.65 70.1575C112.462 72.633 115.594 76.9061 118.584 82.3678C119.313 85.4426 118.963 87.4931 118.102 90.508C116.462 91.0543 116.462 91.0543 114.79 91.6117C115.041 92.6817 115.291 93.7516 115.549 94.854C116.479 101.4 114.07 107.133 110.375 112.445C108.168 114.791 108.168 114.791 106.495 116.187C104.254 118.806 103.74 121.253 102.925 124.586C102.635 125.722 102.344 126.857 102.045 128.027C101.394 132.352 101.391 135.02 103.913 138.719C105.623 140.911 107.397 143.03 109.203 145.144C110.515 146.718 111.825 148.293 113.135 149.869C113.788 150.652 114.441 151.434 115.114 152.241C118.751 156.652 122.208 161.196 125.638 165.77C127.916 168.82 127.916 168.82 130.226 171.22C133.002 174.277 134.537 176.402 134.925 180.576C134.743 183.64 134.401 186.63 133.926 189.661C133.316 193.585 132.807 197.523 132.278 201.458C131.983 203.621 131.679 205.783 131.366 207.944C131.222 208.949 131.077 209.954 130.928 210.989C130.797 211.887 130.665 212.784 130.529 213.708C129.803 219.592 129.803 219.592 132.269 224.786C133.194 225.822 134.119 226.858 135.072 227.925C136.096 229.099 137.118 230.274 138.137 231.452C138.662 232.054 139.187 232.656 139.728 233.277C142.172 236.146 144.452 239.133 146.73 242.136C147.645 243.336 148.561 244.536 149.477 245.736C149.938 246.341 150.4 246.947 150.876 247.57C154.883 252.79 158.968 257.949 163.047 263.112C164.378 264.798 165.705 266.485 167.033 268.173C167.8 269.142 168.567 270.111 169.357 271.11C170.016 271.943 170.675 272.777 171.353 273.636C174.453 277.323 177.735 280.419 181.567 283.32C185.986 287.09 188.39 291.291 189.845 296.91C189.647 301.013 188.929 304.075 187.638 307.947C189.345 310.706 191.074 313.231 193.019 315.811C193.802 316.881 193.802 316.881 194.601 317.972C197.029 321.372 197.029 321.372 199.779 324.504C199.728 323.159 199.677 321.814 199.624 320.429C199.583 318.637 199.542 316.845 199.503 315.053C199.466 314.17 199.429 313.287 199.391 312.377C199.285 305.875 200.201 302.121 204.194 296.91C210.112 292.444 215.185 291.706 222.475 291.46C223.84 291.369 223.84 291.369 225.232 291.277C231.891 290.973 236.46 291.943 241.571 296.56C242.099 297.199 242.627 297.838 243.171 298.496C243.713 299.132 244.255 299.768 244.813 300.424C246.277 302.641 246.891 304.213 247.241 306.844C246.906 308.323 246.537 309.795 246.137 311.259C246.169 312.823 246.24 314.388 246.344 315.949C246.415 320.778 245.201 323.809 242.851 327.966C241.33 330.736 240.42 333.626 239.514 336.645C242.064 336.281 244.614 335.916 247.241 335.541C247.605 336.634 247.969 337.727 248.344 338.852C250.382 338.391 252.416 337.908 254.428 337.343C257.174 336.645 257.174 336.645 260.231 336.291C264.181 335.524 266.198 334.84 269.316 332.23C272.761 325.358 274.351 317.634 275.938 310.155C280.303 310.155 282.686 310.833 286.7 312.362C287.787 312.772 288.874 313.182 289.994 313.604C290.819 313.923 291.644 314.241 292.494 314.57C291.846 317.263 291.129 319.917 290.347 322.576C289.45 325.763 288.714 328.891 288.019 332.122C284.487 346.489 284.487 346.489 279.028 350.627C271.148 354.874 262.598 357.028 253.863 358.72C254.227 359.448 254.592 360.177 254.967 360.927C255.13 362.898 255.228 364.875 255.295 366.852C255.339 368.089 255.383 369.327 255.429 370.601C255.471 371.942 255.514 373.283 255.558 374.664C255.605 376.033 255.652 377.402 255.701 378.812C255.827 382.452 255.947 386.092 256.066 389.732C256.188 393.446 256.316 397.16 256.444 400.874C256.693 408.161 256.936 415.449 257.174 422.738C255.926 422.71 255.926 422.71 254.652 422.682C253.559 422.667 252.467 422.653 251.341 422.638C249.717 422.611 249.717 422.611 248.06 422.583C244.205 422.78 241.679 424.056 238.411 426.049C233.729 427.481 229.126 427.438 224.269 427.497C223.406 427.529 222.543 427.561 221.654 427.594C215.266 427.664 211.606 426.497 206.402 422.738C204.44 420.375 204.44 420.375 203.16 418.047C202.717 417.267 202.275 416.487 201.819 415.684C201.51 415.098 201.201 414.511 200.883 413.907C199.79 415.364 198.698 416.821 197.572 418.323C199.393 418.687 201.214 419.051 203.091 419.426C201.882 425.066 199.602 427.853 195.239 431.356C192.412 433.141 189.846 433.614 186.534 433.775C186.762 434.458 186.99 435.141 187.224 435.845C187.361 436.619 187.497 437.393 187.638 438.19C184.592 441.236 181.458 441.079 177.359 441.501C170.085 442.192 170.085 442.192 163.355 444.813C161.698 447.356 160.433 449.643 159.178 452.375C158.806 453.151 158.434 453.928 158.051 454.728C153.381 464.637 149.302 474.804 145.212 484.962C144.025 487.891 142.835 490.82 141.645 493.749C140.914 495.551 140.184 497.355 139.456 499.159C136.982 505.286 136.982 505.286 135.762 507.726C135.033 507.362 134.305 506.998 133.554 506.623C134.033 505.254 134.511 503.886 135.004 502.476C136.799 497.342 138.592 492.207 140.385 487.073C141.158 484.861 141.931 482.65 142.704 480.438C144.874 474.23 147.039 468.02 149.193 461.807C149.762 460.165 150.333 458.524 150.907 456.884C151.553 455.037 152.19 453.187 152.827 451.336C153.154 450.39 153.482 449.444 153.82 448.469C155.819 441.237 154.407 435.308 152.318 428.256C151.836 422.664 152.311 419.574 155.629 415.011C157.086 415.375 158.543 415.74 160.044 416.115C163.869 407.92 163.869 407.92 167.77 399.559C174.014 400.807 174.089 401.516 177.704 406.181C182.546 408.055 186.166 405.99 190.673 404.043C191.443 403.722 192.213 403.401 193.006 403.07C194.9 402.279 196.789 401.472 198.676 400.662C198.796 399.567 198.917 398.471 199.042 397.343C199.126 396.626 199.21 395.909 199.296 395.17C199.482 393.569 199.661 391.967 199.832 390.364C200.453 385.028 201.753 380.444 203.504 375.345C204.629 370.351 204.5 367.484 201.922 363.152C199.115 359.033 195.998 355.167 192.876 351.285C189.702 347.169 186.989 342.786 184.258 338.369C183.719 337.506 183.18 336.643 182.624 335.754C180.977 333.111 179.34 330.464 177.704 327.815C177.129 326.888 176.554 325.962 175.961 325.007C174.261 322.267 172.566 319.523 170.875 316.777C170.356 315.939 169.837 315.1 169.303 314.236C168.827 313.458 168.351 312.681 167.861 311.879C167.442 311.198 167.024 310.516 166.593 309.814C165.563 307.947 165.563 307.947 164.459 304.636C162.409 302.787 160.251 301.133 158.061 299.454C155.781 297.069 154.789 295.375 153.353 292.473C149.85 285.887 144.673 280.992 139.38 275.852C137.671 274.192 135.978 272.518 134.287 270.84C129.955 265.591 129.955 265.591 124.724 262.693C124.36 265.243 123.996 267.793 123.62 270.42C93.0752 266.206 93.0752 266.206 82.7815 264.142C76.6098 262.908 70.5889 262.213 64.3022 261.93C61.8102 261.59 61.8102 261.59 59.6027 259.382C61.5703 254.68 63.5534 249.985 65.5512 245.296C66.2289 243.699 66.9022 242.1 67.5712 240.5C68.5327 238.202 69.5094 235.911 70.4893 233.621C70.9344 232.543 70.9344 232.543 71.3886 231.443C72.1533 229.677 73.0437 227.967 73.9514 226.27C75.0442 225.905 76.1369 225.541 77.2627 225.166C76.7357 224.541 76.2088 223.916 75.6658 223.271C73.822 220.56 73.4332 218.951 73.0115 215.741C71.8009 208.929 68.9387 203.281 65.8113 197.158C54.4452 174.73 54.4452 174.73 54.8427 162.873C54.8698 161.622 54.8968 160.371 54.9246 159.083C55.1595 155.999 55.5993 153.121 56.2914 150.111C54.8764 149.532 54.8764 149.532 53.4329 148.942C52.2135 148.44 50.9942 147.938 49.7379 147.42C48.5214 146.921 47.3049 146.421 46.0515 145.907C43.0464 144.592 43.0464 144.592 41.9426 143.488C41.4551 136.715 42.4767 132.236 45.3918 126.173C45.7385 125.415 46.0851 124.656 46.4422 123.875C48.1253 120.209 49.8716 116.573 51.6177 112.937C52.2039 111.704 52.7901 110.472 53.3941 109.203C53.9262 108.12 54.4583 107.037 55.0066 105.922C56.4458 102.256 56.9089 98.8176 57.3952 94.923C57.9415 94.3766 57.9415 94.3766 58.4989 93.8192C57.0028 93.3988 57.0028 93.3988 55.4765 92.9698C54.1747 92.59 52.8728 92.2101 51.5315 91.8187C50.2381 91.4473 48.9448 91.076 47.6123 90.6934C42.4736 88.78 42.4736 88.78 40.8389 86.093C41.0664 79.1763 46.4872 74.5052 50.7726 69.5367C51.3062 68.8836 51.8397 68.2305 52.3895 67.5577C53.739 66.0184 53.739 66.0184 56.2914 64.0179C59.1888 63.9489 59.1888 63.9489 61.8102 65.1216C62.9574 66.5597 64.0675 68.0289 65.1214 69.5367C65.6692 69.0173 66.217 68.498 66.7814 67.9629C75.3743 60.0875 86.6277 54.3238 98.3849 59.5468ZM205.298 332.23C206.171 334.437 206.171 334.437 207.506 336.645C211.137 337.855 212.708 337.527 216.336 336.645C216.336 335.916 216.336 335.188 216.336 334.437C212.464 332.667 209.555 331.987 205.298 332.23Z" fill="#E5E5E5"/>
<path d="M67.4707 261.357C75.6584 261.427 83.5015 262.76 91.542 264.211C94.3573 264.704 97.1727 265.195 99.9883 265.686C102.024 266.054 102.024 266.054 104.101 266.431C106.831 266.886 109.574 267.271 112.324 267.588C114.264 267.816 114.264 267.816 116.243 268.048C117.399 268.163 118.555 268.278 119.746 268.396C122.516 269.316 122.516 269.316 123.997 271.724C125.451 277.949 124.972 284.281 124.793 290.632C124.764 291.819 124.764 291.819 124.735 293.03C124.23 311.52 121.418 329.68 118.489 347.919C118.313 349.034 118.136 350.149 117.954 351.298C117.618 353.4 117.273 355.5 116.918 357.598C115.784 364.274 115.784 364.274 116.997 370.861C118.422 372.378 119.895 373.851 121.412 375.276C124.12 379.203 123.787 382.75 123.62 387.418C123.141 391.698 123.141 391.698 125.275 393.764C125.822 394.219 126.368 394.675 126.931 395.144C127.364 394.484 127.796 393.823 128.242 393.143C131.475 389.242 135.214 387.233 140.176 386.314C141.269 387.953 141.269 387.953 142.384 389.625C144.806 390.265 144.806 390.265 147.488 390.384C148.391 390.456 149.293 390.529 150.222 390.604C150.913 390.645 151.605 390.686 152.317 390.729C152.754 395.675 151.737 398.729 149.006 402.87C143.656 406.937 140.013 407.75 133.355 407.333C132.692 407.317 132.029 407.301 131.346 407.285C129.264 409.367 129.975 412.961 129.893 415.74C129.859 416.84 129.859 416.84 129.824 417.962C129.751 420.313 129.686 422.663 129.621 425.014C129.574 426.604 129.526 428.195 129.477 429.785C129.359 433.69 129.247 437.596 129.139 441.501C130.177 440.79 131.216 440.079 132.286 439.346C135.159 437.478 136.877 436.49 140.176 435.983C140.905 437.075 141.633 438.168 142.384 439.294C144.806 439.934 144.806 439.934 147.488 440.053C148.842 440.162 148.842 440.162 150.222 440.273C150.913 440.314 151.605 440.355 152.317 440.398C152.754 445.344 151.737 448.398 149.006 452.539C143.679 456.587 140.19 457.422 133.571 456.786C131.279 456.76 131.279 456.76 129.576 458.264C127.513 460.942 127.623 462.605 127.634 465.965C127.633 467.675 127.633 467.675 127.632 469.419C127.651 470.632 127.67 471.846 127.69 473.096C127.699 474.329 127.708 475.562 127.718 476.832C127.862 486.875 128.714 496.703 130.242 506.623C128.785 506.623 127.328 506.623 125.827 506.623C125.476 504.669 125.133 502.715 124.793 500.759C124.504 499.126 124.504 499.126 124.21 497.461C122.797 487.692 122.303 477.994 122.309 468.129C122.308 466.948 122.308 465.766 122.307 464.549C122.381 453.104 123.386 441.822 124.724 430.464C123.208 430.483 123.208 430.483 121.662 430.503C120.351 430.513 119.039 430.523 117.687 430.533C116.381 430.546 115.075 430.559 113.729 430.572C110.375 430.464 110.375 430.464 108.167 429.36C108.167 428.267 108.167 427.175 108.167 426.049C107.439 426.049 106.71 426.049 105.96 426.049C105.906 426.905 105.852 427.762 105.796 428.644C105.162 437.801 104.049 446.781 102.649 455.85C104.105 455.85 105.562 455.85 107.064 455.85C107.464 457.458 107.852 459.068 108.236 460.679C108.563 462.024 108.563 462.024 108.896 463.395C109.271 465.784 109.271 465.784 108.167 467.992C108.896 467.992 109.624 467.992 110.375 467.992C109.906 471.899 109.452 475.286 107.922 478.93C106.713 482.313 106.713 482.313 108.266 485.294C108.939 486.254 109.612 487.214 110.306 488.204C111.381 489.762 111.381 489.762 112.479 491.351C115.744 495.774 119.05 500.148 122.516 504.415C121.423 504.78 120.331 505.144 119.205 505.519C118.392 504.547 117.58 503.576 116.743 502.574C115.655 501.279 114.567 499.984 113.479 498.69C112.946 498.051 112.413 497.413 111.864 496.756C104.812 488.109 104.812 488.109 94.9222 483.444C94.8312 484.218 94.7401 484.992 94.6463 485.79C92.8081 492.836 88.7828 496.454 82.781 500C78.1792 498.23 74.1686 495.49 71.7434 491.17C71.1802 486.337 71.3554 481.664 71.7434 476.822C69.9222 476.822 68.1011 476.822 66.2247 476.822C66.1222 478.29 66.1222 478.29 66.0177 479.788C64.6728 485.271 61.3823 487.529 57.1187 490.963C52.874 492.796 48.7171 492.965 44.1496 492.274C41.9421 490.067 41.9421 490.067 41.9292 486.945C42.0473 485.699 42.1654 484.452 42.287 483.168C42.3966 481.933 42.5062 480.698 42.619 479.426C43.0185 475.955 43.54 472.534 44.1496 469.095C42.3284 468.731 40.5072 468.367 38.6309 467.992C39.9853 458.817 41.5236 449.706 43.318 440.607C43.5552 439.392 43.7924 438.176 44.0367 436.924C44.5463 434.313 45.0571 431.702 45.5688 429.091C46.801 422.794 48.0203 416.496 49.2412 410.197C51.1078 400.57 52.9791 390.943 54.8676 381.32C56.2859 374.092 57.6889 366.861 59.0833 359.628C59.6141 356.889 60.15 354.151 60.6914 351.414C64.9825 329.698 67.56 310.884 60.0161 289.528C56.4414 279.329 56.2956 272.573 60.7059 262.693C62.5805 260.819 64.9035 261.383 67.4707 261.357ZM113.617 392.66C110.131 394.785 110.131 394.785 109.698 398.071C109.432 401.153 109.282 404.193 109.271 407.285C110.295 407.558 111.32 407.831 112.375 408.113C116.138 409.589 117.035 410.653 119.205 413.908C119.933 413.908 120.662 413.908 121.412 413.908C121.466 414.612 121.52 415.316 121.576 416.042C121.659 416.954 121.741 417.866 121.826 418.806C121.903 419.715 121.98 420.624 122.059 421.561C122.21 422.313 122.361 423.066 122.516 423.841C123.245 424.206 123.973 424.57 124.724 424.945C125.965 407.999 125.965 407.999 119.205 392.936C116.878 391.475 116.878 391.475 113.617 392.66Z" fill="#2F2E41"/>
<path d="M229.442 291.115C236.585 291.687 240.369 295.21 244.813 300.424C246.277 302.641 246.89 304.213 247.24 306.844C246.905 308.323 246.536 309.795 246.136 311.259C246.169 312.824 246.24 314.388 246.343 315.95C246.415 320.778 245.2 323.809 242.851 327.966C241.33 330.736 240.42 333.627 239.514 336.645C243.338 336.099 243.338 336.099 247.24 335.541C247.604 336.634 247.969 337.727 248.344 338.853C250.382 338.391 252.416 337.908 254.428 337.344C257.174 336.645 257.174 336.645 260.231 336.291C264.181 335.524 266.198 334.84 269.315 332.23C272.761 325.358 274.35 317.635 275.938 310.155C280.303 310.155 282.686 310.833 286.699 312.362C287.786 312.772 288.873 313.182 289.993 313.604C290.819 313.923 291.644 314.242 292.494 314.57C291.845 317.264 291.128 319.917 290.347 322.576C289.45 325.764 288.714 328.891 288.019 332.122C284.487 346.49 284.487 346.49 279.028 350.627C271.147 354.874 262.597 357.028 253.863 358.72C254.227 359.449 254.591 360.177 254.967 360.928C255.13 362.899 255.228 364.875 255.294 366.852C255.361 368.708 255.361 368.708 255.428 370.602C255.471 371.942 255.513 373.283 255.557 374.664C255.628 376.717 255.628 376.717 255.701 378.812C255.826 382.452 255.947 386.092 256.066 389.732C256.188 393.446 256.316 397.16 256.443 400.874C256.692 408.162 256.935 415.45 257.174 422.738C255.925 422.71 255.925 422.71 254.652 422.682C253.559 422.668 252.466 422.653 251.341 422.639C249.716 422.611 249.716 422.611 248.059 422.583C244.204 422.78 241.679 424.056 238.41 426.049C233.729 427.481 229.126 427.438 224.268 427.498C222.974 427.546 222.974 427.546 221.653 427.595C215.265 427.664 211.606 426.497 206.401 422.738C204.44 420.375 204.44 420.375 203.159 418.047C202.717 417.267 202.274 416.487 201.818 415.684C201.509 415.098 201.201 414.512 200.883 413.908C199.79 415.365 198.697 416.822 197.571 418.323C199.393 418.687 201.214 419.051 203.09 419.426C201.882 425.066 199.601 427.854 195.239 431.357C192.412 433.142 189.845 433.614 186.534 433.775C186.761 434.458 186.989 435.141 187.224 435.845C187.36 436.619 187.497 437.393 187.638 438.19C184.592 441.236 181.458 441.08 177.359 441.502C170.084 442.193 170.084 442.193 163.355 444.813C161.697 447.356 160.433 449.644 159.177 452.375C158.805 453.152 158.433 453.928 158.05 454.728C153.381 464.637 149.302 474.804 145.212 484.962C144.025 487.892 142.835 490.82 141.645 493.749C140.914 495.552 140.184 497.355 139.456 499.159C136.981 505.287 136.981 505.287 135.761 507.727C135.033 507.362 134.304 506.998 133.554 506.623C134.032 505.255 134.511 503.886 135.003 502.476C136.798 497.342 138.592 492.208 140.385 487.073C141.157 484.861 141.93 482.65 142.703 480.438C144.874 474.231 147.038 468.021 149.192 461.807C149.762 460.165 150.333 458.525 150.907 456.885C151.553 455.037 152.19 453.187 152.826 451.336C153.154 450.39 153.482 449.444 153.82 448.469C155.818 441.237 154.407 435.308 152.318 428.257C151.835 422.664 152.31 419.575 155.629 415.011C157.086 415.376 158.543 415.74 160.044 416.115C162.593 410.652 165.143 405.188 167.77 399.559C174.014 400.808 174.088 401.516 177.704 406.181C182.545 408.055 186.165 405.99 190.673 404.043C191.828 403.562 191.828 403.562 193.005 403.071C194.9 402.279 196.788 401.472 198.675 400.663C198.796 399.567 198.917 398.472 199.042 397.343C199.125 396.626 199.209 395.909 199.295 395.17C199.482 393.569 199.66 391.967 199.831 390.364C200.452 385.028 201.753 380.444 203.504 375.345C204.628 370.351 204.499 367.484 201.922 363.152C199.115 359.034 195.997 355.168 192.876 351.285C189.702 347.17 186.988 342.787 184.257 338.37C183.719 337.506 183.181 336.643 182.626 335.754C181.537 334.003 180.45 332.251 179.365 330.497C177.645 327.721 175.91 324.954 174.173 322.188C173.049 320.385 171.927 318.582 170.805 316.777C170.277 315.939 169.749 315.1 169.206 314.236C168.726 313.458 168.247 312.681 167.753 311.88C167.328 311.198 166.904 310.517 166.467 309.814C165.563 307.947 165.563 307.947 165.563 304.636C167.173 304.792 168.782 304.954 170.391 305.119C171.736 305.254 171.736 305.254 173.108 305.391C175.496 305.74 175.496 305.74 177.704 306.844C179.058 306.684 180.413 306.525 181.808 306.361C184.884 306.322 186.115 306.491 188.496 308.495C190.379 310.812 192.06 313.184 193.708 315.674C194.3 316.516 194.892 317.358 195.502 318.226C196.955 320.302 198.378 322.393 199.779 324.504C199.728 323.159 199.676 321.815 199.624 320.429C199.582 318.637 199.542 316.845 199.503 315.053C199.466 314.17 199.429 313.287 199.391 312.378C199.285 305.882 200.418 302.228 204.194 296.91C211.769 290.913 220.179 291.713 229.442 291.115ZM205.298 332.23C206.171 334.437 206.171 334.437 207.505 336.645C211.136 337.855 212.707 337.528 216.335 336.645C216.335 335.917 216.335 335.188 216.335 334.438C212.463 332.668 209.554 331.987 205.298 332.23Z" fill="#403E57"/>
<path d="M250.621 421.496C252.108 421.492 252.108 421.492 253.626 421.487C256.071 421.634 256.071 421.634 257.174 422.738C257.221 424.442 257.185 426.148 257.118 427.851C257.055 429.532 257.055 429.532 256.991 431.248C256.938 432.492 256.884 433.735 256.829 435.017C256.778 436.306 256.726 437.594 256.672 438.922C256.204 450.156 255.668 461.387 255.11 472.617C255.015 474.54 254.921 476.462 254.827 478.385C254.694 481.114 254.555 483.842 254.415 486.57C254.376 487.383 254.337 488.196 254.297 489.033C254.06 493.495 253.586 497.816 252.759 502.208C251.667 502.208 250.574 502.208 249.448 502.208C250.51 506.029 251.503 507.602 254.622 510.141C258.485 512.255 261.747 513.327 266.004 514.349C266.004 515.442 266.004 516.535 266.004 517.66C286.038 517.66 306.071 517.66 326.711 517.66C326.711 515.111 326.711 512.561 326.711 509.934C330.409 508.547 333.475 507.717 337.438 507.451C342.946 506.796 346.61 504.281 350.993 501.035C351.743 500.535 352.493 500.035 353.266 499.52C357.362 496.599 357.362 496.599 359.198 492.102C359.252 489.389 359.252 489.389 358.72 485.652C361.64 485.622 364.56 485.6 367.481 485.583C368.314 485.573 369.147 485.564 370.005 485.555C372.13 485.545 374.255 485.594 376.38 485.652C378.75 488.022 377.926 493.851 378.055 497.189C378.263 501.236 378.495 503.173 380.795 506.623C383.583 504.817 386.331 502.977 389.073 501.104C389.862 500.599 390.652 500.094 391.466 499.573C392.213 499.054 392.96 498.535 393.729 498C394.423 497.537 395.117 497.075 395.831 496.599C398.209 493.72 398.209 493.72 397.351 485.652C403.179 485.652 409.007 485.652 415.011 485.652C415.227 489.532 415.442 493.412 415.658 497.293C415.927 501.349 415.927 501.349 418.322 505.519C418.322 509.526 418.322 513.532 418.322 517.66C437.627 517.66 456.932 517.66 476.821 517.66C476.821 518.753 476.821 519.846 476.821 520.972C319.47 520.972 162.119 520.972 0 520.972C0 520.243 0 519.515 0 518.764C22.5828 518.764 45.1656 518.764 68.4327 518.764C68.4327 518.036 68.4327 517.307 68.4327 516.557C67.6814 516.515 66.9302 516.474 66.1562 516.432C59.2432 515.963 52.4793 515.104 45.6678 513.866C44.8966 513.731 44.1254 513.596 43.3309 513.457C37.7953 512.409 37.7953 512.409 35.3201 509.934C34.0804 502.179 35.8081 496.693 39.7351 490.067C40.8278 490.067 41.9205 490.067 43.0464 490.067C43.4106 490.431 43.7748 490.795 44.1501 491.17C49.3883 491.843 53.1645 491.655 57.878 489.17C60.8671 486.84 60.8671 486.84 62.9139 483.444C66.5387 484.077 68.2173 485.063 70.6574 487.794C71.2408 488.438 71.8241 489.082 72.4251 489.745C73.0199 490.42 73.6146 491.096 74.2274 491.791C74.8392 492.471 75.451 493.15 76.0813 493.85C77.5873 495.525 79.0817 497.21 80.5739 498.897C84.931 497.274 87.3623 495.724 90.5077 492.274C91.9753 490.798 93.4465 489.326 94.9227 487.859C95.8817 488.605 96.8407 489.35 97.8287 490.118C99.1135 491.113 100.398 492.107 101.683 493.102C102.312 493.591 102.941 494.081 103.589 494.585C105.471 496.039 107.369 497.47 109.272 498.897C110.334 499.709 111.397 500.521 112.492 501.358C116.639 503.739 120.248 504.393 124.931 505.036C132.757 506.136 132.757 506.136 135.749 507.964C136.865 509.934 136.865 509.934 136.865 516.557C163.091 516.921 189.316 517.285 216.336 517.66C216.7 512.197 217.064 506.733 217.439 501.104C215.618 500.74 213.797 500.376 211.921 500C210.586 474.985 210.701 449.987 210.817 424.945C211.909 425.309 213.002 425.674 214.128 426.049C217.339 426.214 220.505 426.304 223.717 426.325C224.576 426.348 225.434 426.37 226.319 426.394C235.192 426.453 242.068 421.471 250.621 421.496ZM231.788 486.755C231.788 492.583 231.788 498.411 231.788 504.415C230.331 504.051 228.874 503.687 227.373 503.312C227.801 506.056 228.156 507.421 230.197 509.365C230.881 509.826 231.566 510.287 232.271 510.762C232.952 511.234 233.634 511.707 234.336 512.193C236.166 513.426 236.166 513.426 238.411 513.245C239.673 510.721 239.628 509.28 239.583 506.485C239.561 505.073 239.538 503.662 239.514 502.208C237.693 502.572 235.872 502.936 233.996 503.312C234.021 502.394 234.047 501.476 234.073 500.531C234.093 499.331 234.113 498.132 234.134 496.896C234.159 495.705 234.185 494.514 234.211 493.287C234.25 489.852 234.25 489.852 231.788 486.755Z" fill="#302E42"/>
<path d="M98.3849 59.5468C101.231 61.7315 102.555 63.715 103.615 67.1222C103.66 67.919 103.706 68.7157 103.753 69.5367C104.709 69.7415 105.665 69.9464 106.65 70.1575C112.462 72.633 115.594 76.9061 118.584 82.3678C119.313 85.4426 118.963 87.4931 118.102 90.508C116.308 91.4048 116.308 91.4048 113.687 91.6117C111.207 89.9912 109.245 88.1255 107.064 86.093C96.3228 95.6066 94.8976 106.609 93.681 120.24C93.3703 123.54 93.0459 126.838 92.7066 130.135C92.6259 130.92 92.5453 131.705 92.4621 132.513C91.6918 139.413 90.3162 146.079 87.1965 152.318C71.4774 153.294 55.9421 151.114 41.9426 143.488C41.566 136.701 42.4662 132.258 45.3918 126.173C45.7385 125.415 46.0851 124.656 46.4422 123.875C48.1253 120.209 49.8716 116.573 51.6177 112.937C52.2039 111.704 52.7901 110.472 53.3941 109.203C53.9262 108.12 54.4583 107.037 55.0066 105.922C56.4458 102.256 56.9089 98.8176 57.3952 94.923C57.9415 94.3766 57.9415 94.3766 58.4989 93.8192C57.0028 93.3988 57.0028 93.3988 55.4765 92.9698C54.1747 92.59 52.8728 92.2101 51.5315 91.8187C50.2381 91.4473 48.9448 91.076 47.6123 90.6934C42.4736 88.78 42.4736 88.78 40.8389 86.093C41.0664 79.1763 46.4872 74.5052 50.7726 69.5367C51.3062 68.8836 51.8397 68.2305 52.3895 67.5577C53.739 66.0184 53.739 66.0184 56.2914 64.0179C59.1888 63.9489 59.1888 63.9489 61.8102 65.1216C62.9574 66.5597 64.0675 68.0289 65.1214 69.5367C65.6692 69.0173 66.217 68.498 66.7814 67.9629C75.3743 60.0875 86.6277 54.3238 98.3849 59.5468Z" fill="#2F2E41"/>
<path d="M337.748 0.000189991C341.904 -0.402011 345.096 -0.323703 349.143 0.56069C353.954 1.44555 358.834 1.35986 363.716 1.46611C369.308 2.54803 372.429 5.21143 375.584 9.76312C376.94 12.0156 378.191 14.2989 379.415 16.6255C379.84 17.4059 380.266 18.1863 380.704 18.9903C381.856 21.1136 382.992 23.2429 384.106 25.3865C384.707 26.53 384.707 26.53 385.321 27.6967C387.618 32.5687 387.113 38.5653 385.36 43.5467C384.562 45.3461 383.757 47.1426 382.946 48.9361C381.368 53.3648 381.253 57.7275 381.096 62.3967C380.794 65.1216 380.794 65.1216 378.587 67.3291C373.87 68.8866 369.083 68.6359 364.169 68.6398C363.269 68.6533 362.369 68.6669 361.442 68.6808C360.576 68.6829 359.711 68.685 358.819 68.6872C357.638 68.6941 357.638 68.6941 356.434 68.701C354.304 68.4329 354.304 68.4329 350.993 66.2254C350.655 63.4463 350.478 60.8692 350.441 58.0852C350.388 52.348 350.388 52.348 348.488 46.9873C346.215 44.9243 344.988 44.6251 341.956 44.4262C340.567 44.3352 339.179 44.2441 337.748 44.1503C336.109 47.9748 336.109 47.9748 334.437 51.8766C331.517 50.7679 330.27 50.1703 328.858 47.3193C328.559 46.4329 328.26 45.5465 327.952 44.6332C326.957 41.9679 326.957 41.9679 325.607 39.7353C322.167 38.391 322.167 38.391 318.984 38.6315C318.825 37.4478 318.666 36.264 318.501 35.0443C318.06 32.101 317.576 29.3446 316.777 26.4903C311.081 26.9032 311.081 26.9032 306.36 29.8705C305.791 30.5762 305.222 31.2819 304.635 32.009C303.543 31.6448 302.45 31.2805 301.324 30.9053C302.167 30.063 303.009 29.2207 303.877 28.3528C307.305 24.305 308.259 19.9841 309.408 14.8879C310.328 11.5009 311.405 9.39534 314.479 7.57987C326.947 2.12892 326.947 2.12892 332.712 4.34622C333.281 4.73322 333.85 5.12022 334.437 5.51895C334.801 4.60836 335.165 3.69776 335.541 2.75957C336.269 1.84898 336.998 0.93838 337.748 0.000189991Z" fill="#2F2E41"/>
<path d="M250.621 421.496C252.108 421.492 252.108 421.492 253.626 421.487C256.07 421.634 256.07 421.634 257.174 422.738C257.22 424.442 257.185 426.148 257.118 427.851C257.076 428.972 257.034 430.093 256.991 431.248C256.938 432.492 256.884 433.735 256.829 435.017C256.751 436.95 256.751 436.95 256.672 438.922C256.203 450.156 255.668 461.387 255.11 472.617C255.015 474.54 254.92 476.462 254.827 478.385C254.694 481.114 254.555 483.842 254.415 486.57C254.376 487.383 254.337 488.196 254.296 489.033C254.057 493.545 253.507 497.721 252.759 502.208C243.471 502.754 243.471 502.754 233.995 503.312C233.449 496.755 233.449 496.755 232.892 490.067C232.527 494.802 232.163 499.537 231.788 504.415C229.602 503.903 229.602 503.903 227.373 503.381C223.881 502.596 220.444 501.986 216.887 501.587C213.024 501.104 213.024 501.104 211.92 500C211.492 496.179 211.441 492.321 211.299 488.48C211.229 486.645 211.229 486.645 211.157 484.773C210.497 464.841 210.725 444.885 210.817 424.945C211.909 425.309 213.002 425.674 214.128 426.049C217.338 426.214 220.505 426.304 223.717 426.325C224.575 426.348 225.434 426.37 226.319 426.394C235.191 426.453 242.068 421.471 250.621 421.496Z" fill="#2F2E41"/>
<path d="M116.998 198.676C119.516 200.975 120.96 202.975 122.292 206.105C122.645 206.901 122.998 207.697 123.362 208.517C124.075 210.164 124.783 211.814 125.483 213.466C127.922 218.931 130.838 223.016 134.891 227.409C138.052 230.886 140.81 234.654 143.626 238.411C149.15 245.712 154.822 252.869 160.624 259.95C164.395 264.554 168.089 269.203 171.672 273.955C174.616 277.567 177.864 280.517 181.567 283.32C185.997 287.101 188.36 291.29 189.845 296.91C189.845 301.25 189.743 303.487 186.879 306.775C179.986 309.942 171.225 307.134 164.459 304.636C159.208 301.455 156.122 297.947 153.435 292.486C149.458 285.108 143.154 279.712 137.141 274.007C134.812 271.795 132.497 269.569 130.191 267.333C129.168 266.361 128.146 265.39 127.092 264.389C123.906 260.622 123.499 258.045 123.797 253.209C123.877 250.464 123.877 250.464 121.965 248.576C121.217 247.948 120.468 247.319 119.697 246.672C113.835 241.164 110.536 234.762 106.926 227.649C106.263 226.41 105.6 225.171 104.917 223.894C104.302 222.703 103.688 221.512 103.054 220.285C102.498 219.208 101.941 218.132 101.368 217.022C100.441 214.128 100.441 214.128 101.172 211.714C103.557 208.483 106.756 206.275 109.961 203.919C110.636 203.412 111.31 202.906 112.005 202.384C113.663 201.14 115.33 199.907 116.998 198.676Z" fill="#FEB6B6"/>
<path d="M62.9143 483.444C66.5392 484.076 68.2177 485.062 70.6579 487.794C71.2412 488.438 71.8246 489.082 72.4256 489.745C73.0203 490.42 73.6151 491.095 74.2278 491.791C75.1455 492.81 75.1455 492.81 76.0818 493.85C77.5877 495.524 79.0822 497.209 80.5744 498.896C84.9314 497.274 87.3628 495.724 90.5082 492.274C91.9758 490.798 93.4469 489.326 94.9232 487.859C95.8821 488.604 96.8411 489.35 97.8291 490.118C99.1139 491.113 100.399 492.107 101.684 493.102C102.313 493.591 102.941 494.081 103.589 494.585C105.471 496.039 107.369 497.469 109.272 498.896C110.335 499.709 111.398 500.521 112.493 501.358C116.64 503.739 120.248 504.393 124.931 505.036C132.9 506.156 132.9 506.156 135.723 508.17C137.564 511.012 137.276 513.273 136.866 516.556C135.567 518.394 135.567 518.394 133.555 519.868C130.783 520.273 130.783 520.273 127.438 520.261C126.186 520.264 124.934 520.268 123.644 520.271C122.292 520.258 120.939 520.244 119.546 520.23C117.467 520.227 117.467 520.227 115.345 520.224C112.412 520.216 109.479 520.203 106.546 520.178C102.784 520.147 99.0217 520.135 95.2592 520.13C91.6735 520.124 88.0879 520.108 84.5022 520.092C83.1478 520.087 81.7934 520.083 80.398 520.078C79.1493 520.067 77.9005 520.056 76.614 520.046C75.5112 520.038 74.4084 520.03 73.2722 520.023C70.6406 519.868 70.6406 519.868 68.4331 518.764C68.4331 518.035 68.4331 517.307 68.4331 516.556C67.6819 516.515 66.9306 516.474 66.1566 516.431C59.2436 515.963 52.4797 515.104 45.6682 513.866C44.897 513.731 44.1259 513.596 43.3314 513.457C37.7957 512.409 37.7957 512.409 35.3205 509.934C34.0809 502.179 35.8085 496.693 39.7355 490.066C40.8282 490.066 41.921 490.066 43.0468 490.066C43.411 490.431 43.7753 490.795 44.1505 491.17C49.3887 491.843 53.1649 491.655 57.8785 489.17C60.8675 486.84 60.8675 486.84 62.9143 483.444Z" fill="#2F2E41"/>
<path d="M114.79 369.757C119.003 371.112 120.75 373.724 122.792 377.553C124.083 380.886 123.886 383.896 123.62 387.417C123.141 391.698 123.141 391.698 125.276 393.764C125.822 394.219 126.368 394.675 126.931 395.144C127.364 394.483 127.796 393.823 128.242 393.143C131.475 389.241 135.214 387.232 140.176 386.314C141.269 387.953 141.269 387.953 142.384 389.625C144.806 390.265 144.806 390.265 147.489 390.384C148.391 390.456 149.293 390.529 150.222 390.604C150.914 390.645 151.605 390.686 152.318 390.729C152.754 395.675 151.738 398.729 149.006 402.87C143.656 406.936 140.013 407.75 133.355 407.332C132.692 407.317 132.029 407.301 131.346 407.285C129.264 409.367 129.975 412.96 129.893 415.74C129.87 416.473 129.847 417.207 129.824 417.962C129.751 420.313 129.686 422.663 129.622 425.014C129.574 426.604 129.526 428.194 129.477 429.785C129.359 433.69 129.247 437.596 129.139 441.501C130.177 440.79 131.216 440.078 132.286 439.345C135.159 437.478 136.877 436.49 140.176 435.982C140.905 437.075 141.633 438.168 142.384 439.294C144.806 439.934 144.806 439.934 147.489 440.053C148.391 440.125 149.293 440.198 150.222 440.272C151.259 440.334 151.259 440.334 152.318 440.397C152.754 445.344 151.738 448.398 149.006 452.539C143.68 456.587 140.19 457.422 133.571 456.786C131.279 456.76 131.279 456.76 129.577 458.264C127.514 460.942 127.623 462.605 127.634 465.965C127.633 467.105 127.633 468.244 127.632 469.419C127.661 471.239 127.661 471.239 127.69 473.096C127.699 474.329 127.709 475.562 127.718 476.832C127.862 486.874 128.714 496.703 130.243 506.623C128.786 506.623 127.329 506.623 125.828 506.623C125.476 504.669 125.133 502.714 124.793 500.759C124.601 499.671 124.409 498.582 124.211 497.461C122.797 487.691 122.303 477.994 122.309 468.129C122.309 466.948 122.308 465.766 122.307 464.549C122.381 453.104 123.386 441.822 124.724 430.464C123.714 430.477 122.703 430.489 121.663 430.503C119.695 430.517 119.695 430.517 117.687 430.533C116.381 430.546 115.075 430.558 113.729 430.572C110.375 430.464 110.375 430.464 108.167 429.36C108.167 428.267 108.167 427.175 108.167 426.049C107.439 426.049 106.711 426.049 105.96 426.049C106.688 419.857 107.417 413.665 108.167 407.285C110.353 407.285 112.538 407.285 114.79 407.285C117.273 409.975 117.273 409.975 119.205 412.804C119.933 413.168 120.662 413.532 121.412 413.907C122.111 416.188 122.111 416.188 122.654 418.943C122.932 420.311 122.932 420.311 123.215 421.707C123.415 422.763 123.415 422.763 123.62 423.841C124.576 407.573 124.576 407.573 118.101 392.936C115.552 393.665 113.002 394.393 110.375 395.144C110.687 391.946 111.011 388.75 111.341 385.555C111.428 384.653 111.514 383.752 111.604 382.823C112.099 378.117 112.698 374.074 114.79 369.757Z" fill="#F1F1F1"/>
<path d="M217.439 501.104C220.717 501.468 223.996 501.832 227.373 502.208C227.555 503.005 227.737 503.801 227.925 504.622C230.394 509.252 233.877 510.686 238.411 513.245C238.775 509.603 239.139 505.961 239.514 502.208C242.792 502.208 246.071 502.208 249.448 502.208C249.676 503.027 249.903 503.847 250.138 504.691C252.386 509.187 255.722 511.235 260.43 512.905C262.273 513.439 264.138 513.901 266.004 514.349C266.004 515.442 266.004 516.534 266.004 517.66C335.574 517.66 405.143 517.66 476.821 517.66C476.821 518.753 476.821 519.846 476.821 520.972C319.47 520.972 162.119 520.972 0 520.972C0 520.243 0 519.515 0 518.764C0.687285 518.765 1.37456 518.766 2.08267 518.767C18.7827 518.791 35.4827 518.81 52.1827 518.821C60.2586 518.827 68.3345 518.835 76.4104 518.847C83.4468 518.858 90.4833 518.865 97.5198 518.868C101.248 518.869 104.976 518.873 108.704 518.881C112.859 518.889 117.014 518.89 121.169 518.889C122.414 518.893 123.659 518.897 124.941 518.901C126.629 518.899 126.629 518.899 128.351 518.897C129.335 518.898 130.319 518.899 131.333 518.9C133.551 519.01 133.551 519.01 134.658 517.66C137.197 517.556 139.74 517.531 142.281 517.535C143.078 517.535 143.875 517.535 144.695 517.535C147.341 517.535 149.987 517.544 152.633 517.553C154.462 517.555 156.292 517.556 158.122 517.557C162.947 517.561 167.771 517.572 172.596 517.585C177.516 517.596 182.436 517.601 187.356 517.606C197.016 517.618 206.676 517.638 216.336 517.66C216.7 512.197 217.064 506.733 217.439 501.104Z" fill="#3E3C55"/>
<path d="M167.77 399.559C174.014 400.807 174.088 401.516 177.704 406.181C181.096 407.504 183.073 407.264 186.413 405.944C187.587 405.49 187.587 405.49 188.784 405.028C189.59 404.703 190.395 404.378 191.225 404.043C192.458 403.561 192.458 403.561 193.717 403.07C195.742 402.279 197.761 401.472 199.779 400.662C201.681 402.564 201.117 405.041 201.159 407.63C201.187 408.695 201.215 409.761 201.245 410.859C200.834 414.313 199.872 415.774 197.571 418.322C199.393 418.687 201.214 419.051 203.09 419.426C201.882 425.066 199.601 427.853 195.239 431.356C192.412 433.141 189.845 433.613 186.534 433.775C186.761 434.458 186.989 435.141 187.224 435.844C187.36 436.618 187.497 437.392 187.638 438.19C184.592 441.236 181.458 441.079 177.359 441.501C170.084 442.192 170.084 442.192 163.355 444.812C161.697 447.356 160.433 449.643 159.177 452.375C158.619 453.54 158.619 453.54 158.05 454.728C153.381 464.637 149.302 474.804 145.212 484.961C144.025 487.891 142.835 490.82 141.645 493.749C140.914 495.551 140.184 497.355 139.456 499.159C136.981 505.286 136.981 505.286 135.761 507.726C135.033 507.362 134.304 506.998 133.554 506.623C134.032 505.254 134.511 503.886 135.003 502.476C136.798 497.342 138.592 492.207 140.385 487.072C141.157 484.861 141.93 482.649 142.703 480.438C144.874 474.23 147.038 468.02 149.192 461.806C149.762 460.165 150.333 458.524 150.907 456.884C151.553 455.037 152.19 453.187 152.826 451.336C153.154 450.39 153.482 449.444 153.82 448.469C155.818 441.237 154.407 435.308 152.318 428.256C151.835 422.664 152.31 419.574 155.629 415.011C157.086 415.375 158.543 415.74 160.044 416.115C163.868 407.92 163.868 407.92 167.77 399.559Z" fill="#F2F2F2"/>
<path d="M229.442 291.115C236.585 291.687 240.369 295.21 244.813 300.424C246.227 302.565 246.772 304.336 247.24 306.844C246.184 307.522 246.184 307.522 245.106 308.215C244.194 308.81 243.282 309.404 242.342 310.017C241.433 310.606 240.524 311.195 239.587 311.802C237.185 313.288 237.185 313.288 236.203 315.674C236.216 316.599 236.228 317.523 236.242 318.476C236.289 323.858 236.24 327.535 232.728 331.795C229.9 334.137 227.37 336.148 224.061 337.749C221.759 337.516 221.759 337.516 219.646 336.645C218.956 336.396 218.266 336.147 217.555 335.891C216.857 335.616 216.158 335.341 215.438 335.058C212.439 333.892 209.698 333.063 206.539 332.299C203.09 331.126 203.09 331.126 201.809 329.157C200.177 324.848 200.168 320.446 199.917 315.881C199.837 314.912 199.758 313.944 199.675 312.947C199.289 306.156 200.167 302.434 204.194 296.91C211.769 290.913 220.179 291.713 229.442 291.115Z" fill="#2F2E41"/>
<path d="M277.042 309.051C277.747 309.347 278.453 309.643 279.18 309.948C283.567 311.649 288.023 313.108 292.494 314.57C291.846 317.263 291.129 319.917 290.347 322.576C289.45 325.763 288.714 328.891 288.019 332.122C284.487 346.489 284.487 346.489 279.028 350.627C271.147 354.874 262.597 357.027 253.863 358.72C254.227 359.448 254.591 360.177 254.967 360.927C255.13 362.898 255.228 364.875 255.295 366.852C255.339 368.089 255.383 369.326 255.428 370.601C255.471 371.942 255.514 373.282 255.557 374.664C255.605 376.033 255.652 377.401 255.701 378.812C255.826 382.452 255.947 386.091 256.066 389.732C256.188 393.446 256.316 397.16 256.443 400.874C256.692 408.161 256.935 415.449 257.174 422.737C253.532 422.373 249.889 422.009 246.137 421.634C247.161 420.37 247.161 420.37 248.206 419.081C252.967 411.94 253.206 402.374 252.759 394.04C252.395 392.947 252.031 391.854 251.655 390.728C251.532 389.198 251.46 387.663 251.423 386.128C251.391 385.232 251.36 384.337 251.328 383.414C251.271 381.552 251.222 379.689 251.181 377.826C250.889 370.102 249.703 363.347 244.205 357.547C241.722 354.305 241.722 354.305 241.722 350.51C242.086 349.213 242.45 347.915 242.825 346.578C243.167 345.19 243.508 343.801 243.86 342.37C246.137 338.852 246.137 338.852 248.383 338.033C252.366 337.313 256.337 336.729 260.365 336.321C264.278 335.525 266.257 334.861 269.316 332.23C272.41 325.96 273.914 319.035 275.397 312.236C275.938 310.155 275.938 310.155 277.042 309.051Z" fill="#3551DA"/>
<path d="M165.562 304.636C167.173 304.791 168.782 304.954 170.391 305.119C171.736 305.253 171.736 305.253 173.108 305.39C175.496 305.739 175.496 305.739 177.704 306.843C179.045 306.664 180.387 306.485 181.77 306.3C184.957 306.267 186.146 306.505 188.578 308.627C190.645 311.218 192.502 313.874 194.329 316.639C194.998 317.604 195.668 318.57 196.357 319.564C197.671 321.464 198.975 323.371 200.265 325.287C202.265 328.224 204.4 331.048 206.539 333.885C210.482 339.599 214.501 346.702 213.882 353.822C212.933 356.796 211.714 358.692 209.782 361.134C209.203 361.878 208.623 362.622 208.027 363.389C206.401 365.342 206.401 365.342 204.194 367.55C195.466 355.464 187.204 343.177 179.365 330.497C177.645 327.72 175.91 324.954 174.173 322.188C173.049 320.385 171.927 318.581 170.805 316.777C170.013 315.519 170.013 315.519 169.205 314.236C168.726 313.458 168.247 312.68 167.753 311.879C167.328 311.198 166.904 310.516 166.467 309.814C165.562 307.947 165.562 307.947 165.562 304.636Z" fill="#3553DA"/>
<path d="M317.88 30.9053C318.244 30.9053 318.609 30.9053 318.984 30.9053C318.984 33.4549 318.984 36.0046 318.984 38.6315C320.031 38.586 321.078 38.5405 322.157 38.4936C325.606 38.6315 325.606 38.6315 327.814 40.839C328.698 43.1021 329.422 45.3914 330.155 47.7073C330.635 48.6784 330.635 48.6784 331.125 49.6691C332.218 50.0333 333.311 50.3975 334.436 50.7728C335.529 48.2232 336.622 45.6735 337.748 43.0466C339.114 43.1148 340.479 43.1831 341.887 43.2535C342.655 43.2919 343.423 43.3303 344.215 43.3699C347.865 44.5754 349.025 46.4138 350.993 49.6691C351.423 52.648 351.66 55.2501 351.683 58.2232C351.733 60.9172 351.867 63.5358 352.096 66.2254C354.746 67.5502 356.394 67.4556 359.348 67.4369C360.832 67.4316 360.832 67.4316 362.345 67.4261C363.379 67.4169 364.414 67.4076 365.479 67.3981C367.044 67.3906 367.044 67.3906 368.64 67.383C371.22 67.37 373.799 67.3518 376.379 67.3291C376.379 69.5145 376.379 71.7 376.379 73.9516C353.437 79.8646 353.437 79.8646 344.37 79.4704C344.734 76.9207 345.099 74.3711 345.474 71.7441C344.04 71.6986 342.606 71.6531 341.128 71.6062C333.813 70.7665 328.548 67.1796 323.589 61.8492C318.084 54.8885 316.473 48.8606 316.569 39.9422C316.57 39.1917 316.571 38.4412 316.572 37.6679C316.621 32.1644 316.621 32.1644 317.88 30.9053Z" fill="#FBB4B4"/>
<path d="M101.544 455.85C103.366 455.85 105.187 455.85 107.063 455.85C107.463 457.457 107.852 459.068 108.236 460.679C108.454 461.575 108.671 462.472 108.896 463.395C109.271 465.784 109.271 465.784 108.167 467.991C108.895 467.991 109.624 467.991 110.375 467.991C109.906 471.899 109.452 475.286 107.921 478.93C106.712 482.313 106.712 482.313 108.266 485.294C108.939 486.254 109.612 487.214 110.306 488.204C111.023 489.242 111.74 490.281 112.479 491.351C115.743 495.774 119.05 500.148 122.516 504.415C121.423 504.779 120.33 505.144 119.205 505.519C118.392 504.547 117.58 503.575 116.743 502.574C115.655 501.279 114.567 499.984 113.479 498.69C112.946 498.051 112.413 497.413 111.864 496.756C104.812 488.109 104.812 488.109 94.922 483.444C94.8309 484.218 94.7398 484.992 94.646 485.789C92.8078 492.836 88.7825 496.454 82.7807 500C78.1789 498.23 74.1683 495.489 71.7432 491.17C71.1695 486.247 71.438 481.805 71.7432 476.821C80.4849 476.457 89.2266 476.093 98.2332 475.718C98.9145 470.006 98.9145 470.006 99.5868 464.293C100.318 458.303 100.318 458.303 101.544 455.85Z" fill="#FDB4B5"/>
<path d="M105.96 84.9893C110.372 87.3179 113.454 89.4087 115.894 93.8193C116.685 101.349 114.232 106.686 109.901 112.682C108.168 114.791 108.168 114.791 106.447 116.196C103.931 119.21 103.339 122.847 102.442 126.587C102.246 127.362 102.051 128.136 101.849 128.935C101.37 130.84 100.904 132.749 100.441 134.658C97.5274 134.658 94.6135 134.658 91.6113 134.658C91.9549 131.002 92.3003 127.346 92.6461 123.69C92.7421 122.667 92.8382 121.645 92.9371 120.592C93.1311 118.544 93.3297 116.496 93.5329 114.449C93.7171 112.536 93.884 110.62 94.0293 108.703C94.4594 103.652 95.1914 100.087 98.0269 95.7508C98.6174 94.8374 99.2078 93.924 99.8162 92.9828C101.751 90.214 103.747 87.5425 105.96 84.9893Z" fill="#FCB4B4"/>
<path d="M283.664 277.042C285.596 277.199 287.527 277.361 289.459 277.525C291.072 277.659 291.072 277.659 292.718 277.797C295.325 278.091 297.702 278.536 300.22 279.249C299.981 280.31 299.981 280.31 299.737 281.392C298.389 287.645 298.389 287.645 298.22 294.012C297.872 300.725 295.107 308.645 290.286 313.466C285.918 313.304 283.365 313.019 279.939 310.224C275.943 305.152 276.309 299.836 277.041 293.598C278.225 290.281 279.629 287.244 281.245 284.117C282.426 281.729 283.139 279.641 283.664 277.042Z" fill="#FEB6B6"/>
<path d="M217.44 501.104C220.718 501.468 223.996 501.832 227.373 502.208C227.556 503.005 227.738 503.801 227.925 504.622C230.394 509.252 233.877 510.686 238.411 513.245C238.775 509.603 239.139 505.961 239.515 502.208C242.793 502.208 246.071 502.208 249.449 502.208C249.676 503.027 249.904 503.847 250.138 504.691C252.386 509.187 255.722 511.235 260.43 512.905C262.274 513.439 264.138 513.901 266.005 514.349C265.641 515.806 265.276 517.263 264.901 518.764C248.875 518.764 232.848 518.764 216.336 518.764C216.7 512.936 217.064 507.108 217.44 501.104Z" fill="#312F42"/>
<path d="M245.033 309.051C246.955 312.895 246.641 316.988 246.137 321.192C245.22 323.594 244.115 325.729 242.851 327.965C241.33 330.735 240.42 333.626 239.514 336.645C240.607 336.645 241.7 336.645 242.826 336.645C240.618 343.267 240.618 343.267 238.41 349.89C237.5 349.708 236.589 349.525 235.651 349.338C229.207 348.417 223.44 347.993 217.439 350.993C216.879 349.433 216.329 347.868 215.784 346.302C215.476 345.432 215.169 344.561 214.852 343.664C214.128 341.06 214.128 341.06 214.128 336.645C214.856 336.645 215.585 336.645 216.335 336.645C216.335 335.916 216.335 335.188 216.335 334.437C217.257 335.018 217.257 335.018 218.198 335.61C221.589 336.985 222.825 336.822 226.269 335.541C229.533 333.788 231.884 331.986 233.995 328.918C234.618 325.465 234.756 322.275 234.698 318.769C235.209 314.829 236.477 313.721 239.514 311.258C242.826 309.051 242.826 309.051 245.033 309.051Z" fill="#3A54D6"/>
<path d="M491.17 249.448C492.757 251.863 492.757 251.863 494.482 254.967C495.256 256.105 496.03 257.244 496.827 258.416C500.1 263.435 500.486 267.859 500 273.731C498.887 276.833 498.528 277.778 495.585 279.25C491.484 279.716 489.262 279.394 485.514 277.594C478.253 271.281 477.003 263.066 475.718 253.863C477.666 252.908 479.622 251.968 481.581 251.035C482.67 250.51 483.758 249.985 484.88 249.444C487.859 248.345 487.859 248.345 491.17 249.448Z" fill="#FEB6B6"/>
<path d="M44.1501 469.095C52.1275 468.829 59.4955 469.818 67.3289 471.302C66.0449 482.246 66.0449 482.246 62.569 486.755C61.5901 487.483 60.6112 488.212 59.6027 488.963C58.7831 489.623 57.9636 490.283 57.1192 490.963C52.8745 492.796 48.7176 492.965 44.1501 492.274C41.9426 490.066 41.9426 490.066 41.9297 486.945C42.0478 485.698 42.1659 484.452 42.2875 483.168C42.3971 481.933 42.5067 480.698 42.6195 479.425C43.019 475.955 43.5405 472.534 44.1501 469.095Z" fill="#FAB3B3"/>
<path d="M101.545 455.85C103.367 455.85 105.188 455.85 107.064 455.85C107.464 457.457 107.853 459.068 108.237 460.679C108.455 461.575 108.672 462.472 108.897 463.395C109.272 465.784 109.272 465.784 108.168 467.991C108.896 467.991 109.625 467.991 110.375 467.991C109.906 471.899 109.453 475.286 107.922 478.93C106.713 482.313 106.713 482.313 108.267 485.294C108.94 486.254 109.613 487.214 110.306 488.204C111.023 489.242 111.741 490.281 112.479 491.351C115.744 495.774 119.05 500.148 122.517 504.415C120.878 504.962 120.878 504.962 119.205 505.519C118.393 504.547 117.581 503.575 116.744 502.574C115.656 501.279 114.568 499.984 113.48 498.69C112.947 498.051 112.414 497.413 111.865 496.756C104.813 488.109 104.813 488.109 94.9229 483.444C94.9229 481.258 94.9229 479.073 94.9229 476.821C96.0156 476.457 97.1083 476.093 98.2341 475.718C98.4539 473.844 98.4539 473.844 98.6782 471.932C98.8749 470.297 99.0718 468.661 99.2689 467.026C99.4129 465.79 99.4129 465.79 99.5599 464.529C100.317 458.308 100.317 458.308 101.545 455.85Z" fill="#F1F1F1"/>
<path d="M358.719 485.651C361.64 485.622 364.56 485.6 367.48 485.582C368.313 485.573 369.146 485.564 370.005 485.554C372.13 485.545 374.255 485.594 376.379 485.651C377.483 486.755 377.483 486.755 377.63 490.204C377.627 491.616 377.624 493.027 377.621 494.481C377.625 496.599 377.625 496.599 377.63 498.758C377.483 502.208 377.483 502.208 376.379 503.311C368.662 503.955 368.662 503.955 364.445 501.518C359.75 496.421 358.539 492.47 358.719 485.651Z" fill="#FBB3B3"/>
<path d="M397.351 485.651C403.178 485.651 409.006 485.651 415.011 485.651C415.011 491.479 415.011 497.307 415.011 503.311C406.181 503.311 406.181 503.311 403.076 501.518C398.19 496.213 397.351 492.952 397.351 485.651Z" fill="#FBB3B4"/>
<path d="M245.033 309.051C246.957 312.898 246.635 316.985 246.137 321.192C244.986 324.342 243.412 327.133 241.722 330.022C241.085 331.297 240.447 332.572 239.791 333.885C239.335 334.796 238.88 335.706 238.411 336.645C234.404 336.645 230.398 336.645 226.27 336.645C228.719 333.435 230.607 331.178 233.996 328.918C234.459 325.571 234.481 322.301 234.543 318.924C235.224 314.945 236.421 313.763 239.515 311.258C242.826 309.051 242.826 309.051 245.033 309.051Z" fill="#F8B2B4"/>
<path d="M235.453 358.375C240.412 360.637 244.751 363.684 247.24 368.653C248.299 372.67 248.957 376.673 249.448 380.795C248.719 380.795 247.991 380.795 247.24 380.795C247.065 380.075 246.89 379.355 246.71 378.613C244.735 371.216 242.736 365.853 235.996 361.617C229.742 360.227 224.102 359.909 218.198 362.583C213.297 367.141 210.43 372.632 207.505 378.587C206.777 378.587 206.048 378.587 205.298 378.587C207.319 370.273 210.999 363.201 218.426 358.5C223.76 356.471 230.031 356.768 235.453 358.375Z" fill="#E4A5A8"/>
<path d="M207.506 392.936C221.932 393.514 236.211 394.576 250.552 396.247C250.552 396.976 250.552 397.704 250.552 398.455C236.102 397.959 221.835 397.101 207.506 395.144C207.506 394.415 207.506 393.687 207.506 392.936Z" fill="#E1A3A7"/>
<path d="M217.439 501.104C220.718 501.468 223.996 501.832 227.373 502.208C226.976 505.148 226.588 507.265 224.89 509.727C222.318 511.472 220.48 511.284 217.439 511.038C217.439 507.76 217.439 504.481 217.439 501.104Z" fill="#F5AFB0"/>
<path d="M239.515 502.208C242.793 502.208 246.071 502.208 249.448 502.208C249.051 505.147 248.663 507.265 246.965 509.727C244.393 511.472 242.555 511.284 239.515 511.038C239.515 508.124 239.515 505.21 239.515 502.208Z" fill="#FCB4B4"/>
<path d="M225.166 357.616C231.778 357.065 236.194 358.326 241.722 362.031C247.751 367.405 248.513 372.948 249.449 380.795C248.72 380.795 247.992 380.795 247.241 380.795C247.066 380.075 246.891 379.355 246.711 378.613C244.408 369.74 244.408 369.74 238.411 363.135C234.08 361.326 229.694 359.948 225.166 358.72C225.166 358.356 225.166 357.991 225.166 357.616Z" fill="#E9A8AB"/>
<path d="M229.581 358.72C229.581 359.084 229.581 359.448 229.581 359.824C227.791 360.253 225.996 360.663 224.2 361.065C223.201 361.296 222.203 361.526 221.173 361.764C220.306 361.852 219.438 361.94 218.543 362.031C217.815 361.303 217.086 360.574 216.336 359.824C220.746 356.7 224.534 357.879 229.581 358.72Z" fill="#D99EA3"/>
</g>
<defs>
<clipPath id="clip0_589_55">
<rect width="500" height="520.971" fill="white"/>
</clipPath>
</defs>
</svg>
