<svg width="501" height="639" viewBox="0 0 501 639" fill="none" xmlns="http://www.w3.org/2000/svg">
<path d="M46.0064 396.361C43.7059 390.288 41.689 384.117 39.9336 377.848C38.1893 371.589 36.7284 365.265 35.5401 358.877C34.3626 352.478 33.4686 346.045 32.858 339.581C32.2476 333.104 31.9313 326.617 31.9095 320.12C31.8772 313.622 32.1494 307.135 32.6945 300.659C33.2504 294.182 34.0901 287.739 35.2238 281.34C36.3468 274.939 37.7642 268.594 39.454 262.325C41.1548 256.045 43.1281 249.864 45.374 243.76C47.6199 237.664 50.1383 231.68 52.9294 225.802C55.7095 219.926 58.7512 214.192 62.0548 208.588C65.3473 202.984 68.8906 197.543 72.6737 192.256C76.4569 186.968 80.4688 181.866 84.71 176.938C88.9509 172.01 93.41 167.278 98.0654 162.754C102.732 158.229 107.594 153.912 112.642 149.824C117.69 145.724 122.912 141.865 128.309 138.234C133.705 134.604 139.244 131.224 144.946 128.095C150.648 124.955 156.47 122.088 162.422 119.471C168.375 116.866 174.437 114.522 180.597 112.45C186.767 110.379 193.003 108.591 199.327 107.075C205.65 105.571 212.029 104.339 218.472 103.401C224.905 102.453 231.358 101.798 237.856 101.439C244.343 101.068 250.84 101.003 257.338 101.21C263.837 101.428 270.312 101.929 276.768 102.725C283.221 103.521 289.633 104.6 295.988 105.974C302.343 107.337 308.623 108.983 314.827 110.913C321.042 112.842 327.159 115.045 333.164 117.52C339.172 119.995 345.071 122.731 350.838 125.729C356.605 128.738 362.221 131.987 367.703 135.487C373.177 138.997 378.485 142.737 383.633 146.716C388.768 150.696 393.729 154.893 398.493 159.309C403.257 163.735 407.814 168.358 412.174 173.187C416.524 178.017 420.656 183.032 424.56 188.233C428.462 193.422 432.125 198.786 435.55 204.314C438.983 209.841 442.146 215.501 445.068 221.312C447.99 227.123 450.638 233.053 453.027 239.092C455.413 245.143 457.529 251.281 459.371 257.517C461.213 263.755 462.762 270.055 464.037 276.423C465.314 282.801 466.306 289.221 467.003 295.687C467.711 302.141 468.125 308.628 468.247 315.125C468.366 321.623 468.192 328.11 467.734 334.597C467.275 341.084 466.535 347.527 465.498 353.949C464.462 360.371 463.143 366.726 461.542 373.029C459.939 379.319 458.053 385.545 455.894 391.672C453.734 397.799 451.304 403.827 448.599 409.737C445.908 415.656 442.952 421.436 439.737 427.084C436.519 432.731 433.053 438.226 429.346 443.568C425.638 448.91 421.703 454.076 417.54 459.06C413.364 464.053 408.98 468.84 404.39 473.439C404.063 473.757 403.716 474.05 403.387 474.366C403.866 475.107 404.358 475.85 404.773 476.635C405.187 477.431 405.579 478.247 405.928 479.141C408.174 479.763 410.312 480.625 412.338 481.747C414.377 482.871 416.252 484.211 417.965 485.77C419.677 487.34 421.19 489.073 422.499 491.003C423.796 492.923 424.866 494.962 425.682 497.141C429.325 493.545 432.856 489.838 436.281 486.022C439.703 482.205 442.996 478.291 446.18 474.268C449.353 470.257 452.405 466.146 455.338 461.939C458.26 457.729 461.05 453.444 463.721 449.063C466.382 444.69 468.9 440.231 471.288 435.706C473.675 431.172 475.933 426.571 478.037 421.905C480.141 417.226 482.092 412.506 483.913 407.708C485.723 402.923 487.39 398.081 488.905 393.187C490.421 388.291 491.783 383.364 493.006 378.382C494.216 373.41 495.273 368.395 496.177 363.358C497.084 358.309 497.835 353.252 498.423 348.161C499.024 343.068 499.46 337.978 499.732 332.853C500.016 327.739 500.135 322.628 500.103 317.503C500.071 312.379 499.874 307.265 499.525 302.151C499.177 297.05 498.665 291.947 498.009 286.866C497.346 281.786 496.527 276.739 495.546 271.713C494.576 266.675 493.452 261.682 492.167 256.721C490.89 251.773 489.452 246.856 487.872 241.983C486.289 237.107 484.556 232.289 482.67 227.524C480.794 222.76 478.768 218.061 476.597 213.418C474.429 208.773 472.128 204.205 469.675 199.713C467.222 195.21 464.639 190.795 461.913 186.456C459.198 182.116 456.341 177.864 453.354 173.7C450.377 169.535 447.271 165.458 444.032 161.489C440.794 157.521 437.447 153.65 433.97 149.878C430.502 146.106 426.916 142.454 423.219 138.91C419.525 135.356 415.719 131.933 411.815 128.618C407.913 125.304 403.9 122.11 399.802 119.046C395.691 115.982 391.504 113.039 387.219 110.237C382.934 107.424 378.564 104.753 374.115 102.213C369.667 99.6725 365.142 97.2629 360.553 95.0062C355.952 92.7385 351.286 90.6235 346.564 88.6391C341.833 86.6658 337.048 84.8342 332.217 83.1552C327.377 81.4764 322.481 79.9391 317.553 78.5653C312.615 77.1808 307.644 75.9487 302.639 74.8694C297.623 73.801 292.587 72.8743 287.528 72.1111C282.458 71.337 277.377 70.7264 272.276 70.2795C267.173 69.8217 262.061 69.5272 256.937 69.3855C251.812 69.2438 246.688 69.2656 241.574 69.4401C236.45 69.6144 231.338 69.9415 226.235 70.4321C221.144 70.9228 216.064 71.566 210.994 72.3727C205.934 73.1686 200.909 74.1279 195.904 75.2401C190.9 76.352 185.939 77.6168 181.012 79.0341C176.095 80.4406 171.21 82.0105 166.391 83.7222C161.562 85.4448 156.786 87.2981 152.077 89.3152C147.367 91.3212 142.711 93.4689 138.132 95.7693C133.553 98.0588 129.051 100.49 124.613 103.063C120.187 105.636 115.837 108.34 111.574 111.175C107.311 114.02 103.136 116.985 99.0472 120.082C94.9697 123.178 90.9795 126.394 87.0982 129.73C83.2169 133.077 79.4337 136.533 75.7596 140.099C72.0964 143.675 68.5314 147.36 65.0863 151.143C61.641 154.937 58.3159 158.829 55.1104 162.83C51.9052 166.82 48.8198 170.909 45.8653 175.095C42.9107 179.282 40.0871 183.556 37.3941 187.906C34.7011 192.267 32.15 196.704 29.7296 201.217C27.3094 205.742 25.0307 210.322 22.8938 214.977C20.757 219.631 18.7728 224.353 16.9194 229.128C15.0769 233.903 13.3761 238.732 11.8279 243.617C10.2798 248.501 8.87338 253.429 7.63051 258.39C6.38764 263.361 5.28649 268.366 4.34888 273.402C3.41128 278.439 2.6263 283.498 1.99397 288.579C1.37252 293.659 0.903731 298.762 0.587557 303.874C0.271424 308.988 0.10791 314.102 0.10791 319.226C0.118332 333.203 1.27449 347.081 3.58579 360.861C16.3743 374.314 30.5139 386.144 46.0064 396.361Z" fill="#FD6100"/>
<path d="M384.669 503.848C397.423 485.781 382.464 468.001 357.14 490.514C369.503 475.783 359.723 457.423 341.058 466.931C328.412 473.364 323.625 482.718 304.568 494.384C260.915 521.094 208.986 507.542 195.445 494.001C228.555 490.623 248.868 481.224 267.684 464.664C282.84 451.33 279.765 418.328 222.55 442.848C132.964 481.289 38.8977 430.125 6.65918 381.555C7.94566 386.581 9.38477 391.563 10.9874 396.501C12.5901 401.441 14.3345 406.325 16.2315 411.154C18.1394 415.973 20.1891 420.749 22.3804 425.447C24.5718 430.146 26.9159 434.781 29.4016 439.338C31.8765 443.895 34.5039 448.364 37.2622 452.758C40.0205 457.151 42.9205 461.459 45.9405 465.677C48.9715 469.887 52.1223 474.006 55.4039 478.029C58.6855 482.042 62.098 485.957 65.6194 489.773C69.141 493.576 72.7824 497.273 76.5327 500.859C80.2941 504.446 84.1536 507.903 88.122 511.25C92.0904 514.597 96.157 517.812 100.322 520.91C104.497 523.995 108.749 526.96 113.11 529.783C117.46 532.618 121.887 535.312 126.411 537.863C130.925 540.413 135.526 542.822 140.192 545.102C144.858 547.369 149.59 549.485 154.387 551.469C159.184 553.441 164.046 555.263 168.953 556.941C173.869 558.62 178.83 560.136 183.834 561.509C188.839 562.872 193.886 564.094 198.967 565.141C204.047 566.198 209.161 567.102 214.296 567.833C219.441 568.574 224.588 569.151 229.767 569.578C234.933 570.003 240.122 570.252 245.314 570.351C250.503 570.46 255.692 570.392 260.871 570.177C266.06 569.949 271.228 569.566 276.397 569.022C281.552 568.488 286.698 567.778 291.811 566.918C296.936 566.056 302.016 565.042 307.075 563.864C312.135 562.688 317.148 561.356 322.12 559.874C327.091 558.382 332.021 556.745 336.881 554.957C341.757 553.159 346.563 551.219 351.317 549.136C356.07 547.043 360.747 544.807 365.371 542.431C369.982 540.043 374.518 537.524 378.967 534.864C383.425 532.203 387.796 529.413 392.081 526.48C396.366 523.548 400.552 520.483 404.64 517.301C416.218 507.379 402.57 486.032 384.669 503.848Z" fill="#3653DB"/>
<path d="M318.687 458.884C299.913 468.283 283.188 442.552 299.77 429.677L300.218 429.34C343.905 395.879 364.825 368.112 373.221 353.85C382.182 338.674 364.618 330.378 357.14 339.852C338.355 363.728 283.7 392.718 253.467 391.376C255.529 391.213 257.568 390.93 259.584 390.537C261.612 390.145 263.607 389.653 265.581 389.055C267.555 388.443 269.495 387.746 271.382 386.928C273.278 386.122 275.131 385.218 276.931 384.213C278.729 383.2 280.475 382.109 282.153 380.91C283.832 379.723 285.446 378.446 286.993 377.073C288.542 375.71 290.003 374.27 291.397 372.744C292.783 371.228 294.091 369.638 295.312 367.98C296.532 366.311 297.667 364.589 298.703 362.814C299.739 361.036 300.677 359.205 301.516 357.319C302.356 355.431 303.097 353.513 303.729 351.55C304.371 349.588 304.895 347.604 305.32 345.586C305.745 343.57 306.061 341.531 306.268 339.482C306.475 337.433 306.563 335.381 306.553 333.322C306.542 331.262 306.421 329.2 306.182 327.151C305.952 325.101 305.604 323.073 305.156 321.068C304.711 319.05 304.154 317.078 303.488 315.125C302.825 313.163 302.06 311.254 301.2 309.391C300.338 307.516 299.369 305.695 298.309 303.928C297.252 302.163 296.097 300.451 294.853 298.816C293.612 297.169 292.281 295.588 290.874 294.094C289.457 292.591 287.975 291.161 286.415 289.821C284.845 288.48 283.221 287.215 281.521 286.049C279.82 284.881 278.063 283.803 276.255 282.822C274.444 281.84 272.581 280.956 270.672 280.171C268.775 279.387 266.825 278.71 264.851 278.133C262.866 277.555 260.861 277.086 258.833 276.728C256.804 276.355 254.765 276.106 252.706 275.964C250.646 275.822 248.594 275.79 246.535 275.866C244.475 275.943 242.423 276.127 240.374 276.422C238.335 276.715 236.319 277.12 234.325 277.622C232.33 278.133 230.356 278.754 228.426 279.474C226.496 280.195 224.61 281.011 222.768 281.938C220.926 282.855 219.125 283.879 217.392 284.99C215.659 286.104 213.991 287.303 212.377 288.588C210.775 289.886 209.237 291.259 207.776 292.71C206.326 294.171 204.942 295.697 203.644 297.301C202.347 298.902 201.148 300.57 200.025 302.304C198.902 304.037 197.877 305.814 196.95 307.658C196.024 309.5 195.195 311.386 194.476 313.316C193.745 315.246 193.123 317.208 192.611 319.202C192.088 321.197 191.684 323.215 191.379 325.254C191.085 327.293 190.888 329.342 190.812 331.402C190.725 333.464 190.758 335.513 190.888 337.573C191.03 339.635 191.281 341.674 191.63 343.7C191.99 345.728 192.458 347.734 193.025 349.718C193.592 351.702 194.268 353.643 195.053 355.552C195.827 357.459 196.699 359.324 197.68 361.133C190.747 357.319 184.183 352.946 177.969 348.029C171.765 343.122 165.998 337.726 160.689 331.86C155.368 325.995 150.571 319.726 146.297 313.065C142.024 306.404 138.328 299.436 135.199 292.166C131.492 283.552 118.464 287.345 119.75 296.601C125.179 335.894 148.194 362.518 165.006 396.446C168.124 402.835 170.512 409.497 172.191 416.409C176.41 433.516 156.11 445.529 143.245 433.482C138.099 428.674 133.302 423.55 128.854 418.088C124.406 412.625 120.35 406.891 116.687 400.873C113.023 394.866 109.785 388.63 106.973 382.176C104.149 375.721 101.783 369.114 99.8642 362.332C97.9564 355.562 96.5064 348.684 95.5251 341.716C94.544 334.739 94.0424 327.728 94.0206 320.697C93.9883 313.653 94.4458 306.643 95.3725 299.666C96.2992 292.689 97.7056 285.798 99.5699 279.006C101.434 272.223 103.756 265.596 106.526 259.12C109.295 252.643 112.489 246.386 116.109 240.345C119.728 234.306 123.741 228.55 128.145 223.055C132.55 217.56 137.314 212.392 142.427 207.54C147.53 202.7 152.948 198.219 158.672 194.12C164.385 190.009 170.359 186.302 176.585 183.01C182.81 179.717 189.231 176.861 195.838 174.441C202.456 172.009 209.205 170.047 216.084 168.542C216.727 164.857 217.687 161.238 218.962 157.716C219.659 155.808 220.444 153.944 221.317 152.113C222.2 150.281 223.159 148.504 224.206 146.77C225.252 145.026 226.376 143.347 227.586 141.712C228.786 140.087 230.071 138.517 231.423 137.013C232.786 135.497 234.203 134.058 235.698 132.695C237.19 131.322 238.75 130.024 240.364 128.803C241.988 127.571 243.656 126.426 245.379 125.369C247.112 124.3 248.879 123.319 250.7 122.425C252.519 121.531 254.384 120.724 256.27 120.005C258.167 119.285 260.097 118.664 262.06 118.13C264.011 117.595 265.985 117.148 267.991 116.8C269.985 116.462 271.991 116.211 274.019 116.047C276.037 115.895 278.063 115.84 280.092 115.873C282.12 115.917 284.138 116.047 286.154 116.276C288.172 116.505 290.167 116.832 292.151 117.257C294.135 117.672 296.097 118.184 298.037 118.795C299.967 119.405 301.864 120.103 303.739 120.888C305.604 121.684 307.436 122.556 309.213 123.515C311.001 124.486 312.734 125.521 314.423 126.655C316.102 127.778 317.739 128.989 319.309 130.275C320.879 131.55 322.382 132.913 323.822 134.331C325.26 135.759 326.635 137.253 327.931 138.812C329.229 140.371 330.451 141.984 331.594 143.652C332.739 145.331 333.809 147.054 334.789 148.831C335.77 150.608 336.664 152.418 337.472 154.282C338.278 156.146 338.998 158.033 339.62 159.962C340.252 161.892 340.786 163.843 341.221 165.828C341.659 167.801 342.006 169.796 342.257 171.813C342.509 173.819 342.661 175.847 342.716 177.864C342.781 179.892 342.736 181.92 342.607 183.948C342.465 185.964 342.236 187.982 341.908 189.977C341.581 191.983 341.167 193.956 340.644 195.918C340.133 197.881 339.522 199.811 338.824 201.719C338.125 203.615 337.34 205.491 336.457 207.311C335.586 209.143 334.615 210.92 333.568 212.664C332.522 214.397 331.4 216.078 330.19 217.702C328.978 219.337 327.692 220.907 326.34 222.412C324.978 223.915 323.56 225.355 322.055 226.728C320.563 228.091 319.014 229.389 317.389 230.609C315.776 231.832 314.097 232.975 312.374 234.044C310.651 235.101 308.874 236.083 307.053 236.977C305.234 237.871 303.379 238.677 301.483 239.397C299.586 240.106 297.656 240.739 295.693 241.272C293.742 241.806 291.757 242.244 289.763 242.591C287.768 242.93 285.75 243.179 283.734 243.332C281.706 243.485 279.69 243.539 277.661 243.508C275.633 243.464 273.605 243.332 271.599 243.104C269.581 242.863 267.576 242.537 265.592 242.112C265.592 242.298 265.592 242.003 265.592 242.112C267.674 242.93 269.778 243.661 271.915 244.293C274.053 244.915 276.211 245.448 278.402 245.884C280.584 246.319 282.786 246.658 285.009 246.899C287.221 247.138 289.446 247.28 291.669 247.324C293.905 247.366 296.13 247.311 298.353 247.148C300.578 246.995 302.791 246.734 304.993 246.386C307.185 246.026 309.366 245.578 311.535 245.024C313.693 244.477 315.819 243.835 317.923 243.094C320.027 242.353 322.089 241.513 324.115 240.596C326.154 239.669 328.128 238.656 330.068 237.555C332.009 236.454 333.895 235.265 335.726 234C337.558 232.726 339.325 231.373 341.037 229.946C342.749 228.516 344.395 227.024 345.975 225.443C347.545 223.873 349.05 222.226 350.488 220.513C351.918 218.814 353.27 217.037 354.534 215.205C355.809 213.384 356.998 211.498 358.099 209.557C360.291 211.716 362.416 213.93 364.477 216.218C366.527 218.498 368.522 220.842 370.441 223.239C372.359 225.638 374.203 228.091 375.967 230.599C377.744 233.107 379.446 235.669 381.06 238.275C382.685 240.891 384.221 243.539 385.693 246.244C387.154 248.948 388.539 251.684 389.835 254.464C391.133 257.254 392.353 260.068 393.488 262.925C394.612 265.78 395.659 268.671 396.628 271.581C397.587 274.503 398.459 277.446 399.244 280.412C400.029 283.389 400.726 286.376 401.338 289.384C401.949 292.394 402.462 295.425 402.897 298.467C403.322 301.508 403.659 304.56 403.91 307.625C404.161 310.677 404.314 313.752 404.379 316.816C404.444 319.889 404.421 322.964 404.304 326.029C404.183 329.101 403.977 332.166 403.683 335.218C403.377 338.272 402.996 341.324 402.517 344.355C402.035 347.386 401.457 350.405 400.804 353.404C400.149 356.402 399.398 359.389 398.558 362.345C397.729 365.298 396.802 368.22 395.789 371.13C394.786 374.031 393.685 376.899 392.507 379.733C391.33 382.568 390.066 385.371 388.724 388.127C387.372 390.886 385.944 393.612 384.439 396.283C382.934 398.964 381.343 401.593 379.675 404.176C378.017 406.749 376.273 409.29 374.465 411.764C372.644 414.239 370.758 416.671 368.805 419.036C366.843 421.402 364.815 423.702 362.722 425.948C360.628 428.195 358.47 430.386 356.245 432.5C354.022 434.617 351.732 436.666 349.387 438.65C347.045 440.635 344.636 442.542 342.17 444.384C339.719 446.226 337.198 447.993 334.638 449.684C332.076 451.373 329.46 452.987 326.799 454.524C324.138 456.06 321.434 457.511 318.687 458.884Z" fill="#3653DB"/>
<path d="M49.1931 47.0416L55.2547 61.8253L72.5677 54.6734L75.3588 61.3892L58.0457 68.5413L64.3255 83.9354L83.819 75.9112L86.6101 82.6271L58.8306 94.0529L38.1597 43.7709L65.9392 32.3452L68.6866 39.0175L49.1931 47.0416Z" fill="#3653DB"/>
<path d="M116.708 39.3174L118.932 46.4694L88.2739 55.9327L86.0498 48.7808L116.708 39.3174Z" fill="#3653DB"/>
<path d="M165.571 22.3992C166.094 25.0811 165.963 27.7521 165.178 30.4233C164.393 33.0725 162.747 35.4383 160.25 37.5316C157.775 39.6248 154.341 41.1295 149.958 42.0235L140.321 43.9859L144.725 65.5727L135.96 67.3606L125.057 14.1568L143.46 10.4064C147.56 9.56692 151.158 9.55601 154.276 10.3629C157.416 11.1806 159.923 12.6524 161.82 14.7675C163.706 16.8934 164.96 19.4336 165.571 22.3992ZM148.476 34.915C151.79 34.2173 154.112 32.9526 155.453 31.121C156.783 29.2676 157.176 26.9671 156.631 24.2308C155.409 18.387 151.496 16.152 144.9 17.5148L135.262 19.4772L138.838 36.8774L148.476 34.915Z" fill="#3653DB"/>
<path d="M182.951 11.2525L184.696 27.0829L203.317 25.0332L204.146 32.2723L185.524 34.322L187.356 50.85L208.332 48.5388L209.117 55.778L179.245 59.0487L173.27 5.01633L203.143 1.74561L203.928 8.94118L182.951 11.2525Z" fill="#3653DB"/>
<path d="M261.964 54.5751L253.023 54.6622L225.943 14.2798L226.246 54.8368L217.308 54.924L216.871 0.542807L225.811 0.455548L252.935 40.7509L252.588 0.281106L261.528 0.193848L261.964 54.5751Z" fill="#3653DB"/>
<path d="M311.143 4.71122L310.402 11.9068L295.967 10.4677L291.387 57.3045L282.535 56.4322L287.115 9.59549L272.68 8.19997L273.421 1.00439L311.143 4.71122Z" fill="#3653DB"/>
<path d="M330.634 8.08967L321.651 61.6422L312.841 60.1596L321.825 6.60693L330.634 8.08967Z" fill="#3653DB"/>
<path d="M374.48 73.8081L365.802 71.6276L349.753 25.7504L339.853 65.0861L331.175 62.9058L344.475 10.1816L353.154 12.3621L369.203 58.1522L379.102 18.9036L387.781 21.0841L374.48 73.8081Z" fill="#3653DB"/>
<path d="M433.281 54.406C432.9 51.3858 431.796 48.7804 429.965 46.5998C428.156 44.4193 425.736 42.7403 422.682 41.541C419.335 40.2327 416.055 39.8294 412.827 40.32C409.599 40.7887 406.7 42.1299 404.149 44.3322C401.62 46.5125 399.635 49.4345 398.218 53.0977C396.791 56.7389 396.278 60.2387 396.692 63.6076C397.094 66.9545 398.317 69.8874 400.356 72.4167C402.415 74.9462 405.12 76.8648 408.467 78.1731C412.97 79.9176 417.112 80.0594 420.895 78.6094C424.7 77.1811 427.763 74.4337 430.097 70.3671L411.084 62.997L413.656 56.3684L441.566 67.1835L439.037 73.6814C436.965 77.4319 434.164 80.5063 430.62 82.9267C427.066 85.3687 423.097 86.8625 418.714 87.4184C414.353 87.9635 409.959 87.3861 405.545 85.6741C400.77 83.8097 396.845 81.0187 393.77 77.3011C390.716 73.5832 388.799 69.3094 388.014 64.4798C387.229 59.6281 387.796 54.733 389.713 49.7832C391.633 44.8444 394.511 40.8433 398.348 37.7907C402.187 34.7379 406.504 32.8845 411.301 32.2086C416.12 31.5109 420.895 32.0778 425.605 33.9094C430.98 36.0027 435.254 39.2079 438.426 43.5035C441.589 47.7773 443.19 52.7052 443.224 58.2871L433.281 54.406Z" fill="#3653DB"/>
<path d="M4.3374 619.042C4.3374 615.27 5.18779 611.869 6.91039 608.838C8.62206 605.784 10.9443 603.408 13.8879 601.685C16.8534 599.973 20.135 599.112 23.7438 599.112C27.9847 599.112 31.6917 600.148 34.8642 602.208C38.0259 604.247 40.3373 607.136 41.7981 610.887H35.6927C34.6134 608.565 33.0544 606.776 31.0264 605.522C29.0204 604.247 26.5893 603.605 23.7438 603.605C21.0399 603.605 18.6087 604.247 16.4609 605.522C14.3022 606.776 12.6014 608.565 11.3586 610.887C10.1375 613.221 9.52696 615.934 9.52696 619.042C9.52696 622.159 10.1375 624.874 11.3586 627.198C12.6014 629.529 14.3022 631.33 16.4609 632.605C18.6087 633.858 21.0399 634.48 23.7438 634.48C26.5893 634.48 29.0204 633.858 31.0264 632.605C33.0544 631.361 34.6134 629.553 35.6927 627.198H41.7981C40.3373 630.926 38.0259 633.804 34.8642 635.832C31.6917 637.871 27.9847 638.884 23.7438 638.884C20.135 638.884 16.8534 638.045 13.8879 636.356C10.9443 634.643 8.62206 632.288 6.91039 629.291C5.18779 626.27 4.3374 622.858 4.3374 619.042Z" fill="#3653DB"/>
<path d="M54.3911 603.778V616.773H68.5644V620.959H54.3911V634.348H70.2652V638.534H49.3325V599.591H70.2652V603.778H54.3911Z" fill="#3653DB"/>
<path d="M107.393 610.886C106.314 608.619 104.744 606.874 102.684 605.653C100.645 604.41 98.279 603.778 95.5754 603.778C92.8715 603.778 90.4293 604.41 88.2489 605.653C86.0684 606.874 84.3458 608.651 83.1029 610.974C81.8492 613.306 81.2277 615.988 81.2277 619.042C81.2277 622.094 81.8492 624.788 83.1029 627.109C84.3458 629.41 86.0684 631.187 88.2489 632.43C90.4293 633.684 92.8715 634.304 95.5754 634.304C99.3803 634.304 102.509 633.171 104.951 630.902C107.415 628.635 108.854 625.56 109.269 621.658H93.7437V617.558H114.676V621.441C114.382 624.645 113.379 627.578 111.667 630.249C109.945 632.899 107.699 635.003 104.908 636.573C102.117 638.12 98.9987 638.884 95.5754 638.884C91.9666 638.884 88.6632 638.044 85.6759 636.355C82.7104 634.643 80.3554 632.288 78.6111 629.29C76.8886 626.27 76.0381 622.858 76.0381 619.042C76.0381 615.27 76.8886 611.868 78.6111 608.837C80.3554 605.783 82.7104 603.418 85.6759 601.728C88.6632 600.05 91.9666 599.2 95.5754 599.2C99.6964 599.2 103.349 600.223 106.521 602.252C109.716 604.29 112.038 607.169 113.499 610.886H107.393Z" fill="#3653DB"/>
<path d="M144.351 629.899H127.387L124.247 638.534H118.883L132.969 599.853H138.812L152.811 638.534H147.491L144.351 629.899ZM142.912 625.757L135.847 606.088L128.826 625.757H142.912Z" fill="#3653DB"/>
<path d="M188.936 599.635V638.534H183.834V620.917H164.035V638.534H158.976V599.635H164.035V616.731H183.834V599.635H188.936Z" fill="#3653DB"/>
<path d="M224.786 638.928C222.224 638.928 219.923 638.481 217.895 637.576C215.89 636.649 214.297 635.384 213.141 633.781C211.975 632.157 211.374 630.283 211.354 628.156H216.76C216.957 629.988 217.721 631.537 219.029 632.778C220.338 634.001 222.255 634.61 224.786 634.61C227.227 634.61 229.146 634.021 230.542 632.822C231.937 631.602 232.636 630.053 232.636 628.156C232.636 626.674 232.211 625.475 231.369 624.537C230.553 623.61 229.538 622.902 228.317 622.4C227.097 621.91 225.439 621.387 223.346 620.83C220.784 620.165 218.734 619.501 217.198 618.825C215.649 618.159 214.33 617.112 213.229 615.685C212.118 614.268 211.571 612.325 211.571 609.884C211.571 607.768 212.105 605.894 213.185 604.258C214.253 602.633 215.768 601.369 217.721 600.465C219.693 599.571 221.95 599.112 224.48 599.112C228.11 599.112 231.087 600.027 233.421 601.859C235.742 603.69 237.05 606.112 237.346 609.099H231.763C231.589 607.615 230.804 606.307 229.408 605.174C228.035 604.04 226.224 603.473 223.957 603.473C221.83 603.473 220.097 604.03 218.768 605.13C217.426 606.242 216.76 607.78 216.76 609.752C216.76 611.149 217.154 612.304 217.939 613.198C218.745 614.102 219.737 614.791 220.903 615.247C222.092 615.717 223.75 616.239 225.874 616.817C228.426 617.517 230.499 618.213 232.068 618.91C233.638 619.61 234.968 620.677 236.079 622.094C237.182 623.522 237.737 625.475 237.737 627.939C237.737 629.835 237.224 631.623 236.211 633.302C235.219 634.959 233.737 636.312 231.763 637.358C229.812 638.405 227.488 638.928 224.786 638.928Z" fill="#3653DB"/>
<path d="M269.181 599.635V603.778H258.541V638.534H253.482V603.778H242.842V599.635H269.181Z" fill="#3653DB"/>
<path d="M280.355 599.635V624.231C280.355 627.698 281.195 630.27 282.884 631.949C284.596 633.64 286.962 634.48 289.993 634.48C292.959 634.48 295.28 633.64 296.97 631.949C298.682 630.27 299.544 627.698 299.544 624.231V599.635H304.602V624.187C304.602 627.415 303.948 630.151 302.64 632.386C301.332 634.599 299.565 636.246 297.363 637.314C295.151 638.394 292.664 638.928 289.905 638.928C287.169 638.928 284.684 638.394 282.449 637.314C280.236 636.246 278.49 634.599 277.215 632.386C275.928 630.151 275.296 627.415 275.296 624.187V599.635H280.355Z" fill="#3653DB"/>
<path d="M343.662 638.534H338.602L318.149 607.573V638.534H313.092V599.591H318.149L338.602 630.511V599.591H343.662V638.534Z" fill="#3653DB"/>
<path d="M376.258 599.635V603.778H365.618V638.534H360.559V603.778H349.919V599.635H376.258Z" fill="#3653DB"/>
<path d="M387.564 599.635V638.534H382.505V599.635H387.564Z" fill="#3653DB"/>
<path d="M426.803 638.534H421.743L401.29 607.573V638.534H396.23V599.591H401.29L421.743 630.511V599.591H426.803V638.534Z" fill="#3653DB"/>
<path d="M464.893 610.886C463.815 608.619 462.245 606.874 460.183 605.653C458.144 604.41 455.779 603.778 453.075 603.778C450.372 603.778 447.929 604.41 445.748 605.653C443.569 606.874 441.846 608.651 440.603 610.974C439.349 613.306 438.727 615.988 438.727 619.042C438.727 622.094 439.349 624.788 440.603 627.109C441.846 629.41 443.569 631.187 445.748 632.43C447.929 633.684 450.372 634.304 453.075 634.304C456.88 634.304 460.009 633.171 462.45 630.902C464.916 628.635 466.354 625.56 466.769 621.658H451.243V617.558H472.175V621.441C471.883 624.645 470.88 627.578 469.167 630.249C467.445 632.899 465.199 635.003 462.408 636.573C459.616 638.12 456.499 638.884 453.075 638.884C449.466 638.884 446.163 638.044 443.175 636.355C440.209 634.643 437.854 632.288 436.111 629.29C434.388 626.27 433.538 622.858 433.538 619.042C433.538 615.27 434.388 611.868 436.111 608.837C437.854 605.783 440.209 603.418 443.175 601.728C446.163 600.05 449.466 599.2 453.075 599.2C457.196 599.2 460.849 600.223 464.02 602.252C467.217 604.29 469.538 607.169 470.999 610.886H464.893Z" fill="#3653DB"/>
</svg>
