<svg width="501" height="502" viewBox="0 0 501 502" fill="none" xmlns="http://www.w3.org/2000/svg">
<path d="M46.0059 327.361C43.7054 321.288 41.6885 315.117 39.9331 308.848C38.1888 302.589 36.7279 296.265 35.5396 289.877C34.3621 283.478 33.4681 277.045 32.8575 270.581C32.2471 264.104 31.9308 257.617 31.909 251.12C31.8767 244.622 32.1489 238.135 32.694 231.659C33.2499 225.182 34.0896 218.739 35.2233 212.34C36.3463 205.939 37.7637 199.594 39.4536 193.325C41.1543 187.045 43.1277 180.864 45.3735 174.76C47.6194 168.664 50.1378 162.68 52.9289 156.802C55.709 150.926 58.7507 145.192 62.0543 139.588C65.3468 133.984 68.8901 128.543 72.6732 123.256C76.4564 117.968 80.4683 112.866 84.7095 107.938C88.9504 103.01 93.4095 98.2783 98.0649 93.7539C102.731 89.2293 107.594 84.9119 112.641 80.8236C117.689 76.7243 122.912 72.8648 128.308 69.2342C133.705 65.6039 139.243 62.2241 144.945 59.0951C150.647 55.9552 156.469 53.0878 162.422 50.4713C168.375 47.8656 174.436 45.5215 180.596 43.45C186.767 41.3787 193.003 39.5907 199.327 38.0752C205.65 36.5707 212.029 35.3386 218.472 34.4011C224.904 33.4526 231.358 32.7985 237.855 32.4386C244.342 32.0679 250.84 32.0026 257.337 32.2096C263.837 32.4277 270.311 32.9292 276.767 33.7251C283.221 34.5209 289.632 35.6002 295.987 36.974C302.342 38.3368 308.622 39.9831 314.827 41.9129C321.042 43.8425 327.158 46.0448 333.164 48.5196C339.171 50.9945 345.07 53.731 350.837 56.7292C356.604 59.7383 362.22 62.9872 367.703 66.4868C373.176 69.9974 378.485 73.737 383.632 77.7163C388.767 81.6958 393.728 85.8932 398.492 90.3087C403.257 94.7349 407.814 99.3577 412.174 104.187C416.524 109.017 420.656 114.032 424.56 119.233C428.462 124.422 432.125 129.786 435.549 135.314C438.982 140.841 442.145 146.501 445.067 152.312C447.99 158.123 450.638 164.053 453.026 170.092C455.412 176.143 457.529 182.281 459.371 188.517C461.213 194.755 462.762 201.055 464.037 207.423C465.314 213.801 466.306 220.221 467.003 226.687C467.71 233.141 468.125 239.628 468.246 246.125C468.366 252.623 468.191 259.11 467.733 265.597C467.275 272.084 466.534 278.527 465.498 284.949C464.462 291.371 463.143 297.726 461.542 304.029C459.938 310.319 458.052 316.545 455.894 322.672C453.734 328.799 451.303 334.827 448.599 340.737C445.907 346.656 442.951 352.436 439.736 358.084C436.519 363.731 433.052 369.226 429.345 374.568C425.638 379.91 421.703 385.076 417.539 390.06C413.363 395.053 408.98 399.84 404.389 404.439C404.063 404.757 403.715 405.05 403.387 405.366C403.866 406.107 404.358 406.85 404.772 407.635C405.187 408.431 405.578 409.247 405.928 410.141C408.174 410.763 410.311 411.625 412.337 412.747C414.376 413.871 416.252 415.211 417.964 416.77C419.676 418.34 421.19 420.073 422.498 422.003C423.796 423.923 424.866 425.962 425.682 428.141C429.324 424.545 432.856 420.838 436.28 417.022C439.703 413.205 442.995 409.291 446.179 405.268C449.353 401.257 452.405 397.146 455.337 392.939C458.259 388.729 461.05 384.444 463.721 380.063C466.381 375.69 468.899 371.231 471.288 366.706C473.674 362.172 475.933 357.571 478.037 352.905C480.14 348.226 482.091 343.506 483.912 338.708C485.723 333.923 487.389 329.081 488.905 324.187C490.42 319.291 491.783 314.364 493.005 309.382C494.215 304.41 495.273 299.395 496.177 294.358C497.083 289.309 497.835 284.252 498.423 279.161C499.024 274.068 499.459 268.978 499.731 263.853C500.016 258.739 500.135 253.628 500.102 248.503C500.071 243.379 499.874 238.265 499.524 233.151C499.177 228.05 498.664 222.947 498.009 217.866C497.345 212.786 496.527 207.739 495.545 202.713C494.576 197.675 493.452 192.682 492.167 187.721C490.89 182.773 489.452 177.856 487.871 172.983C486.289 168.107 484.555 163.289 482.669 158.524C480.794 153.76 478.768 149.061 476.597 144.418C474.428 139.773 472.128 135.205 469.674 130.713C467.221 126.21 464.638 121.795 461.913 117.456C459.198 113.116 456.34 108.864 453.353 104.7C450.377 100.535 447.27 96.4577 444.032 92.4891C440.794 88.5207 437.447 84.6502 433.97 80.8779C430.501 77.1059 426.915 73.4536 423.219 69.9103C419.524 66.3559 415.719 62.9326 411.815 59.6183C407.913 56.3041 403.9 53.1095 399.801 50.0461C395.69 46.9824 391.504 44.0388 387.219 41.2368C382.934 38.4241 378.563 35.753 374.115 33.2127C369.667 30.6725 365.141 28.2629 360.553 26.0062C355.952 23.7385 351.286 21.6235 346.563 19.6391C341.833 17.6658 337.047 15.8342 332.216 14.1552C327.376 12.4764 322.48 10.9391 317.553 9.56527C312.615 8.18078 307.643 6.94868 302.638 5.8694C297.623 4.801 292.586 3.87432 287.527 3.11112C282.457 2.33705 277.377 1.72641 272.276 1.2795C267.172 0.821743 262.06 0.527196 256.936 0.385476C251.812 0.243797 246.687 0.265572 241.574 0.440078C236.449 0.614428 231.338 0.941452 226.234 1.43208C221.143 1.92277 216.063 2.56599 210.993 3.37274C205.934 4.16859 200.908 5.12795 195.904 6.24009C190.9 7.35204 185.939 8.61679 181.011 10.0341C176.094 11.4406 171.21 13.0105 166.391 14.7222C161.561 16.4448 156.786 18.2981 152.076 20.3152C147.366 22.3212 142.711 24.4689 138.132 26.7693C133.553 29.0588 129.05 31.4901 124.613 34.0631C120.187 36.636 115.837 39.3398 111.574 42.1745C107.311 45.0199 103.135 47.9854 99.0467 51.0818C94.9692 54.1779 90.979 57.3942 87.0977 60.7303C83.2164 64.0774 79.4332 67.5334 75.7591 71.0986C72.0959 74.6745 68.5309 78.3595 65.0858 82.1427C61.6405 85.9367 58.3154 89.8289 55.1099 93.83C51.9047 97.8204 48.8193 101.909 45.8648 106.095C42.9102 110.282 40.0866 114.556 37.3936 118.906C34.7006 123.267 32.1496 127.704 29.7291 132.217C27.3089 136.742 25.0302 141.322 22.8934 145.977C20.7565 150.631 18.7723 155.353 16.9189 160.128C15.0764 164.903 13.3756 169.732 11.8275 174.617C10.2793 179.501 8.87289 184.429 7.63002 189.39C6.38715 194.361 5.28601 199.366 4.34839 204.402C3.41079 209.439 2.62582 214.498 1.99348 219.579C1.37203 224.659 0.903242 229.762 0.587068 234.874C0.270936 239.988 0.107422 245.102 0.107422 250.226C0.117843 264.203 1.27401 278.081 3.5853 291.861C16.3738 305.314 30.5134 317.144 46.0059 327.361Z" fill="#FD6100"/>
<path d="M384.669 434.848C397.423 416.781 382.464 399.001 357.14 421.514C369.503 406.783 359.723 388.423 341.058 397.931C328.412 404.364 323.625 413.718 304.568 425.384C260.915 452.094 208.986 438.542 195.445 425.001C228.555 421.623 248.868 412.224 267.684 395.664C282.84 382.33 279.765 349.328 222.55 373.848C132.964 412.289 38.8977 361.125 6.65918 312.555C7.94566 317.581 9.38477 322.563 10.9874 327.501C12.5901 332.441 14.3345 337.325 16.2315 342.154C18.1394 346.973 20.1891 351.749 22.3804 356.447C24.5718 361.146 26.9159 365.781 29.4016 370.338C31.8765 374.895 34.5039 379.364 37.2622 383.758C40.0205 388.151 42.9205 392.459 45.9405 396.677C48.9715 400.887 52.1223 405.006 55.4039 409.029C58.6855 413.042 62.098 416.957 65.6194 420.773C69.141 424.576 72.7824 428.273 76.5327 431.859C80.2941 435.446 84.1536 438.903 88.122 442.25C92.0904 445.597 96.157 448.812 100.322 451.91C104.497 454.995 108.749 457.96 113.11 460.783C117.46 463.618 121.887 466.312 126.411 468.863C130.925 471.413 135.526 473.822 140.192 476.102C144.858 478.369 149.59 480.485 154.387 482.469C159.184 484.441 164.046 486.263 168.953 487.941C173.869 489.62 178.83 491.136 183.834 492.509C188.839 493.872 193.886 495.094 198.967 496.141C204.047 497.198 209.161 498.102 214.296 498.833C219.441 499.574 224.588 500.151 229.767 500.578C234.933 501.003 240.122 501.252 245.314 501.351C250.503 501.46 255.692 501.392 260.871 501.177C266.06 500.949 271.228 500.566 276.397 500.022C281.552 499.488 286.698 498.778 291.811 497.918C296.936 497.056 302.016 496.042 307.075 494.864C312.135 493.688 317.148 492.356 322.12 490.874C327.091 489.382 332.021 487.745 336.881 485.957C341.757 484.159 346.563 482.219 351.317 480.136C356.07 478.043 360.747 475.807 365.371 473.431C369.982 471.043 374.518 468.524 378.967 465.864C383.425 463.203 387.796 460.413 392.081 457.48C396.366 454.548 400.552 451.483 404.64 448.301C416.218 438.379 402.57 417.032 384.669 434.848Z" fill="#3653DB"/>
<path d="M318.687 389.884C299.912 399.283 283.187 373.552 299.77 360.677L300.218 360.34C343.904 326.879 364.824 299.112 373.22 284.85C382.182 269.674 364.617 261.378 357.14 270.852C338.355 294.728 283.7 323.718 253.467 322.376C255.529 322.213 257.568 321.93 259.583 321.537C261.612 321.145 263.607 320.653 265.581 320.055C267.555 319.443 269.495 318.746 271.381 317.928C273.278 317.122 275.13 316.218 276.93 315.213C278.728 314.2 280.474 313.109 282.153 311.91C283.832 310.723 285.446 309.446 286.993 308.073C288.542 306.71 290.003 305.27 291.397 303.744C292.783 302.228 294.091 300.638 295.311 298.98C296.532 297.311 297.666 295.589 298.702 293.814C299.739 292.036 300.676 290.205 301.516 288.319C302.355 286.431 303.096 284.513 303.728 282.55C304.371 280.588 304.894 278.604 305.319 276.586C305.744 274.57 306.06 272.531 306.267 270.482C306.475 268.433 306.563 266.381 306.552 264.322C306.542 262.262 306.42 260.2 306.182 258.151C305.951 256.101 305.604 254.073 305.156 252.068C304.71 250.05 304.153 248.078 303.488 246.125C302.824 244.163 302.06 242.254 301.2 240.391C300.337 238.516 299.368 236.695 298.309 234.928C297.252 233.163 296.096 231.451 294.853 229.816C293.612 228.169 292.28 226.588 290.874 225.094C289.456 223.591 287.974 222.161 286.415 220.821C284.845 219.48 283.221 218.215 281.521 217.049C279.819 215.881 278.063 214.803 276.254 213.822C274.444 212.84 272.581 211.956 270.671 211.171C268.775 210.387 266.824 209.71 264.85 209.133C262.866 208.555 260.86 208.086 258.832 207.728C256.804 207.355 254.765 207.106 252.705 206.964C250.645 206.822 248.594 206.79 246.534 206.866C244.474 206.943 242.423 207.127 240.374 207.422C238.335 207.715 236.319 208.12 234.324 208.622C232.329 209.133 230.355 209.754 228.425 210.474C226.495 211.195 224.609 212.011 222.767 212.938C220.925 213.855 219.125 214.879 217.392 215.99C215.658 217.104 213.99 218.303 212.376 219.588C210.775 220.886 209.237 222.259 207.776 223.71C206.326 225.171 204.941 226.697 203.644 228.301C202.347 229.902 201.147 231.57 200.024 233.304C198.901 235.037 197.877 236.814 196.95 238.658C196.023 240.5 195.194 242.386 194.475 244.316C193.744 246.246 193.123 248.208 192.611 250.202C192.087 252.197 191.684 254.215 191.379 256.254C191.084 258.293 190.888 260.342 190.812 262.402C190.725 264.464 190.757 266.513 190.888 268.573C191.029 270.635 191.28 272.674 191.629 274.7C191.989 276.728 192.458 278.734 193.025 280.718C193.592 282.702 194.268 284.643 195.053 286.552C195.827 288.459 196.699 290.324 197.68 292.133C190.746 288.319 184.183 283.946 177.968 279.029C171.765 274.122 165.998 268.726 160.688 262.86C155.368 256.995 150.571 250.726 146.297 244.065C142.023 237.404 138.327 230.436 135.198 223.166C131.491 214.552 118.463 218.345 119.749 227.601C125.179 266.894 148.194 293.518 165.005 327.446C168.124 333.835 170.511 340.497 172.19 347.409C176.41 364.516 156.109 376.529 143.244 364.482C138.099 359.674 133.301 354.55 128.853 349.088C124.405 343.625 120.349 337.891 116.686 331.873C113.023 325.866 109.785 319.63 106.972 313.176C104.148 306.721 101.783 300.114 99.8637 293.332C97.9559 286.562 96.5059 279.684 95.5246 272.716C94.5435 265.739 94.0419 258.728 94.0202 251.697C93.9878 244.653 94.4453 237.643 95.372 230.666C96.2987 223.689 97.7051 216.798 99.5694 210.006C101.434 203.223 103.756 196.596 106.525 190.12C109.294 183.643 112.489 177.386 116.108 171.345C119.728 165.306 123.74 159.55 128.145 154.055C132.549 148.56 137.314 143.392 142.427 138.54C147.529 133.7 152.948 129.219 158.671 125.12C164.384 121.009 170.359 117.302 176.584 114.01C182.809 110.717 189.231 107.861 195.838 105.441C202.456 103.009 209.204 101.047 216.083 99.5423C216.726 95.8574 217.687 92.2377 218.962 88.7162C219.659 86.8084 220.444 84.9441 221.317 83.1125C222.2 81.2809 223.159 79.5038 224.205 77.7703C225.252 76.0258 226.376 74.347 227.586 72.7115C228.785 71.0872 230.071 69.5172 231.423 68.0126C232.786 66.4973 234.203 65.0581 235.697 63.6952C237.19 62.3216 238.749 61.0242 240.363 59.803C241.987 58.5711 243.656 57.4263 245.379 56.3688C247.112 55.3004 248.879 54.3191 250.7 53.4253C252.519 52.5312 254.384 51.7245 256.27 51.0048C258.166 50.2853 260.096 49.6639 262.06 49.1297C264.011 48.5955 265.985 48.1483 267.99 47.7996C269.985 47.4615 271.99 47.2108 274.019 47.0473C276.037 46.8947 278.063 46.8401 280.091 46.8729C282.12 46.9167 284.137 47.0473 286.153 47.2764C288.171 47.5052 290.166 47.8323 292.15 48.2575C294.135 48.6717 296.096 49.1842 298.037 49.7948C299.967 50.4054 301.863 51.1031 303.739 51.888C305.604 52.6839 307.435 53.5562 309.213 54.5155C311 55.4857 312.734 56.5215 314.423 57.6554C316.102 58.7784 317.738 59.9885 319.308 61.2751C320.878 62.5505 322.381 63.9134 323.822 65.3308C325.26 66.759 326.635 68.2525 327.931 69.8116C329.228 71.3707 330.451 72.9841 331.594 74.6523C332.739 76.3313 333.808 78.0538 334.788 79.8308C335.77 81.608 336.664 83.4178 337.472 85.2821C338.278 87.1463 338.998 89.0326 339.619 90.9624C340.252 92.8919 340.785 94.8435 341.221 96.8277C341.658 98.801 342.006 100.796 342.257 102.813C342.508 104.819 342.661 106.847 342.715 108.864C342.78 110.892 342.736 112.92 342.606 114.948C342.464 116.964 342.236 118.982 341.907 120.977C341.581 122.983 341.166 124.956 340.643 126.918C340.132 128.881 339.521 130.811 338.824 132.719C338.125 134.615 337.34 136.491 336.456 138.311C335.586 140.143 334.614 141.92 333.568 143.664C332.521 145.397 331.399 147.078 330.189 148.702C328.977 150.337 327.692 151.907 326.34 153.412C324.977 154.915 323.56 156.355 322.055 157.728C320.562 159.091 319.013 160.389 317.389 161.609C315.775 162.832 314.096 163.975 312.373 165.044C310.651 166.101 308.874 167.083 307.052 167.977C305.233 168.871 303.379 169.677 301.482 170.397C299.586 171.106 297.656 171.739 295.692 172.272C293.741 172.806 291.757 173.244 289.762 173.591C287.767 173.93 285.749 174.179 283.733 174.332C281.705 174.485 279.689 174.539 277.661 174.508C275.633 174.464 273.604 174.332 271.599 174.104C269.581 173.863 267.576 173.537 265.591 173.112C265.591 173.298 265.591 173.003 265.591 173.112C267.674 173.93 269.778 174.661 271.915 175.293C274.052 175.915 276.21 176.448 278.402 176.884C280.583 177.319 282.785 177.658 285.008 177.899C287.221 178.138 289.446 178.28 291.669 178.324C293.905 178.366 296.13 178.311 298.353 178.148C300.578 177.995 302.791 177.734 304.993 177.386C307.184 177.026 309.365 176.578 311.534 176.024C313.692 175.477 315.819 174.835 317.923 174.094C320.026 173.353 322.088 172.513 324.115 171.596C326.153 170.669 328.127 169.656 330.068 168.555C332.008 167.454 333.894 166.265 335.726 165C337.558 163.726 339.324 162.373 341.037 160.946C342.749 159.516 344.394 158.024 345.975 156.443C347.545 154.873 349.05 153.226 350.488 151.513C351.917 149.814 353.27 148.037 354.534 146.205C355.809 144.384 356.998 142.498 358.099 140.557C360.29 142.716 362.415 144.93 364.477 147.218C366.526 149.498 368.521 151.842 370.441 154.239C372.358 156.638 374.202 159.091 375.967 161.599C377.744 164.107 379.446 166.669 381.06 169.275C382.684 171.891 384.221 174.539 385.692 177.244C387.153 179.948 388.539 182.684 389.835 185.464C391.133 188.254 392.353 191.068 393.487 193.925C394.612 196.78 395.658 199.671 396.627 202.581C397.586 205.503 398.459 208.446 399.244 211.412C400.029 214.389 400.726 217.376 401.337 220.384C401.948 223.394 402.461 226.425 402.897 229.467C403.321 232.508 403.659 235.56 403.91 238.625C404.161 241.677 404.314 244.752 404.379 247.816C404.444 250.889 404.42 253.964 404.304 257.029C404.182 260.101 403.977 263.166 403.682 266.218C403.376 269.272 402.995 272.324 402.516 275.355C402.035 278.386 401.457 281.405 400.804 284.404C400.149 287.402 399.397 290.389 398.558 293.345C397.729 296.298 396.801 299.22 395.788 302.13C394.786 305.031 393.685 307.899 392.506 310.733C391.33 313.568 390.065 316.371 388.724 319.127C387.371 321.886 385.944 324.612 384.439 327.283C382.934 329.964 381.343 332.593 379.674 335.176C378.016 337.749 376.273 340.29 374.464 342.764C372.643 345.239 370.757 347.671 368.804 350.036C366.843 352.402 364.814 354.702 362.721 356.948C360.628 359.195 358.47 361.386 356.244 363.5C354.021 365.617 351.731 367.666 349.387 369.65C347.045 371.635 344.635 373.542 342.169 375.384C339.718 377.226 337.198 378.993 334.638 380.684C332.076 382.373 329.459 383.987 326.799 385.524C324.138 387.06 321.433 388.511 318.687 389.884Z" fill="#3653DB"/>
</svg>
