<svg width="350" height="297" viewBox="0 0 350 297" fill="none" xmlns="http://www.w3.org/2000/svg">
<path d="M142.314 0.911794C142.774 0.91247 143.234 0.913146 143.707 0.913842C150.297 0.93017 156.752 1.0511 163.264 2.14006C163.878 2.23846 163.878 2.23846 164.504 2.33885C178.093 4.55623 191.244 8.44799 203.681 14.3763C204.182 14.6136 204.182 14.6136 204.692 14.8558C212.148 18.416 219.324 22.6055 225.901 27.6221C226.201 27.8481 226.5 28.074 226.809 28.3068C227.384 28.7442 227.955 29.1882 228.52 29.6395C229.249 30.1928 229.92 30.6746 230.749 31.0622C231.935 30.9629 231.935 30.9629 232.974 30.3206C233.347 30.1308 233.72 29.941 234.105 29.7455C234.504 29.53 234.903 29.3144 235.314 29.0923C244.972 24.0971 256.56 23.8778 266.805 27.0891C277.134 30.5734 284.918 37.7945 290.239 47.1918C295.157 55.8461 301.491 59.4341 310.787 62.3957C314.419 63.5807 317.547 65.1191 320.852 67.0294C320.363 69.599 319.874 72.1686 319.369 74.8161C319.966 73.864 319.966 73.864 320.574 72.8926C321.458 71.4815 322.387 70.1673 323.448 68.8834C332.338 71.9526 340.204 83.6476 344.176 91.6598C350.883 105.896 351.873 122.396 346.75 137.276C344.273 144.129 340.79 150.102 336.055 155.65C335.801 155.949 335.548 156.248 335.286 156.556C331.446 160.954 327.217 164.365 322.336 167.515C321.971 167.756 321.605 167.996 321.229 168.244C312.364 173.765 301.721 176.118 291.397 176.159C290.972 176.161 290.546 176.163 290.107 176.166C287.198 176.141 284.41 175.818 281.548 175.302C281.465 175.708 281.382 176.113 281.297 176.531C280.437 180.628 279.325 184.573 277.979 188.535C277.882 188.823 277.785 189.112 277.684 189.41C276.017 194.348 274.157 199.147 271.907 203.853C271.725 204.238 271.543 204.623 271.356 205.019C266.756 214.682 261.131 223.654 254.48 232.034C254.21 232.375 253.941 232.717 253.663 233.069C251.797 235.395 249.813 237.589 247.778 239.767C246.807 240.807 245.855 241.863 244.909 242.926C242.918 245.142 240.848 247.196 238.589 249.139C237.738 249.881 236.91 250.644 236.079 251.408C220.162 265.728 200.443 275.56 179.95 281.35C179.449 281.492 179.449 281.492 178.938 281.636C177.053 282.169 175.166 282.691 173.276 283.203C173.528 283.254 173.781 283.304 174.041 283.356C175.185 283.587 176.328 283.824 177.47 284.061C177.868 284.14 178.265 284.219 178.675 284.301C179.056 284.381 179.437 284.461 179.83 284.543C180.181 284.615 180.533 284.687 180.895 284.761C181.879 285.082 182.306 285.341 182.916 286.17C183.102 287.444 183.102 287.444 182.916 288.765C181.093 290.482 178.889 291.302 176.613 292.265C176.212 292.444 175.812 292.624 175.399 292.809C175.012 292.973 174.625 293.137 174.226 293.306C173.874 293.458 173.523 293.61 173.161 293.766C172.163 293.957 172.163 293.957 171.154 293.487C170.309 292.844 170.309 292.844 169.568 292.103C169.69 292.959 169.812 293.816 169.938 294.698C169.478 294.959 169.014 295.212 168.548 295.463C168.29 295.605 168.032 295.747 167.766 295.893C166.784 296.25 166.438 296.243 165.489 295.811C165.014 294.867 165.014 294.867 164.614 293.623C164.468 293.178 164.323 292.732 164.172 292.274C164.099 292.04 164.026 291.807 163.951 291.566C163.729 290.855 163.498 290.146 163.266 289.437C162.152 285.981 162.152 285.981 162.152 284.687C161.934 284.735 161.716 284.784 161.491 284.834C129.712 291.603 92.9057 281.142 64.8873 263.457C60.4023 260.531 56.1107 257.374 52.0253 253.911C51.6592 253.609 51.293 253.306 50.9158 252.995C46.1987 249.088 41.4082 244.929 37.4252 240.261C36.7433 239.467 36.0581 238.683 35.3453 237.917C13.7937 214.714 0.168194 180.831 0.0385336 149.184C0.0359159 148.757 0.0332982 148.331 0.0306012 147.891C-0.0530516 130.261 -0.0530517 130.261 1.22624 122.649C1.29991 122.19 1.37358 121.73 1.44948 121.257C4.94854 99.6506 13.0705 78.4455 26.0696 60.7258C25.7034 60.6274 25.3373 60.5289 24.9601 60.4275C24.4801 60.2953 24.0002 60.163 23.5204 60.0306C23.279 59.9661 23.0376 59.9015 22.7889 59.8351C20.9624 59.3267 20.9624 59.3267 20.1368 58.5011C20.2288 56.1114 21.0029 54.6645 22.6832 52.9913C25.4937 50.4247 27.8621 50.1806 31.5511 49.8945C32.0333 49.853 32.0333 49.853 32.5252 49.8105C32.8163 49.7881 33.1074 49.7656 33.4074 49.7425C34.975 49.4738 35.8305 48.8339 36.8169 47.6176C38.5181 45.6086 40.3791 43.7651 42.2427 41.9088C42.8534 41.3001 43.462 40.6895 44.0706 40.0786C44.4606 39.6888 44.8507 39.2992 45.2409 38.9097C45.4217 38.7282 45.6024 38.5467 45.7887 38.3596C46.6004 37.5535 47.3606 36.8911 48.3173 36.2533C48.2906 35.9483 48.2638 35.6434 48.2362 35.3292C47.6203 27.9203 48.3951 21.5416 52.9002 15.4105C56.7217 10.9682 61.993 8.12881 67.8175 7.41376C73.6215 7.0348 78.6897 8.27457 83.4792 11.6127C84.2938 12.2092 84.2938 12.2092 85.397 12.5223C86.3667 12.2402 86.3667 12.2402 87.4378 11.7706C87.853 11.6005 88.2682 11.4305 88.6959 11.2552C89.1444 11.0692 89.593 10.8832 90.0551 10.6915C101.197 6.17803 112.77 3.25043 124.701 1.76926C124.953 1.73693 125.205 1.70459 125.465 1.67128C131.078 0.967532 136.662 0.894579 142.314 0.911794Z" fill="#CBCBCC"/>
<path d="M279.254 33.7967C283.841 37.7642 287.262 41.9349 290.239 47.1917C295.157 55.846 301.491 59.434 310.787 62.3956C314.419 63.5807 317.547 65.119 320.853 67.0293C320.363 69.5989 319.874 72.1685 319.369 74.816C319.966 73.8639 319.966 73.8639 320.574 72.8925C321.458 71.4814 322.387 70.1673 323.448 68.8833C332.338 71.9525 340.204 83.6475 344.176 91.6597C350.883 105.896 351.873 122.396 346.75 137.276C344.273 144.129 340.79 150.102 336.055 155.65C335.801 155.949 335.548 156.248 335.286 156.556C331.446 160.954 327.217 164.365 322.336 167.515C321.971 167.755 321.605 167.996 321.229 168.244C312.364 173.765 301.721 176.118 291.397 176.159C290.972 176.161 290.546 176.163 290.107 176.165C287.198 176.141 284.41 175.817 281.548 175.302C281.465 175.707 281.382 176.113 281.297 176.531C280.437 180.628 279.325 184.573 277.979 188.535C277.882 188.823 277.785 189.112 277.684 189.41C276.017 194.348 274.157 199.147 271.907 203.853C271.725 204.238 271.543 204.623 271.356 205.019C266.757 214.682 261.131 223.654 254.48 232.034C254.21 232.375 253.941 232.717 253.663 233.069C251.797 235.395 249.813 237.589 247.778 239.767C246.807 240.807 245.855 241.863 244.909 242.926C242.924 245.136 240.859 247.184 238.61 249.124C237.082 250.45 235.587 251.813 234.086 253.169C232.41 251.659 231.348 250.002 230.239 248.047C230.061 247.734 229.882 247.422 229.699 247.099C225.805 240.159 222.459 232.006 221.673 224.046C221.644 223.749 221.615 223.453 221.585 223.148C221.531 222.57 221.485 221.991 221.445 221.411C221.205 218.584 220.026 216.763 218.072 214.699C216.604 213.111 215.229 211.473 213.869 209.792C212.599 208.245 211.291 206.73 209.979 205.219C209.18 204.294 208.439 203.388 207.76 202.37C206.692 202.805 206.136 203.252 205.303 204.085C205.013 204.375 204.722 204.666 204.423 204.965C204.178 204.965 203.933 204.965 203.681 204.965C203.681 214.999 203.681 225.033 203.681 235.371C208.698 235.371 213.715 235.371 218.884 235.371C222.57 237.214 224.734 238.683 226.3 242.416C226.74 246.141 226.372 249.157 224.075 252.126C222 254.293 219.37 255.456 216.375 255.617C215.606 255.622 214.837 255.617 214.067 255.604C213.644 255.604 213.22 255.605 212.783 255.605C211.397 255.604 210.011 255.589 208.624 255.575C207.658 255.571 206.691 255.569 205.724 255.567C203.448 255.561 201.173 255.546 198.897 255.527C196.304 255.506 193.71 255.496 191.117 255.487C185.788 255.468 180.459 255.435 175.13 255.394C175.252 256.006 175.374 256.617 175.5 257.248C176.112 257.003 176.724 256.758 177.354 256.506C177.403 256.735 177.452 256.963 177.503 257.199C177.828 258.254 178.149 258.975 178.838 259.843C180.457 260.517 182.111 260.7 183.843 260.909C184.752 261.036 185.659 261.166 186.566 261.3C187.17 261.376 187.17 261.376 187.785 261.454C188.919 261.713 189.508 261.996 190.332 262.81C190.495 263.922 190.495 263.922 190.332 265.034C189.001 266.731 186.698 267.407 184.794 268.279C184.387 268.472 183.98 268.664 183.56 268.863C183.168 269.043 182.777 269.223 182.373 269.409C182.015 269.574 181.657 269.74 181.288 269.911C180.244 270.251 179.837 270.274 178.838 269.855C178.204 269.38 177.583 268.888 176.984 268.372C177.106 269.35 177.228 270.329 177.354 271.338C174.898 272.821 174.898 272.821 173.646 272.821C173.063 271.205 172.483 269.589 171.904 267.971C171.707 267.421 171.509 266.871 171.31 266.321C171.025 265.531 170.742 264.741 170.46 263.95C170.371 263.704 170.281 263.458 170.19 263.205C169.816 262.153 169.568 261.34 169.568 260.214C169.812 259.969 170.057 259.725 170.309 259.472C170.149 259.124 170.149 259.124 169.985 258.769C169.847 258.466 169.71 258.162 169.568 257.85C169.43 257.549 169.292 257.248 169.151 256.938C168.826 256.135 168.826 256.135 168.826 255.394C168.092 255.638 167.358 255.883 166.601 256.135C165.255 253.81 163.909 251.486 162.523 249.09C162.79 249.947 163.058 250.803 163.334 251.686C164.454 255.27 165.574 258.854 166.694 262.439C166.771 262.684 166.847 262.929 166.926 263.181C167.08 263.673 167.233 264.164 167.386 264.655C167.786 265.939 168.19 267.221 168.6 268.502C168.685 268.767 168.769 269.033 168.856 269.306C169.016 269.81 169.178 270.314 169.341 270.818C169.785 272.219 170.103 273.59 170.309 275.046C169.066 275.172 167.822 275.294 166.578 275.417C166.229 275.452 165.879 275.487 165.519 275.524C165.176 275.557 164.833 275.591 164.479 275.625C164.167 275.656 163.854 275.687 163.532 275.719C162.328 275.801 161.133 275.798 159.927 275.788C159.62 275.16 159.62 275.16 159.308 274.521C159.17 274.24 159.033 273.959 158.892 273.67C158.577 273.026 158.262 272.382 157.947 271.738C157.051 269.904 156.154 268.069 155.257 266.235C153.518 262.678 151.779 259.122 150.041 255.565C149.304 254.055 148.566 252.545 147.828 251.035C147.476 250.315 147.125 249.596 146.773 248.876C146.279 247.864 145.785 246.853 145.291 245.841C145.148 245.548 145.005 245.256 144.857 244.954C144.72 244.673 144.583 244.393 144.442 244.104C144.309 243.831 144.176 243.558 144.038 243.278C143.728 242.651 143.413 242.027 143.096 241.405C142.925 241.071 142.755 240.738 142.58 240.394C142.423 240.09 142.266 239.785 142.105 239.471C141.758 238.708 141.758 238.708 141.758 237.966C141.197 238.126 141.197 238.126 140.625 238.289C138.428 238.837 136.186 239.095 133.942 239.377C133.192 239.472 132.443 239.569 131.694 239.667C120.332 241.136 108.316 241.379 96.938 239.959C96.4993 239.907 96.0605 239.855 95.6085 239.802C91.6552 239.223 88.1209 237.82 85.5462 234.675C83.6932 231.868 83.528 229.362 83.9138 226.101C84.9141 222.771 87.2568 220.035 89.3671 217.331C89.6456 216.954 89.6456 216.954 89.9296 216.571C90.5881 215.719 90.5881 215.719 91.4914 214.729C93.5417 212.266 94.2171 210.512 93.9659 207.289C93.8306 205.922 93.6492 204.565 93.4618 203.204C93.3751 202.479 93.2903 201.753 93.2072 201.027C93.0807 199.929 92.9521 198.831 92.8155 197.734C92.5387 195.509 92.3258 193.292 92.1872 191.055C91.8332 185.524 91.1511 180.704 88.7052 175.663C88.2067 174.596 87.8288 173.499 87.4595 172.382C87.353 172.062 87.2464 171.741 87.1365 171.411C86.1745 167.922 86.0172 164.864 87.8159 161.653C89.1875 159.618 90.9744 158.749 93.1663 157.841C94.0157 157.463 94.6873 156.974 95.4085 156.391C95.7756 156.269 96.1427 156.146 96.5209 156.02C96.9462 155.179 97.2506 154.321 97.5739 153.436C98.0041 152.683 98.0041 152.683 98.64 152.44C100.455 152.166 102.312 152.557 104.122 152.776C104.545 152.821 104.968 152.867 105.404 152.914C106.014 152.986 106.014 152.986 106.637 153.06C107.193 153.125 107.193 153.125 107.761 153.191C108.85 153.447 109.424 153.781 110.24 154.537C110.547 155.311 110.547 155.311 110.704 156.159C110.759 156.438 110.815 156.716 110.872 157.002C110.988 157.92 111.002 158.804 110.982 159.728C111.29 159.651 111.598 159.574 111.915 159.495C112.635 159.315 113.356 159.135 114.077 158.955C115.851 158.512 117.625 158.067 119.399 157.621C120.056 157.456 120.056 157.456 120.727 157.288C121.634 157.06 122.542 156.83 123.449 156.599C125.363 156.113 127.265 155.636 129.21 155.296C132.602 154.69 134.65 153.633 137.027 151.149C137.998 150.142 138.994 149.285 140.089 148.419C141.564 147.233 142.969 145.999 144.354 144.711C146.699 142.53 149.1 140.372 151.769 138.593C152.014 138.838 152.259 139.082 152.511 139.335C152.741 139.09 152.97 138.845 153.206 138.593C153.994 137.851 153.994 137.851 154.736 137.851C154.736 137.607 154.736 137.362 154.736 137.11C155.294 136.561 155.294 136.561 156.057 135.928C157.549 134.66 158.929 133.317 160.298 131.919C160.916 131.301 161.534 130.683 162.152 130.065C162.419 129.789 162.687 129.514 162.963 129.23C164.252 127.986 165.434 128.091 167.155 128.101C168.085 128.211 168.085 128.211 169.151 128.929C170.897 130.081 172.708 129.998 174.759 130.065C174.591 129.621 174.422 129.178 174.249 128.721C171.077 118.964 172.537 107.409 177.012 98.3223C181.13 90.3671 187.377 84.6413 195.037 80.1694C197.503 78.728 199.695 77.0976 201.827 75.1868C202.084 74.9603 202.341 74.7337 202.606 74.5003C208.072 69.3826 211.224 62.6309 213.43 55.6167C215.696 48.5175 219.111 41.2471 225.187 36.624C225.49 37.0815 225.49 37.0815 225.8 37.5481C228.869 42.2079 228.869 42.2079 232.974 45.8939C232.653 45.286 232.653 45.286 232.325 44.6657C230.811 41.6215 229.776 38.5024 229.266 35.1409C229.151 34.5443 229.151 34.5443 229.034 33.9358C229.358 32.5106 230.01 32.0967 231.202 31.2982C246.187 22.4678 265.378 22.7785 279.254 33.7967Z" fill="#00AAEA"/>
<path d="M48.6881 35.8823C49.8002 36.4383 49.8908 37.2678 50.3335 38.4084C50.8865 39.8316 51.4176 41.0077 52.3961 42.1859C52.6313 42.1323 52.8664 42.0788 53.1087 42.0236C62.7879 40.0985 71.5411 42.3069 79.835 47.377C83.2679 49.6785 86.3891 52.4229 89.4757 55.1637C89.7787 55.4304 90.0818 55.6971 90.394 55.9719C91.1211 56.6469 91.1211 56.6469 92.0713 57.7593C91.9453 58.5704 91.9453 58.5704 91.7005 59.2425C90.2183 59.5563 88.7348 59.8634 87.2509 60.1695C86.8337 60.2579 86.4164 60.3463 85.9865 60.4374C85.3735 60.5629 85.3735 60.5629 84.7481 60.6909C84.1888 60.8074 84.1888 60.8074 83.6183 60.9263C82.4306 61.0965 82.4306 61.0965 79.4642 61.0965C79.4642 118.607 79.4642 176.117 79.4642 235.371C75.671 235.493 71.8777 235.615 67.9695 235.741C64.2932 237.58 62.474 238.77 60.9244 242.416C60.5066 245.947 60.8862 248.717 62.7552 251.732C64.9915 254.113 67.8148 255.113 70.9964 255.279C72.7874 255.325 74.5764 255.321 76.3679 255.309C77.1759 255.312 77.9838 255.316 78.7918 255.321C80.9742 255.332 83.1564 255.329 85.3388 255.323C87.6236 255.32 89.9084 255.329 92.1932 255.337C96.5148 255.349 100.836 255.351 105.158 255.348C110.08 255.346 115.002 255.356 119.924 255.367C130.045 255.39 140.166 255.397 150.286 255.394C151.243 257.298 152.199 259.203 153.154 261.108C153.477 261.754 153.801 262.399 154.126 263.044C159.927 274.59 159.927 274.59 159.927 275.787C160.366 275.734 160.805 275.68 161.257 275.625C164.289 275.265 167.25 274.947 170.309 275.046C170.219 274.812 170.13 274.577 170.037 274.336C169.319 272.42 168.678 270.505 168.131 268.534C167.559 266.478 166.916 264.459 166.23 262.439C165.41 260.018 164.668 257.589 163.987 255.124C163.516 253.502 162.959 251.914 162.388 250.324C162.152 249.461 162.152 249.461 162.523 248.719C163.205 249.815 163.884 250.912 164.562 252.01C164.756 252.322 164.951 252.634 165.151 252.956C165.335 253.255 165.519 253.553 165.709 253.861C165.88 254.137 166.051 254.413 166.227 254.697C166.601 255.394 166.601 255.394 166.601 256.135C166.968 255.89 167.335 255.646 167.714 255.394C168.081 255.394 168.448 255.394 168.826 255.394C169.438 256.862 170.05 258.33 170.68 259.843C170.313 259.966 169.946 260.088 169.568 260.214C169.691 260.556 169.815 260.899 169.942 261.251C170.4 262.522 170.855 263.793 171.31 265.064C171.507 265.614 171.705 266.164 171.904 266.714C172.189 267.504 172.472 268.295 172.754 269.086C172.843 269.331 172.933 269.577 173.025 269.83C173.398 270.882 173.646 271.695 173.646 272.821C174.748 272.332 175.849 271.842 176.984 271.338C176.861 270.237 176.739 269.135 176.613 268.001C176.949 268.238 177.286 268.475 177.632 268.719C178.908 269.553 178.908 269.553 180.321 269.855C181.331 269.531 181.331 269.531 182.386 268.999C182.78 268.813 183.173 268.628 183.578 268.437C183.987 268.24 184.396 268.042 184.817 267.838C185.628 267.452 186.44 267.066 187.253 266.681C187.792 266.421 187.792 266.421 188.342 266.156C189.22 265.776 189.22 265.776 189.961 265.776C189.996 265.065 189.996 265.065 190.031 264.339C190.05 263.939 190.05 263.939 190.07 263.531C190.034 263.293 189.998 263.055 189.961 262.81C188.737 261.993 188.044 261.89 186.603 261.694C186.161 261.626 185.72 261.558 185.265 261.489C184.335 261.35 183.404 261.219 182.472 261.097C179.162 260.568 179.162 260.568 178.193 259.512C177.671 258.496 177.354 257.652 177.354 256.506C176.743 256.751 176.131 256.995 175.5 257.248C175.378 256.636 175.256 256.024 175.13 255.394C175.349 255.394 175.569 255.394 175.795 255.394C181.153 255.397 186.511 255.387 191.868 255.364C194.46 255.353 197.051 255.346 199.642 255.349C202.145 255.352 204.647 255.343 207.15 255.327C208.103 255.323 209.055 255.323 210.008 255.327C216.893 255.591 216.893 255.591 222.962 252.798C225.151 250.537 226.031 248.246 226.091 245.081C226.043 242.254 225.378 240.484 223.465 238.421C220.991 236.131 218.583 235.576 215.304 235.552C215.008 235.545 214.712 235.539 214.407 235.533C213.311 235.512 212.216 235.5 211.12 235.486C209.793 235.467 208.466 235.446 207.139 235.424C206.48 235.414 205.82 235.404 205.161 235.394C204.673 235.386 204.184 235.378 203.681 235.371C203.612 231.451 203.559 227.532 203.527 223.612C203.512 221.792 203.491 219.972 203.457 218.152C203.425 216.394 203.407 214.637 203.399 212.879C203.394 212.21 203.383 211.54 203.367 210.871C203.247 205.658 203.247 205.658 204.309 203.962C205.632 202.731 206.291 202.37 208.13 202.37C208.84 203.072 209.439 203.747 210.054 204.525C210.233 204.745 210.413 204.964 210.598 205.191C211.139 205.854 211.674 206.522 212.209 207.19C212.757 207.863 213.305 208.535 213.855 209.206C214.119 209.533 214.384 209.859 214.657 210.196C215.326 211.002 216.002 211.797 216.691 212.585C216.889 212.813 217.087 213.041 217.291 213.275C217.677 213.716 218.064 214.156 218.453 214.594C220.522 216.964 221.647 218.987 221.85 222.161C222.859 233.275 227.491 243.656 233.715 252.798C232.387 254.508 231.01 255.788 229.266 257.062C229.011 257.251 228.755 257.439 228.492 257.633C222.921 261.703 217.14 265.417 211.097 268.742C210.775 268.921 210.453 269.1 210.122 269.284C199.272 275.267 187.402 279.743 175.321 282.521C174.083 282.765 174.083 282.765 173.276 283.203C173.528 283.254 173.781 283.304 174.041 283.356C175.185 283.586 176.328 283.824 177.47 284.061C177.868 284.14 178.265 284.219 178.675 284.3C179.056 284.381 179.437 284.461 179.83 284.543C180.181 284.615 180.533 284.687 180.895 284.761C181.879 285.082 182.306 285.341 182.916 286.17C183.102 287.444 183.102 287.444 182.916 288.765C181.093 290.482 178.889 291.302 176.613 292.265C176.212 292.444 175.812 292.624 175.399 292.809C175.012 292.973 174.625 293.137 174.226 293.306C173.874 293.458 173.523 293.609 173.161 293.766C172.163 293.956 172.163 293.956 171.154 293.487C170.309 292.844 170.309 292.844 169.568 292.102C169.69 292.959 169.812 293.815 169.938 294.698C169.478 294.958 169.014 295.212 168.548 295.463C168.29 295.605 168.032 295.747 167.766 295.893C166.784 296.249 166.438 296.243 165.489 295.81C165.014 294.867 165.014 294.867 164.614 293.623C164.468 293.178 164.322 292.732 164.172 292.273C164.099 292.04 164.026 291.807 163.951 291.566C163.729 290.854 163.498 290.146 163.266 289.437C162.152 285.981 162.152 285.981 162.152 284.686C161.934 284.735 161.716 284.784 161.491 284.834C129.712 291.603 92.9057 281.141 64.8873 263.457C60.4023 260.531 56.1107 257.374 52.0253 253.91C51.6592 253.608 51.293 253.306 50.9158 252.995C46.1987 249.088 41.4082 244.928 37.4252 240.26C36.7433 239.467 36.0581 238.683 35.3453 237.917C13.7937 214.714 0.168194 180.83 0.0385336 149.184C0.0359159 148.757 0.0332982 148.33 0.0306012 147.891C-0.0530516 130.261 -0.0530516 130.261 1.22624 122.649C1.29991 122.189 1.37358 121.73 1.44948 121.257C4.94854 99.6504 13.0705 78.4453 26.0696 60.7257C25.5204 60.578 25.5204 60.578 24.9601 60.4273C24.4801 60.2951 24.0002 60.1628 23.5204 60.0304C23.279 59.9659 23.0376 59.9014 22.7889 59.8349C20.9624 59.3265 20.9624 59.3265 20.1368 58.5009C20.2287 56.1112 21.0029 54.6643 22.6832 52.9911C25.4937 50.4245 27.8621 50.1804 31.5511 49.8944C31.8726 49.8666 32.194 49.8389 32.5252 49.8104C32.8163 49.7879 33.1074 49.7654 33.4074 49.7423C34.9759 49.4734 35.8313 48.8328 36.8183 47.616C38.513 45.6148 40.366 43.7781 42.2223 41.929C42.8289 41.3244 43.4335 40.7178 44.038 40.111C44.4268 39.7225 44.8157 39.334 45.2047 38.9457C45.3835 38.7661 45.5624 38.5865 45.7467 38.4015C46.677 37.4775 47.6156 36.6377 48.6881 35.8823Z" fill="#F0F0F0"/>
<path d="M168.085 128.211C168.601 128.566 168.601 128.566 169.127 128.929C170.975 130.125 172.972 130.001 175.13 130.065C175.252 130.402 175.373 130.739 175.499 131.086C179.27 141.183 185.976 148.299 195.205 153.74C197.498 154.662 200.16 153.114 202.381 152.311C202.669 152.211 202.957 152.111 203.254 152.008C203.514 151.915 203.774 151.823 204.042 151.727C204.908 151.547 205.445 151.667 206.277 151.942C205.999 152.112 205.722 152.282 205.436 152.457C205.071 152.685 204.706 152.912 204.33 153.147C203.968 153.37 203.607 153.594 203.235 153.824C202.273 154.485 201.507 155.168 200.715 156.02C204.157 157.001 207.537 157.789 211.097 158.245C211.097 158.367 211.097 158.49 211.097 158.616C210.118 158.738 209.139 158.861 208.13 158.987C208.375 159.843 208.62 160.7 208.872 161.582C208.362 161.104 207.868 160.608 207.389 160.099C207.389 159.854 207.389 159.61 207.389 159.357C206.978 159.567 206.567 159.777 206.143 159.993C205.601 160.268 205.058 160.543 204.515 160.817C204.245 160.956 203.974 161.094 203.695 161.237C203.433 161.369 203.17 161.502 202.899 161.639C202.658 161.761 202.417 161.883 202.169 162.009C200.642 162.683 199.378 162.72 197.713 162.653C197.048 162.636 197.048 162.636 196.369 162.619C195.446 162.592 194.523 162.559 193.6 162.517C189.99 162.446 187.05 163.201 184.313 165.665C182.04 168.065 180.925 170.545 180.692 173.819C181.793 174.308 182.894 174.797 184.029 175.302C184.029 175.424 184.029 175.546 184.029 175.672C182.805 175.672 181.581 175.672 180.321 175.672C181.131 178.628 182.123 181.319 183.558 184.03C184.364 185.593 184.426 186.702 184.371 188.44C184.361 188.919 184.351 189.397 184.342 189.889C184.321 190.89 184.29 191.888 184.255 192.888C184.19 196.945 184.965 200.643 187.834 203.682C189.041 204.697 190.39 205.416 191.815 206.078C192.095 206.215 192.374 206.352 192.661 206.493C193.983 206.921 195.239 206.927 196.613 206.912C196.869 206.915 197.125 206.918 197.388 206.921C199.002 206.915 200.349 206.735 201.827 206.078C202.361 205.147 202.361 205.147 202.569 204.224C203.117 204.6 203.117 204.6 203.681 205.336C203.785 206.327 203.822 207.23 203.807 208.22C203.807 208.513 203.808 208.806 203.808 209.108C203.807 210.077 203.798 211.046 203.79 212.015C203.788 212.687 203.786 213.358 203.785 214.03C203.781 215.799 203.77 217.567 203.757 219.335C203.746 221.14 203.741 222.944 203.735 224.749C203.723 228.289 203.704 231.83 203.681 235.371C204.484 235.358 205.288 235.345 206.091 235.333C206.771 235.322 207.451 235.312 208.131 235.301C209.532 235.28 210.933 235.257 212.333 235.226C220.315 235.05 220.315 235.05 223.376 237.974C225.362 240.063 226.458 242.032 226.439 244.965C226.353 248.237 225.702 250.426 223.411 252.819C220.688 255.213 217.566 255.664 214.067 255.604C213.644 255.604 213.22 255.605 212.783 255.605C211.397 255.604 210.011 255.589 208.624 255.575C207.658 255.571 206.691 255.569 205.724 255.567C203.448 255.561 201.173 255.546 198.897 255.527C196.304 255.506 193.71 255.496 191.117 255.487C185.788 255.468 180.459 255.435 175.13 255.394C175.252 256.005 175.374 256.617 175.5 257.248C176.112 257.003 176.724 256.758 177.354 256.506C177.403 256.735 177.452 256.963 177.503 257.199C177.828 258.254 178.149 258.975 178.838 259.843C180.457 260.516 182.111 260.7 183.843 260.909C184.752 261.036 185.659 261.166 186.566 261.3C187.17 261.376 187.17 261.376 187.785 261.454C188.919 261.713 189.508 261.996 190.332 262.81C190.495 263.922 190.495 263.922 190.332 265.034C189.001 266.731 186.698 267.407 184.794 268.279C184.387 268.471 183.98 268.664 183.56 268.863C183.168 269.043 182.777 269.223 182.373 269.409C182.015 269.574 181.657 269.74 181.288 269.911C180.244 270.251 179.837 270.274 178.838 269.855C178.204 269.38 177.583 268.888 176.984 268.372C177.106 269.35 177.228 270.329 177.354 271.338C174.898 272.821 174.898 272.821 173.646 272.821C173.063 271.205 172.483 269.589 171.904 267.971C171.707 267.421 171.509 266.871 171.31 266.321C171.025 265.531 170.742 264.74 170.46 263.949C170.371 263.704 170.281 263.458 170.19 263.205C169.816 262.153 169.568 261.34 169.568 260.214C169.812 259.969 170.057 259.725 170.309 259.472C170.202 259.24 170.095 259.008 169.985 258.768C169.847 258.465 169.71 258.162 169.568 257.85C169.43 257.549 169.292 257.248 169.151 256.938C168.826 256.135 168.826 256.135 168.826 255.394C168.092 255.638 167.358 255.883 166.601 256.135C165.255 253.81 163.909 251.485 162.523 249.09C162.79 249.947 163.058 250.803 163.334 251.686C164.454 255.27 165.574 258.854 166.694 262.439C166.771 262.684 166.847 262.929 166.926 263.181C167.08 263.673 167.233 264.164 167.386 264.655C167.786 265.939 168.19 267.221 168.6 268.502C168.685 268.767 168.769 269.032 168.856 269.306C169.016 269.81 169.178 270.314 169.341 270.818C169.785 272.219 170.103 273.59 170.309 275.046C169.066 275.172 167.822 275.294 166.578 275.417C166.054 275.47 166.054 275.47 165.519 275.524C165.176 275.557 164.833 275.591 164.479 275.625C164.01 275.672 164.01 275.672 163.532 275.719C162.328 275.801 161.133 275.798 159.927 275.787C159.723 275.369 159.518 274.951 159.308 274.521C159.17 274.24 159.033 273.959 158.892 273.67C158.577 273.026 158.262 272.382 157.947 271.738C157.051 269.904 156.154 268.069 155.257 266.235C153.518 262.678 151.779 259.122 150.041 255.565C149.304 254.055 148.566 252.545 147.828 251.035C147.476 250.315 147.125 249.596 146.773 248.876C146.279 247.864 145.785 246.853 145.291 245.841C145.148 245.548 145.005 245.255 144.857 244.954C144.72 244.673 144.583 244.393 144.442 244.104C144.309 243.831 144.176 243.558 144.038 243.277C143.728 242.651 143.413 242.027 143.096 241.405C142.925 241.071 142.755 240.738 142.58 240.394C142.423 240.089 142.266 239.785 142.105 239.471C141.758 238.708 141.758 238.708 141.758 237.966C141.197 238.126 141.197 238.126 140.625 238.289C138.428 238.837 136.186 239.095 133.942 239.377C133.192 239.471 132.443 239.569 131.694 239.667C120.332 241.136 108.316 241.379 96.938 239.959C96.4993 239.907 96.0605 239.855 95.6085 239.802C91.6552 239.223 88.1209 237.82 85.5462 234.675C83.6932 231.868 83.528 229.362 83.9138 226.101C84.9141 222.771 87.2568 220.035 89.3671 217.331C89.6456 216.954 89.6456 216.954 89.9296 216.571C90.5881 215.718 90.5881 215.718 91.4914 214.729C93.5417 212.266 94.2171 210.512 93.9659 207.289C93.8306 205.922 93.6492 204.564 93.4618 203.204C93.3751 202.479 93.2903 201.753 93.2072 201.027C93.0807 199.929 92.9521 198.831 92.8155 197.734C92.5387 195.509 92.3258 193.292 92.1872 191.055C91.8332 185.524 91.1511 180.704 88.7052 175.663C88.2067 174.596 87.8288 173.499 87.4595 172.382C87.353 172.061 87.2464 171.741 87.1365 171.411C86.1745 167.922 86.0172 164.864 87.8159 161.653C89.1875 159.618 90.9744 158.749 93.1663 157.841C94.0157 157.463 94.6873 156.974 95.4085 156.391C95.9591 156.208 95.9591 156.208 96.5209 156.02C96.9462 155.179 97.2506 154.321 97.5739 153.436C98.0041 152.683 98.0041 152.683 98.64 152.44C100.455 152.166 102.312 152.557 104.122 152.776C104.545 152.821 104.968 152.867 105.404 152.913C105.811 152.962 106.218 153.01 106.637 153.06C107.008 153.103 107.379 153.146 107.761 153.19C108.85 153.447 109.424 153.781 110.24 154.537C110.547 155.311 110.547 155.311 110.704 156.159C110.759 156.438 110.815 156.716 110.872 157.002C110.988 157.92 111.002 158.804 110.982 159.728C111.29 159.651 111.598 159.574 111.915 159.495C112.635 159.315 113.356 159.135 114.077 158.955C115.851 158.512 117.625 158.067 119.399 157.621C120.056 157.456 120.056 157.456 120.727 157.288C121.634 157.06 122.542 156.83 123.449 156.598C125.363 156.113 127.265 155.636 129.21 155.296C132.602 154.69 134.65 153.633 137.027 151.149C137.998 150.142 138.994 149.285 140.089 148.419C141.564 147.233 142.969 145.999 144.354 144.711C146.699 142.53 149.1 140.372 151.769 138.593C152.137 138.96 152.137 138.96 152.511 139.334C152.855 138.967 152.855 138.967 153.206 138.593C153.994 137.851 153.994 137.851 154.736 137.851C154.736 137.607 154.736 137.362 154.736 137.11C155.294 136.561 155.294 136.561 156.057 135.928C157.549 134.66 158.929 133.317 160.298 131.919C160.916 131.301 161.534 130.683 162.152 130.065C162.419 129.789 162.687 129.514 162.963 129.23C164.415 127.828 166.166 127.983 168.085 128.211Z" fill="#CBCBCC"/>
<path d="M199.602 77.041C199.602 78.5107 198.9 79.284 198.096 80.4477C191.958 89.7168 190.176 100.708 192.247 111.551C192.879 114.57 193.817 117.271 195.153 120.053C195.26 120.281 195.367 120.509 195.477 120.743C197.253 124.476 199.499 127.682 202.198 130.806C202.556 131.222 202.556 131.222 202.922 131.647C205.199 134.082 207.986 135.977 210.726 137.852C211.105 138.114 211.484 138.375 211.875 138.645C213.623 139.772 213.623 139.772 215.627 140.013C216.505 139.727 217.306 139.354 218.142 138.964C218.98 138.673 219.822 138.396 220.668 138.13C221.068 137.998 221.468 137.866 221.88 137.73C222.938 137.486 223.446 137.474 224.445 137.852C224.164 138.026 223.882 138.2 223.592 138.38C223.04 138.727 223.04 138.727 222.476 139.08C222.11 139.308 221.744 139.536 221.368 139.771C220.544 140.327 219.935 140.851 219.254 141.56C221.251 142.36 223.133 142.942 225.257 143.274C225.553 143.321 225.848 143.368 226.153 143.416C229.408 143.88 232.67 143.942 235.951 144.031C253.123 144.506 269.511 148.861 285.125 155.954C289.124 157.766 293.113 159.139 297.376 160.192C297.619 160.253 297.861 160.313 298.11 160.376C309.715 163.068 322.577 161.252 333.368 156.523C334.572 156.021 334.572 156.021 335.313 156.021C332.384 162.953 321.7 168.562 315.124 171.328C307.337 174.469 299.819 176.125 291.397 176.159C290.971 176.162 290.546 176.164 290.107 176.166C287.198 176.141 284.41 175.818 281.548 175.302C281.465 175.708 281.382 176.113 281.297 176.531C280.437 180.628 279.325 184.573 277.979 188.535C277.882 188.824 277.785 189.112 277.684 189.41C276.017 194.348 274.157 199.148 271.907 203.853C271.725 204.238 271.543 204.623 271.356 205.019C266.756 214.682 261.131 223.655 254.48 232.034C254.21 232.376 253.941 232.717 253.663 233.069C251.797 235.395 249.813 237.59 247.778 239.767C246.807 240.807 245.855 241.863 244.909 242.926C242.924 245.136 240.859 247.184 238.61 249.124C237.082 250.45 235.587 251.813 234.086 253.169C232.409 251.659 231.348 250.003 230.239 248.048C230.061 247.735 229.882 247.422 229.698 247.099C225.805 240.159 222.458 232.006 221.673 224.046C221.644 223.749 221.615 223.453 221.584 223.148C221.531 222.57 221.484 221.991 221.445 221.412C221.205 218.584 220.026 216.763 218.072 214.699C216.604 213.111 215.228 211.473 213.869 209.792C212.599 208.245 211.291 206.731 209.979 205.219C209.18 204.294 208.438 203.388 207.76 202.37C206.559 202.906 205.676 203.578 204.701 204.456C204.308 204.807 204.308 204.807 203.907 205.166C203.611 205.434 203.611 205.434 203.31 205.707C203.065 205.463 202.821 205.218 202.568 204.966C202.492 205.195 202.415 205.425 202.337 205.661C201.603 206.795 200.897 206.851 199.602 207.19C196.319 207.483 193.189 207.545 190.332 205.707C190.075 205.55 189.817 205.393 189.551 205.231C186.784 203.367 184.759 200.454 184.029 197.179C183.919 195.084 184.002 192.991 184.079 190.897C184.186 187.787 184.123 185.435 182.545 182.718C182.368 182.35 182.191 181.983 182.008 181.604C181.857 181.291 181.705 180.978 181.549 180.655C180.768 178.955 180.426 177.536 180.321 175.673C181.177 175.55 182.034 175.428 182.916 175.302C182.06 174.813 181.203 174.323 180.321 173.819C180.494 170.707 181.577 168.084 183.681 165.754C187.095 162.73 190.419 162.017 194.874 162.255C198.784 162.423 201.319 162.258 204.724 160.215C206.153 159.358 206.153 159.358 207.389 159.358C208.015 160.099 208.015 160.099 208.501 160.841C208.318 159.923 208.318 159.923 208.13 158.987C208.497 158.865 208.865 158.742 209.243 158.616C208.547 157.921 207.394 157.921 206.462 157.736C204.352 157.298 202.368 156.753 200.344 156.021C201.879 154.337 203.616 153.159 205.535 151.942C202.98 152.521 200.592 153.177 198.213 154.288C196.668 154.749 195.7 154.256 194.295 153.544C193.837 153.277 193.381 153.005 192.928 152.73C192.563 152.508 192.563 152.508 192.19 152.282C183.793 147.04 178.018 139.351 174.759 130.065C174.642 129.767 174.525 129.468 174.405 129.161C171.016 120.123 172.431 108.601 176.235 99.9436C180.457 90.8946 187.328 84.5816 195.871 79.6524C197.21 78.876 198.419 78.0386 199.602 77.041Z" fill="#0092C8"/>
<path d="M231.861 159.729C236.936 160.35 241.787 161.255 246.693 162.695C246.937 162.765 247.18 162.834 247.431 162.906C265.94 168.223 265.94 168.223 269.312 171.594C269.401 172.293 269.468 172.996 269.526 173.699C269.585 174.37 269.585 174.37 269.645 175.055C269.688 175.542 269.731 176.029 269.775 176.53C270.434 183.643 271.403 190.794 273.538 197.629C273.92 199.397 273.344 200.75 272.579 202.341C272.414 202.688 272.248 203.034 272.077 203.391C271.899 203.758 271.72 204.124 271.536 204.502C271.352 204.883 271.167 205.264 270.977 205.657C263.138 221.754 252.498 236.129 239.463 248.418C239.11 248.752 239.11 248.752 238.75 249.092C237.155 250.572 235.479 251.896 233.715 253.169C226.997 244.067 222.256 232.842 221.466 221.494C221.204 218.626 220.059 216.798 218.072 214.699C216.603 213.11 215.227 211.472 213.867 209.789C213.184 208.958 212.494 208.139 211.79 207.327C211.491 206.981 211.491 206.981 211.186 206.629C210.796 206.179 210.404 205.731 210.011 205.284C209.002 204.122 208.135 202.985 207.389 201.628C210.427 198.308 214.676 195.157 218.883 193.471C220.367 193.965 220.677 194.767 221.479 196.067C221.535 195.643 221.535 195.643 221.592 195.211C222.131 192.25 223.053 190.947 225.371 189.075C228.29 186.575 229.962 182.766 230.378 179.01C230.586 176.083 230.742 173.228 229.59 170.482C228.252 167.289 229.875 164.555 231.107 161.537C231.357 160.933 231.609 160.331 231.861 159.729Z" fill="#3F3D56"/>
<path d="M142.314 0.911794C142.774 0.91247 143.233 0.913146 143.707 0.913842C150.296 0.93017 156.752 1.0511 163.264 2.14006C163.877 2.23846 163.877 2.23846 164.504 2.33885C178.093 4.55623 191.244 8.44799 203.681 14.3763C204.014 14.5345 204.348 14.6928 204.692 14.8558C214.175 19.384 222.73 25.1355 231.12 31.433C230.874 31.6413 230.628 31.8497 230.375 32.0645C229.563 32.8371 229.563 32.8371 229.547 33.7678C229.591 34.068 229.636 34.3681 229.683 34.6774C229.742 35.1219 229.742 35.1219 229.801 35.5754C230.343 38.338 231.189 40.8519 232.219 43.4614C232.649 44.5736 232.974 45.4316 232.974 46.6356C230.342 44.1807 228.192 41.7248 226.217 38.72C225.6 37.7308 225.6 37.7308 224.816 36.9949C219.07 42.1026 215.828 49.2669 213.53 56.4385C211.504 62.7392 208.844 68.0036 204.422 72.9621C204.178 73.0845 203.933 73.2068 203.681 73.3329C203.677 72.6866 203.677 72.6866 203.674 72.0272C203.653 67.9627 203.626 63.8983 203.593 59.8339C203.577 57.7444 203.562 55.655 203.552 53.5655C203.543 51.5483 203.528 49.5312 203.509 47.5141C203.503 46.7452 203.498 45.9764 203.496 45.2075C203.493 44.129 203.482 43.0507 203.47 41.9723C203.471 41.4974 203.471 41.4974 203.472 41.013C203.433 38.5291 202.958 36.7834 201.317 34.8396C199.407 33.2483 197.642 33.178 195.226 33.1837C194.733 33.1805 194.733 33.1805 194.23 33.1772C193.129 33.1709 192.028 33.1698 190.927 33.1687C190.137 33.1653 189.348 33.1615 188.559 33.1574C186.415 33.1473 184.272 33.1417 182.129 33.1369C179.889 33.1311 177.649 33.1211 175.409 33.1116C171.168 33.0943 166.926 33.0807 162.684 33.0684C157.856 33.0542 153.027 33.0359 148.198 33.0172C138.264 32.9789 128.331 32.9458 118.398 32.9161C118.398 32.7938 118.398 32.6714 118.398 32.5453C118.692 32.5082 118.986 32.471 119.289 32.4327C125.456 31.648 131.575 30.7718 137.679 29.579C137.434 28.8448 137.189 28.1106 136.937 27.3542C136.693 27.3542 136.448 27.3542 136.196 27.3542C135.555 26.7503 134.947 26.1377 134.342 25.5002C132.651 23.7338 130.906 22.1595 128.942 20.703C128.555 20.4162 128.555 20.4162 128.161 20.1235C123.098 16.4302 117.293 13.2906 110.982 12.5223C110.591 12.4731 110.201 12.4239 109.798 12.3732C103.167 11.7137 97.1532 13.2158 91.5582 16.7852C90.0685 17.7089 90.0685 17.7089 89.067 17.7294C88.0225 17.1556 87.3761 16.3652 86.6018 15.4655C86.3054 15.1247 86.0091 14.7839 85.7037 14.4328C85.48 14.1694 85.2564 13.9061 85.0259 13.6347C85.3967 12.5223 85.3967 12.5223 86.2388 12.0687C86.6105 11.9225 86.9822 11.7764 87.3651 11.6258C87.7827 11.4605 88.2002 11.2952 88.6305 11.1249C89.0852 10.9513 89.5399 10.7777 90.0085 10.5988C90.241 10.5091 90.4736 10.4193 90.7132 10.3269C101.692 6.09596 113.021 3.21928 124.701 1.76926C124.953 1.73693 125.205 1.70459 125.465 1.67128C131.078 0.967532 136.662 0.894579 142.314 0.911794Z" fill="#F1F1F1"/>
<path d="M147.922 200.354C151.285 202.112 153.048 204.437 154.679 207.804C154.874 208.193 155.069 208.582 155.27 208.984C155.91 210.264 156.54 211.549 157.171 212.834C157.616 213.732 158.064 214.629 158.511 215.526C159.447 217.405 160.378 219.287 161.305 221.17C162.605 223.808 163.912 226.441 165.221 229.074C167.633 233.924 170.042 238.776 172.417 243.645C172.869 244.567 173.324 245.486 173.78 246.406C174.025 246.909 174.27 247.412 174.514 247.915C174.718 248.33 174.921 248.744 175.131 249.171C175.514 250.242 175.603 250.664 175.13 251.686C174.385 252.263 174.385 252.263 173.416 252.804C173.069 253 172.723 253.196 172.365 253.398C172 253.598 171.635 253.798 171.259 254.004C170.896 254.209 170.532 254.415 170.158 254.626C167.457 256.136 167.457 256.136 166.601 256.136C166.143 255.489 166.143 255.489 165.637 254.595C165.455 254.277 165.273 253.959 165.086 253.631C164.898 253.295 164.71 252.959 164.516 252.613C164.324 252.277 164.133 251.941 163.936 251.595C163.463 250.761 162.991 249.927 162.523 249.091C162.635 249.45 162.747 249.809 162.863 250.18C164.14 254.266 165.417 258.353 166.694 262.439C166.771 262.684 166.847 262.929 166.926 263.182C167.08 263.673 167.233 264.164 167.386 264.656C167.786 265.939 168.19 267.222 168.6 268.502C168.685 268.768 168.769 269.033 168.856 269.306C169.016 269.811 169.178 270.315 169.341 270.818C169.785 272.22 170.103 273.591 170.309 275.046C169.066 275.172 167.822 275.295 166.578 275.417C166.054 275.47 166.054 275.47 165.519 275.524C165.004 275.574 165.004 275.574 164.479 275.626C164.167 275.657 163.854 275.688 163.532 275.72C162.328 275.801 161.133 275.798 159.927 275.788C159.62 275.161 159.62 275.161 159.308 274.521C159.17 274.24 159.033 273.959 158.892 273.67C158.577 273.026 158.262 272.382 157.947 271.739C157.051 269.904 156.154 268.07 155.257 266.235C153.518 262.679 151.779 259.122 150.041 255.565C149.304 254.055 148.566 252.545 147.828 251.036C147.476 250.316 147.125 249.596 146.773 248.876C146.279 247.865 145.785 246.853 145.291 245.842C145.148 245.549 145.005 245.256 144.857 244.954C144.652 244.533 144.652 244.533 144.442 244.104C144.309 243.831 144.176 243.559 144.038 243.278C143.728 242.651 143.413 242.028 143.096 241.405C142.925 241.072 142.755 240.738 142.58 240.394C142.345 239.938 142.345 239.938 142.105 239.471C141.758 238.708 141.758 238.708 141.758 237.967C141.384 238.073 141.01 238.18 140.625 238.29C138.428 238.838 136.186 239.096 133.942 239.377C133.192 239.472 132.443 239.57 131.694 239.668C120.332 241.136 108.316 241.379 96.938 239.96C96.2799 239.882 96.2799 239.882 95.6085 239.802C91.6552 239.224 88.1209 237.82 85.5462 234.676C83.6932 231.868 83.528 229.363 83.9138 226.101C84.8352 223.034 86.8981 220.46 88.8674 217.98C90.0027 216.55 90.9381 215.18 91.6926 213.513C92.4314 212.321 93.1207 211.301 94.2961 210.528C95.6314 210.244 96.9183 210.311 98.2764 210.377C98.8609 210.392 98.8609 210.392 99.4573 210.406C100.284 210.428 101.111 210.454 101.937 210.484C103.569 210.541 105.201 210.565 106.834 210.59C108.835 210.622 110.835 210.668 112.836 210.713C113.671 210.731 114.505 210.749 115.34 210.767C117.348 210.81 119.356 210.854 121.364 210.899C121.364 211.388 121.364 211.877 121.364 212.382C121.722 212.145 122.079 211.908 122.448 211.665C122.921 211.355 123.394 211.046 123.867 210.736C124.22 210.502 124.22 210.502 124.58 210.263C124.809 210.114 125.039 209.965 125.275 209.811C125.485 209.673 125.694 209.535 125.91 209.393C126.661 208.988 127.185 208.761 128.039 208.674C129.606 209.236 131.045 210.067 132.511 210.852C132.92 211.056 133.328 211.259 133.749 211.469C137.073 213.24 137.073 213.24 137.747 215.258C137.86 215.78 137.963 216.305 138.05 216.831C138.299 217.975 138.299 217.975 139.139 218.384C141.138 218.914 143.136 219.027 145.072 218.245C146.201 217.253 146.838 216.454 147.068 214.935C147.172 212.87 146.819 211.798 145.466 210.157C144.586 209.557 143.656 209.129 142.685 208.697C142.155 208.448 141.626 208.197 141.098 207.945C140.704 207.759 140.704 207.759 140.302 207.569C138.504 206.684 136.797 205.633 135.084 204.595C135.504 203.334 135.644 203.264 136.749 202.657C137.011 202.512 137.272 202.366 137.542 202.217C137.816 202.068 138.091 201.92 138.374 201.768C138.646 201.617 138.918 201.466 139.199 201.31C142.069 199.731 144.758 199.068 147.922 200.354Z" fill="#2F2E41"/>
<path d="M170.44 137.444C170.755 137.445 171.071 137.447 171.396 137.448C171.726 137.451 172.056 137.454 172.395 137.457C172.728 137.459 173.061 137.461 173.403 137.462C174.226 137.467 175.049 137.473 175.872 137.48C175.731 141.768 175.556 146.029 175.031 150.288C174.763 152.496 174.615 154.701 174.515 156.922C174.468 157.894 174.422 158.835 174.213 159.787C173.942 161.25 173.86 162.711 173.764 164.194C173.718 164.867 173.672 165.54 173.626 166.214C173.555 167.262 173.486 168.31 173.416 169.359C173.159 173.209 172.861 177.043 172.414 180.876C172.194 182.764 172.034 184.642 171.955 186.541C171.839 189.182 171.839 189.182 171.618 190.192C171.346 191.655 171.265 193.116 171.169 194.599C171.122 195.272 171.076 195.946 171.03 196.619C170.96 197.667 170.89 198.716 170.82 199.764C170.563 203.614 170.266 207.448 169.818 211.281C169.599 213.169 169.438 215.048 169.359 216.947C169.244 219.574 169.244 219.574 169.018 220.658C168.8 221.788 168.715 222.89 168.641 224.038C168.61 224.492 168.58 224.946 168.548 225.414C168.518 225.885 168.487 226.357 168.456 226.842C168.395 227.777 168.333 228.712 168.27 229.646C168.243 230.06 168.217 230.473 168.189 230.899C168.095 231.92 167.937 232.888 167.714 233.887C166.464 232.86 165.883 231.461 165.195 230.035C165.059 229.757 164.922 229.479 164.781 229.192C164.486 228.589 164.191 227.985 163.897 227.381C163.43 226.422 162.959 225.465 162.487 224.509C161.147 221.79 159.809 219.07 158.482 216.345C157.669 214.677 156.849 213.012 156.026 211.35C155.714 210.717 155.405 210.084 155.098 209.45C152.501 204.026 152.501 204.026 147.737 200.539C144.754 199.631 142.562 199.962 139.788 201.373C138.956 201.818 138.129 202.273 137.309 202.741C136.959 202.937 136.61 203.133 136.25 203.336C135.41 203.787 135.41 203.787 135.084 204.595C135.322 204.679 135.559 204.764 135.804 204.851C137.351 205.513 138.789 206.339 140.252 207.167C140.834 207.495 141.417 207.823 142 208.15C142.276 208.306 142.552 208.461 142.836 208.62C143.507 208.986 144.192 209.324 144.88 209.657C146.213 210.353 146.67 211.03 147.32 212.381C147.629 214.139 147.495 215.368 146.695 216.97C145.575 218.24 144.83 218.955 143.105 219.16C141.274 219.225 139.832 219.23 138.421 217.943C137.375 216.545 136.722 215.278 136.938 213.494C136.666 213.39 136.394 213.286 136.114 213.18C135.172 212.789 134.323 212.351 133.44 211.842C133.138 211.674 132.836 211.506 132.525 211.333C131.897 210.98 131.271 210.623 130.648 210.261C128.856 209.243 128.856 209.243 126.853 209.209C125.676 209.862 124.559 210.552 123.45 211.315C123.057 211.584 122.664 211.852 122.26 212.129C121.964 212.335 121.669 212.54 121.365 212.752C121.242 212.385 121.12 212.018 120.994 211.64C121.116 211.395 121.238 211.15 121.365 210.898C121.153 210.899 120.941 210.9 120.722 210.901C118.478 210.909 116.233 210.914 113.989 210.918C113.156 210.92 112.323 210.923 111.49 210.926C106.363 210.946 101.267 210.868 96.1504 210.527C97.3646 209.868 98.5879 209.461 99.909 209.061C100.358 208.925 100.806 208.788 101.268 208.646C101.748 208.501 102.229 208.355 102.709 208.21C106.094 207.179 109.47 206.141 112.766 204.845C115.731 203.728 117.975 204.35 120.802 205.451C122.412 206.04 123.431 206.213 125.072 205.707C126.307 205.133 127.497 204.489 128.688 203.83C129.319 203.484 129.95 203.14 130.582 202.797C130.859 202.644 131.137 202.491 131.422 202.333C132.118 201.999 132.118 201.999 132.859 201.999C132.859 201.754 132.859 201.51 132.859 201.257C132.592 201.155 132.325 201.053 132.05 200.948C130.282 200.216 128.652 199.269 126.996 198.314C126.633 198.122 126.27 197.929 125.896 197.731C124.854 197.12 124.033 196.589 123.219 195.695C122.734 193.718 123.135 191.874 123.589 189.925C124.91 183.842 123.813 178.016 120.623 172.706C121.091 172.631 121.091 172.631 121.568 172.554C122.749 172.362 123.93 172.169 125.111 171.975C125.617 171.892 126.124 171.81 126.631 171.728C133.754 170.898 133.754 170.898 139.534 167.144C139.773 166.902 140.012 166.66 140.259 166.411C143.75 162.746 146.855 158.512 149.58 154.256C152.089 150.375 154.971 146.989 158.19 143.686C158.649 143.215 159.105 142.74 159.558 142.263C163.628 137.996 163.628 137.996 166.319 137.763C166.908 137.786 167.497 137.814 168.085 137.851C168.956 137.416 169.471 137.438 170.44 137.444Z" fill="#F1F1F1"/>
<path d="M151.399 138.593C152.653 139.847 152.649 141.617 152.951 143.32C153.022 143.688 153.092 144.055 153.165 144.433C153.644 147.076 153.871 148.886 152.318 151.185C151.916 151.734 151.508 152.279 151.097 152.822C150.882 153.113 150.666 153.404 150.444 153.704C149.996 154.307 149.547 154.909 149.095 155.509C148.473 156.337 147.856 157.169 147.24 158.003C145.121 160.866 142.978 163.708 140.645 166.402C140.376 166.717 140.106 167.031 139.829 167.354C139.555 167.652 139.282 167.95 139 168.256C138.763 168.516 138.527 168.777 138.283 169.044C135.702 170.885 132.212 171.145 129.151 171.617C126.418 172.049 123.701 172.51 120.993 173.077C121.269 173.459 121.544 173.842 121.828 174.236C124.667 178.863 125.075 184.681 123.983 189.925C123.915 190.199 123.848 190.473 123.779 190.755C123.421 192.378 123.338 194.04 123.218 195.695C123.624 195.847 123.624 195.847 124.039 196.002C125.027 196.418 125.867 196.891 126.768 197.47C127.077 197.666 127.385 197.863 127.703 198.066C128.02 198.27 128.337 198.474 128.664 198.685C129.299 199.091 129.934 199.497 130.569 199.903C130.848 200.083 131.128 200.263 131.416 200.448C132.111 200.898 132.111 200.898 132.859 201.257C132.859 201.502 132.859 201.747 132.859 201.999C131.497 202.759 130.128 203.504 128.757 204.247C128.372 204.462 127.987 204.678 127.59 204.899C124.703 206.448 124.703 206.448 122.895 206.448C122.512 206.326 122.129 206.204 121.735 206.078C121.36 205.959 120.985 205.84 120.599 205.717C119.873 205.447 119.147 205.177 118.421 204.906C115.977 204.236 114.008 204.7 111.699 205.516C111.418 205.611 111.138 205.706 110.849 205.804C109.957 206.108 109.068 206.417 108.178 206.727C96.7954 210.646 96.7954 210.646 94.296 210.527C93.5275 207.976 93.3367 205.456 93.1546 202.804C93.0788 201.719 92.9937 200.634 92.9093 199.549C92.7529 197.538 92.6001 195.528 92.4632 193.516C92.0292 187.195 91.5768 181.391 88.6945 175.625C87.0077 172.09 85.5492 167.4 86.8453 163.551C88.2546 160.52 90.13 159.099 93.1662 157.841C94.0156 157.463 94.6872 156.973 95.4084 156.391C95.959 156.207 95.959 156.207 96.5207 156.02C96.946 155.179 97.2504 154.321 97.5737 153.436C98.0039 152.683 98.0039 152.683 98.6399 152.44C100.455 152.166 102.312 152.557 104.122 152.776C104.757 152.844 104.757 152.844 105.404 152.913C105.811 152.962 106.217 153.01 106.637 153.06C107.008 153.103 107.379 153.146 107.761 153.19C108.85 153.447 109.424 153.781 110.24 154.537C110.547 155.31 110.547 155.31 110.704 156.159C110.759 156.437 110.815 156.716 110.872 157.002C110.988 157.92 111.001 158.804 110.982 159.728C111.29 159.651 111.597 159.574 111.915 159.495C112.635 159.315 113.356 159.135 114.076 158.955C115.851 158.511 117.625 158.067 119.399 157.621C120.056 157.456 120.056 157.456 120.726 157.288C121.634 157.06 122.542 156.83 123.449 156.598C125.362 156.113 127.265 155.635 129.21 155.296C132.602 154.69 134.65 153.633 137.027 151.149C137.997 150.142 138.994 149.285 140.089 148.419C141.762 147.073 143.339 145.655 144.909 144.194C146.5 142.721 148.156 141.35 149.849 139.993C150.67 139.347 150.67 139.347 151.399 138.593Z" fill="#01ABEA"/>
<path d="M221.108 165.29C221.427 165.452 221.746 165.614 222.074 165.78C226.22 168.075 229.178 171.554 230.749 176.043C231.057 180.664 229.465 185.137 226.456 188.656C225.367 189.745 224.256 190.793 223.065 191.77C222.384 192.616 222.314 193.404 222.151 194.467C222.063 195.02 222.063 195.02 221.973 195.584C221.912 196.006 221.912 196.006 221.85 196.437C220.042 194.676 220.042 194.676 219.625 193.842C213.654 195.61 209.12 200.052 204.966 204.482C204.34 205.04 203.701 205.363 202.939 205.707C202.817 205.462 202.695 205.218 202.569 204.966C202.492 205.195 202.416 205.424 202.337 205.661C201.603 206.795 200.897 206.851 199.602 207.19C196.319 207.483 193.19 207.545 190.332 205.707C190.075 205.55 189.817 205.393 189.552 205.231C186.784 203.367 184.759 200.454 184.029 197.179C183.919 195.084 184.002 192.991 184.08 190.896C184.186 187.787 184.123 185.435 182.546 182.718C182.28 182.166 182.28 182.166 182.008 181.604C181.781 181.134 181.781 181.134 181.549 180.655C180.768 178.955 180.426 177.536 180.321 175.673C181.606 175.489 181.606 175.489 182.916 175.302C182.672 175.18 182.427 175.057 182.175 174.931C183.056 171.798 185.638 169.877 188.319 168.305C189.97 167.537 191.462 167.482 193.262 167.57C199.613 167.863 199.613 167.863 205.312 165.451C206.277 164.92 206.277 164.92 207.288 164.956C208.131 165.29 208.131 165.29 208.872 166.403C208.872 165.669 208.872 164.934 208.872 164.178C212.81 163.089 217.488 163.431 221.108 165.29Z" fill="#00AAEA"/>
<path d="M120.251 68.8833C134.323 68.8833 148.395 68.8833 162.893 68.8833C162.893 80.3854 162.893 91.8875 162.893 103.738C148.821 103.738 134.75 103.738 120.251 103.738C120.251 92.236 120.251 80.7339 120.251 68.8833Z" fill="#F1F1F1"/>
<path d="M120.251 35.1406C134.323 35.1406 148.395 35.1406 162.893 35.1406C162.893 45.5415 162.893 55.9423 162.893 66.6583C148.821 66.6583 134.75 66.6583 120.251 66.6583C120.251 56.2575 120.251 45.8566 120.251 35.1406Z" fill="#F1F1F1"/>
<path d="M48.688 35.8823C49.8001 36.4383 49.8907 37.2678 50.3334 38.4084C50.8864 39.8316 51.4175 41.0077 52.396 42.1859C52.6311 42.1323 52.8663 42.0788 53.1086 42.0236C62.7878 40.0985 71.541 42.3069 79.8349 47.377C83.2677 49.6785 86.389 52.4229 89.4756 55.1637C89.7786 55.4304 90.0817 55.6971 90.3939 55.9719C91.121 56.6469 91.121 56.6469 92.0712 57.7593C91.9451 58.5704 91.9451 58.5704 91.7004 59.2425C86.4507 60.4253 81.2143 61.3147 75.872 61.9307C75.6091 61.9614 75.3461 61.992 75.0752 62.0235C68.8259 62.7438 62.6466 63.0279 56.3589 63.02C55.9779 63.0195 55.5969 63.019 55.2043 63.0185C46.7701 62.9987 38.6331 62.3005 30.2873 61.1196C29.7808 61.0489 29.7808 61.0489 29.2641 60.9768C28.2941 60.8398 27.3251 60.6975 26.3562 60.5533C26.0666 60.5127 25.7769 60.4721 25.4784 60.4303C21.4487 59.8129 21.4487 59.8129 20.1367 58.5009C20.3023 55.6868 21.4239 54.1409 23.4507 52.2901C25.8841 50.1421 28.4484 50.1349 31.551 49.8944C31.8725 49.8666 32.1939 49.8389 32.5251 49.8104C32.8162 49.7879 33.1073 49.7654 33.4073 49.7423C34.9758 49.4734 35.8312 48.8328 36.8182 47.616C38.5129 45.6148 40.3658 43.7781 42.2222 41.929C42.8288 41.3244 43.4334 40.7178 44.0379 40.111C44.4266 39.7225 44.8155 39.334 45.2046 38.9457C45.3834 38.7661 45.5623 38.5865 45.7466 38.4015C46.6769 37.4775 47.6155 36.6377 48.688 35.8823Z" fill="#E6E5E5"/>
<path d="M84.2845 12.1513C87.92 15.6462 87.92 15.6462 88.7341 18.0841C84.5302 20.1289 80.5587 20.8581 75.9155 21.049C72.719 21.2509 70.3485 22.1925 68.1781 24.5962C67.2299 25.7659 66.4455 26.7827 66.5558 28.3273C66.8001 29.3327 66.8001 29.3327 67.9695 29.9495C69.4866 30.338 71.0377 30.569 72.5813 30.8302C73.0469 30.9101 73.5125 30.99 73.9923 31.0723C79.9838 32.0744 86.0297 32.6753 92.0712 33.2867C90.8053 39.2686 88.1009 44.1891 83.1258 47.9331C81.8416 48.6031 81.5625 48.53 80.2058 48.1185C79.3737 47.674 78.5758 47.2186 77.7724 46.7281C75.45 45.353 73.0866 44.2677 70.5651 43.2982C70.2563 43.1682 69.9475 43.0382 69.6294 42.9042C64.4721 40.9519 57.685 41.3526 52.396 42.5566C49.9385 39.2883 48.1495 35.5603 47.9465 31.4327C47.9185 31.0262 47.9185 31.0262 47.89 30.6115C47.6479 24.6363 49.9412 18.8498 53.8097 14.3529C61.8298 6.18586 75.2329 4.80028 84.2845 12.1513Z" fill="#FE6584"/>
<path d="M102.731 120.632C103.15 120.625 103.569 120.618 104 120.61C106.45 120.611 108.319 120.877 110.522 121.977C111.545 122.348 112.256 122.259 113.322 122.092C114.945 121.846 114.945 121.846 116.15 122.486C117.304 123.851 117.975 124.971 118.119 126.774C118.027 127.84 118.027 127.84 117.783 128.565C117.578 129.329 117.578 129.329 117.986 129.973C118.152 130.195 118.319 130.416 118.49 130.644C119.696 132.434 120.137 134.286 120.622 136.368C121.08 138.259 121.577 139.349 122.847 140.818C124.106 142.828 123.855 145.22 123.589 147.492C122.963 149.737 122.059 152.26 120.251 153.796C119.959 153.67 119.667 153.545 119.366 153.416C118.963 153.251 118.559 153.085 118.143 152.915C117.555 152.67 117.555 152.67 116.956 152.42C113.275 151.131 109.301 151.066 105.443 151.084C104.976 151.086 104.509 151.087 104.027 151.089C97.534 151.166 91.3189 152.265 85.0258 153.796C81.8085 143.868 81.8085 143.868 83.7164 140.118C84.2842 139.334 84.2842 139.334 84.655 138.964C84.8185 138.108 84.971 137.25 85.1185 136.391C85.6744 133.407 86.6815 130.939 88.502 128.489C89.2314 127.505 89.2314 127.505 88.9192 126.38C88.6874 124.96 88.9975 124.398 89.7622 123.222C90.4576 122.345 91.0231 121.941 92.0709 121.536C93.3617 121.404 94.5921 121.314 95.7789 121.907C96.2062 121.648 96.2062 121.648 96.6422 121.384C98.5188 120.387 100.663 120.62 102.731 120.632Z" fill="#312F42"/>
<path d="M132.859 23.6458C133.351 24.0631 133.351 24.0631 133.854 24.4888C135.596 25.9947 135.596 25.9947 136.196 26.6122C136.196 26.8569 136.196 27.1016 136.196 27.3538C136.44 27.3538 136.685 27.3538 136.937 27.3538C137.679 28.4662 137.679 28.4662 137.679 29.5786C131.937 31.2084 125.976 32.0486 120.066 32.7998C119.722 32.8441 119.377 32.8883 119.022 32.9338C113.729 33.5775 108.465 33.7265 103.14 33.726C102.07 33.7268 101 33.7336 99.9308 33.7406C95.0477 33.7554 90.2497 33.4454 85.3966 32.9157C84.7349 32.8458 84.7349 32.8458 84.0598 32.7744C79.9572 32.321 75.8675 31.7435 71.793 31.0849C71.4363 31.031 71.0795 30.977 70.7119 30.9214C68.7957 30.5965 67.5338 30.2675 66.1152 28.837C66.2461 26.2197 67.7856 24.5016 69.6378 22.7884C72.0788 21.1407 74.053 20.8436 76.9378 20.6794C82.6189 20.3499 87.499 18.7707 92.3954 15.8591C106.669 7.46171 121.261 13.7454 132.859 23.6458Z" fill="#E6E5E5"/>
<path d="M120.251 105.963C134.323 105.963 148.395 105.963 162.893 105.963C162.901 109.803 162.908 113.642 162.916 117.597C162.92 118.81 162.923 120.023 162.926 121.272C162.928 122.229 162.928 123.185 162.929 124.141C162.93 124.39 162.931 124.64 162.932 124.897C162.935 125.629 162.935 126.362 162.935 127.095C162.936 127.508 162.937 127.922 162.938 128.348C162.893 129.324 162.893 129.324 162.522 130.065C160.292 130.111 158.063 130.145 155.832 130.167C155.074 130.176 154.316 130.189 153.558 130.205C152.466 130.228 151.375 130.238 150.283 130.246C149.946 130.256 149.608 130.265 149.261 130.275C146.929 130.276 146.017 129.832 144.353 128.211C143.164 127.922 143.164 127.922 141.943 127.979C141.341 127.972 141.341 127.972 140.726 127.965C139.461 128.113 139.461 128.113 138.593 129.142C137.021 130.497 135.344 130.299 133.36 130.246C133.027 130.244 132.694 130.242 132.35 130.241C131.114 130.231 129.877 130.205 128.641 130.181C125.872 130.143 123.104 130.105 120.251 130.065C120.251 122.112 120.251 114.158 120.251 105.963Z" fill="#F1F1F1"/>
<path d="M165.118 35.1406C171.603 35.1406 178.089 35.1406 184.77 35.1406C184.255 42.2764 183.678 49.4038 183.055 56.5309C182.969 57.5214 182.883 58.5119 182.798 59.5024C182.591 61.8877 182.383 64.273 182.175 66.6583C176.546 66.6583 170.917 66.6583 165.118 66.6583C165.118 56.2575 165.118 45.8566 165.118 35.1406Z" fill="#F1F1F1"/>
<path d="M98.7456 35.1406C105.108 35.1406 111.471 35.1406 118.027 35.1406C118.027 45.5415 118.027 55.9423 118.027 66.6583C112.521 66.6583 107.014 66.6583 101.341 66.6583C100.563 57.9197 100.563 57.9197 100.236 54.2294C100.028 51.8818 99.819 49.5344 99.6074 47.1872C99.5441 46.4779 99.4809 45.7687 99.4177 45.0594C99.3912 44.7707 99.3647 44.482 99.3375 44.1845C99.0711 41.1715 98.9235 38.1648 98.7456 35.1406Z" fill="#F1F1F1"/>
<path d="M101.712 68.8833C107.096 68.8833 112.48 68.8833 118.027 68.8833C118.027 80.3854 118.027 91.8875 118.027 103.738C113.622 103.738 109.217 103.738 104.678 103.738C104.347 102.414 104.192 101.239 104.08 99.8839C104.06 99.6451 104.04 99.4064 104.019 99.1604C103.952 98.3612 103.886 97.5619 103.821 96.7625C103.774 96.1968 103.727 95.631 103.679 95.0653C103.603 94.1488 103.526 93.2323 103.45 92.3158C103.237 89.7583 103.016 87.2016 102.792 84.645C102.69 83.4646 102.588 82.2841 102.485 81.1037C102.418 80.3298 102.35 79.556 102.282 78.7822C102.186 77.6867 102.092 76.591 101.997 75.4953C101.954 75.0082 101.954 75.0082 101.91 74.5113C101.884 74.2041 101.857 73.8968 101.83 73.5803C101.807 73.3164 101.784 73.0525 101.761 72.7807C101.693 71.4832 101.712 70.1825 101.712 68.8833Z" fill="#F1F1F1"/>
<path d="M165.118 68.8833C170.624 68.8833 176.131 68.8833 181.804 68.8833C181.804 72.6405 181.804 72.6405 181.651 74.4584C181.601 75.0672 181.601 75.0672 181.55 75.6884C181.494 76.3299 181.494 76.3299 181.438 76.9843C181.399 77.4335 181.361 77.8826 181.321 78.3453C181.239 79.2906 181.156 80.2358 181.073 81.1809C180.947 82.6223 180.827 84.0642 180.707 85.5061C180.626 86.4276 180.545 87.349 180.464 88.2704C180.412 88.9131 180.412 88.9131 180.359 89.5687C180.095 92.4538 179.533 94.829 178.106 97.3796C177.979 97.6109 177.852 97.8422 177.722 98.0806C177.593 98.311 177.464 98.5414 177.331 98.7787C177.07 99.2461 176.811 99.7144 176.553 100.184C176.383 100.487 176.383 100.487 176.21 100.797C175.763 101.741 175.46 102.747 175.13 103.738C171.826 103.738 168.522 103.738 165.118 103.738C165.118 92.236 165.118 80.7339 165.118 68.8833Z" fill="#F1F1F1"/>
<path d="M120.622 137.481C131.757 137.481 142.892 137.481 154.365 137.481C153.753 138.215 153.141 138.949 152.511 139.706C152.144 139.461 151.777 139.216 151.398 138.964C151.028 139.308 151.028 139.308 150.65 139.658C148.904 141.262 147.152 142.83 145.303 144.318C143.624 145.672 142.038 147.097 140.46 148.566C138.881 150.028 137.238 151.387 135.557 152.73C134.736 153.366 134.736 153.366 134.227 153.988C133.401 154.712 132.69 154.864 131.624 155.123C131.218 155.223 130.812 155.323 130.393 155.427C129.732 155.583 129.732 155.583 129.058 155.743C128.378 155.908 128.378 155.908 127.684 156.077C124.085 156.944 120.478 157.774 116.868 158.593C116.614 158.651 116.361 158.708 116.1 158.768C115.382 158.93 114.663 159.091 113.945 159.252C113.533 159.344 113.122 159.437 112.698 159.532C111.723 159.729 111.723 159.729 110.982 159.729C110.914 159.375 110.847 159.022 110.777 158.658C110.638 157.961 110.638 157.961 110.495 157.249C110.405 156.789 110.314 156.328 110.221 155.854C109.938 154.547 109.938 154.547 109.274 153.557C108.682 152.558 108.659 151.97 108.757 150.83C112.876 150.964 116.449 151.866 120.251 153.425C122.7 149.786 123.792 146.792 123.218 142.301C122.61 140.797 121.76 139.731 120.622 138.593C120.622 138.226 120.622 137.859 120.622 137.481Z" fill="#EFF0F1"/>
<path d="M215.871 158.13C216.321 158.13 216.771 158.131 217.234 158.132C228.92 158.258 228.92 158.258 231.861 159.729C231.193 162.064 230.432 164.322 229.515 166.572C229.091 168.177 229.64 169.444 230.216 170.945C230.824 172.703 230.837 174.194 230.749 176.044C229.956 175.25 229.692 174.652 229.243 173.633C227.437 169.98 224.745 167.441 221.108 165.661C220.685 165.432 220.685 165.432 220.254 165.198C216.725 163.575 212.664 164.048 208.872 164.178C209.056 165.463 209.056 165.463 209.243 166.774C209.044 166.521 208.845 166.269 208.64 166.009C207.814 165.168 207.814 165.168 206.72 165.36C205.475 165.677 204.591 166.141 203.488 166.793C200.944 168.108 198.823 168.112 196.01 167.956C191.907 167.771 188.783 167.924 185.486 170.545C184.214 171.75 183.188 173.136 182.175 174.56C181.563 174.316 180.951 174.071 180.321 173.819C180.494 170.707 181.578 168.084 183.681 165.754C187.095 162.73 190.419 162.017 194.875 162.255C198.784 162.423 201.32 162.258 204.724 160.215C206.153 159.358 206.153 159.358 207.389 159.358C208.015 160.099 208.015 160.099 208.501 160.841C208.318 159.923 208.318 159.923 208.131 158.987C210.727 158.19 213.165 158.117 215.871 158.13Z" fill="#0493C8"/>
<path d="M29.7778 137.481C31.1243 137.968 32.3298 138.601 33.5644 139.324C39.2058 142.624 45.0261 144.912 51.284 146.751C52.0488 146.982 52.8136 147.214 53.5783 147.446C54.0448 147.584 54.5113 147.721 54.9919 147.863C54.7472 147.986 54.5025 148.108 54.2504 148.234C54.4654 148.477 54.6805 148.72 54.9021 148.97C57.7768 152.328 59.8174 155.681 60.5539 160.1C57.3195 161.564 53.9586 160.987 50.6916 159.868C43.8531 157.104 37.9727 152.627 32.7442 147.492C32.3837 147.146 32.0231 146.8 31.6622 146.454C30.1883 145.018 28.9265 143.741 27.9238 141.931C28.1609 141.54 28.398 141.15 28.6422 140.749C29.2652 139.666 29.6258 138.735 29.7778 137.481Z" fill="#E6E6E6"/>
<path d="M132.433 202.615C132.696 202.779 132.959 202.943 133.23 203.112C133.574 203.249 133.918 203.387 134.273 203.529C134.674 203.689 134.674 203.689 135.084 203.853C135.084 204.098 135.084 204.343 135.084 204.595C135.322 204.679 135.559 204.764 135.804 204.851C137.351 205.513 138.789 206.339 140.252 207.167C140.834 207.495 141.417 207.823 142 208.151C142.276 208.306 142.552 208.461 142.836 208.621C143.507 208.987 144.192 209.325 144.88 209.657C146.213 210.353 146.67 211.03 147.32 212.381C147.629 214.139 147.495 215.369 146.695 216.97C145.575 218.24 144.83 218.955 143.105 219.16C141.274 219.225 139.832 219.23 138.421 217.943C137.375 216.545 136.722 215.278 136.938 213.494C136.666 213.39 136.394 213.287 136.114 213.18C135.172 212.789 134.323 212.351 133.44 211.843C133.138 211.674 132.836 211.506 132.525 211.333C131.897 210.981 131.271 210.623 130.648 210.261C128.856 209.243 128.856 209.243 126.853 209.209C125.676 209.862 124.559 210.552 123.45 211.315C123.057 211.584 122.664 211.853 122.26 212.129C121.964 212.335 121.669 212.54 121.365 212.752C121.181 212.202 121.181 212.202 120.994 211.64C121.116 211.395 121.238 211.15 121.365 210.898C121.047 210.899 121.047 210.899 120.722 210.901C118.478 210.909 116.233 210.915 113.989 210.919C113.156 210.92 112.323 210.923 111.49 210.926C106.363 210.946 101.267 210.868 96.1504 210.527C97.3646 209.868 98.5879 209.461 99.909 209.062C100.582 208.856 100.582 208.856 101.268 208.647C101.748 208.501 102.229 208.356 102.709 208.21C106.094 207.179 109.47 206.141 112.766 204.846C115.731 203.728 117.975 204.35 120.802 205.451C122.405 206.037 123.437 206.211 125.072 205.707C126.449 205.034 127.765 204.256 129.081 203.473C131.136 202.314 131.136 202.314 132.433 202.615Z" fill="#FCB4B4"/>
<path d="M224.816 36.624C225.573 37.3502 226.21 38.0812 226.809 38.9415C226.968 39.1671 227.126 39.3927 227.29 39.6252C227.618 40.0964 227.946 40.5676 228.275 41.0388C228.433 41.2644 228.592 41.49 228.755 41.7225C228.898 41.927 229.04 42.1316 229.187 42.3424C229.628 42.9543 229.628 42.9543 230.249 43.474C230.749 44.0399 230.749 44.0399 230.725 45.4015C230.432 47.128 229.737 48.5442 228.895 50.0654C228.746 50.3385 228.598 50.6116 228.446 50.893C227.076 53.3591 225.491 55.5744 223.703 57.7594C223.506 58.0094 223.308 58.2594 223.104 58.5169C219.284 63.1936 213.909 66.1408 208.81 69.2075C208.204 69.5796 207.61 69.9718 207.018 70.3665C207.354 68.7948 208.127 67.5622 208.941 66.195C210.895 62.8138 212.218 59.3319 213.394 55.6172C215.704 48.3276 219.38 42.0598 224.816 36.624Z" fill="#0292C8"/>
<path d="M94.6667 133.402C101.397 133.402 108.127 133.402 115.061 133.402C116.2 135.681 116.187 138.187 115.56 140.658C114.244 143.9 111.809 146.38 108.672 147.89C105.946 148.802 102.575 148.659 99.9969 147.399C99.4477 147.073 98.9053 146.735 98.3747 146.38C98.0306 146.158 97.6864 145.936 97.3318 145.708C95.3535 143.729 94.0536 141.296 93.8267 138.486C93.8286 138.078 93.8305 137.669 93.8325 137.249C93.8305 136.839 93.8286 136.429 93.8267 136.006C93.9252 134.885 93.9252 134.885 94.6667 133.402Z" fill="#FCB4B4"/>
<path d="M105.049 105.963C109.332 105.963 113.614 105.963 118.027 105.963C118.027 112.326 118.027 118.689 118.027 125.245C117.537 124.633 117.048 124.021 116.544 123.391C115.626 122.504 115.234 122.293 113.948 122.186C112.89 122.229 112.89 122.229 112.14 122.513C111.071 122.698 110.483 122.389 109.498 121.954C108.39 121.471 107.345 121.053 106.161 120.795C105.459 115.808 105.049 111.031 105.049 105.963Z" fill="#F0F0F0"/>
<path d="M165.118 105.963C168.055 105.963 170.992 105.963 174.017 105.963C173.895 106.881 173.773 107.799 173.646 108.744C172.877 115.312 173.026 121.742 174.388 128.211C174.512 128.829 174.635 129.447 174.759 130.065C172.009 130.225 170.35 130.281 168.085 128.582C166.616 128.398 166.616 128.398 165.118 128.211C165.118 120.869 165.118 113.528 165.118 105.963Z" fill="#EFF0F1"/>
<path d="M169.939 279.866C170.048 280.562 170.048 280.562 170.159 281.273C170.432 282.127 170.432 282.127 171.051 282.833C172.783 283.529 174.591 283.783 176.428 284.061C177.414 284.223 178.398 284.394 179.382 284.566C179.82 284.635 180.258 284.703 180.709 284.774C181.827 285.063 182.269 285.228 182.917 286.17C183.102 287.444 183.102 287.444 182.917 288.765C181.093 290.482 178.889 291.302 176.613 292.265C176.213 292.444 175.812 292.624 175.399 292.809C175.012 292.973 174.625 293.137 174.226 293.306C173.875 293.458 173.523 293.61 173.162 293.766C172.164 293.956 172.164 293.956 171.154 293.487C170.31 292.844 170.31 292.844 169.568 292.102C169.69 292.959 169.813 293.816 169.939 294.698C169.478 294.958 169.014 295.212 168.548 295.463C168.29 295.605 168.032 295.747 167.766 295.893C166.972 296.181 166.972 296.181 166.241 296.172C165.489 295.81 165.489 295.81 164.98 294.725C164.825 294.247 164.676 293.767 164.533 293.286C164.413 292.907 164.413 292.907 164.29 292.52C164.035 291.71 163.789 290.898 163.543 290.086C163.371 289.54 163.199 288.994 163.027 288.449C161.781 284.47 161.781 284.47 161.781 283.574C163.001 282.954 164.222 282.337 165.443 281.72C165.79 281.543 166.138 281.366 166.496 281.184C166.828 281.017 167.16 280.85 167.503 280.677C167.809 280.522 168.116 280.367 168.432 280.207C169.197 279.866 169.197 279.866 169.939 279.866Z" fill="#2F2E41"/>
<path d="M62.4074 100.03C62.5298 100.03 62.6521 100.03 62.7782 100.03C62.725 100.656 62.6707 101.282 62.616 101.907C62.5859 102.256 62.5557 102.604 62.5247 102.963C62.4471 103.722 62.344 104.478 62.2148 105.229C60.9852 113.674 62.1867 122.555 64.6365 130.66C65.003 131.919 65.003 131.919 65.003 132.66C62.2631 132.825 59.8147 132.969 57.587 131.177C55.3623 128.761 55.3623 128.761 55.3623 127.469C55.1175 127.469 54.8728 127.469 54.6207 127.469C54.3672 117.582 55.6861 107.804 62.4074 100.03Z" fill="#E6E6E6"/>
<path d="M269.312 171.594C269.503 171.653 269.693 171.711 269.889 171.772C272.075 172.438 274.272 173.065 276.473 173.679C276.761 173.76 277.049 173.841 277.346 173.925C277.622 174.001 277.899 174.078 278.184 174.157C278.43 174.226 278.677 174.295 278.93 174.365C279.798 174.586 280.67 174.762 281.549 174.931C281.073 177.905 280.371 180.76 279.509 183.645C279.383 184.071 279.256 184.497 279.126 184.936C277.677 189.715 275.93 194.375 274.133 199.033C273.391 198.662 273.391 198.662 273.126 197.922C273.046 197.597 272.967 197.272 272.884 196.937C272.794 196.569 272.703 196.201 272.61 195.822C272.516 195.421 272.422 195.02 272.325 194.606C272.228 194.195 272.13 193.783 272.029 193.359C270.561 186.971 269.213 180.171 269.289 173.587C269.293 173.207 269.296 172.828 269.299 172.437C269.304 172.159 269.308 171.88 269.312 171.594Z" fill="#EFF0F0"/>
<path d="M177.355 256.506C177.428 256.849 177.428 256.849 177.503 257.198C177.828 258.253 178.149 258.974 178.838 259.843C180.457 260.516 182.111 260.699 183.844 260.909C184.752 261.036 185.659 261.166 186.567 261.3C186.969 261.351 187.371 261.401 187.785 261.453C188.919 261.713 189.508 261.996 190.332 262.809C190.495 263.922 190.495 263.922 190.332 265.034C189.001 266.731 186.698 267.407 184.794 268.279C184.387 268.471 183.98 268.664 183.56 268.862C183.169 269.043 182.777 269.223 182.373 269.408C182.015 269.574 181.657 269.74 181.289 269.911C180.244 270.25 179.837 270.274 178.838 269.855C178.205 269.38 177.584 268.888 176.984 268.371C177.106 269.35 177.229 270.329 177.355 271.338C174.898 272.821 174.898 272.821 173.647 272.821C173.064 271.205 172.483 269.588 171.904 267.971C171.707 267.421 171.509 266.871 171.311 266.321C171.025 265.531 170.743 264.74 170.46 263.949C170.371 263.704 170.282 263.458 170.19 263.205C169.816 262.153 169.568 261.34 169.568 260.214C170.725 259.593 171.885 258.976 173.044 258.36C173.374 258.183 173.704 258.006 174.043 257.824C174.359 257.657 174.674 257.489 174.999 257.317C175.291 257.162 175.582 257.006 175.882 256.846C176.613 256.506 176.613 256.506 177.355 256.506Z" fill="#313043"/>
<path d="M168.085 128.211C169.63 128.913 170.17 129.447 171.005 130.922C171.615 132.921 171.775 134.205 170.796 136.09C169.883 137.177 169.398 137.691 168.085 138.222C167.816 138.205 167.548 138.187 167.271 138.169C165.426 138.076 164.153 138.373 162.735 139.56C161.338 140.85 160.042 142.233 158.746 143.622C158.283 144.103 157.819 144.584 157.354 145.064C156.224 146.235 155.106 147.416 153.995 148.604C153.091 147.25 152.897 145.959 152.627 144.387C152.575 144.107 152.522 143.826 152.467 143.538C152.205 142.047 152.02 140.805 152.512 139.335C153.23 138.477 153.23 138.477 153.995 137.851C154.239 137.851 154.484 137.851 154.736 137.851C154.736 137.607 154.736 137.362 154.736 137.11C155.294 136.561 155.294 136.561 156.057 135.928C157.549 134.66 158.93 133.317 160.298 131.919C160.916 131.301 161.534 130.683 162.152 130.065C162.42 129.789 162.688 129.514 162.963 129.23C164.425 127.819 166.157 128.003 168.085 128.211Z" fill="#FEB6B6"/>
<path d="M182.805 227.101C183.204 227.099 183.204 227.099 183.61 227.097C184.168 227.094 184.727 227.094 185.285 227.096C186.139 227.097 186.993 227.088 187.848 227.079C188.391 227.078 188.935 227.078 189.479 227.078C189.734 227.075 189.989 227.071 190.252 227.068C191.313 227.078 192.024 227.102 192.913 227.711C193.429 228.534 193.325 229.135 193.145 230.066C191.861 235.116 191.861 235.116 190.703 236.854C189.768 236.98 189.768 236.98 188.603 236.962C188.187 236.959 187.771 236.955 187.343 236.951C186.907 236.942 186.471 236.933 186.022 236.923C185.583 236.918 185.144 236.913 184.692 236.908C183.606 236.895 182.52 236.876 181.433 236.854C180.944 235.63 180.454 234.406 179.95 233.146C179.545 233.115 179.139 233.084 178.722 233.053C177.354 232.775 177.354 232.775 176.636 232.126C176.155 231.108 176.047 230.55 176.242 229.438C177.871 227.245 180.247 227.098 182.805 227.101Z" fill="#413F58"/>
<path d="M120.994 205.429C121.314 205.541 121.634 205.652 121.964 205.767C123.871 206.448 125.571 207.243 127.297 208.303C127.297 208.548 127.297 208.793 127.297 209.045C126.395 209.643 125.498 210.196 124.563 210.736C124.304 210.889 124.045 211.042 123.778 211.199C121.932 212.284 121.932 212.284 120.994 212.753C121.116 212.141 121.238 211.529 121.365 210.899C121.047 210.9 121.047 210.9 120.722 210.901C118.478 210.909 116.233 210.915 113.989 210.919C113.156 210.921 112.323 210.923 111.49 210.927C106.363 210.946 101.267 210.868 96.1504 210.528C97.3646 209.868 98.5879 209.462 99.909 209.062C100.358 208.925 100.806 208.788 101.268 208.647C101.748 208.501 102.229 208.356 102.709 208.21C106.094 207.179 109.47 206.141 112.766 204.846C115.8 203.702 118.08 204.364 120.994 205.429Z" fill="#F6B3B4"/>
<path d="M48.688 35.8823C49.8 36.4383 49.8907 37.2678 50.3334 38.4084C50.8914 39.8444 51.4586 40.9697 52.396 42.1859C52.396 42.4306 52.396 42.6753 52.396 42.9274C51.9524 43.111 51.5088 43.2945 51.0518 43.4836C49.4858 44.1734 48.0262 45.0002 46.5559 45.8706C43.0276 47.9342 39.396 49.359 35.3394 49.9726C35.8911 48.0288 37.1335 46.9171 38.5346 45.5433C38.7769 45.3017 39.0193 45.06 39.2689 44.811C39.7807 44.3018 40.2937 43.7939 40.8081 43.2872C41.5938 42.513 42.3754 41.735 43.1565 40.9561C43.655 40.461 44.1537 39.9662 44.6527 39.4715C44.8861 39.2398 45.1194 39.008 45.3598 38.7692C46.4209 37.7253 47.4581 36.7304 48.688 35.8823Z" fill="#F1F1F1"/>
<path d="M19.3955 128.953C19.6402 128.953 19.885 128.953 20.1371 128.953C20.3168 129.329 20.4965 129.706 20.6817 130.094C22.2613 133.356 23.9511 136.385 26.0698 139.335C26.2663 139.62 26.4627 139.905 26.6651 140.198C26.8358 140.403 27.0064 140.607 27.1822 140.818C27.427 140.818 27.6717 140.818 27.9238 140.818C28.7101 139.508 28.8627 138.243 29.0362 136.739C29.2809 136.739 29.5257 136.739 29.7778 136.739C29.9655 138.991 29.4224 140.363 28.2946 142.301C35.0012 149.71 43.836 158.817 54.2503 160.47C57.2487 160.622 57.2487 160.622 60.1831 160.1C59.3647 155.704 57.647 151.958 54.2503 148.976C54.4339 148.609 54.4339 148.609 54.6211 148.234C57.8176 150.974 60.4057 154.449 60.9015 158.755C60.9091 159.199 60.9168 159.643 60.9247 160.1C61.2597 159.961 61.5948 159.823 61.94 159.681C62.3774 159.505 62.8147 159.33 63.2653 159.149C63.917 158.885 63.917 158.885 64.5819 158.615C65.745 158.246 65.745 158.246 66.8574 158.616C66.1788 158.913 65.4987 159.205 64.818 159.497C64.4395 159.66 64.0609 159.824 63.6709 159.992C58.9343 161.785 54.0033 161.897 49.275 159.992C46.7791 158.8 44.3889 157.436 42.0141 156.021C41.8257 156.173 41.6374 156.325 41.4434 156.481C38.5145 158.774 36.0952 159.338 32.3734 158.987C31.4962 158.706 30.9203 158.389 30.1486 157.875C30.5157 157.691 30.5157 157.691 30.8902 157.504C31.372 157.676 31.372 157.676 31.8635 157.852C34.5435 158.695 36.4363 158.235 38.9738 157.232C39.8905 156.704 40.3304 156.159 40.9017 155.279C40.6096 155.063 40.3176 154.847 40.0167 154.624C31.2985 148.095 23.6824 139.847 19.3955 129.694C19.3955 129.45 19.3955 129.205 19.3955 128.953Z" fill="#FCFCFC"/>
<path d="M217.029 158.616C229.208 158.402 229.208 158.402 231.861 159.729C231.093 162.55 230.06 165.207 228.895 167.886C227.412 166.032 227.412 166.032 226.774 165.213C224.185 162.067 220.869 160.243 217.029 158.987C217.029 158.865 217.029 158.743 217.029 158.616Z" fill="#ECEEEF"/>
<path d="M238.166 28.0957C237.653 29.4893 237.003 30.6832 236.219 31.9427C234.248 35.2724 232.88 38.827 231.862 42.5568C230.023 40.7172 229.664 37.6235 229.267 35.1408C229.19 34.7431 229.114 34.3455 229.035 33.9357C229.359 32.5092 230.045 32.0852 231.231 31.2808C236.646 28.0957 236.646 28.0957 238.166 28.0957Z" fill="#0294C9"/>
<path d="M63.1494 98.5469C63.3941 98.5469 63.6389 98.5469 63.891 98.5469C63.8573 98.7478 63.8236 98.9487 63.7889 99.1558C63.0238 103.814 62.623 108.289 62.7786 113.008C63.2512 112.787 63.7221 112.562 64.1923 112.336C64.4547 112.211 64.7171 112.086 64.9875 111.958C65.7492 111.522 66.2701 111.059 66.8574 110.412C66.7379 111.527 66.4837 111.898 65.6755 112.707C64.5399 113.438 63.7292 113.569 62.4078 113.75C63.487 124.549 65.1049 137.813 73.5317 145.638C74.6075 146.447 75.7098 147.179 76.8689 147.863C76.6241 147.985 76.3794 148.107 76.1273 148.234C70.3993 144.688 67.7335 139.966 65.3742 133.773C65.096 133.767 64.8178 133.762 64.5312 133.757C61.4276 133.612 58.8379 133.053 56.5055 130.887C55.607 129.88 55.0516 129.131 54.6211 127.84C55.7335 128.211 55.7335 128.211 56.5446 129.439C57.6209 130.99 58.7442 131.754 60.5538 132.289C62.0363 132.504 63.5069 132.61 65.0034 132.66C64.822 132.121 64.822 132.121 64.6369 131.571C61.0986 120.811 60.6001 109.598 63.1494 98.5469Z" fill="#FCFCFC"/>
<path d="M168.826 275.046C169.01 277.616 169.01 277.616 169.197 280.237C168.357 280.682 167.515 281.121 166.671 281.558C166.314 281.748 166.314 281.748 165.949 281.943C165.315 282.268 164.661 282.553 164.006 282.833C163.639 282.71 163.272 282.588 162.894 282.462C162.527 280.259 162.159 278.057 161.781 275.787C162.699 275.329 163.447 275.296 164.47 275.208C164.816 275.177 165.162 275.146 165.518 275.114C166.619 275.045 167.723 275.046 168.826 275.046Z" fill="#FAB4B5"/>
<path d="M174.388 252.798C174.74 253.512 174.74 253.512 175.014 254.397C175.107 254.686 175.2 254.975 175.296 255.273C175.5 256.135 175.5 256.135 175.5 257.618C173.114 258.719 173.114 258.719 170.68 259.843C169.946 258.375 169.212 256.906 168.455 255.393C170.585 253.689 170.585 253.689 171.839 253.053C172.084 252.924 172.33 252.796 172.583 252.663C173.275 252.427 173.275 252.427 174.388 252.798Z" fill="#FBB4B4"/>
<path d="M20.8789 130.435C21.5354 130.921 22.1904 131.409 22.8401 131.904C23.6191 132.49 24.4045 133.059 25.1981 133.624C25.6744 133.975 26.1504 134.325 26.6262 134.676C26.8619 134.84 27.0977 135.004 27.3405 135.173C27.9921 135.661 28.5302 136.1 29.0364 136.739C29.2923 138.614 29.0341 139.662 27.924 141.188C26.7234 140.682 26.1533 140.195 25.4559 139.1C25.2834 138.831 25.1108 138.562 24.933 138.286C24.7576 138.004 24.5822 137.723 24.4015 137.434C24.2261 137.161 24.0506 136.889 23.8699 136.608C20.8789 131.902 20.8789 131.902 20.8789 130.435Z" fill="#E6E6E6"/>
<path d="M120.994 205.707C123.303 206.32 125.273 207.026 127.297 208.303C127.297 208.547 127.297 208.792 127.297 209.044C126.395 209.642 125.498 210.196 124.563 210.736C124.174 210.965 124.174 210.965 123.778 211.199C121.932 212.283 121.932 212.283 120.994 212.752C121.116 212.14 121.238 211.529 121.365 210.898C120.875 210.898 120.386 210.898 119.881 210.898C119.996 210.172 120.112 209.446 120.229 208.72C120.293 208.315 120.358 207.911 120.425 207.494C120.623 206.449 120.623 206.449 120.994 205.707Z" fill="#EDECED"/>
<path d="M203.681 157.133C204.5 157.248 205.318 157.364 206.137 157.48C206.593 157.545 207.049 157.609 207.519 157.676C208.714 157.851 209.906 158.042 211.097 158.245C211.097 158.368 211.097 158.49 211.097 158.616C210.118 158.738 209.139 158.861 208.13 158.987C208.375 159.843 208.62 160.7 208.872 161.582C208.362 161.104 207.868 160.608 207.389 160.099C207.389 159.854 207.389 159.61 207.389 159.358C206.781 159.633 206.781 159.633 206.16 159.914C204.793 160.47 204.793 160.47 203.681 160.47C203.681 159.369 203.681 158.267 203.681 157.133Z" fill="#E4ECEF"/>
<path d="M246.322 25.5C247.179 25.5 248.035 25.5 248.918 25.5C249.361 26.4719 249.801 27.4453 250.239 28.42C250.365 28.6968 250.492 28.9735 250.623 29.2587C250.942 29.9738 251.23 30.7027 251.513 31.4327C251.391 31.6775 251.268 31.9222 251.142 32.1743C250.554 31.5962 249.967 31.0165 249.381 30.4362C249.054 30.1136 248.727 29.791 248.39 29.4585C247.505 28.5395 246.672 27.6667 245.951 26.6124C246.074 26.2453 246.196 25.8782 246.322 25.5Z" fill="#0092C9"/>
<path d="M162.152 248.719C163.296 249.726 164.033 250.976 164.817 252.265C165.022 252.593 165.022 252.593 165.23 252.928C166.231 254.559 166.231 254.559 166.231 255.394C165.619 255.394 165.007 255.394 164.377 255.394C163.156 253.302 162.687 251.066 162.152 248.719Z" fill="#B9B9BC"/>
<path d="M177.725 228.696C178.092 228.696 178.459 228.696 178.838 228.696C179.432 229.997 179.661 230.974 179.579 232.404C177.818 232.126 177.818 232.126 176.984 231.292C176.891 230.365 176.891 230.365 176.984 229.438C177.228 229.193 177.473 228.948 177.725 228.696Z" fill="#BFBFC1"/>
<path d="M79.0929 143.784C79.2153 143.784 79.3377 143.784 79.4637 143.784C79.4637 145.62 79.4637 147.455 79.4637 149.346C78.6072 149.101 77.7507 148.857 76.8682 148.605C76.8682 148.36 76.8682 148.115 76.8682 147.863C77.0388 147.696 77.2094 147.529 77.3853 147.357C78.0635 146.666 78.293 146.108 78.6063 145.198C78.6995 144.933 78.7927 144.667 78.8887 144.394C78.9561 144.193 79.0235 143.992 79.0929 143.784Z" fill="#F6F6F6"/>
<path d="M221.85 191.988C222.095 192.11 222.339 192.233 222.591 192.359C222.347 193.705 222.102 195.051 221.85 196.437C219.784 194.53 219.784 194.53 219.625 193.1C220.353 192.704 221.097 192.334 221.85 191.988Z" fill="#E5E9EB"/>
<path d="M184.4 190.875C185.639 192.734 185.253 194.886 184.956 197.039C184.895 197.33 184.833 197.621 184.77 197.92C184.029 197.179 184.029 197.179 183.943 196.01C183.949 195.546 183.954 195.083 183.959 194.606C183.962 194.144 183.964 193.682 183.967 193.206C184.029 191.987 184.029 191.987 184.4 190.875Z" fill="#0596CC"/>
<path d="M178.56 228.047C178.881 228.185 178.881 228.185 179.209 228.325C179.086 228.815 178.964 229.304 178.838 229.809C178.838 229.441 178.838 229.074 178.838 228.696C178.104 229.063 178.104 229.063 177.355 229.438C177.28 230.816 177.298 231.207 178.096 232.404C177.729 232.404 177.362 232.404 176.984 232.404C176.181 231.2 176.038 230.835 176.242 229.438C177.365 227.915 177.365 227.915 178.56 228.047Z" fill="#514F65"/>
<path d="M181.062 179.38C182.164 179.747 183.265 180.115 184.4 180.493C184.4 180.615 184.4 180.737 184.4 180.864C183.543 180.864 182.687 180.864 181.804 180.864C181.559 180.374 181.315 179.885 181.062 179.38Z" fill="#0295CB"/>
</svg>
